%TF.GenerationSoftware,KiCad,Pcbnew,(6.0.4)*%
%TF.CreationDate,2022-05-03T20:53:10-03:00*%
%TF.ProjectId,PXN_2119,50584e5f-3231-4313-992e-6b696361645f,rev?*%
%TF.SameCoordinates,Original*%
%TF.FileFunction,Copper,L2,Bot*%
%TF.FilePolarity,Positive*%
%FSLAX46Y46*%
G04 Gerber Fmt 4.6, Leading zero omitted, Abs format (unit mm)*
G04 Created by KiCad (PCBNEW (6.0.4)) date 2022-05-03 20:53:10*
%MOMM*%
%LPD*%
G01*
G04 APERTURE LIST*
%TA.AperFunction,ComponentPad*%
%ADD10R,1.575000X1.575000*%
%TD*%
%TA.AperFunction,ComponentPad*%
%ADD11C,1.575000*%
%TD*%
%TA.AperFunction,SMDPad,CuDef*%
%ADD12R,0.950000X1.050000*%
%TD*%
%TA.AperFunction,SMDPad,CuDef*%
%ADD13R,1.050000X0.950000*%
%TD*%
%TA.AperFunction,ComponentPad*%
%ADD14R,1.600000X1.600000*%
%TD*%
%TA.AperFunction,ComponentPad*%
%ADD15C,1.600000*%
%TD*%
%TA.AperFunction,ComponentPad*%
%ADD16R,1.524000X1.524000*%
%TD*%
%TA.AperFunction,ComponentPad*%
%ADD17C,1.524000*%
%TD*%
%TA.AperFunction,ViaPad*%
%ADD18C,0.800000*%
%TD*%
%TA.AperFunction,Conductor*%
%ADD19C,0.250000*%
%TD*%
G04 APERTURE END LIST*
D10*
%TO.P,H4,1,1*%
%TO.N,Net-(H4-Pad1)*%
X141059000Y-83097000D03*
D11*
%TO.P,H4,2,2*%
%TO.N,Net-(H4-Pad2)*%
X138519000Y-83097000D03*
%TO.P,H4,3,3*%
%TO.N,Net-(H4-Pad3)*%
X135979000Y-83097000D03*
%TO.P,H4,4,4*%
%TO.N,Net-(H4-Pad4)*%
X133439000Y-83097000D03*
%TO.P,H4,5,5*%
%TO.N,Net-(H4-Pad5)*%
X130899000Y-83097000D03*
%TO.P,H4,6,6*%
%TO.N,Net-(H4-Pad6)*%
X128359000Y-83097000D03*
%TO.P,H4,7,7*%
%TO.N,Net-(H4-Pad7)*%
X125819000Y-83097000D03*
%TO.P,H4,8,8*%
%TO.N,Net-(H4-Pad8)*%
X123279000Y-83097000D03*
%TD*%
D12*
%TO.P,R21,1,1*%
%TO.N,Net-(H10-Pad3)*%
X149314000Y-100736000D03*
%TO.P,R21,2,2*%
%TO.N,VCC*%
X149314000Y-98986000D03*
%TD*%
D13*
%TO.P,R37,1,1*%
%TO.N,Net-(H1-Pad6)*%
X182094000Y-94908000D03*
%TO.P,R37,2,2*%
%TO.N,/VCC_THR*%
X183844000Y-94908000D03*
%TD*%
D12*
%TO.P,R16,1,1*%
%TO.N,Net-(H4-Pad8)*%
X144234000Y-95684000D03*
%TO.P,R16,2,2*%
%TO.N,VCC*%
X144234000Y-97434000D03*
%TD*%
D14*
%TO.P,U4,1,SH/LD#*%
%TO.N,PB6*%
X139154000Y-110148000D03*
D15*
%TO.P,U4,2,CLK*%
%TO.N,PB4*%
X141694000Y-110148000D03*
%TO.P,U4,3,E*%
%TO.N,Net-(H10-Pad8)*%
X144234000Y-110148000D03*
%TO.P,U4,4,F*%
%TO.N,Net-(H10-Pad7)*%
X146774000Y-110148000D03*
%TO.P,U4,5,G*%
%TO.N,Net-(H10-Pad6)*%
X149314000Y-110148000D03*
%TO.P,U4,6,H*%
%TO.N,Net-(H10-Pad5)*%
X151854000Y-110148000D03*
%TO.P,U4,7,QH#*%
%TO.N,unconnected-(U4-Pad7)*%
X154394000Y-110148000D03*
%TO.P,U4,8,GND*%
%TO.N,GND*%
X156934000Y-110148000D03*
%TO.P,U4,9,QH*%
%TO.N,PB5*%
X156934000Y-102528000D03*
%TO.P,U4,10,SER*%
%TO.N,Net-(U2-Pad9)*%
X154394000Y-102528000D03*
%TO.P,U4,11,A*%
%TO.N,Net-(H10-Pad4)*%
X151854000Y-102528000D03*
%TO.P,U4,12,B*%
%TO.N,Net-(H10-Pad3)*%
X149314000Y-102528000D03*
%TO.P,U4,13,C*%
%TO.N,Net-(H10-Pad2)*%
X146774000Y-102528000D03*
%TO.P,U4,14,D*%
%TO.N,Net-(H10-Pad1)*%
X144234000Y-102528000D03*
%TO.P,U4,15,CLK/INH*%
%TO.N,GND*%
X141694000Y-102528000D03*
%TO.P,U4,16,VCC*%
%TO.N,VCC*%
X139154000Y-102528000D03*
%TD*%
D16*
%TO.P,P1,1,1*%
%TO.N,VCC*%
X110198000Y-83097000D03*
D17*
%TO.P,P1,2,2*%
X112738000Y-83097000D03*
%TO.P,P1,3,3*%
%TO.N,Net-(P1-Pad3)*%
X110198000Y-85637000D03*
%TO.P,P1,4,4*%
%TO.N,Net-(P1-Pad4)*%
X112738000Y-85637000D03*
%TO.P,P1,5,5*%
%TO.N,GND*%
X110198000Y-88177000D03*
%TO.P,P1,6,6*%
X112738000Y-88177000D03*
%TD*%
D12*
%TO.P,R26,1,1*%
%TO.N,Net-(H10-Pad6)*%
X149314000Y-111940000D03*
%TO.P,R26,2,2*%
%TO.N,VCC*%
X149314000Y-113690000D03*
%TD*%
D10*
%TO.P,H6,1,1*%
%TO.N,Net-(H3-Pad6)*%
X203289000Y-113475000D03*
D11*
%TO.P,H6,2,2*%
%TO.N,Net-(H3-Pad7)*%
X205829000Y-113475000D03*
%TO.P,H6,3,3*%
%TO.N,Net-(H3-Pad8)*%
X208369000Y-113475000D03*
%TD*%
D12*
%TO.P,R15,1,1*%
%TO.N,Net-(H4-Pad1)*%
X144234000Y-84480000D03*
%TO.P,R15,2,2*%
%TO.N,VCC*%
X144234000Y-82730000D03*
%TD*%
D10*
%TO.P,H8,1,1*%
%TO.N,GND*%
X209512000Y-102401000D03*
D11*
%TO.P,H8,2,2*%
X209512000Y-99861000D03*
%TO.P,H8,3,3*%
X209512000Y-97321000D03*
%TO.P,H8,4,4*%
X209512000Y-94781000D03*
%TO.P,H8,5,5*%
X209512000Y-92241000D03*
%TO.P,H8,6,6*%
X209512000Y-89701000D03*
%TD*%
D12*
%TO.P,R20,1,1*%
%TO.N,Net-(H10-Pad4)*%
X151854000Y-100736000D03*
%TO.P,R20,2,2*%
%TO.N,VCC*%
X151854000Y-98986000D03*
%TD*%
D14*
%TO.P,U5,1,SH/LD#*%
%TO.N,Net-(H3-Pad5)*%
X200241000Y-105068000D03*
D15*
%TO.P,U5,2,CLK*%
%TO.N,Net-(H3-Pad3)*%
X200241000Y-102528000D03*
%TO.P,U5,3,E*%
%TO.N,Net-(H2-Pad8)*%
X200241000Y-99988000D03*
%TO.P,U5,4,F*%
%TO.N,Net-(H2-Pad7)*%
X200241000Y-97448000D03*
%TO.P,U5,5,G*%
%TO.N,Net-(H2-Pad6)*%
X200241000Y-94908000D03*
%TO.P,U5,6,H*%
%TO.N,Net-(H2-Pad5)*%
X200241000Y-92368000D03*
%TO.P,U5,7,QH#*%
%TO.N,unconnected-(U5-Pad7)*%
X200241000Y-89828000D03*
%TO.P,U5,8,GND*%
%TO.N,GND*%
X200241000Y-87288000D03*
%TO.P,U5,9,QH*%
%TO.N,Net-(H3-Pad4)*%
X192621000Y-87288000D03*
%TO.P,U5,10,SER*%
%TO.N,Net-(U5-Pad10)*%
X192621000Y-89828000D03*
%TO.P,U5,11,A*%
%TO.N,Net-(H2-Pad4)*%
X192621000Y-92368000D03*
%TO.P,U5,12,B*%
%TO.N,Net-(H2-Pad3)*%
X192621000Y-94908000D03*
%TO.P,U5,13,C*%
%TO.N,Net-(H2-Pad2)*%
X192621000Y-97448000D03*
%TO.P,U5,14,D*%
%TO.N,Net-(H2-Pad1)*%
X192621000Y-99988000D03*
%TO.P,U5,15,CLK/INH*%
%TO.N,GND*%
X192621000Y-102528000D03*
%TO.P,U5,16,VCC*%
%TO.N,/VCC_THR*%
X192621000Y-105068000D03*
%TD*%
D12*
%TO.P,R25,1,1*%
%TO.N,Net-(H10-Pad7)*%
X146774000Y-111940000D03*
%TO.P,R25,2,2*%
%TO.N,VCC*%
X146774000Y-113690000D03*
%TD*%
D10*
%TO.P,H1,1,1*%
%TO.N,Net-(H1-Pad1)*%
X165316000Y-83351000D03*
D11*
%TO.P,H1,2,2*%
%TO.N,Net-(H1-Pad2)*%
X167856000Y-83351000D03*
%TO.P,H1,3,3*%
%TO.N,Net-(H1-Pad3)*%
X170396000Y-83351000D03*
%TO.P,H1,4,4*%
%TO.N,Net-(H1-Pad4)*%
X172936000Y-83351000D03*
%TO.P,H1,5,5*%
%TO.N,Net-(H1-Pad5)*%
X175476000Y-83351000D03*
%TO.P,H1,6,6*%
%TO.N,Net-(H1-Pad6)*%
X178016000Y-83351000D03*
%TO.P,H1,7,7*%
%TO.N,Net-(H1-Pad7)*%
X180556000Y-83351000D03*
%TO.P,H1,8,8*%
%TO.N,Net-(H1-Pad8)*%
X183096000Y-83351000D03*
%TD*%
D12*
%TO.P,R22,1,1*%
%TO.N,Net-(H10-Pad2)*%
X146774000Y-100736000D03*
%TO.P,R22,2,2*%
%TO.N,VCC*%
X146774000Y-98986000D03*
%TD*%
D13*
%TO.P,R33,1,1*%
%TO.N,Net-(H2-Pad2)*%
X190575000Y-97448000D03*
%TO.P,R33,2,2*%
%TO.N,/VCC_THR*%
X188825000Y-97448000D03*
%TD*%
D12*
%TO.P,R24,1,1*%
%TO.N,Net-(H10-Pad8)*%
X144234000Y-111940000D03*
%TO.P,R24,2,2*%
%TO.N,VCC*%
X144234000Y-113690000D03*
%TD*%
D13*
%TO.P,R28,1,1*%
%TO.N,Net-(H2-Pad5)*%
X202287000Y-92368000D03*
%TO.P,R28,2,2*%
%TO.N,/VCC_THR*%
X204037000Y-92368000D03*
%TD*%
D10*
%TO.P,H2,1,1*%
%TO.N,Net-(H2-Pad1)*%
X189700000Y-83351000D03*
D11*
%TO.P,H2,2,2*%
%TO.N,Net-(H2-Pad2)*%
X192240000Y-83351000D03*
%TO.P,H2,3,3*%
%TO.N,Net-(H2-Pad3)*%
X194780000Y-83351000D03*
%TO.P,H2,4,4*%
%TO.N,Net-(H2-Pad4)*%
X197320000Y-83351000D03*
%TO.P,H2,5,5*%
%TO.N,Net-(H2-Pad5)*%
X199860000Y-83351000D03*
%TO.P,H2,6,6*%
%TO.N,Net-(H2-Pad6)*%
X202400000Y-83351000D03*
%TO.P,H2,7,7*%
%TO.N,Net-(H2-Pad7)*%
X204940000Y-83351000D03*
%TO.P,H2,8,8*%
%TO.N,Net-(H2-Pad8)*%
X207480000Y-83351000D03*
%TD*%
D10*
%TO.P,H9,1,1*%
%TO.N,VCC*%
X96990000Y-113958000D03*
D11*
%TO.P,H9,2,2*%
%TO.N,GND*%
X99530000Y-113958000D03*
%TO.P,H9,3,3*%
%TO.N,PB7*%
X102070000Y-113958000D03*
%TO.P,H9,4,4*%
%TO.N,PB8*%
X104610000Y-113958000D03*
%TO.P,H9,5,5*%
%TO.N,PB9*%
X107150000Y-113958000D03*
%TO.P,H9,6,6*%
%TO.N,PA8*%
X109690000Y-113958000D03*
%TO.P,H9,7,7*%
%TO.N,PA9*%
X112230000Y-113958000D03*
%TO.P,H9,8,8*%
%TO.N,PA10*%
X114770000Y-113958000D03*
%TD*%
D13*
%TO.P,R31,1,1*%
%TO.N,Net-(H2-Pad8)*%
X202287000Y-99988000D03*
%TO.P,R31,2,2*%
%TO.N,/VCC_THR*%
X204037000Y-99988000D03*
%TD*%
%TO.P,R30,1,1*%
%TO.N,Net-(H2-Pad7)*%
X202287000Y-97448000D03*
%TO.P,R30,2,2*%
%TO.N,/VCC_THR*%
X204037000Y-97448000D03*
%TD*%
D16*
%TO.P,P2,1,1*%
%TO.N,VCC*%
X95720000Y-83097000D03*
D17*
%TO.P,P2,2,2*%
%TO.N,SWDIO*%
X98260000Y-83097000D03*
%TO.P,P2,3,3*%
%TO.N,SWCLK*%
X100800000Y-83097000D03*
%TO.P,P2,4,4*%
%TO.N,GND*%
X103340000Y-83097000D03*
%TD*%
D12*
%TO.P,R12,1,1*%
%TO.N,Net-(H4-Pad4)*%
X151854000Y-84480000D03*
%TO.P,R12,2,2*%
%TO.N,VCC*%
X151854000Y-82730000D03*
%TD*%
D13*
%TO.P,R32,1,1*%
%TO.N,Net-(H2-Pad1)*%
X190575000Y-99988000D03*
%TO.P,R32,2,2*%
%TO.N,/VCC_THR*%
X188825000Y-99988000D03*
%TD*%
D12*
%TO.P,R23,1,1*%
%TO.N,Net-(H10-Pad1)*%
X144234000Y-100736000D03*
%TO.P,R23,2,2*%
%TO.N,VCC*%
X144234000Y-98986000D03*
%TD*%
%TO.P,R14,1,1*%
%TO.N,Net-(H4-Pad2)*%
X146774000Y-84480000D03*
%TO.P,R14,2,2*%
%TO.N,VCC*%
X146774000Y-82730000D03*
%TD*%
D13*
%TO.P,R34,1,1*%
%TO.N,Net-(H2-Pad3)*%
X190575000Y-94908000D03*
%TO.P,R34,2,2*%
%TO.N,/VCC_THR*%
X188825000Y-94908000D03*
%TD*%
D14*
%TO.P,U6,1,SH/LD#*%
%TO.N,Net-(H3-Pad5)*%
X180048000Y-105068000D03*
D15*
%TO.P,U6,2,CLK*%
%TO.N,Net-(H3-Pad3)*%
X180048000Y-102528000D03*
%TO.P,U6,3,E*%
%TO.N,Net-(H1-Pad8)*%
X180048000Y-99988000D03*
%TO.P,U6,4,F*%
%TO.N,Net-(H1-Pad7)*%
X180048000Y-97448000D03*
%TO.P,U6,5,G*%
%TO.N,Net-(H1-Pad6)*%
X180048000Y-94908000D03*
%TO.P,U6,6,H*%
%TO.N,Net-(H1-Pad5)*%
X180048000Y-92368000D03*
%TO.P,U6,7,QH#*%
%TO.N,unconnected-(U6-Pad7)*%
X180048000Y-89828000D03*
%TO.P,U6,8,GND*%
%TO.N,GND*%
X180048000Y-87288000D03*
%TO.P,U6,9,QH*%
%TO.N,Net-(U5-Pad10)*%
X172428000Y-87288000D03*
%TO.P,U6,10,SER*%
%TO.N,unconnected-(U6-Pad10)*%
X172428000Y-89828000D03*
%TO.P,U6,11,A*%
%TO.N,Net-(H1-Pad4)*%
X172428000Y-92368000D03*
%TO.P,U6,12,B*%
%TO.N,Net-(H1-Pad3)*%
X172428000Y-94908000D03*
%TO.P,U6,13,C*%
%TO.N,Net-(H1-Pad2)*%
X172428000Y-97448000D03*
%TO.P,U6,14,D*%
%TO.N,Net-(H1-Pad1)*%
X172428000Y-99988000D03*
%TO.P,U6,15,CLK/INH*%
%TO.N,GND*%
X172428000Y-102528000D03*
%TO.P,U6,16,VCC*%
%TO.N,/VCC_THR*%
X172428000Y-105068000D03*
%TD*%
D12*
%TO.P,R19,1,1*%
%TO.N,Net-(H4-Pad5)*%
X151854000Y-95684000D03*
%TO.P,R19,2,2*%
%TO.N,VCC*%
X151854000Y-97434000D03*
%TD*%
D10*
%TO.P,H10,1,1*%
%TO.N,Net-(H10-Pad1)*%
X124549000Y-113958000D03*
D11*
%TO.P,H10,2,2*%
%TO.N,Net-(H10-Pad2)*%
X127089000Y-113958000D03*
%TO.P,H10,3,3*%
%TO.N,Net-(H10-Pad3)*%
X129629000Y-113958000D03*
%TO.P,H10,4,4*%
%TO.N,Net-(H10-Pad4)*%
X132169000Y-113958000D03*
%TO.P,H10,5,5*%
%TO.N,Net-(H10-Pad5)*%
X134709000Y-113958000D03*
%TO.P,H10,6,6*%
%TO.N,Net-(H10-Pad6)*%
X137249000Y-113958000D03*
%TO.P,H10,7,7*%
%TO.N,Net-(H10-Pad7)*%
X139789000Y-113958000D03*
%TO.P,H10,8,8*%
%TO.N,Net-(H10-Pad8)*%
X142329000Y-113958000D03*
%TD*%
D13*
%TO.P,R42,1,1*%
%TO.N,Net-(H1-Pad3)*%
X170382000Y-94908000D03*
%TO.P,R42,2,2*%
%TO.N,/VCC_THR*%
X168632000Y-94908000D03*
%TD*%
D14*
%TO.P,U2,1,SH/LD#*%
%TO.N,PB6*%
X139154000Y-93892000D03*
D15*
%TO.P,U2,2,CLK*%
%TO.N,PB4*%
X141694000Y-93892000D03*
%TO.P,U2,3,E*%
%TO.N,Net-(H4-Pad8)*%
X144234000Y-93892000D03*
%TO.P,U2,4,F*%
%TO.N,Net-(H4-Pad7)*%
X146774000Y-93892000D03*
%TO.P,U2,5,G*%
%TO.N,Net-(H4-Pad6)*%
X149314000Y-93892000D03*
%TO.P,U2,6,H*%
%TO.N,Net-(H4-Pad5)*%
X151854000Y-93892000D03*
%TO.P,U2,7,QH#*%
%TO.N,unconnected-(U2-Pad7)*%
X154394000Y-93892000D03*
%TO.P,U2,8,GND*%
%TO.N,GND*%
X156934000Y-93892000D03*
%TO.P,U2,9,QH*%
%TO.N,Net-(U2-Pad9)*%
X156934000Y-86272000D03*
%TO.P,U2,10,SER*%
%TO.N,unconnected-(U2-Pad10)*%
X154394000Y-86272000D03*
%TO.P,U2,11,A*%
%TO.N,Net-(H4-Pad4)*%
X151854000Y-86272000D03*
%TO.P,U2,12,B*%
%TO.N,Net-(H4-Pad3)*%
X149314000Y-86272000D03*
%TO.P,U2,13,C*%
%TO.N,Net-(H4-Pad2)*%
X146774000Y-86272000D03*
%TO.P,U2,14,D*%
%TO.N,Net-(H4-Pad1)*%
X144234000Y-86272000D03*
%TO.P,U2,15,CLK/INH*%
%TO.N,GND*%
X141694000Y-86272000D03*
%TO.P,U2,16,VCC*%
%TO.N,VCC*%
X139154000Y-86272000D03*
%TD*%
D13*
%TO.P,R39,1,1*%
%TO.N,Net-(H1-Pad8)*%
X182094000Y-99988000D03*
%TO.P,R39,2,2*%
%TO.N,/VCC_THR*%
X183844000Y-99988000D03*
%TD*%
D12*
%TO.P,R27,1,1*%
%TO.N,Net-(H10-Pad5)*%
X151854000Y-111940000D03*
%TO.P,R27,2,2*%
%TO.N,VCC*%
X151854000Y-113690000D03*
%TD*%
%TO.P,R18,1,1*%
%TO.N,Net-(H4-Pad6)*%
X149314000Y-95684000D03*
%TO.P,R18,2,2*%
%TO.N,VCC*%
X149314000Y-97434000D03*
%TD*%
D13*
%TO.P,R40,1,1*%
%TO.N,Net-(H1-Pad1)*%
X170382000Y-99988000D03*
%TO.P,R40,2,2*%
%TO.N,/VCC_THR*%
X168632000Y-99988000D03*
%TD*%
D10*
%TO.P,H7,1,1*%
%TO.N,GND*%
X160109000Y-92241000D03*
D11*
%TO.P,H7,2,2*%
X160109000Y-94781000D03*
%TO.P,H7,3,3*%
X160109000Y-97321000D03*
%TO.P,H7,4,4*%
X160109000Y-99861000D03*
%TO.P,H7,5,5*%
X160109000Y-102401000D03*
%TO.P,H7,6,6*%
X160109000Y-104941000D03*
%TD*%
D13*
%TO.P,R35,1,1*%
%TO.N,Net-(H2-Pad4)*%
X190575000Y-92495000D03*
%TO.P,R35,2,2*%
%TO.N,/VCC_THR*%
X188825000Y-92495000D03*
%TD*%
%TO.P,R38,1,1*%
%TO.N,Net-(H1-Pad7)*%
X182094000Y-97448000D03*
%TO.P,R38,2,2*%
%TO.N,/VCC_THR*%
X183844000Y-97448000D03*
%TD*%
%TO.P,R29,1,1*%
%TO.N,Net-(H2-Pad6)*%
X202287000Y-94908000D03*
%TO.P,R29,2,2*%
%TO.N,/VCC_THR*%
X204037000Y-94908000D03*
%TD*%
D12*
%TO.P,R17,1,1*%
%TO.N,Net-(H4-Pad7)*%
X146774000Y-95684000D03*
%TO.P,R17,2,2*%
%TO.N,VCC*%
X146774000Y-97434000D03*
%TD*%
D13*
%TO.P,R41,1,1*%
%TO.N,Net-(H1-Pad2)*%
X170382000Y-97448000D03*
%TO.P,R41,2,2*%
%TO.N,/VCC_THR*%
X168632000Y-97448000D03*
%TD*%
D10*
%TO.P,H3,1,1*%
%TO.N,/VCC_THR*%
X177762000Y-113450000D03*
D11*
%TO.P,H3,2,2*%
%TO.N,GND*%
X180302000Y-113450000D03*
%TO.P,H3,3,3*%
%TO.N,Net-(H3-Pad3)*%
X182842000Y-113450000D03*
%TO.P,H3,4,4*%
%TO.N,Net-(H3-Pad4)*%
X185382000Y-113450000D03*
%TO.P,H3,5,5*%
%TO.N,Net-(H3-Pad5)*%
X187922000Y-113450000D03*
%TO.P,H3,6,6*%
%TO.N,Net-(H3-Pad6)*%
X190462000Y-113450000D03*
%TO.P,H3,7,7*%
%TO.N,Net-(H3-Pad7)*%
X193002000Y-113450000D03*
%TO.P,H3,8,8*%
%TO.N,Net-(H3-Pad8)*%
X195542000Y-113450000D03*
%TD*%
D10*
%TO.P,H5,1,1*%
%TO.N,PB11*%
X117437000Y-83224000D03*
D11*
%TO.P,H5,2,2*%
%TO.N,PB10*%
X119977000Y-83224000D03*
%TD*%
D13*
%TO.P,R36,1,1*%
%TO.N,Net-(H1-Pad5)*%
X182221000Y-92368000D03*
%TO.P,R36,2,2*%
%TO.N,/VCC_THR*%
X183971000Y-92368000D03*
%TD*%
%TO.P,R43,1,1*%
%TO.N,Net-(H1-Pad4)*%
X170382000Y-92368000D03*
%TO.P,R43,2,2*%
%TO.N,/VCC_THR*%
X168632000Y-92368000D03*
%TD*%
D12*
%TO.P,R13,1,1*%
%TO.N,Net-(H4-Pad3)*%
X149314000Y-84480000D03*
%TO.P,R13,2,2*%
%TO.N,VCC*%
X149314000Y-82730000D03*
%TD*%
D18*
%TO.N,+5V*%
X85927000Y-102161400D03*
X91500000Y-83500000D03*
%TO.N,BOOT0*%
X108426900Y-103634800D03*
X111468100Y-86907000D03*
%TO.N,GND*%
X120505100Y-103178500D03*
X116970800Y-92205100D03*
X123723500Y-106434900D03*
X99926500Y-110056000D03*
%TO.N,Net-(H1-Pad1)*%
X167595300Y-100800300D03*
%TO.N,PA10*%
X112604500Y-97038600D03*
%TO.N,PA8*%
X111462700Y-94223100D03*
%TO.N,PA9*%
X113795000Y-98828400D03*
%TO.N,PB10*%
X118103900Y-93991900D03*
%TO.N,PB4*%
X109652700Y-101432300D03*
%TO.N,PB5*%
X112056100Y-99959800D03*
X135912000Y-101290700D03*
%TO.N,PB6*%
X105801100Y-101871000D03*
%TO.N,PB7*%
X107331500Y-102611900D03*
%TO.N,PB8*%
X113317300Y-101227800D03*
%TO.N,PB9*%
X111887600Y-104031600D03*
%TO.N,PC15*%
X117798700Y-103739700D03*
X116078400Y-108976900D03*
%TO.N,Net-(H1-Pad6)*%
X174442200Y-94908000D03*
%TO.N,Net-(H2-Pad1)*%
X198663800Y-85547500D03*
%TO.N,SWCLK*%
X107250000Y-98750000D03*
%TO.N,SWDIO*%
X108121700Y-95107200D03*
%TO.N,Net-(H10-Pad1)*%
X140528400Y-108264700D03*
%TO.N,Net-(H10-Pad4)*%
X145327100Y-111242800D03*
%TO.N,Net-(H10-Pad6)*%
X147910800Y-113017300D03*
%TO.N,VCC*%
X115780100Y-92778900D03*
X116358600Y-101316700D03*
X98495800Y-96447900D03*
X126448000Y-102226500D03*
%TO.N,/VCC_THR*%
X183844000Y-105275500D03*
%TD*%
D19*
%TO.N,+5V*%
X86902200Y-89847800D02*
X86902200Y-101186200D01*
X91500000Y-83500000D02*
X91500000Y-85250000D01*
X91500000Y-85250000D02*
X86902200Y-89847800D01*
X86902200Y-101186200D02*
X85927000Y-102161400D01*
%TO.N,BOOT0*%
X108426900Y-101555500D02*
X108426900Y-103634800D01*
X109297400Y-100685000D02*
X108426900Y-101555500D01*
X111468100Y-86907000D02*
X111468100Y-91185100D01*
X109297400Y-93355800D02*
X109297400Y-100685000D01*
X111468100Y-91185100D02*
X109297400Y-93355800D01*
%TO.N,GND*%
X179475800Y-113824600D02*
X178011100Y-115289300D01*
X160109000Y-104941000D02*
X160109000Y-102401000D01*
X180302000Y-113450000D02*
X179475800Y-113450000D01*
X115495300Y-93519800D02*
X116110400Y-93519800D01*
X209512000Y-94781000D02*
X209512000Y-97321000D01*
X160109000Y-99861000D02*
X160109000Y-97321000D01*
X99530000Y-110452500D02*
X99926500Y-110056000D01*
X209512000Y-99861000D02*
X209512000Y-102401000D01*
X112738000Y-90762500D02*
X115495300Y-93519800D01*
X173612600Y-102528000D02*
X175167500Y-100973100D01*
X192621000Y-102528000D02*
X198826400Y-96322600D01*
X160109000Y-104941000D02*
X156934000Y-108116000D01*
X116970800Y-92659400D02*
X116970800Y-92205100D01*
X160109000Y-93892000D02*
X160109000Y-92241000D01*
X198826400Y-88702600D02*
X200241000Y-87288000D01*
X160109000Y-97321000D02*
X160109000Y-94781000D01*
X120505100Y-103216500D02*
X120505100Y-103178500D01*
X108847100Y-89527900D02*
X110198000Y-88177000D01*
X99926500Y-108968500D02*
X108847100Y-100047900D01*
X99530000Y-113958000D02*
X99530000Y-110452500D01*
X198826400Y-96322600D02*
X198826400Y-88702600D01*
X209512000Y-89701000D02*
X209512000Y-92241000D01*
X99926500Y-110056000D02*
X99926500Y-108968500D01*
X108420000Y-88177000D02*
X110198000Y-88177000D01*
X160109000Y-93892000D02*
X156934000Y-93892000D01*
X179475800Y-113450000D02*
X179475800Y-113824600D01*
X156934000Y-110449100D02*
X156934000Y-110148000D01*
X123723500Y-106434900D02*
X120505100Y-103216500D01*
X103340000Y-83097000D02*
X108420000Y-88177000D01*
X173612600Y-106760600D02*
X179475800Y-112623800D01*
X112738000Y-88177000D02*
X112738000Y-90762500D01*
X173612600Y-102528000D02*
X172428000Y-102528000D01*
X108847100Y-100047900D02*
X108847100Y-89527900D01*
X160109000Y-94781000D02*
X160109000Y-93892000D01*
X156934000Y-108116000D02*
X156934000Y-110148000D01*
X209512000Y-97321000D02*
X209512000Y-99861000D01*
X175167500Y-100973100D02*
X175167500Y-92168500D01*
X161774200Y-115289300D02*
X156934000Y-110449100D01*
X209512000Y-92241000D02*
X209512000Y-94781000D01*
X173612600Y-102528000D02*
X173612600Y-106760600D01*
X179475800Y-112623800D02*
X179475800Y-113450000D01*
X178011100Y-115289300D02*
X161774200Y-115289300D01*
X160109000Y-102401000D02*
X160109000Y-99861000D01*
X116110400Y-93519800D02*
X116970800Y-92659400D01*
X175167500Y-92168500D02*
X180048000Y-87288000D01*
%TO.N,Net-(H1-Pad1)*%
X165316000Y-98521000D02*
X167595300Y-100800300D01*
X172428000Y-99988000D02*
X170382000Y-99988000D01*
X165316000Y-83351000D02*
X165316000Y-98521000D01*
%TO.N,Net-(H1-Pad2)*%
X173553400Y-96322600D02*
X173553400Y-91659300D01*
X172428000Y-97448000D02*
X173553400Y-96322600D01*
X168972000Y-82235000D02*
X167856000Y-83351000D01*
X173471300Y-82235000D02*
X168972000Y-82235000D01*
X172428000Y-97448000D02*
X170382000Y-97448000D01*
X173553400Y-91659300D02*
X174053000Y-91159700D01*
X174053000Y-82816700D02*
X173471300Y-82235000D01*
X174053000Y-91159700D02*
X174053000Y-82816700D01*
%TO.N,Net-(H1-Pad3)*%
X170396000Y-83351000D02*
X169531600Y-84215400D01*
X170382000Y-94908000D02*
X170382000Y-94107700D01*
X172428000Y-94908000D02*
X170382000Y-94908000D01*
X169531600Y-93257300D02*
X170382000Y-94107700D01*
X169531600Y-84215400D02*
X169531600Y-93257300D01*
%TO.N,Net-(H1-Pad4)*%
X172428000Y-92368000D02*
X170382000Y-92368000D01*
X172936000Y-83351000D02*
X170382000Y-85905000D01*
X170382000Y-85905000D02*
X170382000Y-92368000D01*
%TO.N,Net-(H1-Pad5)*%
X181871000Y-91217700D02*
X182221000Y-91567700D01*
X181871000Y-83042100D02*
X181871000Y-91217700D01*
X176589300Y-82237700D02*
X181066600Y-82237700D01*
X181066600Y-82237700D02*
X181871000Y-83042100D01*
X180048000Y-92368000D02*
X182221000Y-92368000D01*
X175476000Y-83351000D02*
X176589300Y-82237700D01*
X182221000Y-92368000D02*
X182221000Y-91567700D01*
%TO.N,PA10*%
X113031100Y-97038600D02*
X112604500Y-97038600D01*
X115085100Y-113642900D02*
X115085100Y-99092600D01*
X114770000Y-113958000D02*
X115085100Y-113642900D01*
X115085100Y-99092600D02*
X113031100Y-97038600D01*
%TO.N,PA8*%
X114120000Y-109528000D02*
X114120000Y-100179300D01*
X111462700Y-97522000D02*
X111462700Y-94223100D01*
X109690000Y-113958000D02*
X114120000Y-109528000D01*
X114120000Y-100179300D02*
X111462700Y-97522000D01*
%TO.N,PA9*%
X114589000Y-99622400D02*
X113795000Y-98828400D01*
X112230000Y-113958000D02*
X114589000Y-111599000D01*
X114589000Y-111599000D02*
X114589000Y-99622400D01*
%TO.N,PB10*%
X118103900Y-85097100D02*
X118103900Y-93991900D01*
X119977000Y-83224000D02*
X118103900Y-85097100D01*
%TO.N,PB4*%
X110247600Y-100837400D02*
X109652700Y-101432300D01*
X142586400Y-99836400D02*
X147341600Y-99836400D01*
X147904900Y-103937100D02*
X141694000Y-110148000D01*
X147904900Y-100399700D02*
X147904900Y-103937100D01*
X118404400Y-94717200D02*
X115022700Y-94717200D01*
X140502100Y-92700100D02*
X120421500Y-92700100D01*
X141694000Y-93892000D02*
X141694000Y-98944000D01*
X141694000Y-98944000D02*
X142586400Y-99836400D01*
X110247600Y-93252400D02*
X110247600Y-100837400D01*
X111000000Y-92500000D02*
X110247600Y-93252400D01*
X115022700Y-94717200D02*
X112805500Y-92500000D01*
X112805500Y-92500000D02*
X111000000Y-92500000D01*
X120421500Y-92700100D02*
X118404400Y-94717200D01*
X141694000Y-93892000D02*
X140502100Y-92700100D01*
X147341600Y-99836400D02*
X147904900Y-100399700D01*
%TO.N,PB5*%
X130868900Y-96247600D02*
X115240900Y-96247600D01*
X111250000Y-93000000D02*
X110710200Y-93539800D01*
X110710200Y-93539800D02*
X110710200Y-98613900D01*
X115240900Y-96247600D02*
X111993300Y-93000000D01*
X135912000Y-101290700D02*
X130868900Y-96247600D01*
X110710200Y-98613900D02*
X112056100Y-99959800D01*
X111993300Y-93000000D02*
X111250000Y-93000000D01*
%TO.N,PB6*%
X139154000Y-95017300D02*
X140322200Y-96185500D01*
X120428000Y-115072000D02*
X99067700Y-115072000D01*
X140322200Y-96185500D02*
X140322200Y-107076700D01*
X98404100Y-114408400D02*
X98404100Y-109268000D01*
X139154000Y-110148000D02*
X125352000Y-110148000D01*
X139154000Y-93892000D02*
X139154000Y-95017300D01*
X99067700Y-115072000D02*
X98404100Y-114408400D01*
X125352000Y-110148000D02*
X120428000Y-115072000D01*
X98404100Y-109268000D02*
X105801100Y-101871000D01*
X139154000Y-108244900D02*
X139154000Y-110148000D01*
X140322200Y-107076700D02*
X139154000Y-108244900D01*
%TO.N,PB7*%
X102070000Y-107873400D02*
X102070000Y-113958000D01*
X107331500Y-102611900D02*
X102070000Y-107873400D01*
%TO.N,PB8*%
X104610000Y-109935100D02*
X104610000Y-113958000D01*
X113317300Y-101227800D02*
X104610000Y-109935100D01*
%TO.N,PB9*%
X107150000Y-113958000D02*
X111887600Y-109220400D01*
X111887600Y-109220400D02*
X111887600Y-104031600D01*
%TO.N,PC15*%
X116078400Y-108976900D02*
X117798700Y-107256600D01*
X117798700Y-107256600D02*
X117798700Y-103739700D01*
%TO.N,Net-(H1-Pad6)*%
X174503400Y-94846800D02*
X174442200Y-94908000D01*
X178016000Y-83351000D02*
X174503400Y-86863600D01*
X182094000Y-94908000D02*
X180048000Y-94908000D01*
X174503400Y-86863600D02*
X174503400Y-94846800D01*
%TO.N,Net-(H1-Pad7)*%
X180048000Y-97448000D02*
X178900300Y-96300300D01*
X181204400Y-87771500D02*
X181204400Y-83999400D01*
X179665600Y-88558000D02*
X180417900Y-88558000D01*
X178900300Y-96300300D02*
X178900300Y-89323300D01*
X182094000Y-97448000D02*
X180048000Y-97448000D01*
X181204400Y-83999400D02*
X180556000Y-83351000D01*
X178900300Y-89323300D02*
X179665600Y-88558000D01*
X180417900Y-88558000D02*
X181204400Y-87771500D01*
%TO.N,Net-(H1-Pad8)*%
X180048000Y-99988000D02*
X182094000Y-99988000D01*
X182993600Y-98288100D02*
X182094000Y-99187700D01*
X183096000Y-93489000D02*
X182993600Y-93591400D01*
X183096000Y-83351000D02*
X183096000Y-93489000D01*
X182094000Y-99988000D02*
X182094000Y-99187700D01*
X182993600Y-93591400D02*
X182993600Y-98288100D01*
%TO.N,Net-(H2-Pad1)*%
X198376100Y-94232900D02*
X198376100Y-85835200D01*
X192621000Y-99988000D02*
X198376100Y-94232900D01*
X198376100Y-85835200D02*
X198663800Y-85547500D01*
X192621000Y-99988000D02*
X190575000Y-99988000D01*
%TO.N,Net-(H2-Pad2)*%
X198505500Y-82962600D02*
X197721800Y-82178900D01*
X197914400Y-92154600D02*
X197914400Y-84531800D01*
X192621000Y-97448000D02*
X197914400Y-92154600D01*
X190575000Y-97448000D02*
X192621000Y-97448000D01*
X193412100Y-82178900D02*
X192240000Y-83351000D01*
X197914400Y-84531800D02*
X198505500Y-83940700D01*
X197721800Y-82178900D02*
X193412100Y-82178900D01*
X198505500Y-83940700D02*
X198505500Y-82962600D01*
%TO.N,Net-(H2-Pad3)*%
X190575000Y-94908000D02*
X192621000Y-94908000D01*
X194780000Y-86776900D02*
X193143500Y-88413400D01*
X193143500Y-88413400D02*
X192345400Y-88413400D01*
X189724600Y-93257300D02*
X190575000Y-94107700D01*
X190575000Y-94908000D02*
X190575000Y-94107700D01*
X189724600Y-91034200D02*
X189724600Y-93257300D01*
X192345400Y-88413400D02*
X189724600Y-91034200D01*
X194780000Y-83351000D02*
X194780000Y-86776900D01*
%TO.N,Net-(H2-Pad4)*%
X197320000Y-83351000D02*
X197320000Y-87669000D01*
X192494000Y-92495000D02*
X190575000Y-92495000D01*
X197320000Y-87669000D02*
X192621000Y-92368000D01*
X192621000Y-92368000D02*
X192494000Y-92495000D01*
%TO.N,Net-(H2-Pad5)*%
X199860000Y-83351000D02*
X201398600Y-84889600D01*
X201398600Y-84889600D02*
X201398600Y-91210300D01*
X201398600Y-91210300D02*
X201398700Y-91210300D01*
X201398700Y-91210300D02*
X201756000Y-91567700D01*
X202287000Y-92368000D02*
X202287000Y-91567700D01*
X201756000Y-91567700D02*
X202287000Y-91567700D01*
X200241000Y-92368000D02*
X201398700Y-91210300D01*
%TO.N,Net-(H2-Pad6)*%
X202287000Y-94107700D02*
X203137400Y-93257300D01*
X203137400Y-93257300D02*
X203137400Y-84088400D01*
X200241000Y-94908000D02*
X202287000Y-94908000D01*
X203137400Y-84088400D02*
X202400000Y-83351000D01*
X202287000Y-94908000D02*
X202287000Y-94107700D01*
%TO.N,Net-(H2-Pad7)*%
X202287000Y-96647700D02*
X203806400Y-96647700D01*
X202287000Y-97448000D02*
X202287000Y-96647700D01*
X203806400Y-96647700D02*
X204940000Y-95514100D01*
X200241000Y-97448000D02*
X202287000Y-97448000D01*
X204940000Y-95514100D02*
X204940000Y-83351000D01*
%TO.N,Net-(H2-Pad8)*%
X202287000Y-100788300D02*
X202287000Y-99988000D01*
X200241000Y-99988000D02*
X202287000Y-99988000D01*
X207480000Y-83351000D02*
X207480000Y-98770000D01*
X205461700Y-100788300D02*
X202287000Y-100788300D01*
X207480000Y-98770000D02*
X205461700Y-100788300D01*
%TO.N,Net-(H3-Pad3)*%
X182842000Y-113450000D02*
X178898600Y-109506600D01*
X178898600Y-103677400D02*
X180048000Y-102528000D01*
X178898600Y-109506600D02*
X178898600Y-103677400D01*
%TO.N,Net-(H3-Pad4)*%
X185382000Y-113450000D02*
X185382000Y-94398100D01*
X185382000Y-94398100D02*
X192492100Y-87288000D01*
X192492100Y-87288000D02*
X192621000Y-87288000D01*
%TO.N,Net-(H3-Pad5)*%
X184112000Y-113765200D02*
X184112000Y-110257300D01*
X186807400Y-114564600D02*
X184911400Y-114564600D01*
X184911400Y-114564600D02*
X184112000Y-113765200D01*
X184112000Y-110257300D02*
X180048000Y-106193300D01*
X180048000Y-105068000D02*
X180048000Y-106193300D01*
X187922000Y-113450000D02*
X186807400Y-114564600D01*
X196304000Y-105068000D02*
X187922000Y-113450000D01*
X200241000Y-105068000D02*
X196304000Y-105068000D01*
%TO.N,Net-(H3-Pad6)*%
X190462000Y-113450000D02*
X191574900Y-114562900D01*
X201031200Y-112330000D02*
X202176200Y-113475000D01*
X191574900Y-114562900D02*
X193470000Y-114562900D01*
X195070700Y-112330000D02*
X201031200Y-112330000D01*
X194272000Y-113760900D02*
X194272000Y-113128700D01*
X203289000Y-113475000D02*
X202176200Y-113475000D01*
X194272000Y-113128700D02*
X195070700Y-112330000D01*
X193470000Y-114562900D02*
X194272000Y-113760900D01*
%TO.N,Net-(H3-Pad7)*%
X205829000Y-113475000D02*
X204228200Y-111874200D01*
X194577800Y-111874200D02*
X193002000Y-113450000D01*
X204228200Y-111874200D02*
X194577800Y-111874200D01*
%TO.N,Net-(H3-Pad8)*%
X196691600Y-114599600D02*
X207244400Y-114599600D01*
X195542000Y-113450000D02*
X196691600Y-114599600D01*
X207244400Y-114599600D02*
X208369000Y-113475000D01*
%TO.N,Net-(H4-Pad1)*%
X141059000Y-83097000D02*
X139946200Y-83097000D01*
X144234000Y-86272000D02*
X143079500Y-87426500D01*
X138673700Y-87426500D02*
X137983800Y-86736600D01*
X139946200Y-83877700D02*
X139946200Y-83097000D01*
X137983800Y-85840100D02*
X139946200Y-83877700D01*
X143079500Y-87426500D02*
X138673700Y-87426500D01*
X137983800Y-86736600D02*
X137983800Y-85840100D01*
X144234000Y-86272000D02*
X144234000Y-84480000D01*
%TO.N,SWCLK*%
X107250000Y-98750000D02*
X107131400Y-98750000D01*
X107131400Y-98750000D02*
X100800000Y-92418600D01*
X100800000Y-92418600D02*
X100800000Y-83097000D01*
%TO.N,SWDIO*%
X99347300Y-82009700D02*
X101259600Y-82009700D01*
X102070000Y-89055500D02*
X108121700Y-95107200D01*
X98260000Y-83097000D02*
X99347300Y-82009700D01*
X102070000Y-82820100D02*
X102070000Y-89055500D01*
X101259600Y-82009700D02*
X102070000Y-82820100D01*
%TO.N,Net-(H4-Pad2)*%
X137533500Y-86923200D02*
X137533500Y-84082500D01*
X146774000Y-86272000D02*
X145169200Y-87876800D01*
X137533500Y-84082500D02*
X138519000Y-83097000D01*
X145169200Y-87876800D02*
X138487100Y-87876800D01*
X146774000Y-84480000D02*
X146774000Y-86272000D01*
X138487100Y-87876800D02*
X137533500Y-86923200D01*
%TO.N,Net-(H4-Pad3)*%
X135979000Y-86005700D02*
X138300400Y-88327100D01*
X138300400Y-88327100D02*
X147258900Y-88327100D01*
X147258900Y-88327100D02*
X149314000Y-86272000D01*
X135979000Y-83097000D02*
X135979000Y-86005700D01*
X149314000Y-86272000D02*
X149314000Y-84480000D01*
%TO.N,Net-(H4-Pad4)*%
X133439000Y-84102600D02*
X138113800Y-88777400D01*
X138113800Y-88777400D02*
X149348600Y-88777400D01*
X133439000Y-83097000D02*
X133439000Y-84102600D01*
X151854000Y-84480000D02*
X151854000Y-86272000D01*
X149348600Y-88777400D02*
X151854000Y-86272000D01*
%TO.N,Net-(H4-Pad5)*%
X151854000Y-95684000D02*
X151854000Y-93892000D01*
X130899000Y-83097000D02*
X137029700Y-89227700D01*
X137029700Y-89227700D02*
X147189700Y-89227700D01*
X147189700Y-89227700D02*
X151854000Y-93892000D01*
%TO.N,Net-(H4-Pad6)*%
X134943100Y-89681100D02*
X145103100Y-89681100D01*
X149314000Y-95684000D02*
X149314000Y-93892000D01*
X145103100Y-89681100D02*
X149314000Y-93892000D01*
X128359000Y-83097000D02*
X134943100Y-89681100D01*
%TO.N,Net-(H4-Pad7)*%
X133527000Y-90805000D02*
X125819000Y-83097000D01*
X143687000Y-90805000D02*
X133527000Y-90805000D01*
X146774000Y-93892000D02*
X143687000Y-90805000D01*
X146774000Y-93892000D02*
X146774000Y-95684000D01*
%TO.N,Net-(H4-Pad8)*%
X144234000Y-95684000D02*
X144234000Y-93892000D01*
X132352300Y-92170300D02*
X123279000Y-83097000D01*
X142512300Y-92170300D02*
X132352300Y-92170300D01*
X144234000Y-93892000D02*
X142512300Y-92170300D01*
%TO.N,Net-(H10-Pad1)*%
X144234000Y-104559100D02*
X144234000Y-102528000D01*
X144234000Y-100736000D02*
X144234000Y-102528000D01*
X140528400Y-108264700D02*
X144234000Y-104559100D01*
%TO.N,Net-(H10-Pad2)*%
X140080700Y-111322200D02*
X140503600Y-110899300D01*
X146774000Y-103044900D02*
X146774000Y-102528000D01*
X129724800Y-111322200D02*
X140080700Y-111322200D01*
X127089000Y-113958000D02*
X129724800Y-111322200D01*
X140503600Y-110899300D02*
X140503600Y-109315300D01*
X146774000Y-102528000D02*
X146774000Y-100736000D01*
X140503600Y-109315300D02*
X146774000Y-103044900D01*
%TO.N,Net-(H10-Pad3)*%
X149314000Y-103403700D02*
X149314000Y-102528000D01*
X129629000Y-113958000D02*
X131814500Y-111772500D01*
X149314000Y-102528000D02*
X149314000Y-100736000D01*
X142964000Y-110492900D02*
X142964000Y-109753700D01*
X142964000Y-109753700D02*
X149314000Y-103403700D01*
X141684400Y-111772500D02*
X142964000Y-110492900D01*
X131814500Y-111772500D02*
X141684400Y-111772500D01*
%TO.N,Net-(H10-Pad4)*%
X145382100Y-108999900D02*
X145382100Y-111187800D01*
X145382100Y-111187800D02*
X145327100Y-111242800D01*
X151854000Y-100736000D02*
X151854000Y-102528000D01*
X151854000Y-102528000D02*
X145382100Y-108999900D01*
%TO.N,Net-(H10-Pad5)*%
X151854000Y-110148000D02*
X151854000Y-111940000D01*
%TO.N,Net-(H10-Pad6)*%
X149314000Y-111940000D02*
X149314000Y-110148000D01*
X147910800Y-113017300D02*
X148513700Y-112414400D01*
X148513700Y-112414400D02*
X148513700Y-111940000D01*
X149314000Y-111940000D02*
X148513700Y-111940000D01*
%TO.N,Net-(H10-Pad7)*%
X140956600Y-112790400D02*
X145123300Y-112790400D01*
X145123300Y-112790400D02*
X145973700Y-111940000D01*
X146774000Y-111940000D02*
X145973700Y-111940000D01*
X146774000Y-110148000D02*
X146774000Y-111940000D01*
X139789000Y-113958000D02*
X140956600Y-112790400D01*
%TO.N,Net-(H10-Pad8)*%
X139910000Y-112222800D02*
X143150900Y-112222800D01*
X138630100Y-114410800D02*
X138630100Y-113502700D01*
X139331100Y-115111800D02*
X138630100Y-114410800D01*
X138630100Y-113502700D02*
X139910000Y-112222800D01*
X141175200Y-115111800D02*
X139331100Y-115111800D01*
X143150900Y-112222800D02*
X143433700Y-111940000D01*
X144234000Y-110148000D02*
X144234000Y-111940000D01*
X142329000Y-113958000D02*
X141175200Y-115111800D01*
X144234000Y-111940000D02*
X143433700Y-111940000D01*
%TO.N,Net-(U2-Pad9)*%
X155664000Y-87542000D02*
X155664000Y-101258000D01*
X155664000Y-101258000D02*
X154394000Y-102528000D01*
X156934000Y-86272000D02*
X155664000Y-87542000D01*
%TO.N,VCC*%
X144234000Y-98986000D02*
X144234000Y-97434000D01*
X146774000Y-98560800D02*
X146774000Y-98135700D01*
X151854000Y-97434000D02*
X152654300Y-97434000D01*
X144234000Y-113690000D02*
X146774000Y-113690000D01*
X151854000Y-98560800D02*
X149314000Y-98560800D01*
X149314000Y-98560800D02*
X149314000Y-98986000D01*
X153027500Y-83103200D02*
X153027500Y-97060800D01*
X151854000Y-98986000D02*
X152654300Y-98986000D01*
X143833900Y-82730000D02*
X144230000Y-82333900D01*
X138852500Y-102226500D02*
X126448000Y-102226500D01*
X96990000Y-96447900D02*
X98495800Y-96447900D01*
X151751100Y-82035700D02*
X151699500Y-81984100D01*
X146774000Y-82730000D02*
X145034300Y-82730000D01*
X151854000Y-82730000D02*
X152654300Y-82730000D01*
X139997000Y-86272000D02*
X143433700Y-82835300D01*
X153027500Y-97060800D02*
X152654300Y-97434000D01*
X139154000Y-86272000D02*
X139997000Y-86272000D01*
X96990000Y-96447900D02*
X96990000Y-112845200D01*
X151854000Y-98560800D02*
X151854000Y-98986000D01*
X96263700Y-83097000D02*
X96263700Y-95721600D01*
X146774000Y-98560800D02*
X149314000Y-98560800D01*
X149314000Y-82730000D02*
X151854000Y-82730000D01*
X149314000Y-97434000D02*
X149314000Y-98560800D01*
X143433700Y-82835300D02*
X143433700Y-82730000D01*
X146774000Y-98986000D02*
X146774000Y-98560800D01*
X149314000Y-113690000D02*
X151854000Y-113690000D01*
X125538200Y-101316700D02*
X116358600Y-101316700D01*
X151751100Y-82035800D02*
X151751100Y-82035700D01*
X152654300Y-113690000D02*
X153027500Y-113316800D01*
X107573100Y-81559400D02*
X98209000Y-81559400D01*
X146774000Y-97434000D02*
X146774000Y-98135700D01*
X143833900Y-82730000D02*
X143433700Y-82730000D01*
X110198000Y-83097000D02*
X109110700Y-83097000D01*
X149314000Y-82730000D02*
X146774000Y-82730000D01*
X144234000Y-82730000D02*
X143833900Y-82730000D01*
X153027500Y-99359200D02*
X152654300Y-98986000D01*
X146774000Y-113690000D02*
X146826600Y-113742600D01*
X139154000Y-102528000D02*
X138852500Y-102226500D01*
X109110700Y-83097000D02*
X107573100Y-81559400D01*
X151699500Y-81984100D02*
X116614700Y-81984100D01*
X126448000Y-102226500D02*
X125538200Y-101316700D01*
X148461100Y-113742600D02*
X148513700Y-113690000D01*
X95720000Y-83097000D02*
X96263700Y-83097000D01*
X98209000Y-81559400D02*
X96807300Y-82961100D01*
X146826600Y-113742600D02*
X148461100Y-113742600D01*
X96990000Y-113958000D02*
X96990000Y-112845200D01*
X149314000Y-113690000D02*
X148513700Y-113690000D01*
X144230000Y-82333900D02*
X151453000Y-82333900D01*
X115780100Y-83097000D02*
X115780100Y-92778900D01*
X151854000Y-113690000D02*
X152654300Y-113690000D01*
X153027500Y-113316800D02*
X153027500Y-99359200D01*
X144234000Y-97434000D02*
X146774000Y-97434000D01*
X115780100Y-83097000D02*
X112738000Y-83097000D01*
X96263700Y-83097000D02*
X96807300Y-83097000D01*
X151453000Y-82333900D02*
X151751100Y-82035800D01*
X96263700Y-95721600D02*
X96990000Y-96447900D01*
X96807300Y-82961100D02*
X96807300Y-83097000D01*
X152654300Y-82730000D02*
X153027500Y-83103200D01*
X115780100Y-82818700D02*
X115780100Y-83097000D01*
X116614700Y-81984100D02*
X115780100Y-82818700D01*
X151854000Y-97434000D02*
X151854000Y-98560800D01*
X144234000Y-82730000D02*
X145034300Y-82730000D01*
%TO.N,/VCC_THR*%
X183971000Y-92368000D02*
X183971000Y-93980700D01*
X199115600Y-96970700D02*
X199889000Y-96197300D01*
X183844000Y-105275500D02*
X183844000Y-99988000D01*
X199889000Y-96197300D02*
X203548000Y-96197300D01*
X172428000Y-105068000D02*
X168632000Y-101272000D01*
X177762000Y-113450000D02*
X177762000Y-112337200D01*
X204037000Y-92368000D02*
X204037000Y-94908000D01*
X199115600Y-98797400D02*
X199115600Y-96970700D01*
X188825000Y-94908000D02*
X188825000Y-97448000D01*
X177762000Y-112337200D02*
X172428000Y-107003200D01*
X183844000Y-94908000D02*
X183844000Y-97448000D01*
X199115600Y-98797400D02*
X198891600Y-98797400D01*
X198891600Y-98797400D02*
X192621000Y-105068000D01*
X168632000Y-94908000D02*
X168632000Y-97448000D01*
X204037000Y-98797400D02*
X204037000Y-97448000D01*
X203548000Y-96197300D02*
X204037000Y-95708300D01*
X168632000Y-97448000D02*
X168632000Y-99988000D01*
X183971000Y-93980700D02*
X183844000Y-94107700D01*
X183844000Y-94908000D02*
X183844000Y-94107700D01*
X188825000Y-97448000D02*
X188825000Y-99988000D01*
X188825000Y-101272000D02*
X188825000Y-99988000D01*
X192621000Y-105068000D02*
X188825000Y-101272000D01*
X168632000Y-92368000D02*
X168632000Y-94908000D01*
X172428000Y-107003200D02*
X172428000Y-105068000D01*
X204037000Y-98797400D02*
X199115600Y-98797400D01*
X168632000Y-101272000D02*
X168632000Y-99988000D01*
X204037000Y-99988000D02*
X204037000Y-98797400D01*
X204037000Y-94908000D02*
X204037000Y-95708300D01*
X183844000Y-97448000D02*
X183844000Y-99988000D01*
X188825000Y-92495000D02*
X188825000Y-94908000D01*
%TD*%
%TA.AperFunction,Conductor*%
%TO.N,GND*%
G36*
X210933621Y-81207502D02*
G01*
X210980114Y-81261158D01*
X210991500Y-81313500D01*
X210991500Y-89260075D01*
X210971498Y-89328196D01*
X210917842Y-89374689D01*
X210847568Y-89384793D01*
X210782988Y-89355299D01*
X210743793Y-89292686D01*
X210735445Y-89261530D01*
X210731699Y-89251238D01*
X210640546Y-89055761D01*
X210635067Y-89046271D01*
X210600515Y-88996924D01*
X210590039Y-88988550D01*
X210576592Y-88995618D01*
X209884022Y-89688188D01*
X209876408Y-89702132D01*
X209876539Y-89703965D01*
X209880790Y-89710580D01*
X210577313Y-90407103D01*
X210589087Y-90413533D01*
X210601102Y-90404237D01*
X210635067Y-90355729D01*
X210640546Y-90346239D01*
X210731699Y-90150762D01*
X210735445Y-90140470D01*
X210743793Y-90109314D01*
X210780745Y-90048691D01*
X210844605Y-90017670D01*
X210915100Y-90026098D01*
X210969847Y-90071301D01*
X210991500Y-90141925D01*
X210991500Y-91800075D01*
X210971498Y-91868196D01*
X210917842Y-91914689D01*
X210847568Y-91924793D01*
X210782988Y-91895299D01*
X210743793Y-91832686D01*
X210735445Y-91801530D01*
X210731699Y-91791238D01*
X210640546Y-91595761D01*
X210635067Y-91586271D01*
X210600515Y-91536924D01*
X210590039Y-91528550D01*
X210576592Y-91535618D01*
X209884022Y-92228188D01*
X209876408Y-92242132D01*
X209876539Y-92243965D01*
X209880790Y-92250580D01*
X210577313Y-92947103D01*
X210589087Y-92953533D01*
X210601102Y-92944237D01*
X210635067Y-92895729D01*
X210640546Y-92886239D01*
X210731699Y-92690762D01*
X210735445Y-92680470D01*
X210743793Y-92649314D01*
X210780745Y-92588691D01*
X210844605Y-92557670D01*
X210915100Y-92566098D01*
X210969847Y-92611301D01*
X210991500Y-92681925D01*
X210991500Y-94340075D01*
X210971498Y-94408196D01*
X210917842Y-94454689D01*
X210847568Y-94464793D01*
X210782988Y-94435299D01*
X210743793Y-94372686D01*
X210735445Y-94341530D01*
X210731699Y-94331238D01*
X210640546Y-94135761D01*
X210635067Y-94126271D01*
X210600515Y-94076924D01*
X210590039Y-94068550D01*
X210576592Y-94075618D01*
X209884022Y-94768188D01*
X209876408Y-94782132D01*
X209876539Y-94783965D01*
X209880790Y-94790580D01*
X210577313Y-95487103D01*
X210589087Y-95493533D01*
X210601102Y-95484237D01*
X210635067Y-95435729D01*
X210640546Y-95426239D01*
X210731699Y-95230762D01*
X210735445Y-95220470D01*
X210743793Y-95189314D01*
X210780745Y-95128691D01*
X210844605Y-95097670D01*
X210915100Y-95106098D01*
X210969847Y-95151301D01*
X210991500Y-95221925D01*
X210991500Y-96880075D01*
X210971498Y-96948196D01*
X210917842Y-96994689D01*
X210847568Y-97004793D01*
X210782988Y-96975299D01*
X210743793Y-96912686D01*
X210735445Y-96881530D01*
X210731699Y-96871238D01*
X210640546Y-96675761D01*
X210635067Y-96666271D01*
X210600515Y-96616924D01*
X210590039Y-96608550D01*
X210576592Y-96615618D01*
X209884022Y-97308188D01*
X209876408Y-97322132D01*
X209876539Y-97323965D01*
X209880790Y-97330580D01*
X210577313Y-98027103D01*
X210589087Y-98033533D01*
X210601102Y-98024237D01*
X210635067Y-97975729D01*
X210640546Y-97966239D01*
X210731699Y-97770762D01*
X210735445Y-97760470D01*
X210743793Y-97729314D01*
X210780745Y-97668691D01*
X210844605Y-97637670D01*
X210915100Y-97646098D01*
X210969847Y-97691301D01*
X210991500Y-97761925D01*
X210991500Y-99420075D01*
X210971498Y-99488196D01*
X210917842Y-99534689D01*
X210847568Y-99544793D01*
X210782988Y-99515299D01*
X210743793Y-99452686D01*
X210735445Y-99421530D01*
X210731699Y-99411238D01*
X210640546Y-99215761D01*
X210635067Y-99206271D01*
X210600515Y-99156924D01*
X210590039Y-99148550D01*
X210576592Y-99155618D01*
X209884022Y-99848188D01*
X209876408Y-99862132D01*
X209876539Y-99863965D01*
X209880790Y-99870580D01*
X210577313Y-100567103D01*
X210589087Y-100573533D01*
X210601102Y-100564237D01*
X210635067Y-100515729D01*
X210640546Y-100506239D01*
X210731699Y-100310762D01*
X210735445Y-100300470D01*
X210743793Y-100269314D01*
X210780745Y-100208691D01*
X210844605Y-100177670D01*
X210915100Y-100186098D01*
X210969847Y-100231301D01*
X210991500Y-100301925D01*
X210991500Y-101318874D01*
X210971498Y-101386995D01*
X210917842Y-101433488D01*
X210847568Y-101443592D01*
X210782988Y-101414098D01*
X210754980Y-101379383D01*
X210744288Y-101359854D01*
X210667785Y-101257776D01*
X210655224Y-101245215D01*
X210553149Y-101168714D01*
X210537554Y-101160176D01*
X210417106Y-101115022D01*
X210401851Y-101111395D01*
X210350986Y-101105869D01*
X210341459Y-101105353D01*
X210274520Y-101081695D01*
X210230997Y-101025603D01*
X210222944Y-100966565D01*
X210225572Y-100941174D01*
X210217381Y-100925591D01*
X209524812Y-100233022D01*
X209510868Y-100225408D01*
X209509035Y-100225539D01*
X209502420Y-100229790D01*
X208805897Y-100926313D01*
X208798283Y-100940257D01*
X208800453Y-100970601D01*
X208785362Y-101039975D01*
X208735160Y-101090177D01*
X208681587Y-101105406D01*
X208673011Y-101105870D01*
X208622148Y-101111395D01*
X208606896Y-101115021D01*
X208486446Y-101160176D01*
X208470851Y-101168714D01*
X208368776Y-101245215D01*
X208356215Y-101257776D01*
X208279714Y-101359851D01*
X208271176Y-101375446D01*
X208226022Y-101495894D01*
X208222395Y-101511149D01*
X208216869Y-101562014D01*
X208216500Y-101568828D01*
X208216500Y-102128885D01*
X208220975Y-102144124D01*
X208222365Y-102145329D01*
X208230048Y-102147000D01*
X209640000Y-102147000D01*
X209708121Y-102167002D01*
X209754614Y-102220658D01*
X209766000Y-102273000D01*
X209766000Y-103678384D01*
X209770475Y-103693623D01*
X209771865Y-103694828D01*
X209779548Y-103696499D01*
X210344169Y-103696499D01*
X210350990Y-103696129D01*
X210401852Y-103690605D01*
X210417104Y-103686979D01*
X210537554Y-103641824D01*
X210553149Y-103633286D01*
X210655224Y-103556785D01*
X210667785Y-103544224D01*
X210744288Y-103442146D01*
X210754980Y-103422617D01*
X210805239Y-103372471D01*
X210874630Y-103357457D01*
X210941122Y-103382343D01*
X210983605Y-103439226D01*
X210991500Y-103483126D01*
X210991500Y-115115500D01*
X210971498Y-115183621D01*
X210917842Y-115230114D01*
X210865500Y-115241500D01*
X207803318Y-115241500D01*
X207735197Y-115221498D01*
X207688704Y-115167842D01*
X207678600Y-115097568D01*
X207706228Y-115035191D01*
X207709693Y-115031002D01*
X207717688Y-115022216D01*
X207965957Y-114773947D01*
X208028269Y-114739921D01*
X208087663Y-114741335D01*
X208116072Y-114748947D01*
X208143092Y-114756187D01*
X208369000Y-114775951D01*
X208594908Y-114756187D01*
X208686421Y-114731666D01*
X208808642Y-114698917D01*
X208808647Y-114698915D01*
X208813951Y-114697494D01*
X209019476Y-114601657D01*
X209023974Y-114598508D01*
X209023980Y-114598504D01*
X209200724Y-114474745D01*
X209200726Y-114474743D01*
X209205235Y-114471586D01*
X209365586Y-114311235D01*
X209377257Y-114294568D01*
X209426974Y-114223564D01*
X209495657Y-114125475D01*
X209497980Y-114120493D01*
X209497983Y-114120488D01*
X209560805Y-113985763D01*
X209591494Y-113919951D01*
X209650187Y-113700908D01*
X209669951Y-113475000D01*
X209650187Y-113249092D01*
X209591494Y-113030049D01*
X209541947Y-112923795D01*
X209497983Y-112829512D01*
X209497980Y-112829507D01*
X209495657Y-112824525D01*
X209403617Y-112693079D01*
X209368745Y-112643276D01*
X209368743Y-112643273D01*
X209365586Y-112638765D01*
X209205235Y-112478414D01*
X209179449Y-112460358D01*
X209023980Y-112351496D01*
X209023974Y-112351492D01*
X209019476Y-112348343D01*
X208813951Y-112252506D01*
X208808647Y-112251085D01*
X208808642Y-112251083D01*
X208627302Y-112202493D01*
X208594908Y-112193813D01*
X208369000Y-112174049D01*
X208143092Y-112193813D01*
X207924049Y-112252506D01*
X207836186Y-112293477D01*
X207723512Y-112346017D01*
X207723509Y-112346019D01*
X207718525Y-112348343D01*
X207632457Y-112408609D01*
X207537276Y-112475255D01*
X207537273Y-112475257D01*
X207532765Y-112478414D01*
X207372414Y-112638765D01*
X207369257Y-112643273D01*
X207369255Y-112643276D01*
X207334383Y-112693079D01*
X207242343Y-112824525D01*
X207240020Y-112829507D01*
X207240017Y-112829512D01*
X207213195Y-112887033D01*
X207166278Y-112940318D01*
X207098000Y-112959779D01*
X207030040Y-112939237D01*
X206984805Y-112887033D01*
X206957983Y-112829512D01*
X206957980Y-112829507D01*
X206955657Y-112824525D01*
X206863617Y-112693079D01*
X206828745Y-112643276D01*
X206828743Y-112643273D01*
X206825586Y-112638765D01*
X206665235Y-112478414D01*
X206639449Y-112460358D01*
X206483980Y-112351496D01*
X206483974Y-112351492D01*
X206479476Y-112348343D01*
X206273951Y-112252506D01*
X206268647Y-112251085D01*
X206268642Y-112251083D01*
X206087302Y-112202493D01*
X206054908Y-112193813D01*
X205829000Y-112174049D01*
X205603092Y-112193813D01*
X205597779Y-112195237D01*
X205597771Y-112195238D01*
X205547665Y-112208664D01*
X205476688Y-112206975D01*
X205425958Y-112176053D01*
X204731852Y-111481947D01*
X204724312Y-111473661D01*
X204720200Y-111467182D01*
X204713103Y-111460517D01*
X204670549Y-111420557D01*
X204667707Y-111417802D01*
X204647970Y-111398065D01*
X204644773Y-111395585D01*
X204635751Y-111387880D01*
X204627318Y-111379961D01*
X204603521Y-111357614D01*
X204596575Y-111353795D01*
X204596572Y-111353793D01*
X204585766Y-111347852D01*
X204569247Y-111337001D01*
X204568725Y-111336596D01*
X204553241Y-111324586D01*
X204545972Y-111321441D01*
X204545968Y-111321438D01*
X204512663Y-111307026D01*
X204502013Y-111301809D01*
X204463260Y-111280505D01*
X204443637Y-111275467D01*
X204424934Y-111269063D01*
X204413620Y-111264167D01*
X204413619Y-111264167D01*
X204406345Y-111261019D01*
X204398522Y-111259780D01*
X204398512Y-111259777D01*
X204362676Y-111254101D01*
X204351056Y-111251695D01*
X204315911Y-111242672D01*
X204315910Y-111242672D01*
X204308230Y-111240700D01*
X204287976Y-111240700D01*
X204268265Y-111239149D01*
X204258713Y-111237636D01*
X204248257Y-111235980D01*
X204218986Y-111238747D01*
X204204239Y-111240141D01*
X204192381Y-111240700D01*
X194656568Y-111240700D01*
X194645385Y-111240173D01*
X194637892Y-111238498D01*
X194629966Y-111238747D01*
X194629965Y-111238747D01*
X194569802Y-111240638D01*
X194565844Y-111240700D01*
X194537944Y-111240700D01*
X194533954Y-111241204D01*
X194522120Y-111242136D01*
X194477911Y-111243526D01*
X194470297Y-111245738D01*
X194470292Y-111245739D01*
X194458459Y-111249177D01*
X194439096Y-111253188D01*
X194419003Y-111255726D01*
X194411636Y-111258643D01*
X194411631Y-111258644D01*
X194377892Y-111272002D01*
X194366665Y-111275846D01*
X194324207Y-111288182D01*
X194317381Y-111292219D01*
X194306772Y-111298493D01*
X194289024Y-111307188D01*
X194270183Y-111314648D01*
X194263767Y-111319310D01*
X194263766Y-111319310D01*
X194234413Y-111340636D01*
X194224493Y-111347152D01*
X194193265Y-111365620D01*
X194193262Y-111365622D01*
X194186438Y-111369658D01*
X194172117Y-111383979D01*
X194157084Y-111396819D01*
X194140693Y-111408728D01*
X194135643Y-111414832D01*
X194135638Y-111414837D01*
X194112507Y-111442798D01*
X194104517Y-111451579D01*
X193405041Y-112151054D01*
X193342729Y-112185079D01*
X193283333Y-112183664D01*
X193233225Y-112170237D01*
X193233217Y-112170236D01*
X193227908Y-112168813D01*
X193002000Y-112149049D01*
X192776092Y-112168813D01*
X192557049Y-112227506D01*
X192460876Y-112272352D01*
X192356512Y-112321017D01*
X192356509Y-112321019D01*
X192351525Y-112323343D01*
X192311313Y-112351500D01*
X192170276Y-112450255D01*
X192170273Y-112450257D01*
X192165765Y-112453414D01*
X192005414Y-112613765D01*
X192002257Y-112618273D01*
X192002255Y-112618276D01*
X191961267Y-112676813D01*
X191875343Y-112799525D01*
X191873020Y-112804507D01*
X191873017Y-112804512D01*
X191846195Y-112862033D01*
X191799278Y-112915318D01*
X191731000Y-112934779D01*
X191663040Y-112914237D01*
X191617805Y-112862033D01*
X191590983Y-112804512D01*
X191590980Y-112804507D01*
X191588657Y-112799525D01*
X191502733Y-112676813D01*
X191461745Y-112618276D01*
X191461743Y-112618273D01*
X191458586Y-112613765D01*
X191298235Y-112453414D01*
X191293724Y-112450255D01*
X191116980Y-112326496D01*
X191116974Y-112326492D01*
X191112476Y-112323343D01*
X190906951Y-112227506D01*
X190901647Y-112226085D01*
X190901642Y-112226083D01*
X190737029Y-112181975D01*
X190687908Y-112168813D01*
X190462000Y-112149049D01*
X190430819Y-112151777D01*
X190361215Y-112137788D01*
X190310222Y-112088388D01*
X190294032Y-112019262D01*
X190317784Y-111952357D01*
X190330743Y-111937161D01*
X193308245Y-108959660D01*
X196529500Y-105738405D01*
X196591812Y-105704379D01*
X196618595Y-105701500D01*
X198806500Y-105701500D01*
X198874621Y-105721502D01*
X198921114Y-105775158D01*
X198932500Y-105827500D01*
X198932500Y-105916134D01*
X198939255Y-105978316D01*
X198990385Y-106114705D01*
X199077739Y-106231261D01*
X199194295Y-106318615D01*
X199330684Y-106369745D01*
X199392866Y-106376500D01*
X201089134Y-106376500D01*
X201151316Y-106369745D01*
X201287705Y-106318615D01*
X201404261Y-106231261D01*
X201491615Y-106114705D01*
X201542745Y-105978316D01*
X201549500Y-105916134D01*
X201549500Y-104219866D01*
X201542745Y-104157684D01*
X201491615Y-104021295D01*
X201404261Y-103904739D01*
X201287705Y-103817385D01*
X201151316Y-103766255D01*
X201140526Y-103765083D01*
X201138394Y-103764197D01*
X201135778Y-103763575D01*
X201135879Y-103763152D01*
X201074965Y-103737845D01*
X201034537Y-103679483D01*
X201032078Y-103608529D01*
X201068371Y-103547510D01*
X201077031Y-103540511D01*
X201080793Y-103537354D01*
X201085300Y-103534198D01*
X201247198Y-103372300D01*
X201251509Y-103366144D01*
X201333179Y-103249507D01*
X201344619Y-103233169D01*
X208216501Y-103233169D01*
X208216871Y-103239990D01*
X208222395Y-103290852D01*
X208226021Y-103306104D01*
X208271176Y-103426554D01*
X208279714Y-103442149D01*
X208356215Y-103544224D01*
X208368776Y-103556785D01*
X208470851Y-103633286D01*
X208486446Y-103641824D01*
X208606894Y-103686978D01*
X208622149Y-103690605D01*
X208673014Y-103696131D01*
X208679828Y-103696500D01*
X209239885Y-103696500D01*
X209255124Y-103692025D01*
X209256329Y-103690635D01*
X209258000Y-103682952D01*
X209258000Y-102673115D01*
X209253525Y-102657876D01*
X209252135Y-102656671D01*
X209244452Y-102655000D01*
X208234616Y-102655000D01*
X208219377Y-102659475D01*
X208218172Y-102660865D01*
X208216501Y-102668548D01*
X208216501Y-103233169D01*
X201344619Y-103233169D01*
X201378523Y-103184749D01*
X201380846Y-103179767D01*
X201380849Y-103179762D01*
X201472961Y-102982225D01*
X201472961Y-102982224D01*
X201475284Y-102977243D01*
X201476709Y-102971927D01*
X201533119Y-102761402D01*
X201533119Y-102761400D01*
X201534543Y-102756087D01*
X201554498Y-102528000D01*
X201534543Y-102299913D01*
X201522880Y-102256386D01*
X201476707Y-102084067D01*
X201476706Y-102084065D01*
X201475284Y-102078757D01*
X201472961Y-102073775D01*
X201380849Y-101876238D01*
X201380846Y-101876233D01*
X201378523Y-101871251D01*
X201264988Y-101709107D01*
X201250357Y-101688211D01*
X201250355Y-101688208D01*
X201247198Y-101683700D01*
X201085300Y-101521802D01*
X201080792Y-101518645D01*
X201080789Y-101518643D01*
X200992763Y-101457007D01*
X200897749Y-101390477D01*
X200892767Y-101388154D01*
X200892762Y-101388151D01*
X200858543Y-101372195D01*
X200805258Y-101325278D01*
X200785797Y-101257001D01*
X200806339Y-101189041D01*
X200858543Y-101143805D01*
X200892762Y-101127849D01*
X200892767Y-101127846D01*
X200897749Y-101125523D01*
X201030599Y-101032500D01*
X201080789Y-100997357D01*
X201080792Y-100997355D01*
X201085300Y-100994198D01*
X201238324Y-100841174D01*
X201300636Y-100807148D01*
X201371451Y-100812213D01*
X201402984Y-100829443D01*
X201508108Y-100908229D01*
X201515295Y-100913615D01*
X201523704Y-100916767D01*
X201523705Y-100916768D01*
X201625067Y-100954767D01*
X201681832Y-100997408D01*
X201700670Y-101033811D01*
X201709236Y-101060175D01*
X201713486Y-101066871D01*
X201713486Y-101066872D01*
X201713650Y-101067131D01*
X201724415Y-101088258D01*
X201724529Y-101088546D01*
X201724532Y-101088551D01*
X201727448Y-101095917D01*
X201732104Y-101102325D01*
X201732107Y-101102331D01*
X201760458Y-101141352D01*
X201764901Y-101147889D01*
X201795000Y-101195318D01*
X201800778Y-101200744D01*
X201800779Y-101200745D01*
X201801007Y-101200959D01*
X201816688Y-101218746D01*
X201816763Y-101218848D01*
X201821528Y-101225407D01*
X201827635Y-101230459D01*
X201827638Y-101230462D01*
X201864796Y-101261203D01*
X201870730Y-101266434D01*
X201905898Y-101299458D01*
X201905901Y-101299460D01*
X201911679Y-101304886D01*
X201918903Y-101308858D01*
X201938506Y-101322181D01*
X201938746Y-101322380D01*
X201938753Y-101322384D01*
X201944856Y-101327433D01*
X201973809Y-101341057D01*
X201995676Y-101351347D01*
X202002708Y-101354929D01*
X202051940Y-101381995D01*
X202059615Y-101383965D01*
X202059621Y-101383968D01*
X202059919Y-101384044D01*
X202082228Y-101392076D01*
X202082503Y-101392206D01*
X202082511Y-101392209D01*
X202089682Y-101395583D01*
X202144849Y-101406106D01*
X202152558Y-101407829D01*
X202185838Y-101416374D01*
X202199293Y-101419829D01*
X202199294Y-101419829D01*
X202206970Y-101421800D01*
X202215207Y-101421800D01*
X202238816Y-101424032D01*
X202239119Y-101424090D01*
X202239123Y-101424090D01*
X202246906Y-101425575D01*
X202302951Y-101422049D01*
X202310862Y-101421800D01*
X205382933Y-101421800D01*
X205394116Y-101422327D01*
X205401609Y-101424002D01*
X205409535Y-101423753D01*
X205409536Y-101423753D01*
X205469686Y-101421862D01*
X205473645Y-101421800D01*
X205501556Y-101421800D01*
X205505491Y-101421303D01*
X205505556Y-101421295D01*
X205517393Y-101420362D01*
X205549651Y-101419348D01*
X205553670Y-101419222D01*
X205561589Y-101418973D01*
X205581043Y-101413321D01*
X205600400Y-101409313D01*
X205612630Y-101407768D01*
X205612631Y-101407768D01*
X205620497Y-101406774D01*
X205627868Y-101403855D01*
X205627870Y-101403855D01*
X205661612Y-101390496D01*
X205672842Y-101386651D01*
X205707683Y-101376529D01*
X205707684Y-101376529D01*
X205715293Y-101374318D01*
X205722116Y-101370283D01*
X205722118Y-101370282D01*
X205732728Y-101364007D01*
X205750476Y-101355312D01*
X205769317Y-101347852D01*
X205787270Y-101334809D01*
X205805087Y-101321864D01*
X205815007Y-101315348D01*
X205846235Y-101296880D01*
X205846238Y-101296878D01*
X205853062Y-101292842D01*
X205867383Y-101278521D01*
X205882417Y-101265680D01*
X205898807Y-101253772D01*
X205926998Y-101219695D01*
X205934988Y-101210916D01*
X207279429Y-99866475D01*
X208212030Y-99866475D01*
X208230829Y-100081341D01*
X208232732Y-100092136D01*
X208288555Y-100300470D01*
X208292301Y-100310762D01*
X208383454Y-100506239D01*
X208388933Y-100515729D01*
X208423485Y-100565076D01*
X208433961Y-100573450D01*
X208447408Y-100566382D01*
X209139978Y-99873812D01*
X209147592Y-99859868D01*
X209147461Y-99858035D01*
X209143210Y-99851420D01*
X208446687Y-99154897D01*
X208434913Y-99148467D01*
X208422898Y-99157763D01*
X208388933Y-99206271D01*
X208383454Y-99215761D01*
X208292301Y-99411238D01*
X208288555Y-99421530D01*
X208232732Y-99629864D01*
X208230829Y-99640659D01*
X208212030Y-99855525D01*
X208212030Y-99866475D01*
X207279429Y-99866475D01*
X207872247Y-99273657D01*
X207880537Y-99266113D01*
X207887018Y-99262000D01*
X207896241Y-99252179D01*
X207933658Y-99212333D01*
X207936413Y-99209491D01*
X207956134Y-99189770D01*
X207958612Y-99186575D01*
X207966318Y-99177553D01*
X207991158Y-99151101D01*
X207996586Y-99145321D01*
X208002732Y-99134142D01*
X208006346Y-99127568D01*
X208017199Y-99111045D01*
X208024753Y-99101306D01*
X208029613Y-99095041D01*
X208047176Y-99054457D01*
X208052383Y-99043827D01*
X208073695Y-99005060D01*
X208075666Y-98997383D01*
X208075668Y-98997378D01*
X208078732Y-98985442D01*
X208085138Y-98966730D01*
X208085218Y-98966547D01*
X208093181Y-98948145D01*
X208094421Y-98940317D01*
X208094423Y-98940310D01*
X208100099Y-98904476D01*
X208102505Y-98892856D01*
X208111528Y-98857711D01*
X208111528Y-98857710D01*
X208113500Y-98850030D01*
X208113500Y-98829776D01*
X208115051Y-98810065D01*
X208116980Y-98797886D01*
X208118220Y-98790057D01*
X208114059Y-98746038D01*
X208113500Y-98734181D01*
X208113500Y-98398087D01*
X208799467Y-98398087D01*
X208808764Y-98410103D01*
X208857270Y-98444067D01*
X208866760Y-98449547D01*
X208925216Y-98476805D01*
X208978502Y-98523722D01*
X208997963Y-98591999D01*
X208977422Y-98659959D01*
X208925217Y-98705195D01*
X208866761Y-98732454D01*
X208857271Y-98737933D01*
X208807924Y-98772485D01*
X208799550Y-98782961D01*
X208806618Y-98796408D01*
X209499188Y-99488978D01*
X209513132Y-99496592D01*
X209514965Y-99496461D01*
X209521580Y-99492210D01*
X210218103Y-98795687D01*
X210224533Y-98783913D01*
X210215236Y-98771897D01*
X210166730Y-98737933D01*
X210157244Y-98732455D01*
X210098784Y-98705195D01*
X210045499Y-98658278D01*
X210026038Y-98590000D01*
X210046580Y-98522041D01*
X210098784Y-98476805D01*
X210157244Y-98449545D01*
X210166730Y-98444067D01*
X210216074Y-98409517D01*
X210224449Y-98399039D01*
X210217381Y-98385591D01*
X209524812Y-97693022D01*
X209510868Y-97685408D01*
X209509035Y-97685539D01*
X209502420Y-97689790D01*
X208805897Y-98386313D01*
X208799467Y-98398087D01*
X208113500Y-98398087D01*
X208113500Y-97955672D01*
X208133502Y-97887551D01*
X208187158Y-97841058D01*
X208257432Y-97830954D01*
X208322012Y-97860448D01*
X208353695Y-97902422D01*
X208383453Y-97966239D01*
X208388933Y-97975729D01*
X208423485Y-98025076D01*
X208433961Y-98033450D01*
X208447408Y-98026382D01*
X209139978Y-97333812D01*
X209147592Y-97319868D01*
X209147461Y-97318035D01*
X209143210Y-97311420D01*
X208446687Y-96614897D01*
X208434913Y-96608467D01*
X208422898Y-96617763D01*
X208388933Y-96666271D01*
X208383453Y-96675761D01*
X208353695Y-96739578D01*
X208306778Y-96792863D01*
X208238500Y-96812324D01*
X208170540Y-96791782D01*
X208124475Y-96737759D01*
X208113500Y-96686328D01*
X208113500Y-95858087D01*
X208799467Y-95858087D01*
X208808764Y-95870103D01*
X208857270Y-95904067D01*
X208866760Y-95909547D01*
X208925216Y-95936805D01*
X208978502Y-95983722D01*
X208997963Y-96051999D01*
X208977422Y-96119959D01*
X208925217Y-96165195D01*
X208866761Y-96192454D01*
X208857271Y-96197933D01*
X208807924Y-96232485D01*
X208799550Y-96242961D01*
X208806618Y-96256408D01*
X209499188Y-96948978D01*
X209513132Y-96956592D01*
X209514965Y-96956461D01*
X209521580Y-96952210D01*
X210218103Y-96255687D01*
X210224533Y-96243913D01*
X210215236Y-96231897D01*
X210166730Y-96197933D01*
X210157244Y-96192455D01*
X210098784Y-96165195D01*
X210045499Y-96118278D01*
X210026038Y-96050000D01*
X210046580Y-95982041D01*
X210098784Y-95936805D01*
X210157244Y-95909545D01*
X210166730Y-95904067D01*
X210216074Y-95869517D01*
X210224449Y-95859039D01*
X210217381Y-95845591D01*
X209524812Y-95153022D01*
X209510868Y-95145408D01*
X209509035Y-95145539D01*
X209502420Y-95149790D01*
X208805897Y-95846313D01*
X208799467Y-95858087D01*
X208113500Y-95858087D01*
X208113500Y-95415672D01*
X208133502Y-95347551D01*
X208187158Y-95301058D01*
X208257432Y-95290954D01*
X208322012Y-95320448D01*
X208353695Y-95362422D01*
X208383453Y-95426239D01*
X208388933Y-95435729D01*
X208423485Y-95485076D01*
X208433961Y-95493450D01*
X208447408Y-95486382D01*
X209139978Y-94793812D01*
X209147592Y-94779868D01*
X209147461Y-94778035D01*
X209143210Y-94771420D01*
X208446687Y-94074897D01*
X208434913Y-94068467D01*
X208422898Y-94077763D01*
X208388933Y-94126271D01*
X208383453Y-94135761D01*
X208353695Y-94199578D01*
X208306778Y-94252863D01*
X208238500Y-94272324D01*
X208170540Y-94251782D01*
X208124475Y-94197759D01*
X208113500Y-94146328D01*
X208113500Y-93318087D01*
X208799467Y-93318087D01*
X208808764Y-93330103D01*
X208857270Y-93364067D01*
X208866760Y-93369547D01*
X208925216Y-93396805D01*
X208978502Y-93443722D01*
X208997963Y-93511999D01*
X208977422Y-93579959D01*
X208925217Y-93625195D01*
X208866761Y-93652454D01*
X208857271Y-93657933D01*
X208807924Y-93692485D01*
X208799550Y-93702961D01*
X208806618Y-93716408D01*
X209499188Y-94408978D01*
X209513132Y-94416592D01*
X209514965Y-94416461D01*
X209521580Y-94412210D01*
X210218103Y-93715687D01*
X210224533Y-93703913D01*
X210215236Y-93691897D01*
X210166730Y-93657933D01*
X210157244Y-93652455D01*
X210098784Y-93625195D01*
X210045499Y-93578278D01*
X210026038Y-93510000D01*
X210046580Y-93442041D01*
X210098784Y-93396805D01*
X210157244Y-93369545D01*
X210166730Y-93364067D01*
X210216074Y-93329517D01*
X210224449Y-93319039D01*
X210217381Y-93305591D01*
X209524812Y-92613022D01*
X209510868Y-92605408D01*
X209509035Y-92605539D01*
X209502420Y-92609790D01*
X208805897Y-93306313D01*
X208799467Y-93318087D01*
X208113500Y-93318087D01*
X208113500Y-92875672D01*
X208133502Y-92807551D01*
X208187158Y-92761058D01*
X208257432Y-92750954D01*
X208322012Y-92780448D01*
X208353695Y-92822422D01*
X208383453Y-92886239D01*
X208388933Y-92895729D01*
X208423485Y-92945076D01*
X208433961Y-92953450D01*
X208447408Y-92946382D01*
X209139978Y-92253812D01*
X209147592Y-92239868D01*
X209147461Y-92238035D01*
X209143210Y-92231420D01*
X208446687Y-91534897D01*
X208434913Y-91528467D01*
X208422898Y-91537763D01*
X208388933Y-91586271D01*
X208383453Y-91595761D01*
X208353695Y-91659578D01*
X208306778Y-91712863D01*
X208238500Y-91732324D01*
X208170540Y-91711782D01*
X208124475Y-91657759D01*
X208113500Y-91606328D01*
X208113500Y-90778087D01*
X208799467Y-90778087D01*
X208808764Y-90790103D01*
X208857270Y-90824067D01*
X208866760Y-90829547D01*
X208925216Y-90856805D01*
X208978502Y-90903722D01*
X208997963Y-90971999D01*
X208977422Y-91039959D01*
X208925217Y-91085195D01*
X208866761Y-91112454D01*
X208857271Y-91117933D01*
X208807924Y-91152485D01*
X208799550Y-91162961D01*
X208806618Y-91176408D01*
X209499188Y-91868978D01*
X209513132Y-91876592D01*
X209514965Y-91876461D01*
X209521580Y-91872210D01*
X210218103Y-91175687D01*
X210224533Y-91163913D01*
X210215236Y-91151897D01*
X210166730Y-91117933D01*
X210157244Y-91112455D01*
X210098784Y-91085195D01*
X210045499Y-91038278D01*
X210026038Y-90970000D01*
X210046580Y-90902041D01*
X210098784Y-90856805D01*
X210157244Y-90829545D01*
X210166730Y-90824067D01*
X210216074Y-90789517D01*
X210224449Y-90779039D01*
X210217381Y-90765591D01*
X209524812Y-90073022D01*
X209510868Y-90065408D01*
X209509035Y-90065539D01*
X209502420Y-90069790D01*
X208805897Y-90766313D01*
X208799467Y-90778087D01*
X208113500Y-90778087D01*
X208113500Y-90335672D01*
X208133502Y-90267551D01*
X208187158Y-90221058D01*
X208257432Y-90210954D01*
X208322012Y-90240448D01*
X208353695Y-90282422D01*
X208383453Y-90346239D01*
X208388933Y-90355729D01*
X208423485Y-90405076D01*
X208433961Y-90413450D01*
X208447408Y-90406382D01*
X209139978Y-89713812D01*
X209147592Y-89699868D01*
X209147461Y-89698035D01*
X209143210Y-89691420D01*
X208446687Y-88994897D01*
X208434913Y-88988467D01*
X208422898Y-88997763D01*
X208388933Y-89046271D01*
X208383453Y-89055761D01*
X208353695Y-89119578D01*
X208306778Y-89172863D01*
X208238500Y-89192324D01*
X208170540Y-89171782D01*
X208124475Y-89117759D01*
X208113500Y-89066328D01*
X208113500Y-88622961D01*
X208799550Y-88622961D01*
X208806618Y-88636408D01*
X209499188Y-89328978D01*
X209513132Y-89336592D01*
X209514965Y-89336461D01*
X209521580Y-89332210D01*
X210218103Y-88635687D01*
X210224533Y-88623913D01*
X210215236Y-88611897D01*
X210166730Y-88577933D01*
X210157244Y-88572455D01*
X209961762Y-88481301D01*
X209951470Y-88477555D01*
X209743136Y-88421732D01*
X209732341Y-88419829D01*
X209517475Y-88401030D01*
X209506525Y-88401030D01*
X209291659Y-88419829D01*
X209280864Y-88421732D01*
X209072530Y-88477555D01*
X209062238Y-88481301D01*
X208866761Y-88572454D01*
X208857271Y-88577933D01*
X208807924Y-88612485D01*
X208799550Y-88622961D01*
X208113500Y-88622961D01*
X208113500Y-84555135D01*
X208133502Y-84487014D01*
X208167229Y-84451922D01*
X208311724Y-84350745D01*
X208311726Y-84350743D01*
X208316235Y-84347586D01*
X208476586Y-84187235D01*
X208500587Y-84152959D01*
X208562784Y-84064132D01*
X208606657Y-84001475D01*
X208608980Y-83996493D01*
X208608983Y-83996488D01*
X208670170Y-83865271D01*
X208702494Y-83795951D01*
X208761187Y-83576908D01*
X208780951Y-83351000D01*
X208761187Y-83125092D01*
X208702494Y-82906049D01*
X208647992Y-82789168D01*
X208608983Y-82705512D01*
X208608980Y-82705507D01*
X208606657Y-82700525D01*
X208495489Y-82541761D01*
X208479745Y-82519276D01*
X208479743Y-82519273D01*
X208476586Y-82514765D01*
X208316235Y-82354414D01*
X208311724Y-82351255D01*
X208134980Y-82227496D01*
X208134974Y-82227492D01*
X208130476Y-82224343D01*
X207924951Y-82128506D01*
X207919647Y-82127085D01*
X207919642Y-82127083D01*
X207748065Y-82081109D01*
X207705908Y-82069813D01*
X207480000Y-82050049D01*
X207254092Y-82069813D01*
X207035049Y-82128506D01*
X206972648Y-82157604D01*
X206834512Y-82222017D01*
X206834509Y-82222019D01*
X206829525Y-82224343D01*
X206785691Y-82255036D01*
X206648276Y-82351255D01*
X206648273Y-82351257D01*
X206643765Y-82354414D01*
X206483414Y-82514765D01*
X206480257Y-82519273D01*
X206480255Y-82519276D01*
X206464511Y-82541761D01*
X206353343Y-82700525D01*
X206351020Y-82705507D01*
X206351017Y-82705512D01*
X206324195Y-82763033D01*
X206277278Y-82816318D01*
X206209000Y-82835779D01*
X206141040Y-82815237D01*
X206095805Y-82763033D01*
X206068983Y-82705512D01*
X206068980Y-82705507D01*
X206066657Y-82700525D01*
X205955489Y-82541761D01*
X205939745Y-82519276D01*
X205939743Y-82519273D01*
X205936586Y-82514765D01*
X205776235Y-82354414D01*
X205771724Y-82351255D01*
X205594980Y-82227496D01*
X205594974Y-82227492D01*
X205590476Y-82224343D01*
X205384951Y-82128506D01*
X205379647Y-82127085D01*
X205379642Y-82127083D01*
X205208065Y-82081109D01*
X205165908Y-82069813D01*
X204940000Y-82050049D01*
X204714092Y-82069813D01*
X204495049Y-82128506D01*
X204432648Y-82157604D01*
X204294512Y-82222017D01*
X204294509Y-82222019D01*
X204289525Y-82224343D01*
X204245691Y-82255036D01*
X204108276Y-82351255D01*
X204108273Y-82351257D01*
X204103765Y-82354414D01*
X203943414Y-82514765D01*
X203940257Y-82519273D01*
X203940255Y-82519276D01*
X203924511Y-82541761D01*
X203813343Y-82700525D01*
X203811020Y-82705507D01*
X203811017Y-82705512D01*
X203784195Y-82763033D01*
X203737278Y-82816318D01*
X203669000Y-82835779D01*
X203601040Y-82815237D01*
X203555805Y-82763033D01*
X203528983Y-82705512D01*
X203528980Y-82705507D01*
X203526657Y-82700525D01*
X203415489Y-82541761D01*
X203399745Y-82519276D01*
X203399743Y-82519273D01*
X203396586Y-82514765D01*
X203236235Y-82354414D01*
X203231724Y-82351255D01*
X203054980Y-82227496D01*
X203054974Y-82227492D01*
X203050476Y-82224343D01*
X202844951Y-82128506D01*
X202839647Y-82127085D01*
X202839642Y-82127083D01*
X202668065Y-82081109D01*
X202625908Y-82069813D01*
X202400000Y-82050049D01*
X202174092Y-82069813D01*
X201955049Y-82128506D01*
X201892648Y-82157604D01*
X201754512Y-82222017D01*
X201754509Y-82222019D01*
X201749525Y-82224343D01*
X201705691Y-82255036D01*
X201568276Y-82351255D01*
X201568273Y-82351257D01*
X201563765Y-82354414D01*
X201403414Y-82514765D01*
X201400257Y-82519273D01*
X201400255Y-82519276D01*
X201384511Y-82541761D01*
X201273343Y-82700525D01*
X201271020Y-82705507D01*
X201271017Y-82705512D01*
X201244195Y-82763033D01*
X201197278Y-82816318D01*
X201129000Y-82835779D01*
X201061040Y-82815237D01*
X201015805Y-82763033D01*
X200988983Y-82705512D01*
X200988980Y-82705507D01*
X200986657Y-82700525D01*
X200875489Y-82541761D01*
X200859745Y-82519276D01*
X200859743Y-82519273D01*
X200856586Y-82514765D01*
X200696235Y-82354414D01*
X200691724Y-82351255D01*
X200514980Y-82227496D01*
X200514974Y-82227492D01*
X200510476Y-82224343D01*
X200304951Y-82128506D01*
X200299647Y-82127085D01*
X200299642Y-82127083D01*
X200128065Y-82081109D01*
X200085908Y-82069813D01*
X199860000Y-82050049D01*
X199634092Y-82069813D01*
X199415049Y-82128506D01*
X199352648Y-82157604D01*
X199214512Y-82222017D01*
X199214509Y-82222019D01*
X199209525Y-82224343D01*
X199165691Y-82255036D01*
X199028276Y-82351255D01*
X199028273Y-82351257D01*
X199023765Y-82354414D01*
X198997587Y-82380592D01*
X198935275Y-82414618D01*
X198864460Y-82409553D01*
X198819397Y-82380592D01*
X198225452Y-81786647D01*
X198217912Y-81778361D01*
X198213800Y-81771882D01*
X198195283Y-81754493D01*
X198164149Y-81725257D01*
X198161307Y-81722502D01*
X198141570Y-81702765D01*
X198138373Y-81700285D01*
X198129351Y-81692580D01*
X198125197Y-81688679D01*
X198097121Y-81662314D01*
X198090175Y-81658495D01*
X198090172Y-81658493D01*
X198079366Y-81652552D01*
X198062847Y-81641701D01*
X198057673Y-81637688D01*
X198046841Y-81629286D01*
X198039572Y-81626141D01*
X198039568Y-81626138D01*
X198006263Y-81611726D01*
X197995613Y-81606509D01*
X197956860Y-81585205D01*
X197937237Y-81580167D01*
X197918534Y-81573763D01*
X197907220Y-81568867D01*
X197907219Y-81568867D01*
X197899945Y-81565719D01*
X197892122Y-81564480D01*
X197892112Y-81564477D01*
X197856276Y-81558801D01*
X197844656Y-81556395D01*
X197809511Y-81547372D01*
X197809510Y-81547372D01*
X197801830Y-81545400D01*
X197781576Y-81545400D01*
X197761865Y-81543849D01*
X197749686Y-81541920D01*
X197741857Y-81540680D01*
X197712586Y-81543447D01*
X197697839Y-81544841D01*
X197685981Y-81545400D01*
X193490868Y-81545400D01*
X193479685Y-81544873D01*
X193472192Y-81543198D01*
X193464266Y-81543447D01*
X193464265Y-81543447D01*
X193404102Y-81545338D01*
X193400144Y-81545400D01*
X193372244Y-81545400D01*
X193368254Y-81545904D01*
X193356420Y-81546836D01*
X193312211Y-81548226D01*
X193304597Y-81550438D01*
X193304592Y-81550439D01*
X193292759Y-81553877D01*
X193273396Y-81557888D01*
X193253303Y-81560426D01*
X193245936Y-81563343D01*
X193245931Y-81563344D01*
X193212192Y-81576702D01*
X193200965Y-81580546D01*
X193158507Y-81592882D01*
X193151681Y-81596919D01*
X193141072Y-81603193D01*
X193123324Y-81611888D01*
X193104483Y-81619348D01*
X193098067Y-81624010D01*
X193098066Y-81624010D01*
X193068713Y-81645336D01*
X193058793Y-81651852D01*
X193027565Y-81670320D01*
X193027562Y-81670322D01*
X193020738Y-81674358D01*
X193006417Y-81688679D01*
X192991384Y-81701519D01*
X192974993Y-81713428D01*
X192946802Y-81747505D01*
X192938812Y-81756284D01*
X192643043Y-82052053D01*
X192580731Y-82086079D01*
X192521337Y-82084665D01*
X192488640Y-82075904D01*
X192465908Y-82069813D01*
X192240000Y-82050049D01*
X192014092Y-82069813D01*
X191795049Y-82128506D01*
X191732648Y-82157604D01*
X191594512Y-82222017D01*
X191594509Y-82222019D01*
X191589525Y-82224343D01*
X191545691Y-82255036D01*
X191408276Y-82351255D01*
X191408273Y-82351257D01*
X191403765Y-82354414D01*
X191243414Y-82514765D01*
X191240257Y-82519273D01*
X191240255Y-82519276D01*
X191221446Y-82546138D01*
X191165988Y-82590467D01*
X191095369Y-82597775D01*
X191032008Y-82565744D01*
X190996024Y-82504542D01*
X190992970Y-82487474D01*
X190990099Y-82461040D01*
X190990098Y-82461036D01*
X190989245Y-82453184D01*
X190938115Y-82316795D01*
X190850761Y-82200239D01*
X190734205Y-82112885D01*
X190597816Y-82061755D01*
X190535634Y-82055000D01*
X188864366Y-82055000D01*
X188802184Y-82061755D01*
X188665795Y-82112885D01*
X188549239Y-82200239D01*
X188461885Y-82316795D01*
X188410755Y-82453184D01*
X188404000Y-82515366D01*
X188404000Y-84186634D01*
X188410755Y-84248816D01*
X188461885Y-84385205D01*
X188549239Y-84501761D01*
X188665795Y-84589115D01*
X188802184Y-84640245D01*
X188864366Y-84647000D01*
X190535634Y-84647000D01*
X190597816Y-84640245D01*
X190734205Y-84589115D01*
X190850761Y-84501761D01*
X190938115Y-84385205D01*
X190989245Y-84248816D01*
X190990098Y-84240964D01*
X190990099Y-84240960D01*
X190992970Y-84214526D01*
X191020212Y-84148964D01*
X191078574Y-84108537D01*
X191149529Y-84106081D01*
X191210547Y-84142376D01*
X191221446Y-84155862D01*
X191243414Y-84187235D01*
X191403765Y-84347586D01*
X191408274Y-84350743D01*
X191408276Y-84350745D01*
X191585020Y-84474504D01*
X191585026Y-84474508D01*
X191589524Y-84477657D01*
X191795049Y-84573494D01*
X191800353Y-84574915D01*
X191800358Y-84574917D01*
X191949740Y-84614944D01*
X192014092Y-84632187D01*
X192240000Y-84651951D01*
X192465908Y-84632187D01*
X192530260Y-84614944D01*
X192679642Y-84574917D01*
X192679647Y-84574915D01*
X192684951Y-84573494D01*
X192890476Y-84477657D01*
X192894974Y-84474508D01*
X192894980Y-84474504D01*
X193071724Y-84350745D01*
X193071726Y-84350743D01*
X193076235Y-84347586D01*
X193236586Y-84187235D01*
X193260587Y-84152959D01*
X193322784Y-84064132D01*
X193366657Y-84001475D01*
X193368980Y-83996493D01*
X193368983Y-83996488D01*
X193395805Y-83938967D01*
X193442722Y-83885682D01*
X193511000Y-83866221D01*
X193578960Y-83886763D01*
X193624195Y-83938967D01*
X193651017Y-83996488D01*
X193651020Y-83996493D01*
X193653343Y-84001475D01*
X193697216Y-84064132D01*
X193759414Y-84152959D01*
X193783414Y-84187235D01*
X193943765Y-84347586D01*
X193948274Y-84350743D01*
X193948276Y-84350745D01*
X194092771Y-84451922D01*
X194137099Y-84507379D01*
X194146500Y-84555135D01*
X194146500Y-86462305D01*
X194126498Y-86530426D01*
X194109595Y-86551400D01*
X193972017Y-86688978D01*
X193909705Y-86723004D01*
X193838890Y-86717939D01*
X193782054Y-86675392D01*
X193768728Y-86653134D01*
X193760852Y-86636244D01*
X193760848Y-86636237D01*
X193758523Y-86631251D01*
X193662844Y-86494607D01*
X193630357Y-86448211D01*
X193630355Y-86448208D01*
X193627198Y-86443700D01*
X193465300Y-86281802D01*
X193460792Y-86278645D01*
X193460789Y-86278643D01*
X193376458Y-86219594D01*
X193277749Y-86150477D01*
X193272767Y-86148154D01*
X193272762Y-86148151D01*
X193075225Y-86056039D01*
X193075224Y-86056039D01*
X193070243Y-86053716D01*
X193064935Y-86052294D01*
X193064933Y-86052293D01*
X192854402Y-85995881D01*
X192854400Y-85995881D01*
X192849087Y-85994457D01*
X192621000Y-85974502D01*
X192392913Y-85994457D01*
X192387600Y-85995881D01*
X192387598Y-85995881D01*
X192177067Y-86052293D01*
X192177065Y-86052294D01*
X192171757Y-86053716D01*
X192166776Y-86056039D01*
X192166775Y-86056039D01*
X191969238Y-86148151D01*
X191969233Y-86148154D01*
X191964251Y-86150477D01*
X191865542Y-86219594D01*
X191781211Y-86278643D01*
X191781208Y-86278645D01*
X191776700Y-86281802D01*
X191614802Y-86443700D01*
X191611645Y-86448208D01*
X191611643Y-86448211D01*
X191579156Y-86494607D01*
X191483477Y-86631251D01*
X191481154Y-86636233D01*
X191481151Y-86636238D01*
X191392314Y-86826752D01*
X191386716Y-86838757D01*
X191385294Y-86844065D01*
X191385293Y-86844067D01*
X191337620Y-87021984D01*
X191327457Y-87059913D01*
X191307502Y-87288000D01*
X191325169Y-87489928D01*
X191325607Y-87494938D01*
X191311618Y-87564543D01*
X191289181Y-87595015D01*
X188134844Y-90749351D01*
X184989747Y-93894448D01*
X184981461Y-93901988D01*
X184974982Y-93906100D01*
X184969557Y-93911877D01*
X184928357Y-93955751D01*
X184925602Y-93958593D01*
X184905865Y-93978330D01*
X184903385Y-93981527D01*
X184895682Y-93990547D01*
X184865414Y-94022779D01*
X184863949Y-94021403D01*
X184816124Y-94058284D01*
X184745387Y-94064361D01*
X184694842Y-94041695D01*
X184654934Y-94011785D01*
X184612419Y-93954926D01*
X184604500Y-93910960D01*
X184604500Y-93432754D01*
X184624502Y-93364633D01*
X184678158Y-93318140D01*
X184686270Y-93314772D01*
X184734297Y-93296767D01*
X184742705Y-93293615D01*
X184859261Y-93206261D01*
X184946615Y-93089705D01*
X184997745Y-92953316D01*
X185004500Y-92891134D01*
X185004500Y-91844866D01*
X184997745Y-91782684D01*
X184946615Y-91646295D01*
X184859261Y-91529739D01*
X184742705Y-91442385D01*
X184606316Y-91391255D01*
X184544134Y-91384500D01*
X183855500Y-91384500D01*
X183787379Y-91364498D01*
X183740886Y-91310842D01*
X183729500Y-91258500D01*
X183729500Y-84555135D01*
X183749502Y-84487014D01*
X183783229Y-84451922D01*
X183927724Y-84350745D01*
X183927726Y-84350743D01*
X183932235Y-84347586D01*
X184092586Y-84187235D01*
X184116587Y-84152959D01*
X184178784Y-84064132D01*
X184222657Y-84001475D01*
X184224980Y-83996493D01*
X184224983Y-83996488D01*
X184286170Y-83865271D01*
X184318494Y-83795951D01*
X184377187Y-83576908D01*
X184396951Y-83351000D01*
X184377187Y-83125092D01*
X184318494Y-82906049D01*
X184263992Y-82789168D01*
X184224983Y-82705512D01*
X184224980Y-82705507D01*
X184222657Y-82700525D01*
X184111489Y-82541761D01*
X184095745Y-82519276D01*
X184095743Y-82519273D01*
X184092586Y-82514765D01*
X183932235Y-82354414D01*
X183927724Y-82351255D01*
X183750980Y-82227496D01*
X183750974Y-82227492D01*
X183746476Y-82224343D01*
X183540951Y-82128506D01*
X183535647Y-82127085D01*
X183535642Y-82127083D01*
X183364065Y-82081109D01*
X183321908Y-82069813D01*
X183096000Y-82050049D01*
X182870092Y-82069813D01*
X182651049Y-82128506D01*
X182588648Y-82157604D01*
X182450512Y-82222017D01*
X182450509Y-82222019D01*
X182445525Y-82224343D01*
X182401691Y-82255036D01*
X182264276Y-82351255D01*
X182264273Y-82351257D01*
X182259765Y-82354414D01*
X182255869Y-82358310D01*
X182251665Y-82361838D01*
X182250246Y-82360147D01*
X182196275Y-82389618D01*
X182125460Y-82384553D01*
X182080397Y-82355592D01*
X181570252Y-81845447D01*
X181562712Y-81837161D01*
X181558600Y-81830682D01*
X181549945Y-81822554D01*
X181508949Y-81784057D01*
X181506107Y-81781302D01*
X181486370Y-81761565D01*
X181483173Y-81759085D01*
X181474151Y-81751380D01*
X181441921Y-81721114D01*
X181434975Y-81717295D01*
X181434972Y-81717293D01*
X181424166Y-81711352D01*
X181407647Y-81700501D01*
X181402964Y-81696869D01*
X181391641Y-81688086D01*
X181384372Y-81684941D01*
X181384368Y-81684938D01*
X181351063Y-81670526D01*
X181340413Y-81665309D01*
X181301660Y-81644005D01*
X181291145Y-81641305D01*
X181283514Y-81639346D01*
X181282037Y-81638967D01*
X181263334Y-81632563D01*
X181252020Y-81627667D01*
X181252019Y-81627667D01*
X181244745Y-81624519D01*
X181236922Y-81623280D01*
X181236912Y-81623277D01*
X181201076Y-81617601D01*
X181189456Y-81615195D01*
X181154311Y-81606172D01*
X181154310Y-81606172D01*
X181146630Y-81604200D01*
X181126376Y-81604200D01*
X181106665Y-81602649D01*
X181102606Y-81602006D01*
X181086657Y-81599480D01*
X181044427Y-81603472D01*
X181042639Y-81603641D01*
X181030781Y-81604200D01*
X176668067Y-81604200D01*
X176656884Y-81603673D01*
X176649391Y-81601998D01*
X176641465Y-81602247D01*
X176641464Y-81602247D01*
X176581301Y-81604138D01*
X176577343Y-81604200D01*
X176549444Y-81604200D01*
X176545454Y-81604704D01*
X176533620Y-81605636D01*
X176489411Y-81607026D01*
X176481797Y-81609238D01*
X176481792Y-81609239D01*
X176469959Y-81612677D01*
X176450596Y-81616688D01*
X176430503Y-81619226D01*
X176423136Y-81622143D01*
X176423131Y-81622144D01*
X176389392Y-81635502D01*
X176378165Y-81639346D01*
X176335707Y-81651682D01*
X176328881Y-81655719D01*
X176318272Y-81661993D01*
X176300524Y-81670688D01*
X176281683Y-81678148D01*
X176275267Y-81682810D01*
X176275266Y-81682810D01*
X176245913Y-81704136D01*
X176235993Y-81710652D01*
X176204765Y-81729120D01*
X176204762Y-81729122D01*
X176197938Y-81733158D01*
X176183617Y-81747479D01*
X176168584Y-81760319D01*
X176152193Y-81772228D01*
X176144641Y-81781357D01*
X176124002Y-81806305D01*
X176116012Y-81815084D01*
X175879043Y-82052053D01*
X175816731Y-82086079D01*
X175757337Y-82084665D01*
X175724640Y-82075904D01*
X175701908Y-82069813D01*
X175476000Y-82050049D01*
X175250092Y-82069813D01*
X175031049Y-82128506D01*
X174968648Y-82157604D01*
X174830512Y-82222017D01*
X174830509Y-82222019D01*
X174825525Y-82224343D01*
X174639765Y-82354414D01*
X174638914Y-82353198D01*
X174580238Y-82378878D01*
X174510133Y-82367661D01*
X174475191Y-82342987D01*
X173974947Y-81842742D01*
X173967413Y-81834463D01*
X173963300Y-81827982D01*
X173913648Y-81781356D01*
X173910807Y-81778602D01*
X173891070Y-81758865D01*
X173887873Y-81756385D01*
X173878851Y-81748680D01*
X173862322Y-81733158D01*
X173846621Y-81718414D01*
X173839675Y-81714595D01*
X173839672Y-81714593D01*
X173828866Y-81708652D01*
X173812347Y-81697801D01*
X173809629Y-81695693D01*
X173796341Y-81685386D01*
X173789072Y-81682241D01*
X173789068Y-81682238D01*
X173755763Y-81667826D01*
X173745113Y-81662609D01*
X173706360Y-81641305D01*
X173697255Y-81638967D01*
X173691954Y-81637606D01*
X173686737Y-81636267D01*
X173668034Y-81629863D01*
X173656720Y-81624967D01*
X173656719Y-81624967D01*
X173649445Y-81621819D01*
X173641622Y-81620580D01*
X173641612Y-81620577D01*
X173605776Y-81614901D01*
X173594156Y-81612495D01*
X173559011Y-81603472D01*
X173559010Y-81603472D01*
X173551330Y-81601500D01*
X173531076Y-81601500D01*
X173511365Y-81599949D01*
X173508834Y-81599548D01*
X173491357Y-81596780D01*
X173449677Y-81600720D01*
X173447339Y-81600941D01*
X173435481Y-81601500D01*
X169050763Y-81601500D01*
X169039579Y-81600973D01*
X169032091Y-81599299D01*
X169024168Y-81599548D01*
X168964033Y-81601438D01*
X168960075Y-81601500D01*
X168932144Y-81601500D01*
X168928229Y-81601995D01*
X168928225Y-81601995D01*
X168928167Y-81602003D01*
X168928138Y-81602006D01*
X168916296Y-81602939D01*
X168872110Y-81604327D01*
X168858637Y-81608241D01*
X168852658Y-81609978D01*
X168833306Y-81613986D01*
X168826235Y-81614880D01*
X168813203Y-81616526D01*
X168805834Y-81619443D01*
X168805832Y-81619444D01*
X168772097Y-81632800D01*
X168760869Y-81636645D01*
X168718407Y-81648982D01*
X168711585Y-81653016D01*
X168711579Y-81653019D01*
X168700968Y-81659294D01*
X168683218Y-81667990D01*
X168671756Y-81672528D01*
X168671751Y-81672531D01*
X168664383Y-81675448D01*
X168647777Y-81687513D01*
X168628625Y-81701427D01*
X168618707Y-81707943D01*
X168609433Y-81713428D01*
X168580637Y-81730458D01*
X168566313Y-81744782D01*
X168551281Y-81757621D01*
X168534893Y-81769528D01*
X168522874Y-81784057D01*
X168506712Y-81803593D01*
X168498722Y-81812373D01*
X168259042Y-82052053D01*
X168196730Y-82086079D01*
X168137335Y-82084664D01*
X168087229Y-82071238D01*
X168087221Y-82071237D01*
X168081908Y-82069813D01*
X167856000Y-82050049D01*
X167630092Y-82069813D01*
X167411049Y-82128506D01*
X167348648Y-82157604D01*
X167210512Y-82222017D01*
X167210509Y-82222019D01*
X167205525Y-82224343D01*
X167161691Y-82255036D01*
X167024276Y-82351255D01*
X167024273Y-82351257D01*
X167019765Y-82354414D01*
X166859414Y-82514765D01*
X166856257Y-82519273D01*
X166856255Y-82519276D01*
X166837446Y-82546138D01*
X166781988Y-82590467D01*
X166711369Y-82597775D01*
X166648008Y-82565744D01*
X166612024Y-82504542D01*
X166608970Y-82487474D01*
X166606099Y-82461040D01*
X166606098Y-82461036D01*
X166605245Y-82453184D01*
X166554115Y-82316795D01*
X166466761Y-82200239D01*
X166350205Y-82112885D01*
X166213816Y-82061755D01*
X166151634Y-82055000D01*
X164480366Y-82055000D01*
X164418184Y-82061755D01*
X164410788Y-82064527D01*
X164410782Y-82064529D01*
X164390094Y-82072285D01*
X164319287Y-82077468D01*
X164256918Y-82043547D01*
X164222789Y-81981291D01*
X164220107Y-81946501D01*
X164221131Y-81929999D01*
X164226547Y-81842702D01*
X164223827Y-81826869D01*
X164197834Y-81675602D01*
X164197834Y-81675601D01*
X164196594Y-81668386D01*
X164127343Y-81505636D01*
X164123007Y-81499743D01*
X164123004Y-81499739D01*
X164040907Y-81388182D01*
X164016641Y-81321462D01*
X164032298Y-81252213D01*
X164082909Y-81202423D01*
X164142389Y-81187500D01*
X210865500Y-81187500D01*
X210933621Y-81207502D01*
G37*
%TD.AperFunction*%
%TA.AperFunction,Conductor*%
G36*
X161354161Y-81207502D02*
G01*
X161400654Y-81261158D01*
X161410758Y-81331432D01*
X161377513Y-81400152D01*
X161357548Y-81421228D01*
X161357545Y-81421232D01*
X161352510Y-81426547D01*
X161263674Y-81579490D01*
X161261553Y-81586494D01*
X161261551Y-81586498D01*
X161228235Y-81696500D01*
X161212405Y-81748767D01*
X161201453Y-81925298D01*
X161202693Y-81932514D01*
X161202693Y-81932516D01*
X161219392Y-82029699D01*
X161211215Y-82100224D01*
X161186685Y-82137690D01*
X161149221Y-82177238D01*
X161102510Y-82226547D01*
X161013674Y-82379490D01*
X161011553Y-82386494D01*
X161011551Y-82386498D01*
X160983575Y-82478868D01*
X160962405Y-82548767D01*
X160951453Y-82725298D01*
X160952693Y-82732514D01*
X160952693Y-82732516D01*
X160977269Y-82875537D01*
X160981406Y-82899614D01*
X160984272Y-82906349D01*
X161015285Y-82979235D01*
X161023551Y-83049749D01*
X161015764Y-83075893D01*
X161013674Y-83079490D01*
X160962405Y-83248767D01*
X160951453Y-83425298D01*
X160952693Y-83432514D01*
X160952693Y-83432516D01*
X160965417Y-83506565D01*
X160981406Y-83599614D01*
X161050657Y-83762364D01*
X161054990Y-83768252D01*
X161054993Y-83768257D01*
X161127088Y-83866221D01*
X161155492Y-83904818D01*
X161172799Y-83919521D01*
X161211763Y-83978868D01*
X161215229Y-84037856D01*
X161214526Y-84041764D01*
X161212405Y-84048767D01*
X161201453Y-84225298D01*
X161202693Y-84232514D01*
X161202693Y-84232516D01*
X161226539Y-84371291D01*
X161231406Y-84399614D01*
X161234272Y-84406348D01*
X161234272Y-84406350D01*
X161276310Y-84505146D01*
X161284576Y-84575660D01*
X161269324Y-84617762D01*
X161268591Y-84619025D01*
X161263674Y-84627490D01*
X161261553Y-84634494D01*
X161261551Y-84634498D01*
X161231311Y-84734345D01*
X161212405Y-84796767D01*
X161201453Y-84973298D01*
X161202693Y-84980514D01*
X161202693Y-84980516D01*
X161219392Y-85077699D01*
X161211215Y-85148224D01*
X161186685Y-85185690D01*
X161114240Y-85262165D01*
X161102510Y-85274547D01*
X161013674Y-85427490D01*
X161011553Y-85434494D01*
X161011551Y-85434498D01*
X160977147Y-85548094D01*
X160962405Y-85596767D01*
X160951453Y-85773298D01*
X160952693Y-85780514D01*
X160952693Y-85780516D01*
X160971094Y-85887603D01*
X160981406Y-85947614D01*
X160994286Y-85977884D01*
X161015285Y-86027235D01*
X161023551Y-86097749D01*
X161015764Y-86123893D01*
X161013674Y-86127490D01*
X160962405Y-86296767D01*
X160951453Y-86473298D01*
X160952693Y-86480514D01*
X160952693Y-86480516D01*
X160979034Y-86633808D01*
X160981406Y-86647614D01*
X161050657Y-86810364D01*
X161054990Y-86816252D01*
X161054993Y-86816257D01*
X161122712Y-86908275D01*
X161155492Y-86952818D01*
X161172799Y-86967521D01*
X161211763Y-87026868D01*
X161215229Y-87085856D01*
X161214526Y-87089764D01*
X161212405Y-87096767D01*
X161201453Y-87273298D01*
X161202693Y-87280514D01*
X161202693Y-87280516D01*
X161225525Y-87413389D01*
X161231406Y-87447614D01*
X161264107Y-87524466D01*
X161300657Y-87610364D01*
X161297655Y-87611641D01*
X161310583Y-87666748D01*
X161293729Y-87723086D01*
X161255351Y-87789159D01*
X161251674Y-87795490D01*
X161249553Y-87802494D01*
X161249551Y-87802498D01*
X161218373Y-87905442D01*
X161200405Y-87964767D01*
X161189453Y-88141298D01*
X161190693Y-88148514D01*
X161190693Y-88148516D01*
X161207392Y-88245699D01*
X161199215Y-88316224D01*
X161174685Y-88353690D01*
X161127319Y-88403691D01*
X161090510Y-88442547D01*
X161001674Y-88595490D01*
X160999553Y-88602494D01*
X160999551Y-88602498D01*
X160971949Y-88693634D01*
X160950405Y-88764767D01*
X160939453Y-88941298D01*
X160940693Y-88948514D01*
X160940693Y-88948516D01*
X160964702Y-89088240D01*
X160969406Y-89115614D01*
X160972272Y-89122349D01*
X161003285Y-89195235D01*
X161011551Y-89265749D01*
X161003764Y-89291893D01*
X161001674Y-89295490D01*
X160950405Y-89464767D01*
X160939453Y-89641298D01*
X160940693Y-89648514D01*
X160940693Y-89648516D01*
X160949202Y-89698035D01*
X160969406Y-89815614D01*
X161038657Y-89978364D01*
X161042990Y-89984252D01*
X161042993Y-89984257D01*
X161102811Y-90065539D01*
X161143492Y-90120818D01*
X161160799Y-90135521D01*
X161199763Y-90194868D01*
X161203229Y-90253856D01*
X161202526Y-90257764D01*
X161200405Y-90264767D01*
X161189453Y-90441298D01*
X161190693Y-90448514D01*
X161190693Y-90448516D01*
X161196199Y-90480558D01*
X161219406Y-90615614D01*
X161222272Y-90622348D01*
X161222272Y-90622350D01*
X161264310Y-90721146D01*
X161272576Y-90791660D01*
X161257324Y-90833762D01*
X161251674Y-90843490D01*
X161236076Y-90894991D01*
X161197189Y-90954386D01*
X161132360Y-90983330D01*
X161071257Y-90976447D01*
X161014106Y-90955022D01*
X160998851Y-90951395D01*
X160947986Y-90945869D01*
X160941172Y-90945500D01*
X160381115Y-90945500D01*
X160365876Y-90949975D01*
X160364671Y-90951365D01*
X160363000Y-90959048D01*
X160363000Y-92369000D01*
X160342998Y-92437121D01*
X160289342Y-92483614D01*
X160237000Y-92495000D01*
X158831616Y-92495000D01*
X158816377Y-92499475D01*
X158815172Y-92500865D01*
X158813501Y-92508548D01*
X158813501Y-93073169D01*
X158813871Y-93079990D01*
X158819395Y-93130852D01*
X158823021Y-93146104D01*
X158868176Y-93266554D01*
X158876714Y-93282149D01*
X158953215Y-93384224D01*
X158965776Y-93396785D01*
X159067851Y-93473286D01*
X159083446Y-93481824D01*
X159203894Y-93526978D01*
X159219149Y-93530605D01*
X159270014Y-93536131D01*
X159279541Y-93536647D01*
X159346480Y-93560305D01*
X159390003Y-93616397D01*
X159398056Y-93675437D01*
X159395428Y-93700826D01*
X159403618Y-93716408D01*
X160096188Y-94408978D01*
X160110132Y-94416592D01*
X160111965Y-94416461D01*
X160118580Y-94412210D01*
X160815103Y-93715687D01*
X160822717Y-93701743D01*
X160820547Y-93671399D01*
X160835638Y-93602025D01*
X160885840Y-93551823D01*
X160939413Y-93536594D01*
X160947989Y-93536130D01*
X160998852Y-93530605D01*
X161014103Y-93526979D01*
X161042307Y-93516406D01*
X161113114Y-93511223D01*
X161175483Y-93545144D01*
X161210717Y-93613049D01*
X161218166Y-93656399D01*
X161219406Y-93663614D01*
X161222272Y-93670349D01*
X161222273Y-93670353D01*
X161239436Y-93710688D01*
X161247703Y-93781202D01*
X161244089Y-93796535D01*
X161200405Y-93940767D01*
X161197489Y-93987771D01*
X161196211Y-94008369D01*
X161172029Y-94075120D01*
X161159548Y-94089662D01*
X159402897Y-95846313D01*
X159396467Y-95858087D01*
X159405764Y-95870103D01*
X159454270Y-95904067D01*
X159463760Y-95909547D01*
X159522216Y-95936805D01*
X159575502Y-95983722D01*
X159594963Y-96051999D01*
X159574422Y-96119959D01*
X159522217Y-96165195D01*
X159463761Y-96192454D01*
X159454271Y-96197933D01*
X159404924Y-96232485D01*
X159396550Y-96242961D01*
X159403618Y-96256408D01*
X160096188Y-96948978D01*
X160110132Y-96956592D01*
X160111965Y-96956461D01*
X160118580Y-96952210D01*
X160815103Y-96255687D01*
X160821533Y-96243913D01*
X160812236Y-96231897D01*
X160763730Y-96197933D01*
X160754244Y-96192455D01*
X160695784Y-96165195D01*
X160642499Y-96118278D01*
X160623038Y-96050000D01*
X160643580Y-95982041D01*
X160695784Y-95936805D01*
X160754238Y-95909548D01*
X160763733Y-95904065D01*
X160831714Y-95856464D01*
X160898988Y-95833776D01*
X160967848Y-95851061D01*
X161016432Y-95902830D01*
X161019925Y-95910343D01*
X161035789Y-95947626D01*
X161035793Y-95947633D01*
X161038657Y-95954364D01*
X161042990Y-95960252D01*
X161042993Y-95960257D01*
X161105743Y-96045523D01*
X161143492Y-96096818D01*
X161160799Y-96111521D01*
X161199763Y-96170868D01*
X161203229Y-96229856D01*
X161202526Y-96233764D01*
X161200405Y-96240767D01*
X161189453Y-96417298D01*
X161190693Y-96424514D01*
X161190693Y-96424516D01*
X161205159Y-96508703D01*
X161196982Y-96579227D01*
X161170074Y-96619136D01*
X159402897Y-98386313D01*
X159396467Y-98398087D01*
X159405764Y-98410103D01*
X159454270Y-98444067D01*
X159463760Y-98449547D01*
X159522216Y-98476805D01*
X159575502Y-98523722D01*
X159594963Y-98591999D01*
X159574422Y-98659959D01*
X159522217Y-98705195D01*
X159463761Y-98732454D01*
X159454271Y-98737933D01*
X159404924Y-98772485D01*
X159396550Y-98782961D01*
X159403618Y-98796408D01*
X160379115Y-99771905D01*
X160413141Y-99834217D01*
X160408076Y-99905032D01*
X160379115Y-99950095D01*
X159402897Y-100926313D01*
X159396467Y-100938087D01*
X159405764Y-100950103D01*
X159454270Y-100984067D01*
X159463760Y-100989547D01*
X159522216Y-101016805D01*
X159575502Y-101063722D01*
X159594963Y-101131999D01*
X159574422Y-101199959D01*
X159522217Y-101245195D01*
X159463761Y-101272454D01*
X159454271Y-101277933D01*
X159404924Y-101312485D01*
X159396550Y-101322961D01*
X159403618Y-101336408D01*
X160379115Y-102311905D01*
X160413141Y-102374217D01*
X160408076Y-102445032D01*
X160379115Y-102490095D01*
X159402897Y-103466313D01*
X159396467Y-103478087D01*
X159405764Y-103490103D01*
X159454270Y-103524067D01*
X159463760Y-103529547D01*
X159522216Y-103556805D01*
X159575502Y-103603722D01*
X159594963Y-103671999D01*
X159574422Y-103739959D01*
X159522217Y-103785195D01*
X159463761Y-103812454D01*
X159454271Y-103817933D01*
X159404924Y-103852485D01*
X159396550Y-103862961D01*
X159403618Y-103876408D01*
X161187125Y-105659915D01*
X161185478Y-105661562D01*
X161217260Y-105693345D01*
X161227120Y-105721666D01*
X161228100Y-105721378D01*
X161230166Y-105728399D01*
X161231406Y-105735614D01*
X161234272Y-105742348D01*
X161234272Y-105742350D01*
X161276310Y-105841146D01*
X161284576Y-105911660D01*
X161269324Y-105953762D01*
X161268974Y-105954366D01*
X161263674Y-105963490D01*
X161261553Y-105970494D01*
X161261551Y-105970498D01*
X161231626Y-106069303D01*
X161212405Y-106132767D01*
X161201453Y-106309298D01*
X161202693Y-106316514D01*
X161202693Y-106316516D01*
X161219392Y-106413699D01*
X161211215Y-106484224D01*
X161186685Y-106521690D01*
X161156952Y-106553077D01*
X161102510Y-106610547D01*
X161013674Y-106763490D01*
X161011553Y-106770494D01*
X161011551Y-106770498D01*
X160971879Y-106901488D01*
X160962405Y-106932767D01*
X160951453Y-107109298D01*
X160952693Y-107116514D01*
X160952693Y-107116516D01*
X160968798Y-107210239D01*
X160981406Y-107283614D01*
X160984272Y-107290349D01*
X161015285Y-107363235D01*
X161023551Y-107433749D01*
X161015764Y-107459893D01*
X161013674Y-107463490D01*
X160962405Y-107632767D01*
X160951453Y-107809298D01*
X160952693Y-107816514D01*
X160952693Y-107816516D01*
X160977423Y-107960437D01*
X160981406Y-107983614D01*
X161050657Y-108146364D01*
X161054990Y-108152252D01*
X161054993Y-108152257D01*
X161093687Y-108204835D01*
X161155492Y-108288818D01*
X161172799Y-108303521D01*
X161211763Y-108362868D01*
X161215229Y-108421856D01*
X161214526Y-108425764D01*
X161212405Y-108432767D01*
X161201453Y-108609298D01*
X161202693Y-108616514D01*
X161202693Y-108616516D01*
X161216125Y-108694686D01*
X161231406Y-108783614D01*
X161234272Y-108790348D01*
X161234272Y-108790350D01*
X161276310Y-108889146D01*
X161284576Y-108959660D01*
X161269324Y-109001762D01*
X161263674Y-109011490D01*
X161261553Y-109018494D01*
X161261551Y-109018498D01*
X161233928Y-109109703D01*
X161212405Y-109180767D01*
X161201453Y-109357298D01*
X161202693Y-109364514D01*
X161202693Y-109364516D01*
X161219392Y-109461699D01*
X161211215Y-109532224D01*
X161186685Y-109569690D01*
X161110003Y-109650637D01*
X161102510Y-109658547D01*
X161013674Y-109811490D01*
X161011553Y-109818494D01*
X161011551Y-109818498D01*
X160981022Y-109919297D01*
X160962405Y-109980767D01*
X160951453Y-110157298D01*
X160952693Y-110164514D01*
X160952693Y-110164516D01*
X160967594Y-110251233D01*
X160981406Y-110331614D01*
X160984272Y-110338349D01*
X161015285Y-110411235D01*
X161023551Y-110481749D01*
X161015764Y-110507893D01*
X161013674Y-110511490D01*
X160962405Y-110680767D01*
X160951453Y-110857298D01*
X160952693Y-110864514D01*
X160952693Y-110864516D01*
X160966339Y-110943928D01*
X160981406Y-111031614D01*
X161050657Y-111194364D01*
X161054990Y-111200252D01*
X161054993Y-111200257D01*
X161119455Y-111287849D01*
X161155492Y-111336818D01*
X161172799Y-111351521D01*
X161211763Y-111410868D01*
X161215229Y-111469856D01*
X161214526Y-111473764D01*
X161212405Y-111480767D01*
X161201453Y-111657298D01*
X161202693Y-111664514D01*
X161202693Y-111664516D01*
X161216125Y-111742686D01*
X161231406Y-111831614D01*
X161234272Y-111838348D01*
X161234272Y-111838350D01*
X161276310Y-111937146D01*
X161284576Y-112007660D01*
X161269324Y-112049762D01*
X161263674Y-112059490D01*
X161261553Y-112066494D01*
X161261551Y-112066498D01*
X161226577Y-112181975D01*
X161212405Y-112228767D01*
X161201453Y-112405298D01*
X161202693Y-112412514D01*
X161202693Y-112412516D01*
X161219392Y-112509699D01*
X161211215Y-112580224D01*
X161186685Y-112617690D01*
X161116609Y-112691664D01*
X161102510Y-112706547D01*
X161013674Y-112859490D01*
X161011553Y-112866494D01*
X161011551Y-112866498D01*
X160980639Y-112968563D01*
X160962405Y-113028767D01*
X160951453Y-113205298D01*
X160952693Y-113212514D01*
X160952693Y-113212516D01*
X160971845Y-113323973D01*
X160981406Y-113379614D01*
X160984272Y-113386349D01*
X161015285Y-113459235D01*
X161023551Y-113529749D01*
X161015764Y-113555893D01*
X161013674Y-113559490D01*
X160962405Y-113728767D01*
X160951453Y-113905298D01*
X160952693Y-113912514D01*
X160952693Y-113912516D01*
X160972845Y-114029792D01*
X160981406Y-114079614D01*
X161050657Y-114242364D01*
X161054990Y-114248252D01*
X161054993Y-114248257D01*
X161110367Y-114323500D01*
X161155492Y-114384818D01*
X161172799Y-114399521D01*
X161211763Y-114458868D01*
X161215229Y-114517856D01*
X161214526Y-114521764D01*
X161212405Y-114528767D01*
X161201453Y-114705298D01*
X161202693Y-114712514D01*
X161202693Y-114712516D01*
X161217405Y-114798132D01*
X161231406Y-114879614D01*
X161300657Y-115042364D01*
X161304997Y-115048262D01*
X161307741Y-115053072D01*
X161324117Y-115122154D01*
X161300546Y-115189124D01*
X161244509Y-115232718D01*
X161198293Y-115241500D01*
X143155101Y-115241500D01*
X143086980Y-115221498D01*
X143040487Y-115167842D01*
X143030383Y-115097568D01*
X143059877Y-115032988D01*
X143082830Y-115012287D01*
X143160724Y-114957745D01*
X143160726Y-114957743D01*
X143165235Y-114954586D01*
X143325586Y-114794235D01*
X143379734Y-114716904D01*
X143435190Y-114672577D01*
X143505809Y-114665268D01*
X143527175Y-114671194D01*
X143641282Y-114713971D01*
X143641288Y-114713973D01*
X143648684Y-114716745D01*
X143710866Y-114723500D01*
X144757134Y-114723500D01*
X144819316Y-114716745D01*
X144955705Y-114665615D01*
X145072261Y-114578261D01*
X145159615Y-114461705D01*
X145168314Y-114438500D01*
X145180772Y-114405270D01*
X145223414Y-114348505D01*
X145289976Y-114323806D01*
X145298754Y-114323500D01*
X145709246Y-114323500D01*
X145777367Y-114343502D01*
X145823860Y-114397158D01*
X145827228Y-114405270D01*
X145839686Y-114438500D01*
X145848385Y-114461705D01*
X145935739Y-114578261D01*
X146052295Y-114665615D01*
X146188684Y-114716745D01*
X146250866Y-114723500D01*
X147297134Y-114723500D01*
X147359316Y-114716745D01*
X147495705Y-114665615D01*
X147612261Y-114578261D01*
X147699615Y-114461705D01*
X147702768Y-114453295D01*
X147707077Y-114445425D01*
X147709432Y-114446714D01*
X147743702Y-114401100D01*
X147810265Y-114376406D01*
X147819035Y-114376100D01*
X148268965Y-114376100D01*
X148337086Y-114396102D01*
X148380178Y-114445833D01*
X148380923Y-114445425D01*
X148382808Y-114448869D01*
X148383579Y-114449758D01*
X148384469Y-114451903D01*
X148385234Y-114453301D01*
X148388385Y-114461705D01*
X148475739Y-114578261D01*
X148592295Y-114665615D01*
X148728684Y-114716745D01*
X148790866Y-114723500D01*
X149837134Y-114723500D01*
X149899316Y-114716745D01*
X150035705Y-114665615D01*
X150152261Y-114578261D01*
X150239615Y-114461705D01*
X150248314Y-114438500D01*
X150260772Y-114405270D01*
X150303414Y-114348505D01*
X150369976Y-114323806D01*
X150378754Y-114323500D01*
X150789246Y-114323500D01*
X150857367Y-114343502D01*
X150903860Y-114397158D01*
X150907228Y-114405270D01*
X150919686Y-114438500D01*
X150928385Y-114461705D01*
X151015739Y-114578261D01*
X151132295Y-114665615D01*
X151268684Y-114716745D01*
X151330866Y-114723500D01*
X152377134Y-114723500D01*
X152439316Y-114716745D01*
X152575705Y-114665615D01*
X152692261Y-114578261D01*
X152779615Y-114461705D01*
X152782768Y-114453295D01*
X152819883Y-114354291D01*
X152862524Y-114297526D01*
X152893353Y-114282181D01*
X152893005Y-114281378D01*
X152900282Y-114278229D01*
X152907893Y-114276018D01*
X152914712Y-114271985D01*
X152914717Y-114271983D01*
X152925328Y-114265707D01*
X152943076Y-114257012D01*
X152961917Y-114249552D01*
X152997687Y-114223564D01*
X153007607Y-114217048D01*
X153038835Y-114198580D01*
X153038838Y-114198578D01*
X153045662Y-114194542D01*
X153059983Y-114180221D01*
X153075017Y-114167380D01*
X153083107Y-114161502D01*
X153091407Y-114155472D01*
X153119598Y-114121395D01*
X153127588Y-114112616D01*
X153419747Y-113820457D01*
X153428037Y-113812913D01*
X153434518Y-113808800D01*
X153481159Y-113759132D01*
X153483913Y-113756291D01*
X153503635Y-113736569D01*
X153506112Y-113733376D01*
X153513817Y-113724355D01*
X153530848Y-113706218D01*
X153544086Y-113692121D01*
X153552999Y-113675908D01*
X153553846Y-113674368D01*
X153564702Y-113657841D01*
X153572257Y-113648102D01*
X153572258Y-113648100D01*
X153577114Y-113641840D01*
X153594674Y-113601260D01*
X153599891Y-113590612D01*
X153617377Y-113558805D01*
X153621195Y-113551860D01*
X153626233Y-113532237D01*
X153632637Y-113513534D01*
X153637533Y-113502220D01*
X153637533Y-113502219D01*
X153640681Y-113494945D01*
X153641920Y-113487122D01*
X153641923Y-113487112D01*
X153647599Y-113451276D01*
X153650005Y-113439656D01*
X153659028Y-113404511D01*
X153659028Y-113404510D01*
X153661000Y-113396830D01*
X153661000Y-113376576D01*
X153662551Y-113356865D01*
X153664480Y-113344686D01*
X153665720Y-113336857D01*
X153661559Y-113292838D01*
X153661000Y-113280981D01*
X153661000Y-111447747D01*
X153681002Y-111379626D01*
X153734658Y-111333133D01*
X153804932Y-111323029D01*
X153840250Y-111333552D01*
X153939774Y-111379961D01*
X153939780Y-111379963D01*
X153944757Y-111382284D01*
X153950065Y-111383706D01*
X153950067Y-111383707D01*
X154160598Y-111440119D01*
X154160600Y-111440119D01*
X154165913Y-111441543D01*
X154394000Y-111461498D01*
X154622087Y-111441543D01*
X154627400Y-111440119D01*
X154627402Y-111440119D01*
X154837933Y-111383707D01*
X154837935Y-111383706D01*
X154843243Y-111382284D01*
X154858287Y-111375269D01*
X155045762Y-111287849D01*
X155045767Y-111287846D01*
X155050749Y-111285523D01*
X155124243Y-111234062D01*
X156212493Y-111234062D01*
X156221789Y-111246077D01*
X156272994Y-111281931D01*
X156282489Y-111287414D01*
X156479947Y-111379490D01*
X156490239Y-111383236D01*
X156700688Y-111439625D01*
X156711481Y-111441528D01*
X156928525Y-111460517D01*
X156939475Y-111460517D01*
X157156519Y-111441528D01*
X157167312Y-111439625D01*
X157377761Y-111383236D01*
X157388053Y-111379490D01*
X157585511Y-111287414D01*
X157595006Y-111281931D01*
X157647048Y-111245491D01*
X157655424Y-111235012D01*
X157648356Y-111221566D01*
X156946812Y-110520022D01*
X156932868Y-110512408D01*
X156931035Y-110512539D01*
X156924420Y-110516790D01*
X156218923Y-111222287D01*
X156212493Y-111234062D01*
X155124243Y-111234062D01*
X155180937Y-111194364D01*
X155233789Y-111157357D01*
X155233792Y-111157355D01*
X155238300Y-111154198D01*
X155400198Y-110992300D01*
X155531523Y-110804749D01*
X155533846Y-110799767D01*
X155533849Y-110799762D01*
X155550081Y-110764951D01*
X155596998Y-110711666D01*
X155665275Y-110692205D01*
X155733235Y-110712747D01*
X155778471Y-110764951D01*
X155794586Y-110799511D01*
X155800069Y-110809006D01*
X155836509Y-110861048D01*
X155846988Y-110869424D01*
X155860434Y-110862356D01*
X156561978Y-110160812D01*
X156568356Y-110149132D01*
X157298408Y-110149132D01*
X157298539Y-110150965D01*
X157302790Y-110157580D01*
X158008287Y-110863077D01*
X158020062Y-110869507D01*
X158032077Y-110860211D01*
X158067931Y-110809006D01*
X158073414Y-110799511D01*
X158165490Y-110602053D01*
X158169236Y-110591761D01*
X158225625Y-110381312D01*
X158227528Y-110370519D01*
X158246517Y-110153475D01*
X158246517Y-110142525D01*
X158227528Y-109925481D01*
X158225625Y-109914688D01*
X158169236Y-109704239D01*
X158165490Y-109693947D01*
X158073414Y-109496489D01*
X158067931Y-109486994D01*
X158031491Y-109434952D01*
X158021012Y-109426576D01*
X158007566Y-109433644D01*
X157306022Y-110135188D01*
X157298408Y-110149132D01*
X156568356Y-110149132D01*
X156569592Y-110146868D01*
X156569461Y-110145035D01*
X156565210Y-110138420D01*
X155859713Y-109432923D01*
X155847938Y-109426493D01*
X155835923Y-109435789D01*
X155800069Y-109486994D01*
X155794586Y-109496489D01*
X155778471Y-109531049D01*
X155731554Y-109584334D01*
X155663277Y-109603795D01*
X155595317Y-109583253D01*
X155550081Y-109531049D01*
X155533849Y-109496238D01*
X155533846Y-109496233D01*
X155531523Y-109491251D01*
X155431537Y-109348456D01*
X155403357Y-109308211D01*
X155403355Y-109308208D01*
X155400198Y-109303700D01*
X155238300Y-109141802D01*
X155233792Y-109138645D01*
X155233789Y-109138643D01*
X155122886Y-109060988D01*
X156212576Y-109060988D01*
X156219644Y-109074434D01*
X156921188Y-109775978D01*
X156935132Y-109783592D01*
X156936965Y-109783461D01*
X156943580Y-109779210D01*
X157649077Y-109073713D01*
X157655507Y-109061938D01*
X157646211Y-109049923D01*
X157595006Y-109014069D01*
X157585511Y-109008586D01*
X157388053Y-108916510D01*
X157377761Y-108912764D01*
X157167312Y-108856375D01*
X157156519Y-108854472D01*
X156939475Y-108835483D01*
X156928525Y-108835483D01*
X156711481Y-108854472D01*
X156700688Y-108856375D01*
X156490239Y-108912764D01*
X156479947Y-108916510D01*
X156282489Y-109008586D01*
X156272994Y-109014069D01*
X156220952Y-109050509D01*
X156212576Y-109060988D01*
X155122886Y-109060988D01*
X155107920Y-109050509D01*
X155050749Y-109010477D01*
X155045767Y-109008154D01*
X155045762Y-109008151D01*
X154848225Y-108916039D01*
X154848224Y-108916039D01*
X154843243Y-108913716D01*
X154837935Y-108912294D01*
X154837933Y-108912293D01*
X154627402Y-108855881D01*
X154627400Y-108855881D01*
X154622087Y-108854457D01*
X154394000Y-108834502D01*
X154165913Y-108854457D01*
X154160600Y-108855881D01*
X154160598Y-108855881D01*
X153950067Y-108912293D01*
X153950065Y-108912294D01*
X153944757Y-108913716D01*
X153939780Y-108916037D01*
X153939774Y-108916039D01*
X153840250Y-108962448D01*
X153770058Y-108973109D01*
X153705245Y-108944129D01*
X153666389Y-108884709D01*
X153661000Y-108848253D01*
X153661000Y-106018087D01*
X159396467Y-106018087D01*
X159405764Y-106030103D01*
X159454270Y-106064067D01*
X159463756Y-106069545D01*
X159659238Y-106160699D01*
X159669530Y-106164445D01*
X159877864Y-106220268D01*
X159888659Y-106222171D01*
X160103525Y-106240970D01*
X160114475Y-106240970D01*
X160329341Y-106222171D01*
X160340136Y-106220268D01*
X160548470Y-106164445D01*
X160558762Y-106160699D01*
X160754244Y-106069545D01*
X160763730Y-106064067D01*
X160813074Y-106029517D01*
X160821449Y-106019039D01*
X160814381Y-106005591D01*
X160121812Y-105313022D01*
X160107868Y-105305408D01*
X160106035Y-105305539D01*
X160099420Y-105309790D01*
X159402897Y-106006313D01*
X159396467Y-106018087D01*
X153661000Y-106018087D01*
X153661000Y-104946475D01*
X158809030Y-104946475D01*
X158827829Y-105161341D01*
X158829732Y-105172136D01*
X158885555Y-105380470D01*
X158889301Y-105390762D01*
X158980454Y-105586239D01*
X158985933Y-105595729D01*
X159020485Y-105645076D01*
X159030961Y-105653450D01*
X159044408Y-105646382D01*
X159736978Y-104953812D01*
X159744592Y-104939868D01*
X159744461Y-104938035D01*
X159740210Y-104931420D01*
X159043687Y-104234897D01*
X159031913Y-104228467D01*
X159019898Y-104237763D01*
X158985933Y-104286271D01*
X158980454Y-104295761D01*
X158889301Y-104491238D01*
X158885555Y-104501530D01*
X158829732Y-104709864D01*
X158827829Y-104720659D01*
X158809030Y-104935525D01*
X158809030Y-104946475D01*
X153661000Y-104946475D01*
X153661000Y-103827747D01*
X153681002Y-103759626D01*
X153734658Y-103713133D01*
X153804932Y-103703029D01*
X153840250Y-103713552D01*
X153939774Y-103759961D01*
X153939780Y-103759963D01*
X153944757Y-103762284D01*
X153950065Y-103763706D01*
X153950067Y-103763707D01*
X154160598Y-103820119D01*
X154160600Y-103820119D01*
X154165913Y-103821543D01*
X154394000Y-103841498D01*
X154622087Y-103821543D01*
X154627400Y-103820119D01*
X154627402Y-103820119D01*
X154837933Y-103763707D01*
X154837935Y-103763706D01*
X154843243Y-103762284D01*
X154848943Y-103759626D01*
X155045762Y-103667849D01*
X155045767Y-103667846D01*
X155050749Y-103665523D01*
X155206043Y-103556785D01*
X155233789Y-103537357D01*
X155233792Y-103537355D01*
X155238300Y-103534198D01*
X155400198Y-103372300D01*
X155404509Y-103366144D01*
X155486179Y-103249507D01*
X155531523Y-103184749D01*
X155533846Y-103179767D01*
X155533849Y-103179762D01*
X155549805Y-103145543D01*
X155596722Y-103092258D01*
X155664999Y-103072797D01*
X155732959Y-103093339D01*
X155778195Y-103145543D01*
X155794151Y-103179762D01*
X155794154Y-103179767D01*
X155796477Y-103184749D01*
X155841821Y-103249507D01*
X155923492Y-103366144D01*
X155927802Y-103372300D01*
X156089700Y-103534198D01*
X156094208Y-103537355D01*
X156094211Y-103537357D01*
X156121957Y-103556785D01*
X156277251Y-103665523D01*
X156282233Y-103667846D01*
X156282238Y-103667849D01*
X156479057Y-103759626D01*
X156484757Y-103762284D01*
X156490065Y-103763706D01*
X156490067Y-103763707D01*
X156700598Y-103820119D01*
X156700600Y-103820119D01*
X156705913Y-103821543D01*
X156934000Y-103841498D01*
X157162087Y-103821543D01*
X157167400Y-103820119D01*
X157167402Y-103820119D01*
X157377933Y-103763707D01*
X157377935Y-103763706D01*
X157383243Y-103762284D01*
X157388943Y-103759626D01*
X157585762Y-103667849D01*
X157585767Y-103667846D01*
X157590749Y-103665523D01*
X157746043Y-103556785D01*
X157773789Y-103537357D01*
X157773792Y-103537355D01*
X157778300Y-103534198D01*
X157940198Y-103372300D01*
X157944509Y-103366144D01*
X158026179Y-103249507D01*
X158071523Y-103184749D01*
X158073846Y-103179767D01*
X158073849Y-103179762D01*
X158165961Y-102982225D01*
X158165961Y-102982224D01*
X158168284Y-102977243D01*
X158169709Y-102971927D01*
X158226119Y-102761402D01*
X158226119Y-102761400D01*
X158227543Y-102756087D01*
X158247498Y-102528000D01*
X158236866Y-102406475D01*
X158809030Y-102406475D01*
X158827829Y-102621341D01*
X158829732Y-102632136D01*
X158885555Y-102840470D01*
X158889301Y-102850762D01*
X158980454Y-103046239D01*
X158985933Y-103055729D01*
X159020485Y-103105076D01*
X159030961Y-103113450D01*
X159044408Y-103106382D01*
X159736978Y-102413812D01*
X159744592Y-102399868D01*
X159744461Y-102398035D01*
X159740210Y-102391420D01*
X159043687Y-101694897D01*
X159031913Y-101688467D01*
X159019898Y-101697763D01*
X158985933Y-101746271D01*
X158980454Y-101755761D01*
X158889301Y-101951238D01*
X158885555Y-101961530D01*
X158829732Y-102169864D01*
X158827829Y-102180659D01*
X158809030Y-102395525D01*
X158809030Y-102406475D01*
X158236866Y-102406475D01*
X158227543Y-102299913D01*
X158215880Y-102256386D01*
X158169707Y-102084067D01*
X158169706Y-102084065D01*
X158168284Y-102078757D01*
X158165961Y-102073775D01*
X158073849Y-101876238D01*
X158073846Y-101876233D01*
X158071523Y-101871251D01*
X157957988Y-101709107D01*
X157943357Y-101688211D01*
X157943355Y-101688208D01*
X157940198Y-101683700D01*
X157778300Y-101521802D01*
X157773792Y-101518645D01*
X157773789Y-101518643D01*
X157685763Y-101457007D01*
X157590749Y-101390477D01*
X157585767Y-101388154D01*
X157585762Y-101388151D01*
X157388225Y-101296039D01*
X157388224Y-101296039D01*
X157383243Y-101293716D01*
X157377935Y-101292294D01*
X157377933Y-101292293D01*
X157167402Y-101235881D01*
X157167400Y-101235881D01*
X157162087Y-101234457D01*
X156934000Y-101214502D01*
X156705913Y-101234457D01*
X156700600Y-101235881D01*
X156700598Y-101235881D01*
X156632825Y-101254041D01*
X156484757Y-101293716D01*
X156476747Y-101297451D01*
X156475290Y-101297672D01*
X156474604Y-101297922D01*
X156474554Y-101297784D01*
X156406556Y-101308110D01*
X156341744Y-101279129D01*
X156302889Y-101219709D01*
X156297500Y-101183255D01*
X156297500Y-99866475D01*
X158809030Y-99866475D01*
X158827829Y-100081341D01*
X158829732Y-100092136D01*
X158885555Y-100300470D01*
X158889301Y-100310762D01*
X158980454Y-100506239D01*
X158985933Y-100515729D01*
X159020485Y-100565076D01*
X159030961Y-100573450D01*
X159044408Y-100566382D01*
X159736978Y-99873812D01*
X159744592Y-99859868D01*
X159744461Y-99858035D01*
X159740210Y-99851420D01*
X159043687Y-99154897D01*
X159031913Y-99148467D01*
X159019898Y-99157763D01*
X158985933Y-99206271D01*
X158980454Y-99215761D01*
X158889301Y-99411238D01*
X158885555Y-99421530D01*
X158829732Y-99629864D01*
X158827829Y-99640659D01*
X158809030Y-99855525D01*
X158809030Y-99866475D01*
X156297500Y-99866475D01*
X156297500Y-97326475D01*
X158809030Y-97326475D01*
X158827829Y-97541341D01*
X158829732Y-97552136D01*
X158885555Y-97760470D01*
X158889301Y-97770762D01*
X158980454Y-97966239D01*
X158985933Y-97975729D01*
X159020485Y-98025076D01*
X159030961Y-98033450D01*
X159044408Y-98026382D01*
X159736978Y-97333812D01*
X159744592Y-97319868D01*
X159744461Y-97318035D01*
X159740210Y-97311420D01*
X159043687Y-96614897D01*
X159031913Y-96608467D01*
X159019898Y-96617763D01*
X158985933Y-96666271D01*
X158980454Y-96675761D01*
X158889301Y-96871238D01*
X158885555Y-96881530D01*
X158829732Y-97089864D01*
X158827829Y-97100659D01*
X158809030Y-97315525D01*
X158809030Y-97326475D01*
X156297500Y-97326475D01*
X156297500Y-95236194D01*
X156317502Y-95168073D01*
X156371158Y-95121580D01*
X156441432Y-95111476D01*
X156476751Y-95122000D01*
X156479942Y-95123488D01*
X156490239Y-95127236D01*
X156700688Y-95183625D01*
X156711481Y-95185528D01*
X156928525Y-95204517D01*
X156939475Y-95204517D01*
X157156519Y-95185528D01*
X157167312Y-95183625D01*
X157377761Y-95127236D01*
X157388053Y-95123490D01*
X157585511Y-95031414D01*
X157595006Y-95025931D01*
X157647048Y-94989491D01*
X157655424Y-94979012D01*
X157648356Y-94965566D01*
X157469265Y-94786475D01*
X158809030Y-94786475D01*
X158827829Y-95001341D01*
X158829732Y-95012136D01*
X158885555Y-95220470D01*
X158889301Y-95230762D01*
X158980454Y-95426239D01*
X158985933Y-95435729D01*
X159020485Y-95485076D01*
X159030961Y-95493450D01*
X159044408Y-95486382D01*
X159736978Y-94793812D01*
X159744592Y-94779868D01*
X159744461Y-94778035D01*
X159740210Y-94771420D01*
X159043687Y-94074897D01*
X159031913Y-94068467D01*
X159019898Y-94077763D01*
X158985933Y-94126271D01*
X158980454Y-94135761D01*
X158889301Y-94331238D01*
X158885555Y-94341530D01*
X158829732Y-94549864D01*
X158827829Y-94560659D01*
X158809030Y-94775525D01*
X158809030Y-94786475D01*
X157469265Y-94786475D01*
X156663885Y-93981095D01*
X156629859Y-93918783D01*
X156631694Y-93893132D01*
X157298408Y-93893132D01*
X157298539Y-93894965D01*
X157302790Y-93901580D01*
X158008287Y-94607077D01*
X158020062Y-94613507D01*
X158032077Y-94604211D01*
X158067931Y-94553006D01*
X158073414Y-94543511D01*
X158165490Y-94346053D01*
X158169236Y-94335761D01*
X158225625Y-94125312D01*
X158227528Y-94114519D01*
X158246517Y-93897475D01*
X158246517Y-93886525D01*
X158227528Y-93669481D01*
X158225625Y-93658688D01*
X158169236Y-93448239D01*
X158165490Y-93437947D01*
X158073414Y-93240489D01*
X158067931Y-93230994D01*
X158031491Y-93178952D01*
X158021012Y-93170576D01*
X158007566Y-93177644D01*
X157306022Y-93879188D01*
X157298408Y-93893132D01*
X156631694Y-93893132D01*
X156634924Y-93847968D01*
X156663885Y-93802905D01*
X157649077Y-92817713D01*
X157655507Y-92805938D01*
X157646211Y-92793923D01*
X157595006Y-92758069D01*
X157585511Y-92752586D01*
X157388053Y-92660510D01*
X157377761Y-92656764D01*
X157167312Y-92600375D01*
X157156519Y-92598472D01*
X156939475Y-92579483D01*
X156928525Y-92579483D01*
X156711481Y-92598472D01*
X156700688Y-92600375D01*
X156490239Y-92656764D01*
X156479942Y-92660512D01*
X156476751Y-92662000D01*
X156475211Y-92662234D01*
X156474774Y-92662393D01*
X156474742Y-92662305D01*
X156406559Y-92672662D01*
X156341746Y-92643683D01*
X156302890Y-92584263D01*
X156297500Y-92547806D01*
X156297500Y-91968885D01*
X158813500Y-91968885D01*
X158817975Y-91984124D01*
X158819365Y-91985329D01*
X158827048Y-91987000D01*
X159836885Y-91987000D01*
X159852124Y-91982525D01*
X159853329Y-91981135D01*
X159855000Y-91973452D01*
X159855000Y-90963616D01*
X159850525Y-90948377D01*
X159849135Y-90947172D01*
X159841452Y-90945501D01*
X159276831Y-90945501D01*
X159270010Y-90945871D01*
X159219148Y-90951395D01*
X159203896Y-90955021D01*
X159083446Y-91000176D01*
X159067851Y-91008714D01*
X158965776Y-91085215D01*
X158953215Y-91097776D01*
X158876714Y-91199851D01*
X158868176Y-91215446D01*
X158823022Y-91335894D01*
X158819395Y-91351149D01*
X158813869Y-91402014D01*
X158813500Y-91408828D01*
X158813500Y-91968885D01*
X156297500Y-91968885D01*
X156297500Y-87856594D01*
X156317502Y-87788473D01*
X156334405Y-87767499D01*
X156520752Y-87581152D01*
X156583064Y-87547126D01*
X156642459Y-87548541D01*
X156700591Y-87564118D01*
X156700602Y-87564120D01*
X156705913Y-87565543D01*
X156934000Y-87585498D01*
X157162087Y-87565543D01*
X157167400Y-87564119D01*
X157167402Y-87564119D01*
X157377933Y-87507707D01*
X157377935Y-87507706D01*
X157383243Y-87506284D01*
X157413717Y-87492074D01*
X157585762Y-87411849D01*
X157585767Y-87411846D01*
X157590749Y-87409523D01*
X157706843Y-87328233D01*
X157773789Y-87281357D01*
X157773792Y-87281355D01*
X157778300Y-87278198D01*
X157940198Y-87116300D01*
X157944559Y-87110073D01*
X158018637Y-87004278D01*
X158071523Y-86928749D01*
X158073846Y-86923767D01*
X158073849Y-86923762D01*
X158165961Y-86726225D01*
X158165961Y-86726224D01*
X158168284Y-86721243D01*
X158173503Y-86701768D01*
X158226119Y-86505402D01*
X158226119Y-86505400D01*
X158227543Y-86500087D01*
X158247498Y-86272000D01*
X158227543Y-86043913D01*
X158225743Y-86037195D01*
X158169707Y-85828067D01*
X158169706Y-85828065D01*
X158168284Y-85822757D01*
X158148587Y-85780516D01*
X158073849Y-85620238D01*
X158073846Y-85620233D01*
X158071523Y-85615251D01*
X157974987Y-85477384D01*
X157943357Y-85432211D01*
X157943355Y-85432208D01*
X157940198Y-85427700D01*
X157778300Y-85265802D01*
X157773792Y-85262645D01*
X157773789Y-85262643D01*
X157690316Y-85204195D01*
X157590749Y-85134477D01*
X157585767Y-85132154D01*
X157585762Y-85132151D01*
X157388225Y-85040039D01*
X157388224Y-85040039D01*
X157383243Y-85037716D01*
X157377935Y-85036294D01*
X157377933Y-85036293D01*
X157167402Y-84979881D01*
X157167400Y-84979881D01*
X157162087Y-84978457D01*
X156934000Y-84958502D01*
X156705913Y-84978457D01*
X156700600Y-84979881D01*
X156700598Y-84979881D01*
X156490067Y-85036293D01*
X156490065Y-85036294D01*
X156484757Y-85037716D01*
X156479776Y-85040039D01*
X156479775Y-85040039D01*
X156282238Y-85132151D01*
X156282233Y-85132154D01*
X156277251Y-85134477D01*
X156177684Y-85204195D01*
X156094211Y-85262643D01*
X156094208Y-85262645D01*
X156089700Y-85265802D01*
X155927802Y-85427700D01*
X155924645Y-85432208D01*
X155924643Y-85432211D01*
X155893013Y-85477384D01*
X155796477Y-85615251D01*
X155794154Y-85620233D01*
X155794151Y-85620238D01*
X155778195Y-85654457D01*
X155731278Y-85707742D01*
X155663001Y-85727203D01*
X155595041Y-85706661D01*
X155549805Y-85654457D01*
X155533849Y-85620238D01*
X155533846Y-85620233D01*
X155531523Y-85615251D01*
X155434987Y-85477384D01*
X155403357Y-85432211D01*
X155403355Y-85432208D01*
X155400198Y-85427700D01*
X155238300Y-85265802D01*
X155233792Y-85262645D01*
X155233789Y-85262643D01*
X155150316Y-85204195D01*
X155050749Y-85134477D01*
X155045767Y-85132154D01*
X155045762Y-85132151D01*
X154848225Y-85040039D01*
X154848224Y-85040039D01*
X154843243Y-85037716D01*
X154837935Y-85036294D01*
X154837933Y-85036293D01*
X154627402Y-84979881D01*
X154627400Y-84979881D01*
X154622087Y-84978457D01*
X154394000Y-84958502D01*
X154165913Y-84978457D01*
X154160600Y-84979881D01*
X154160598Y-84979881D01*
X153950067Y-85036293D01*
X153950065Y-85036294D01*
X153944757Y-85037716D01*
X153939780Y-85040037D01*
X153939774Y-85040039D01*
X153840250Y-85086448D01*
X153770058Y-85097109D01*
X153705245Y-85068129D01*
X153666389Y-85008709D01*
X153661000Y-84972253D01*
X153661000Y-83181968D01*
X153661527Y-83170785D01*
X153663202Y-83163292D01*
X153661062Y-83095201D01*
X153661000Y-83091244D01*
X153661000Y-83063344D01*
X153660496Y-83059353D01*
X153659563Y-83047511D01*
X153659196Y-83035813D01*
X153658174Y-83003311D01*
X153652521Y-82983852D01*
X153648512Y-82964493D01*
X153647710Y-82958148D01*
X153645974Y-82944403D01*
X153643058Y-82937037D01*
X153643056Y-82937031D01*
X153629700Y-82903298D01*
X153625855Y-82892068D01*
X153615730Y-82857217D01*
X153615730Y-82857216D01*
X153613519Y-82849607D01*
X153608427Y-82840997D01*
X153603205Y-82832166D01*
X153594508Y-82814413D01*
X153589972Y-82802958D01*
X153587052Y-82795583D01*
X153561063Y-82759812D01*
X153554547Y-82749892D01*
X153540002Y-82725298D01*
X153532042Y-82711838D01*
X153526438Y-82706233D01*
X153517720Y-82697515D01*
X153504879Y-82682481D01*
X153497631Y-82672505D01*
X153497630Y-82672504D01*
X153492972Y-82666093D01*
X153458907Y-82637912D01*
X153450126Y-82629922D01*
X153157947Y-82337742D01*
X153150413Y-82329463D01*
X153146300Y-82322982D01*
X153096647Y-82276355D01*
X153093806Y-82273601D01*
X153074070Y-82253865D01*
X153070873Y-82251385D01*
X153061851Y-82243680D01*
X153035400Y-82218841D01*
X153029621Y-82213414D01*
X153022675Y-82209595D01*
X153022672Y-82209593D01*
X153011866Y-82203652D01*
X152995347Y-82192801D01*
X152989815Y-82188510D01*
X152979341Y-82180386D01*
X152972072Y-82177241D01*
X152972068Y-82177238D01*
X152938763Y-82162826D01*
X152928113Y-82157609D01*
X152889360Y-82136305D01*
X152888743Y-82136146D01*
X152835324Y-82094468D01*
X152819699Y-82065218D01*
X152782768Y-81966705D01*
X152782767Y-81966704D01*
X152779615Y-81958295D01*
X152692261Y-81841739D01*
X152575705Y-81754385D01*
X152439316Y-81703255D01*
X152377134Y-81696500D01*
X152356573Y-81696500D01*
X152288452Y-81676498D01*
X152258394Y-81648990D01*
X152255642Y-81644337D01*
X152249605Y-81638300D01*
X152234672Y-81620249D01*
X152234527Y-81620085D01*
X152230072Y-81613529D01*
X152224444Y-81608567D01*
X152223677Y-81607610D01*
X152222605Y-81606468D01*
X152221531Y-81605287D01*
X152221211Y-81604978D01*
X152216572Y-81598593D01*
X152210468Y-81593543D01*
X152210462Y-81593537D01*
X152198606Y-81583729D01*
X152191722Y-81576845D01*
X152191500Y-81577082D01*
X152153530Y-81541426D01*
X152141848Y-81530456D01*
X152139007Y-81527702D01*
X152119270Y-81507965D01*
X152116073Y-81505485D01*
X152107051Y-81497780D01*
X152095532Y-81486963D01*
X152074821Y-81467514D01*
X152067875Y-81463695D01*
X152067872Y-81463693D01*
X152057066Y-81457752D01*
X152040547Y-81446901D01*
X152040083Y-81446541D01*
X152024541Y-81434486D01*
X152017272Y-81431341D01*
X152017268Y-81431338D01*
X152012181Y-81429137D01*
X151957606Y-81383727D01*
X151936246Y-81316020D01*
X151954882Y-81247512D01*
X152007597Y-81199956D01*
X152062221Y-81187500D01*
X161286040Y-81187500D01*
X161354161Y-81207502D01*
G37*
%TD.AperFunction*%
%TA.AperFunction,Conductor*%
G36*
X179354960Y-83886763D02*
G01*
X179400195Y-83938967D01*
X179427017Y-83996488D01*
X179427020Y-83996493D01*
X179429343Y-84001475D01*
X179473216Y-84064132D01*
X179535414Y-84152959D01*
X179559414Y-84187235D01*
X179719765Y-84347586D01*
X179724274Y-84350743D01*
X179724276Y-84350745D01*
X179901020Y-84474504D01*
X179901026Y-84474508D01*
X179905524Y-84477657D01*
X180111049Y-84573494D01*
X180116353Y-84574915D01*
X180116358Y-84574917D01*
X180265740Y-84614944D01*
X180330092Y-84632187D01*
X180419751Y-84640031D01*
X180455882Y-84643192D01*
X180522000Y-84669055D01*
X180563639Y-84726559D01*
X180570900Y-84768713D01*
X180570900Y-85909763D01*
X180550898Y-85977884D01*
X180497242Y-86024377D01*
X180426968Y-86034481D01*
X180412289Y-86031470D01*
X180281312Y-85996375D01*
X180270519Y-85994472D01*
X180053475Y-85975483D01*
X180042525Y-85975483D01*
X179825481Y-85994472D01*
X179814688Y-85996375D01*
X179604239Y-86052764D01*
X179593947Y-86056510D01*
X179396489Y-86148586D01*
X179386994Y-86154069D01*
X179334952Y-86190509D01*
X179326576Y-86200988D01*
X179333644Y-86214434D01*
X180318115Y-87198905D01*
X180352141Y-87261217D01*
X180347076Y-87332032D01*
X180318115Y-87377095D01*
X180137095Y-87558115D01*
X180074783Y-87592141D01*
X180003968Y-87587076D01*
X179958905Y-87558115D01*
X178973713Y-86572923D01*
X178961938Y-86566493D01*
X178949923Y-86575789D01*
X178914069Y-86626994D01*
X178908586Y-86636489D01*
X178816510Y-86833947D01*
X178812764Y-86844239D01*
X178756375Y-87054688D01*
X178754472Y-87065481D01*
X178735483Y-87282525D01*
X178735483Y-87293475D01*
X178754472Y-87510519D01*
X178756375Y-87521312D01*
X178812764Y-87731761D01*
X178816510Y-87742053D01*
X178908586Y-87939511D01*
X178914069Y-87949007D01*
X179042187Y-88131978D01*
X179041037Y-88132783D01*
X179066827Y-88191722D01*
X179055605Y-88261826D01*
X179030935Y-88296760D01*
X178508047Y-88819648D01*
X178499761Y-88827188D01*
X178493282Y-88831300D01*
X178487857Y-88837077D01*
X178446657Y-88880951D01*
X178443902Y-88883793D01*
X178424165Y-88903530D01*
X178421685Y-88906727D01*
X178413982Y-88915747D01*
X178383714Y-88947979D01*
X178379895Y-88954925D01*
X178379893Y-88954928D01*
X178373952Y-88965734D01*
X178363101Y-88982253D01*
X178350686Y-88998259D01*
X178347541Y-89005528D01*
X178347538Y-89005532D01*
X178333126Y-89038837D01*
X178327909Y-89049487D01*
X178306605Y-89088240D01*
X178304634Y-89095915D01*
X178304634Y-89095916D01*
X178301567Y-89107862D01*
X178295163Y-89126566D01*
X178287119Y-89145155D01*
X178285880Y-89152978D01*
X178285877Y-89152988D01*
X178280201Y-89188824D01*
X178277795Y-89200444D01*
X178271932Y-89223281D01*
X178266800Y-89243270D01*
X178266800Y-89263524D01*
X178265249Y-89283234D01*
X178262080Y-89303243D01*
X178262826Y-89311135D01*
X178266241Y-89347261D01*
X178266800Y-89359119D01*
X178266800Y-96221533D01*
X178266273Y-96232716D01*
X178264598Y-96240209D01*
X178264847Y-96248135D01*
X178264847Y-96248136D01*
X178266738Y-96308286D01*
X178266800Y-96312245D01*
X178266800Y-96340156D01*
X178267297Y-96344090D01*
X178267297Y-96344091D01*
X178267305Y-96344156D01*
X178268238Y-96355993D01*
X178269627Y-96400189D01*
X178272474Y-96409987D01*
X178275278Y-96419639D01*
X178279287Y-96439000D01*
X178281826Y-96459097D01*
X178284745Y-96466468D01*
X178284745Y-96466470D01*
X178298104Y-96500212D01*
X178301949Y-96511442D01*
X178306886Y-96528434D01*
X178314282Y-96553893D01*
X178318315Y-96560712D01*
X178318317Y-96560717D01*
X178324593Y-96571328D01*
X178333288Y-96589076D01*
X178340748Y-96607917D01*
X178345410Y-96614333D01*
X178345410Y-96614334D01*
X178366736Y-96643687D01*
X178373252Y-96653607D01*
X178389163Y-96680510D01*
X178395758Y-96691662D01*
X178410079Y-96705983D01*
X178422919Y-96721016D01*
X178434828Y-96737407D01*
X178468905Y-96765598D01*
X178477684Y-96773588D01*
X178738848Y-97034752D01*
X178772874Y-97097064D01*
X178771459Y-97156459D01*
X178755882Y-97214591D01*
X178755880Y-97214602D01*
X178754457Y-97219913D01*
X178734502Y-97448000D01*
X178754457Y-97676087D01*
X178755881Y-97681400D01*
X178755881Y-97681402D01*
X178807886Y-97875484D01*
X178813716Y-97897243D01*
X178816039Y-97902224D01*
X178816039Y-97902225D01*
X178908151Y-98099762D01*
X178908154Y-98099767D01*
X178910477Y-98104749D01*
X178953203Y-98165768D01*
X179030038Y-98275499D01*
X179041802Y-98292300D01*
X179203700Y-98454198D01*
X179208208Y-98457355D01*
X179208211Y-98457357D01*
X179259012Y-98492928D01*
X179391251Y-98585523D01*
X179396233Y-98587846D01*
X179396238Y-98587849D01*
X179430457Y-98603805D01*
X179483742Y-98650722D01*
X179503203Y-98718999D01*
X179482661Y-98786959D01*
X179430457Y-98832195D01*
X179396238Y-98848151D01*
X179396233Y-98848154D01*
X179391251Y-98850477D01*
X179330728Y-98892856D01*
X179208211Y-98978643D01*
X179208208Y-98978645D01*
X179203700Y-98981802D01*
X179041802Y-99143700D01*
X179038645Y-99148208D01*
X179038643Y-99148211D01*
X178993464Y-99212733D01*
X178910477Y-99331251D01*
X178908154Y-99336233D01*
X178908151Y-99336238D01*
X178816039Y-99533775D01*
X178813716Y-99538757D01*
X178812294Y-99544065D01*
X178812293Y-99544067D01*
X178755883Y-99754591D01*
X178754457Y-99759913D01*
X178734502Y-99988000D01*
X178754457Y-100216087D01*
X178755881Y-100221400D01*
X178755881Y-100221402D01*
X178807472Y-100413939D01*
X178813716Y-100437243D01*
X178816039Y-100442224D01*
X178816039Y-100442225D01*
X178908151Y-100639762D01*
X178908154Y-100639767D01*
X178910477Y-100644749D01*
X178965273Y-100723005D01*
X179022403Y-100804595D01*
X179041802Y-100832300D01*
X179203700Y-100994198D01*
X179208208Y-100997355D01*
X179208211Y-100997357D01*
X179258401Y-101032500D01*
X179391251Y-101125523D01*
X179396233Y-101127846D01*
X179396238Y-101127849D01*
X179430457Y-101143805D01*
X179483742Y-101190722D01*
X179503203Y-101258999D01*
X179482661Y-101326959D01*
X179430457Y-101372195D01*
X179396238Y-101388151D01*
X179396233Y-101388154D01*
X179391251Y-101390477D01*
X179296237Y-101457007D01*
X179208211Y-101518643D01*
X179208208Y-101518645D01*
X179203700Y-101521802D01*
X179041802Y-101683700D01*
X179038645Y-101688208D01*
X179038643Y-101688211D01*
X179024012Y-101709107D01*
X178910477Y-101871251D01*
X178908154Y-101876233D01*
X178908151Y-101876238D01*
X178816039Y-102073775D01*
X178813716Y-102078757D01*
X178812294Y-102084065D01*
X178812293Y-102084067D01*
X178766120Y-102256386D01*
X178754457Y-102299913D01*
X178734502Y-102528000D01*
X178754457Y-102756087D01*
X178755879Y-102761392D01*
X178755881Y-102761406D01*
X178771459Y-102819539D01*
X178769771Y-102890516D01*
X178738848Y-102941248D01*
X178619261Y-103060834D01*
X178506342Y-103173753D01*
X178498063Y-103181287D01*
X178491582Y-103185400D01*
X178468061Y-103210448D01*
X178444957Y-103235051D01*
X178442202Y-103237893D01*
X178422465Y-103257630D01*
X178419985Y-103260827D01*
X178412282Y-103269847D01*
X178382014Y-103302079D01*
X178378195Y-103309025D01*
X178378193Y-103309028D01*
X178372252Y-103319834D01*
X178361401Y-103336353D01*
X178348986Y-103352359D01*
X178345841Y-103359628D01*
X178345838Y-103359632D01*
X178331426Y-103392937D01*
X178326209Y-103403587D01*
X178304905Y-103442340D01*
X178302934Y-103450015D01*
X178302934Y-103450016D01*
X178299867Y-103461962D01*
X178293463Y-103480666D01*
X178292399Y-103483126D01*
X178285419Y-103499255D01*
X178284180Y-103507078D01*
X178284177Y-103507088D01*
X178278501Y-103542924D01*
X178276095Y-103554544D01*
X178269669Y-103579575D01*
X178265100Y-103597370D01*
X178265100Y-103617624D01*
X178263549Y-103637334D01*
X178260380Y-103657343D01*
X178261126Y-103665235D01*
X178261765Y-103671999D01*
X178263810Y-103693623D01*
X178264541Y-103701361D01*
X178265100Y-103713219D01*
X178265100Y-109427833D01*
X178264573Y-109439016D01*
X178262898Y-109446509D01*
X178263147Y-109454435D01*
X178263147Y-109454436D01*
X178265038Y-109514586D01*
X178265100Y-109518519D01*
X178265100Y-109546456D01*
X178265597Y-109550390D01*
X178265597Y-109550391D01*
X178265605Y-109550456D01*
X178266538Y-109562293D01*
X178267927Y-109606489D01*
X178273578Y-109625939D01*
X178277587Y-109645300D01*
X178280126Y-109665397D01*
X178283045Y-109672768D01*
X178283045Y-109672770D01*
X178296404Y-109706512D01*
X178300249Y-109717742D01*
X178300807Y-109719662D01*
X178312582Y-109760193D01*
X178316615Y-109767012D01*
X178316617Y-109767017D01*
X178322893Y-109777628D01*
X178331588Y-109795376D01*
X178339048Y-109814217D01*
X178343710Y-109820633D01*
X178343710Y-109820634D01*
X178365036Y-109849987D01*
X178371552Y-109859907D01*
X178386629Y-109885400D01*
X178394058Y-109897962D01*
X178408379Y-109912283D01*
X178421219Y-109927316D01*
X178433128Y-109943707D01*
X178439234Y-109948758D01*
X178467205Y-109971898D01*
X178475984Y-109979888D01*
X180433806Y-111937711D01*
X180467832Y-112000023D01*
X180462767Y-112070839D01*
X180420220Y-112127674D01*
X180353700Y-112152485D01*
X180333729Y-112152327D01*
X180307475Y-112150030D01*
X180296525Y-112150030D01*
X180081659Y-112168829D01*
X180070864Y-112170732D01*
X179862530Y-112226555D01*
X179852238Y-112230301D01*
X179656761Y-112321454D01*
X179647271Y-112326933D01*
X179597924Y-112361485D01*
X179589550Y-112371961D01*
X179596618Y-112385408D01*
X181367313Y-114156103D01*
X181379087Y-114162533D01*
X181391102Y-114153237D01*
X181425067Y-114104729D01*
X181430547Y-114095239D01*
X181457529Y-114037375D01*
X181504446Y-113984090D01*
X181572724Y-113964629D01*
X181640684Y-113985171D01*
X181685919Y-114037375D01*
X181713017Y-114095488D01*
X181713020Y-114095493D01*
X181715343Y-114100475D01*
X181766271Y-114173207D01*
X181835435Y-114271983D01*
X181845414Y-114286235D01*
X182005765Y-114446586D01*
X182010272Y-114449742D01*
X182010276Y-114449745D01*
X182187020Y-114573504D01*
X182187026Y-114573508D01*
X182191524Y-114576657D01*
X182397049Y-114672494D01*
X182402353Y-114673915D01*
X182402358Y-114673917D01*
X182519474Y-114705298D01*
X182616092Y-114731187D01*
X182842000Y-114750951D01*
X183067908Y-114731187D01*
X183164526Y-114705298D01*
X183281642Y-114673917D01*
X183281647Y-114673915D01*
X183286951Y-114672494D01*
X183492476Y-114576657D01*
X183496974Y-114573508D01*
X183496980Y-114573504D01*
X183673728Y-114449742D01*
X183673729Y-114449741D01*
X183678235Y-114446586D01*
X183682125Y-114442696D01*
X183682131Y-114442691D01*
X183698764Y-114426058D01*
X183761076Y-114392032D01*
X183831891Y-114397097D01*
X183876954Y-114426058D01*
X184407743Y-114956847D01*
X184415287Y-114965137D01*
X184419400Y-114971618D01*
X184425177Y-114977043D01*
X184469067Y-115018258D01*
X184471909Y-115021013D01*
X184477301Y-115026405D01*
X184511327Y-115088717D01*
X184506262Y-115159532D01*
X184463715Y-115216368D01*
X184397195Y-115241179D01*
X184388206Y-115241500D01*
X164224660Y-115241500D01*
X164156539Y-115221498D01*
X164110046Y-115167842D01*
X164099942Y-115097568D01*
X164115704Y-115052218D01*
X164164326Y-114968510D01*
X164167587Y-114957745D01*
X164213473Y-114806239D01*
X164215595Y-114799233D01*
X164226547Y-114622702D01*
X164224877Y-114612983D01*
X164208608Y-114518301D01*
X164216785Y-114447776D01*
X164241315Y-114410310D01*
X164320456Y-114326767D01*
X164325490Y-114321453D01*
X164414326Y-114168510D01*
X164418303Y-114155382D01*
X164463473Y-114006239D01*
X164465595Y-113999233D01*
X164476547Y-113822702D01*
X164475145Y-113814539D01*
X164447834Y-113655602D01*
X164447834Y-113655601D01*
X164446594Y-113648386D01*
X164412715Y-113568765D01*
X164404449Y-113498251D01*
X164412236Y-113472107D01*
X164414326Y-113468510D01*
X164465595Y-113299233D01*
X164476547Y-113122702D01*
X164474630Y-113111542D01*
X164447834Y-112955602D01*
X164447834Y-112955601D01*
X164446594Y-112948386D01*
X164377343Y-112785636D01*
X164373010Y-112779748D01*
X164373007Y-112779743D01*
X164286628Y-112662369D01*
X164272508Y-112643182D01*
X164255201Y-112628479D01*
X164216237Y-112569132D01*
X164212771Y-112510144D01*
X164213474Y-112506236D01*
X164215595Y-112499233D01*
X164226547Y-112322702D01*
X164222516Y-112299239D01*
X164197834Y-112155602D01*
X164197834Y-112155601D01*
X164196594Y-112148386D01*
X164193728Y-112141650D01*
X164151690Y-112042854D01*
X164143424Y-111972340D01*
X164158676Y-111930238D01*
X164160648Y-111926843D01*
X164160649Y-111926840D01*
X164164326Y-111920510D01*
X164168568Y-111906506D01*
X164213473Y-111758239D01*
X164215595Y-111751233D01*
X164226547Y-111574702D01*
X164224825Y-111564679D01*
X164208608Y-111470301D01*
X164216785Y-111399776D01*
X164241315Y-111362310D01*
X164320456Y-111278767D01*
X164325490Y-111273453D01*
X164414326Y-111120510D01*
X164421998Y-111095182D01*
X164463473Y-110958239D01*
X164465595Y-110951233D01*
X164476547Y-110774702D01*
X164474872Y-110764951D01*
X164447834Y-110607602D01*
X164447834Y-110607601D01*
X164446594Y-110600386D01*
X164412715Y-110520765D01*
X164404449Y-110450251D01*
X164412236Y-110424107D01*
X164414326Y-110420510D01*
X164465595Y-110251233D01*
X164476547Y-110074702D01*
X164459886Y-109977737D01*
X164447834Y-109907602D01*
X164447834Y-109907601D01*
X164446594Y-109900386D01*
X164377343Y-109737636D01*
X164373010Y-109731748D01*
X164373007Y-109731743D01*
X164276846Y-109601077D01*
X164272508Y-109595182D01*
X164255201Y-109580479D01*
X164216237Y-109521132D01*
X164212771Y-109462144D01*
X164213474Y-109458236D01*
X164215595Y-109451233D01*
X164226547Y-109274702D01*
X164224983Y-109265596D01*
X164197834Y-109107602D01*
X164197834Y-109107601D01*
X164196594Y-109100386D01*
X164192113Y-109089855D01*
X164151690Y-108994854D01*
X164143424Y-108924340D01*
X164158676Y-108882238D01*
X164160648Y-108878843D01*
X164160649Y-108878840D01*
X164164326Y-108872510D01*
X164169363Y-108855881D01*
X164213473Y-108710239D01*
X164215595Y-108703233D01*
X164226547Y-108526702D01*
X164211875Y-108441314D01*
X164208608Y-108422301D01*
X164216785Y-108351776D01*
X164241315Y-108314310D01*
X164320456Y-108230767D01*
X164325490Y-108225453D01*
X164414326Y-108072510D01*
X164418273Y-108059480D01*
X164463473Y-107910239D01*
X164465595Y-107903233D01*
X164476547Y-107726702D01*
X164472490Y-107703088D01*
X164447834Y-107559602D01*
X164447834Y-107559601D01*
X164446594Y-107552386D01*
X164412715Y-107472765D01*
X164404449Y-107402251D01*
X164412236Y-107376107D01*
X164414326Y-107372510D01*
X164465595Y-107203233D01*
X164476547Y-107026702D01*
X164470962Y-106994196D01*
X164447834Y-106859602D01*
X164447834Y-106859601D01*
X164446594Y-106852386D01*
X164377343Y-106689636D01*
X164373010Y-106683748D01*
X164373007Y-106683743D01*
X164276846Y-106553077D01*
X164272508Y-106547182D01*
X164255201Y-106532479D01*
X164216237Y-106473132D01*
X164212771Y-106414144D01*
X164213474Y-106410236D01*
X164215595Y-106403233D01*
X164226547Y-106226702D01*
X164225271Y-106219273D01*
X164197834Y-106059602D01*
X164197834Y-106059601D01*
X164196594Y-106052386D01*
X164193728Y-106045650D01*
X164151690Y-105946854D01*
X164143424Y-105876340D01*
X164158676Y-105834238D01*
X164160648Y-105830843D01*
X164160649Y-105830840D01*
X164164326Y-105824510D01*
X164167981Y-105812444D01*
X164213473Y-105662239D01*
X164215595Y-105655233D01*
X164226547Y-105478702D01*
X164224266Y-105465428D01*
X164208608Y-105374301D01*
X164216785Y-105303776D01*
X164241315Y-105266310D01*
X164320456Y-105182767D01*
X164325490Y-105177453D01*
X164414326Y-105024510D01*
X164421998Y-104999182D01*
X164463473Y-104862239D01*
X164465595Y-104855233D01*
X164476547Y-104678702D01*
X164472868Y-104657288D01*
X164447834Y-104511602D01*
X164447834Y-104511601D01*
X164446594Y-104504386D01*
X164422170Y-104446987D01*
X164412715Y-104424765D01*
X164404449Y-104354251D01*
X164412236Y-104328107D01*
X164414326Y-104324510D01*
X164465595Y-104155233D01*
X164476547Y-103978702D01*
X164469194Y-103935906D01*
X164447834Y-103811602D01*
X164447834Y-103811601D01*
X164446594Y-103804386D01*
X164377343Y-103641636D01*
X164373010Y-103635748D01*
X164373007Y-103635743D01*
X164290820Y-103524065D01*
X164272508Y-103499182D01*
X164255201Y-103484479D01*
X164216237Y-103425132D01*
X164212771Y-103366144D01*
X164213474Y-103362236D01*
X164215595Y-103355233D01*
X164226547Y-103178702D01*
X164219848Y-103139712D01*
X164197834Y-103011602D01*
X164197834Y-103011601D01*
X164196594Y-103004386D01*
X164193728Y-102997650D01*
X164151690Y-102898854D01*
X164143424Y-102828340D01*
X164158676Y-102786238D01*
X164160648Y-102782843D01*
X164160649Y-102782840D01*
X164164326Y-102776510D01*
X164167000Y-102767684D01*
X164213473Y-102614239D01*
X164215595Y-102607233D01*
X164226547Y-102430702D01*
X164225173Y-102422706D01*
X164208608Y-102326301D01*
X164216785Y-102255776D01*
X164241315Y-102218310D01*
X164320456Y-102134767D01*
X164325490Y-102129453D01*
X164414326Y-101976510D01*
X164417754Y-101965194D01*
X164463473Y-101814239D01*
X164465595Y-101807233D01*
X164476547Y-101630702D01*
X164474631Y-101619548D01*
X164447834Y-101463602D01*
X164447834Y-101463601D01*
X164446594Y-101456386D01*
X164418916Y-101391339D01*
X164412715Y-101376765D01*
X164404449Y-101306251D01*
X164412236Y-101280107D01*
X164414326Y-101276510D01*
X164465595Y-101107233D01*
X164476547Y-100930702D01*
X164474267Y-100917430D01*
X164447834Y-100763602D01*
X164447834Y-100763601D01*
X164446594Y-100756386D01*
X164377343Y-100593636D01*
X164373010Y-100587748D01*
X164373007Y-100587743D01*
X164290141Y-100475143D01*
X164272508Y-100451182D01*
X164255201Y-100436479D01*
X164216237Y-100377132D01*
X164212771Y-100318144D01*
X164213474Y-100314236D01*
X164215595Y-100307233D01*
X164226547Y-100130702D01*
X164221706Y-100102526D01*
X164197834Y-99963602D01*
X164197834Y-99963601D01*
X164196594Y-99956386D01*
X164185634Y-99930628D01*
X164151690Y-99850854D01*
X164143424Y-99780340D01*
X164158676Y-99738238D01*
X164160648Y-99734843D01*
X164160649Y-99734840D01*
X164164326Y-99728510D01*
X164167504Y-99718020D01*
X164213473Y-99566239D01*
X164215595Y-99559233D01*
X164226547Y-99382702D01*
X164222079Y-99356697D01*
X164208608Y-99278301D01*
X164216785Y-99207776D01*
X164241315Y-99170310D01*
X164320456Y-99086767D01*
X164325490Y-99081453D01*
X164414326Y-98928510D01*
X164417518Y-98917973D01*
X164463473Y-98766239D01*
X164465595Y-98759233D01*
X164466299Y-98747886D01*
X164467246Y-98745273D01*
X164467345Y-98744721D01*
X164467439Y-98744738D01*
X164490481Y-98681134D01*
X164546912Y-98638053D01*
X164617677Y-98632320D01*
X164680308Y-98665756D01*
X164709211Y-98709309D01*
X164713806Y-98720916D01*
X164717649Y-98732142D01*
X164727232Y-98765126D01*
X164729982Y-98774593D01*
X164734015Y-98781412D01*
X164734017Y-98781417D01*
X164740293Y-98792028D01*
X164748988Y-98809776D01*
X164756448Y-98828617D01*
X164761110Y-98835033D01*
X164761110Y-98835034D01*
X164782436Y-98864387D01*
X164788952Y-98874307D01*
X164806029Y-98903182D01*
X164811458Y-98912362D01*
X164825779Y-98926683D01*
X164838619Y-98941716D01*
X164850528Y-98958107D01*
X164862291Y-98967838D01*
X164884605Y-98986298D01*
X164893384Y-98994288D01*
X166648178Y-100749083D01*
X166682204Y-100811395D01*
X166684393Y-100825006D01*
X166685090Y-100831642D01*
X166699790Y-100971500D01*
X166701758Y-100990228D01*
X166760773Y-101171856D01*
X166764076Y-101177578D01*
X166764077Y-101177579D01*
X166785366Y-101214453D01*
X166856260Y-101337244D01*
X166860678Y-101342151D01*
X166860679Y-101342152D01*
X166961129Y-101453713D01*
X166984047Y-101479166D01*
X167061010Y-101535083D01*
X167131138Y-101586034D01*
X167138548Y-101591418D01*
X167144576Y-101594102D01*
X167144578Y-101594103D01*
X167306981Y-101666409D01*
X167313012Y-101669094D01*
X167386418Y-101684697D01*
X167493356Y-101707428D01*
X167493361Y-101707428D01*
X167499813Y-101708800D01*
X167690787Y-101708800D01*
X167697239Y-101707428D01*
X167697244Y-101707428D01*
X167804182Y-101684697D01*
X167877588Y-101669094D01*
X167890463Y-101663362D01*
X167968654Y-101628549D01*
X167977301Y-101624699D01*
X168047668Y-101615265D01*
X168111965Y-101645371D01*
X168125095Y-101659366D01*
X168127458Y-101663362D01*
X168141779Y-101677683D01*
X168154619Y-101692716D01*
X168166528Y-101709107D01*
X168172634Y-101714158D01*
X168200605Y-101737298D01*
X168209384Y-101745288D01*
X171118848Y-104654752D01*
X171152874Y-104717064D01*
X171151459Y-104776459D01*
X171135882Y-104834591D01*
X171135881Y-104834598D01*
X171134457Y-104839913D01*
X171114502Y-105068000D01*
X171134457Y-105296087D01*
X171135881Y-105301400D01*
X171135881Y-105301402D01*
X171178074Y-105458865D01*
X171193716Y-105517243D01*
X171196039Y-105522224D01*
X171196039Y-105522225D01*
X171288151Y-105719762D01*
X171288154Y-105719767D01*
X171290477Y-105724749D01*
X171421802Y-105912300D01*
X171583700Y-106074198D01*
X171588208Y-106077355D01*
X171588211Y-106077357D01*
X171740771Y-106184181D01*
X171785099Y-106239638D01*
X171794500Y-106287394D01*
X171794500Y-106924433D01*
X171793973Y-106935616D01*
X171792298Y-106943109D01*
X171792547Y-106951035D01*
X171792547Y-106951036D01*
X171794438Y-107011186D01*
X171794500Y-107015145D01*
X171794500Y-107043056D01*
X171794997Y-107046990D01*
X171794997Y-107046991D01*
X171795005Y-107047056D01*
X171795938Y-107058893D01*
X171797327Y-107103089D01*
X171801228Y-107116516D01*
X171802978Y-107122539D01*
X171806987Y-107141900D01*
X171809526Y-107161997D01*
X171812445Y-107169368D01*
X171812445Y-107169370D01*
X171825804Y-107203112D01*
X171829649Y-107214342D01*
X171841982Y-107256793D01*
X171846015Y-107263612D01*
X171846017Y-107263617D01*
X171852293Y-107274228D01*
X171860988Y-107291976D01*
X171868448Y-107310817D01*
X171873110Y-107317233D01*
X171873110Y-107317234D01*
X171894436Y-107346587D01*
X171900952Y-107356507D01*
X171917928Y-107385211D01*
X171923458Y-107394562D01*
X171937779Y-107408883D01*
X171950619Y-107423916D01*
X171962528Y-107440307D01*
X171982488Y-107456819D01*
X171996605Y-107468498D01*
X172005384Y-107476488D01*
X176632454Y-112103558D01*
X176666480Y-112165870D01*
X176661415Y-112236685D01*
X176623982Y-112286721D01*
X176624769Y-112287508D01*
X176619308Y-112292969D01*
X176618929Y-112293476D01*
X176611239Y-112299239D01*
X176523885Y-112415795D01*
X176472755Y-112552184D01*
X176466000Y-112614366D01*
X176466000Y-114285634D01*
X176472755Y-114347816D01*
X176523885Y-114484205D01*
X176611239Y-114600761D01*
X176727795Y-114688115D01*
X176864184Y-114739245D01*
X176926366Y-114746000D01*
X178597634Y-114746000D01*
X178659816Y-114739245D01*
X178796205Y-114688115D01*
X178912761Y-114600761D01*
X178967977Y-114527087D01*
X179589467Y-114527087D01*
X179598764Y-114539103D01*
X179647270Y-114573067D01*
X179656756Y-114578545D01*
X179852238Y-114669699D01*
X179862530Y-114673445D01*
X180070864Y-114729268D01*
X180081659Y-114731171D01*
X180296525Y-114749970D01*
X180307475Y-114749970D01*
X180522341Y-114731171D01*
X180533136Y-114729268D01*
X180741470Y-114673445D01*
X180751762Y-114669699D01*
X180947244Y-114578545D01*
X180956730Y-114573067D01*
X181006074Y-114538517D01*
X181014449Y-114528039D01*
X181007381Y-114514591D01*
X180314812Y-113822022D01*
X180300868Y-113814408D01*
X180299035Y-113814539D01*
X180292420Y-113818790D01*
X179595897Y-114515313D01*
X179589467Y-114527087D01*
X178967977Y-114527087D01*
X179000115Y-114484205D01*
X179051245Y-114347816D01*
X179056708Y-114297526D01*
X179057633Y-114289015D01*
X179057633Y-114289010D01*
X179058000Y-114285634D01*
X179058000Y-114282239D01*
X179058148Y-114279507D01*
X179081807Y-114212569D01*
X179137900Y-114169048D01*
X179196936Y-114160996D01*
X179221826Y-114163572D01*
X179237408Y-114155382D01*
X179929978Y-113462812D01*
X179937592Y-113448868D01*
X179937461Y-113447035D01*
X179933210Y-113440420D01*
X179236687Y-112743897D01*
X179222743Y-112736283D01*
X179192901Y-112738417D01*
X179123527Y-112723326D01*
X179073325Y-112673124D01*
X179058096Y-112619554D01*
X179058000Y-112617781D01*
X179058000Y-112614366D01*
X179051245Y-112552184D01*
X179000115Y-112415795D01*
X178912761Y-112299239D01*
X178796205Y-112211885D01*
X178659816Y-112160755D01*
X178597634Y-112154000D01*
X178460164Y-112154000D01*
X178392043Y-112133998D01*
X178348840Y-112083122D01*
X178348019Y-112083608D01*
X178345190Y-112078824D01*
X178345188Y-112078821D01*
X178337707Y-112066172D01*
X178329012Y-112048424D01*
X178321552Y-112029583D01*
X178314054Y-112019262D01*
X178295564Y-111993813D01*
X178289048Y-111983893D01*
X178270580Y-111952665D01*
X178270578Y-111952662D01*
X178266542Y-111945838D01*
X178252221Y-111931517D01*
X178239380Y-111916483D01*
X178232131Y-111906506D01*
X178227472Y-111900093D01*
X178193395Y-111871902D01*
X178184616Y-111863912D01*
X173098405Y-106777700D01*
X173064379Y-106715388D01*
X173061500Y-106688605D01*
X173061500Y-106287394D01*
X173081502Y-106219273D01*
X173115229Y-106184181D01*
X173267789Y-106077357D01*
X173267792Y-106077355D01*
X173272300Y-106074198D01*
X173434198Y-105912300D01*
X173565523Y-105724749D01*
X173567846Y-105719767D01*
X173567849Y-105719762D01*
X173659961Y-105522225D01*
X173659961Y-105522224D01*
X173662284Y-105517243D01*
X173677927Y-105458865D01*
X173720119Y-105301402D01*
X173720119Y-105301400D01*
X173721543Y-105296087D01*
X173741498Y-105068000D01*
X173721543Y-104839913D01*
X173720117Y-104834591D01*
X173663707Y-104624067D01*
X173663706Y-104624065D01*
X173662284Y-104618757D01*
X173650776Y-104594077D01*
X173567849Y-104416238D01*
X173567846Y-104416233D01*
X173565523Y-104411251D01*
X173492098Y-104306389D01*
X173437357Y-104228211D01*
X173437355Y-104228208D01*
X173434198Y-104223700D01*
X173272300Y-104061802D01*
X173267792Y-104058645D01*
X173267789Y-104058643D01*
X173092502Y-103935906D01*
X173084749Y-103930477D01*
X173079767Y-103928154D01*
X173079762Y-103928151D01*
X173044951Y-103911919D01*
X172991666Y-103865002D01*
X172972205Y-103796725D01*
X172992747Y-103728765D01*
X173044951Y-103683529D01*
X173079511Y-103667414D01*
X173089006Y-103661931D01*
X173141048Y-103625491D01*
X173149424Y-103615012D01*
X173142356Y-103601566D01*
X172069922Y-102529132D01*
X172792408Y-102529132D01*
X172792539Y-102530965D01*
X172796790Y-102537580D01*
X173502287Y-103243077D01*
X173514062Y-103249507D01*
X173526077Y-103240211D01*
X173561931Y-103189006D01*
X173567414Y-103179511D01*
X173659490Y-102982053D01*
X173663236Y-102971761D01*
X173719625Y-102761312D01*
X173721528Y-102750519D01*
X173740517Y-102533475D01*
X173740517Y-102522525D01*
X173721528Y-102305481D01*
X173719625Y-102294688D01*
X173663236Y-102084239D01*
X173659490Y-102073947D01*
X173567414Y-101876489D01*
X173561931Y-101866994D01*
X173525491Y-101814952D01*
X173515012Y-101806576D01*
X173501566Y-101813644D01*
X172800022Y-102515188D01*
X172792408Y-102529132D01*
X172069922Y-102529132D01*
X171353713Y-101812923D01*
X171341938Y-101806493D01*
X171329923Y-101815789D01*
X171294069Y-101866994D01*
X171288586Y-101876489D01*
X171196510Y-102073947D01*
X171192764Y-102084239D01*
X171136375Y-102294688D01*
X171134472Y-102305481D01*
X171115483Y-102522525D01*
X171115483Y-102533475D01*
X171116577Y-102545980D01*
X171102588Y-102615584D01*
X171053188Y-102666577D01*
X170984062Y-102682767D01*
X170917157Y-102659014D01*
X170901961Y-102646056D01*
X169370315Y-101114410D01*
X169336289Y-101052098D01*
X169341354Y-100981283D01*
X169383901Y-100924447D01*
X169396589Y-100916283D01*
X169403705Y-100913615D01*
X169410892Y-100908229D01*
X169431436Y-100892832D01*
X169497943Y-100867985D01*
X169567325Y-100883039D01*
X169582564Y-100892832D01*
X169610295Y-100913615D01*
X169746684Y-100964745D01*
X169808866Y-100971500D01*
X170955134Y-100971500D01*
X171017316Y-100964745D01*
X171153705Y-100913615D01*
X171160892Y-100908229D01*
X171266016Y-100829443D01*
X171332523Y-100804595D01*
X171401905Y-100819648D01*
X171430676Y-100841174D01*
X171583700Y-100994198D01*
X171588208Y-100997355D01*
X171588211Y-100997357D01*
X171638401Y-101032500D01*
X171771251Y-101125523D01*
X171776233Y-101127846D01*
X171776238Y-101127849D01*
X171811049Y-101144081D01*
X171864334Y-101190998D01*
X171883795Y-101259275D01*
X171863253Y-101327235D01*
X171811049Y-101372471D01*
X171776489Y-101388586D01*
X171766994Y-101394069D01*
X171714952Y-101430509D01*
X171706576Y-101440988D01*
X171713644Y-101454434D01*
X172415188Y-102155978D01*
X172429132Y-102163592D01*
X172430965Y-102163461D01*
X172437580Y-102159210D01*
X173143077Y-101453713D01*
X173149507Y-101441938D01*
X173140211Y-101429923D01*
X173089006Y-101394069D01*
X173079511Y-101388586D01*
X173044951Y-101372471D01*
X172991666Y-101325554D01*
X172972205Y-101257277D01*
X172992747Y-101189317D01*
X173044951Y-101144081D01*
X173079762Y-101127849D01*
X173079767Y-101127846D01*
X173084749Y-101125523D01*
X173217599Y-101032500D01*
X173267789Y-100997357D01*
X173267792Y-100997355D01*
X173272300Y-100994198D01*
X173434198Y-100832300D01*
X173453598Y-100804595D01*
X173510727Y-100723005D01*
X173565523Y-100644749D01*
X173567846Y-100639767D01*
X173567849Y-100639762D01*
X173659961Y-100442225D01*
X173659961Y-100442224D01*
X173662284Y-100437243D01*
X173668529Y-100413939D01*
X173720119Y-100221402D01*
X173720119Y-100221400D01*
X173721543Y-100216087D01*
X173741498Y-99988000D01*
X173721543Y-99759913D01*
X173720117Y-99754591D01*
X173663707Y-99544067D01*
X173663706Y-99544065D01*
X173662284Y-99538757D01*
X173659961Y-99533775D01*
X173567849Y-99336238D01*
X173567846Y-99336233D01*
X173565523Y-99331251D01*
X173482536Y-99212733D01*
X173437357Y-99148211D01*
X173437355Y-99148208D01*
X173434198Y-99143700D01*
X173272300Y-98981802D01*
X173267792Y-98978645D01*
X173267789Y-98978643D01*
X173145272Y-98892856D01*
X173084749Y-98850477D01*
X173079767Y-98848154D01*
X173079762Y-98848151D01*
X173045543Y-98832195D01*
X172992258Y-98785278D01*
X172972797Y-98717001D01*
X172993339Y-98649041D01*
X173045543Y-98603805D01*
X173079762Y-98587849D01*
X173079767Y-98587846D01*
X173084749Y-98585523D01*
X173216988Y-98492928D01*
X173267789Y-98457357D01*
X173267792Y-98457355D01*
X173272300Y-98454198D01*
X173434198Y-98292300D01*
X173445963Y-98275499D01*
X173522797Y-98165768D01*
X173565523Y-98104749D01*
X173567846Y-98099767D01*
X173567849Y-98099762D01*
X173659961Y-97902225D01*
X173659961Y-97902224D01*
X173662284Y-97897243D01*
X173668115Y-97875484D01*
X173720119Y-97681402D01*
X173720119Y-97681400D01*
X173721543Y-97676087D01*
X173741498Y-97448000D01*
X173721543Y-97219913D01*
X173720121Y-97214608D01*
X173720119Y-97214594D01*
X173704541Y-97156461D01*
X173706229Y-97085484D01*
X173737152Y-97034752D01*
X173819695Y-96952210D01*
X173945658Y-96826247D01*
X173953937Y-96818713D01*
X173960418Y-96814600D01*
X174007044Y-96764948D01*
X174009798Y-96762107D01*
X174029535Y-96742370D01*
X174032015Y-96739173D01*
X174039720Y-96730151D01*
X174041084Y-96728699D01*
X174069986Y-96697921D01*
X174073805Y-96690975D01*
X174073807Y-96690972D01*
X174079748Y-96680166D01*
X174090599Y-96663647D01*
X174098158Y-96653901D01*
X174103014Y-96647641D01*
X174106159Y-96640372D01*
X174106162Y-96640368D01*
X174120574Y-96607063D01*
X174125791Y-96596413D01*
X174147095Y-96557660D01*
X174149077Y-96549943D01*
X174152133Y-96538038D01*
X174158537Y-96519334D01*
X174163433Y-96508020D01*
X174163433Y-96508019D01*
X174166581Y-96500745D01*
X174167820Y-96492922D01*
X174167823Y-96492912D01*
X174173499Y-96457076D01*
X174175905Y-96445456D01*
X174184928Y-96410311D01*
X174184928Y-96410310D01*
X174186900Y-96402630D01*
X174186900Y-96382376D01*
X174188451Y-96362665D01*
X174190380Y-96350486D01*
X174191620Y-96342657D01*
X174187459Y-96298638D01*
X174186900Y-96286781D01*
X174186900Y-95938128D01*
X174206902Y-95870007D01*
X174260558Y-95823514D01*
X174330832Y-95813410D01*
X174339099Y-95814882D01*
X174340252Y-95815127D01*
X174340255Y-95815127D01*
X174346713Y-95816500D01*
X174537687Y-95816500D01*
X174544139Y-95815128D01*
X174544144Y-95815128D01*
X174643743Y-95793957D01*
X174724488Y-95776794D01*
X174733461Y-95772799D01*
X174892922Y-95701803D01*
X174892924Y-95701802D01*
X174898952Y-95699118D01*
X175053453Y-95586866D01*
X175060440Y-95579106D01*
X175176821Y-95449852D01*
X175176822Y-95449851D01*
X175181240Y-95444944D01*
X175244327Y-95335674D01*
X175273423Y-95285279D01*
X175273424Y-95285278D01*
X175276727Y-95279556D01*
X175335742Y-95097928D01*
X175336442Y-95091274D01*
X175355014Y-94914565D01*
X175355704Y-94908000D01*
X175342044Y-94778035D01*
X175336432Y-94724635D01*
X175336432Y-94724633D01*
X175335742Y-94718072D01*
X175276727Y-94536444D01*
X175271345Y-94527122D01*
X175184544Y-94376778D01*
X175184542Y-94376775D01*
X175181240Y-94371056D01*
X175169263Y-94357754D01*
X175138546Y-94293746D01*
X175136900Y-94273444D01*
X175136900Y-87178194D01*
X175156902Y-87110073D01*
X175173805Y-87089099D01*
X177612957Y-84649947D01*
X177675269Y-84615921D01*
X177734663Y-84617335D01*
X177756873Y-84623286D01*
X177790092Y-84632187D01*
X178016000Y-84651951D01*
X178241908Y-84632187D01*
X178306260Y-84614944D01*
X178455642Y-84574917D01*
X178455647Y-84574915D01*
X178460951Y-84573494D01*
X178666476Y-84477657D01*
X178670974Y-84474508D01*
X178670980Y-84474504D01*
X178847724Y-84350745D01*
X178847726Y-84350743D01*
X178852235Y-84347586D01*
X179012586Y-84187235D01*
X179036587Y-84152959D01*
X179098784Y-84064132D01*
X179142657Y-84001475D01*
X179144980Y-83996493D01*
X179144983Y-83996488D01*
X179171805Y-83938967D01*
X179218722Y-83885682D01*
X179287000Y-83866221D01*
X179354960Y-83886763D01*
G37*
%TD.AperFunction*%
%TA.AperFunction,Conductor*%
G36*
X125291727Y-101970202D02*
G01*
X125312701Y-101987105D01*
X125500878Y-102175282D01*
X125534904Y-102237594D01*
X125537092Y-102251203D01*
X125538259Y-102262300D01*
X125551830Y-102391420D01*
X125554458Y-102416428D01*
X125613473Y-102598056D01*
X125616776Y-102603778D01*
X125616777Y-102603779D01*
X125641186Y-102646056D01*
X125708960Y-102763444D01*
X125713378Y-102768351D01*
X125713379Y-102768352D01*
X125832325Y-102900455D01*
X125836747Y-102905366D01*
X125928132Y-102971761D01*
X125982968Y-103011602D01*
X125991248Y-103017618D01*
X125997276Y-103020302D01*
X125997278Y-103020303D01*
X126157563Y-103091666D01*
X126165712Y-103095294D01*
X126251129Y-103113450D01*
X126346056Y-103133628D01*
X126346061Y-103133628D01*
X126352513Y-103135000D01*
X126543487Y-103135000D01*
X126549939Y-103133628D01*
X126549944Y-103133628D01*
X126644871Y-103113450D01*
X126730288Y-103095294D01*
X126738437Y-103091666D01*
X126898722Y-103020303D01*
X126898724Y-103020302D01*
X126904752Y-103017618D01*
X126913033Y-103011602D01*
X127045319Y-102915490D01*
X127059253Y-102905366D01*
X127063668Y-102900463D01*
X127068580Y-102896040D01*
X127069705Y-102897289D01*
X127123014Y-102864449D01*
X127156200Y-102860000D01*
X137791617Y-102860000D01*
X137859738Y-102880002D01*
X137906231Y-102933658D01*
X137913323Y-102953387D01*
X137918291Y-102971927D01*
X137918293Y-102971933D01*
X137919716Y-102977243D01*
X137922039Y-102982224D01*
X137922039Y-102982225D01*
X138014151Y-103179762D01*
X138014154Y-103179767D01*
X138016477Y-103184749D01*
X138061821Y-103249507D01*
X138143492Y-103366144D01*
X138147802Y-103372300D01*
X138309700Y-103534198D01*
X138314208Y-103537355D01*
X138314211Y-103537357D01*
X138341957Y-103556785D01*
X138497251Y-103665523D01*
X138502233Y-103667846D01*
X138502238Y-103667849D01*
X138699057Y-103759626D01*
X138704757Y-103762284D01*
X138710065Y-103763706D01*
X138710067Y-103763707D01*
X138920598Y-103820119D01*
X138920600Y-103820119D01*
X138925913Y-103821543D01*
X139154000Y-103841498D01*
X139382087Y-103821543D01*
X139387400Y-103820119D01*
X139387402Y-103820119D01*
X139530089Y-103781886D01*
X139601065Y-103783576D01*
X139659861Y-103823370D01*
X139687809Y-103888634D01*
X139688700Y-103903593D01*
X139688700Y-106762105D01*
X139668698Y-106830226D01*
X139651795Y-106851200D01*
X138761747Y-107741248D01*
X138753461Y-107748788D01*
X138746982Y-107752900D01*
X138741557Y-107758677D01*
X138700357Y-107802551D01*
X138697602Y-107805393D01*
X138677865Y-107825130D01*
X138675385Y-107828327D01*
X138667682Y-107837347D01*
X138637414Y-107869579D01*
X138633595Y-107876525D01*
X138633593Y-107876528D01*
X138627652Y-107887334D01*
X138616801Y-107903853D01*
X138604386Y-107919859D01*
X138601241Y-107927128D01*
X138601238Y-107927132D01*
X138586826Y-107960437D01*
X138581609Y-107971087D01*
X138560305Y-108009840D01*
X138558334Y-108017515D01*
X138558334Y-108017516D01*
X138555267Y-108029462D01*
X138548863Y-108048166D01*
X138540819Y-108066755D01*
X138539580Y-108074578D01*
X138539577Y-108074588D01*
X138533901Y-108110424D01*
X138531495Y-108122044D01*
X138525251Y-108146364D01*
X138520500Y-108164870D01*
X138520500Y-108185124D01*
X138518949Y-108204834D01*
X138515780Y-108224843D01*
X138516526Y-108232735D01*
X138519941Y-108268861D01*
X138520500Y-108280719D01*
X138520500Y-108713500D01*
X138500498Y-108781621D01*
X138446842Y-108828114D01*
X138394500Y-108839500D01*
X138305866Y-108839500D01*
X138243684Y-108846255D01*
X138107295Y-108897385D01*
X137990739Y-108984739D01*
X137903385Y-109101295D01*
X137852255Y-109237684D01*
X137845500Y-109299866D01*
X137845500Y-109388500D01*
X137825498Y-109456621D01*
X137771842Y-109503114D01*
X137719500Y-109514500D01*
X125430768Y-109514500D01*
X125419585Y-109513973D01*
X125412092Y-109512298D01*
X125404166Y-109512547D01*
X125404165Y-109512547D01*
X125344002Y-109514438D01*
X125340044Y-109514500D01*
X125312144Y-109514500D01*
X125308154Y-109515004D01*
X125296320Y-109515936D01*
X125252111Y-109517326D01*
X125244495Y-109519539D01*
X125244493Y-109519539D01*
X125232652Y-109522979D01*
X125213293Y-109526988D01*
X125211983Y-109527154D01*
X125193203Y-109529526D01*
X125185837Y-109532442D01*
X125185831Y-109532444D01*
X125152098Y-109545800D01*
X125140868Y-109549645D01*
X125106017Y-109559770D01*
X125098407Y-109561981D01*
X125091584Y-109566016D01*
X125080966Y-109572295D01*
X125063213Y-109580992D01*
X125058998Y-109582661D01*
X125044383Y-109588448D01*
X125023260Y-109603795D01*
X125008612Y-109614437D01*
X124998695Y-109620951D01*
X124960638Y-109643458D01*
X124946317Y-109657779D01*
X124931284Y-109670619D01*
X124914893Y-109682528D01*
X124901467Y-109698757D01*
X124886702Y-109716605D01*
X124878712Y-109725384D01*
X120202500Y-114401595D01*
X120140188Y-114435621D01*
X120113405Y-114438500D01*
X116147176Y-114438500D01*
X116079055Y-114418498D01*
X116032562Y-114364842D01*
X116022458Y-114294568D01*
X116025469Y-114279889D01*
X116049764Y-114189221D01*
X116049765Y-114189214D01*
X116051187Y-114183908D01*
X116070951Y-113958000D01*
X116051187Y-113732092D01*
X115992494Y-113513049D01*
X115941882Y-113404511D01*
X115898983Y-113312512D01*
X115898980Y-113312507D01*
X115896657Y-113307525D01*
X115781388Y-113142904D01*
X115769745Y-113126276D01*
X115769743Y-113126273D01*
X115766586Y-113121765D01*
X115755505Y-113110684D01*
X115721479Y-113048372D01*
X115718600Y-113021589D01*
X115718600Y-109984816D01*
X115738602Y-109916695D01*
X115792258Y-109870202D01*
X115862532Y-109860098D01*
X115870797Y-109861569D01*
X115976456Y-109884028D01*
X115976461Y-109884028D01*
X115982913Y-109885400D01*
X116173887Y-109885400D01*
X116180339Y-109884028D01*
X116180344Y-109884028D01*
X116286002Y-109861569D01*
X116360688Y-109845694D01*
X116391333Y-109832050D01*
X116529122Y-109770703D01*
X116529124Y-109770702D01*
X116535152Y-109768018D01*
X116556397Y-109752583D01*
X116618150Y-109707716D01*
X116689653Y-109655766D01*
X116707936Y-109635461D01*
X116813021Y-109518752D01*
X116813022Y-109518751D01*
X116817440Y-109513844D01*
X116907822Y-109357298D01*
X116909623Y-109354179D01*
X116909624Y-109354178D01*
X116912927Y-109348456D01*
X116971942Y-109166828D01*
X116989307Y-109001606D01*
X117016320Y-108935950D01*
X117025522Y-108925682D01*
X118190947Y-107760257D01*
X118199237Y-107752713D01*
X118205718Y-107748600D01*
X118252359Y-107698932D01*
X118255113Y-107696091D01*
X118274835Y-107676369D01*
X118277312Y-107673176D01*
X118285017Y-107664155D01*
X118315286Y-107631921D01*
X118319107Y-107624971D01*
X118325046Y-107614168D01*
X118335902Y-107597641D01*
X118343457Y-107587902D01*
X118343458Y-107587900D01*
X118348314Y-107581640D01*
X118365874Y-107541060D01*
X118371091Y-107530412D01*
X118388575Y-107498609D01*
X118388576Y-107498607D01*
X118392395Y-107491660D01*
X118397433Y-107472037D01*
X118403837Y-107453334D01*
X118408733Y-107442020D01*
X118408733Y-107442019D01*
X118411881Y-107434745D01*
X118413120Y-107426922D01*
X118413123Y-107426912D01*
X118418799Y-107391076D01*
X118421205Y-107379456D01*
X118430228Y-107344311D01*
X118430228Y-107344310D01*
X118432200Y-107336630D01*
X118432200Y-107316376D01*
X118433751Y-107296665D01*
X118435680Y-107284486D01*
X118436920Y-107276657D01*
X118432759Y-107232638D01*
X118432200Y-107220781D01*
X118432200Y-104442224D01*
X118452202Y-104374103D01*
X118464558Y-104357921D01*
X118537740Y-104276644D01*
X118633227Y-104111256D01*
X118692242Y-103929628D01*
X118694979Y-103903593D01*
X118711514Y-103746265D01*
X118712204Y-103739700D01*
X118704607Y-103667414D01*
X118692932Y-103556335D01*
X118692932Y-103556333D01*
X118692242Y-103549772D01*
X118633227Y-103368144D01*
X118627166Y-103357645D01*
X118571226Y-103260756D01*
X118537740Y-103202756D01*
X118525587Y-103189258D01*
X118414375Y-103065745D01*
X118414374Y-103065744D01*
X118409953Y-103060834D01*
X118264565Y-102955203D01*
X118260794Y-102952463D01*
X118260793Y-102952462D01*
X118255452Y-102948582D01*
X118249424Y-102945898D01*
X118249422Y-102945897D01*
X118087019Y-102873591D01*
X118087018Y-102873591D01*
X118080988Y-102870906D01*
X117984346Y-102850364D01*
X117900644Y-102832572D01*
X117900639Y-102832572D01*
X117894187Y-102831200D01*
X117703213Y-102831200D01*
X117696761Y-102832572D01*
X117696756Y-102832572D01*
X117613054Y-102850364D01*
X117516412Y-102870906D01*
X117510382Y-102873591D01*
X117510381Y-102873591D01*
X117347978Y-102945897D01*
X117347976Y-102945898D01*
X117341948Y-102948582D01*
X117336607Y-102952462D01*
X117336606Y-102952463D01*
X117332835Y-102955203D01*
X117187447Y-103060834D01*
X117183026Y-103065744D01*
X117183025Y-103065745D01*
X117071814Y-103189258D01*
X117059660Y-103202756D01*
X117026174Y-103260756D01*
X116970235Y-103357645D01*
X116964173Y-103368144D01*
X116905158Y-103549772D01*
X116904468Y-103556333D01*
X116904468Y-103556335D01*
X116892793Y-103667414D01*
X116885196Y-103739700D01*
X116885886Y-103746265D01*
X116902422Y-103903593D01*
X116905158Y-103929628D01*
X116964173Y-104111256D01*
X117059660Y-104276644D01*
X117132837Y-104357915D01*
X117163553Y-104421921D01*
X117165200Y-104442224D01*
X117165200Y-106942006D01*
X117145198Y-107010127D01*
X117128295Y-107031101D01*
X116127900Y-108031495D01*
X116065588Y-108065521D01*
X116038805Y-108068400D01*
X115982913Y-108068400D01*
X115976461Y-108069772D01*
X115976456Y-108069772D01*
X115870797Y-108092231D01*
X115800006Y-108086829D01*
X115743374Y-108044012D01*
X115718880Y-107977374D01*
X115718600Y-107968984D01*
X115718600Y-102219461D01*
X115738602Y-102151340D01*
X115792258Y-102104847D01*
X115862532Y-102094743D01*
X115901642Y-102108281D01*
X115901848Y-102107818D01*
X115907246Y-102110222D01*
X115907253Y-102110224D01*
X115907870Y-102110499D01*
X115907875Y-102110502D01*
X116041206Y-102169864D01*
X116076312Y-102185494D01*
X116169712Y-102205347D01*
X116256656Y-102223828D01*
X116256661Y-102223828D01*
X116263113Y-102225200D01*
X116454087Y-102225200D01*
X116460539Y-102223828D01*
X116460544Y-102223828D01*
X116547487Y-102205347D01*
X116640888Y-102185494D01*
X116682422Y-102167002D01*
X116809322Y-102110503D01*
X116809324Y-102110502D01*
X116815352Y-102107818D01*
X116848043Y-102084067D01*
X116964514Y-101999445D01*
X116969853Y-101995566D01*
X116974268Y-101990663D01*
X116979180Y-101986240D01*
X116980305Y-101987489D01*
X117033614Y-101954649D01*
X117066800Y-101950200D01*
X125223606Y-101950200D01*
X125291727Y-101970202D01*
G37*
%TD.AperFunction*%
%TA.AperFunction,Conductor*%
G36*
X106022969Y-102773086D02*
G01*
X106079602Y-102815903D01*
X106104095Y-102882541D01*
X106088674Y-102951843D01*
X106067470Y-102980026D01*
X103870042Y-105177453D01*
X101677747Y-107369748D01*
X101669461Y-107377288D01*
X101662982Y-107381400D01*
X101657557Y-107387177D01*
X101616357Y-107431051D01*
X101613602Y-107433893D01*
X101593865Y-107453630D01*
X101591385Y-107456827D01*
X101583682Y-107465847D01*
X101553414Y-107498079D01*
X101549595Y-107505025D01*
X101549593Y-107505028D01*
X101543652Y-107515834D01*
X101532801Y-107532353D01*
X101520386Y-107548359D01*
X101517241Y-107555628D01*
X101517238Y-107555632D01*
X101502826Y-107588937D01*
X101497609Y-107599587D01*
X101476305Y-107638340D01*
X101474334Y-107646015D01*
X101474334Y-107646016D01*
X101471267Y-107657962D01*
X101464863Y-107676666D01*
X101456819Y-107695255D01*
X101455580Y-107703078D01*
X101455577Y-107703088D01*
X101449901Y-107738924D01*
X101447495Y-107750544D01*
X101438472Y-107785689D01*
X101436500Y-107793370D01*
X101436500Y-107813624D01*
X101434949Y-107833334D01*
X101431780Y-107853343D01*
X101435806Y-107895928D01*
X101435941Y-107897361D01*
X101436500Y-107909219D01*
X101436500Y-112753866D01*
X101416498Y-112821987D01*
X101382772Y-112857078D01*
X101306749Y-112910310D01*
X101238276Y-112958255D01*
X101238273Y-112958257D01*
X101233765Y-112961414D01*
X101073414Y-113121765D01*
X101070257Y-113126273D01*
X101070255Y-113126276D01*
X101058612Y-113142904D01*
X100943343Y-113307525D01*
X100941020Y-113312507D01*
X100941017Y-113312512D01*
X100913919Y-113370625D01*
X100867002Y-113423910D01*
X100798724Y-113443371D01*
X100730765Y-113422829D01*
X100685529Y-113370625D01*
X100658547Y-113312761D01*
X100653067Y-113303271D01*
X100618515Y-113253924D01*
X100608039Y-113245550D01*
X100594592Y-113252618D01*
X99619095Y-114228115D01*
X99556783Y-114262141D01*
X99485968Y-114257076D01*
X99440905Y-114228115D01*
X99259885Y-114047095D01*
X99225859Y-113984783D01*
X99230924Y-113913968D01*
X99259885Y-113868905D01*
X100236103Y-112892687D01*
X100242533Y-112880913D01*
X100233236Y-112868897D01*
X100184730Y-112834933D01*
X100175244Y-112829455D01*
X99979762Y-112738301D01*
X99969470Y-112734555D01*
X99761136Y-112678732D01*
X99750341Y-112676829D01*
X99535475Y-112658030D01*
X99524525Y-112658030D01*
X99309659Y-112676829D01*
X99298864Y-112678732D01*
X99196211Y-112706238D01*
X99125235Y-112704548D01*
X99066439Y-112664754D01*
X99038491Y-112599490D01*
X99037600Y-112584531D01*
X99037600Y-109582594D01*
X99057602Y-109514473D01*
X99074505Y-109493499D01*
X105751600Y-102816405D01*
X105813912Y-102782379D01*
X105840695Y-102779500D01*
X105896587Y-102779500D01*
X105910654Y-102776510D01*
X105952179Y-102767684D01*
X106022969Y-102773086D01*
G37*
%TD.AperFunction*%
%TA.AperFunction,Conductor*%
G36*
X141164212Y-99305174D02*
G01*
X141181258Y-99323169D01*
X141185420Y-99328535D01*
X141189458Y-99335362D01*
X141203779Y-99349683D01*
X141216619Y-99364716D01*
X141228528Y-99381107D01*
X141245666Y-99395285D01*
X141262605Y-99409298D01*
X141271384Y-99417288D01*
X142082743Y-100228647D01*
X142090287Y-100236937D01*
X142094400Y-100243418D01*
X142100177Y-100248843D01*
X142144067Y-100290058D01*
X142146909Y-100292813D01*
X142166630Y-100312534D01*
X142169825Y-100315012D01*
X142178847Y-100322718D01*
X142211079Y-100352986D01*
X142218028Y-100356806D01*
X142228832Y-100362746D01*
X142245356Y-100373599D01*
X142261359Y-100386013D01*
X142301943Y-100403576D01*
X142312573Y-100408783D01*
X142351340Y-100430095D01*
X142359017Y-100432066D01*
X142359022Y-100432068D01*
X142370958Y-100435132D01*
X142389666Y-100441537D01*
X142408255Y-100449581D01*
X142416083Y-100450821D01*
X142416090Y-100450823D01*
X142451924Y-100456499D01*
X142463544Y-100458905D01*
X142498689Y-100467928D01*
X142506370Y-100469900D01*
X142526624Y-100469900D01*
X142546334Y-100471451D01*
X142566343Y-100474620D01*
X142574235Y-100473874D01*
X142610361Y-100470459D01*
X142622219Y-100469900D01*
X143124500Y-100469900D01*
X143192621Y-100489902D01*
X143239114Y-100543558D01*
X143250500Y-100595900D01*
X143250500Y-101309134D01*
X143257255Y-101371316D01*
X143289379Y-101457007D01*
X143305924Y-101501140D01*
X143311107Y-101571948D01*
X143277037Y-101634465D01*
X143227802Y-101683700D01*
X143224645Y-101688208D01*
X143224643Y-101688211D01*
X143210012Y-101709107D01*
X143096477Y-101871251D01*
X143094154Y-101876233D01*
X143094151Y-101876238D01*
X143077919Y-101911049D01*
X143031002Y-101964334D01*
X142962725Y-101983795D01*
X142894765Y-101963253D01*
X142849529Y-101911049D01*
X142833414Y-101876489D01*
X142827931Y-101866994D01*
X142791491Y-101814952D01*
X142781012Y-101806576D01*
X142767566Y-101813644D01*
X142066022Y-102515188D01*
X142058408Y-102529132D01*
X142058539Y-102530965D01*
X142062790Y-102537580D01*
X142768287Y-103243077D01*
X142780062Y-103249507D01*
X142792077Y-103240211D01*
X142827931Y-103189006D01*
X142833414Y-103179511D01*
X142849529Y-103144951D01*
X142896446Y-103091666D01*
X142964723Y-103072205D01*
X143032683Y-103092747D01*
X143077919Y-103144951D01*
X143094151Y-103179762D01*
X143094154Y-103179767D01*
X143096477Y-103184749D01*
X143141821Y-103249507D01*
X143223492Y-103366144D01*
X143227802Y-103372300D01*
X143389700Y-103534198D01*
X143394208Y-103537355D01*
X143394211Y-103537357D01*
X143546771Y-103644181D01*
X143591099Y-103699638D01*
X143600500Y-103747394D01*
X143600500Y-104244506D01*
X143580498Y-104312627D01*
X143563595Y-104333601D01*
X141170795Y-106726400D01*
X141108483Y-106760426D01*
X141037667Y-106755361D01*
X140980832Y-106712814D01*
X140956021Y-106646294D01*
X140955700Y-106637305D01*
X140955700Y-103824724D01*
X140975702Y-103756603D01*
X141029358Y-103710110D01*
X141099632Y-103700006D01*
X141134950Y-103710529D01*
X141239947Y-103759490D01*
X141250239Y-103763236D01*
X141460688Y-103819625D01*
X141471481Y-103821528D01*
X141688525Y-103840517D01*
X141699475Y-103840517D01*
X141916519Y-103821528D01*
X141927312Y-103819625D01*
X142137761Y-103763236D01*
X142148053Y-103759490D01*
X142345511Y-103667414D01*
X142355006Y-103661931D01*
X142407048Y-103625491D01*
X142415424Y-103615012D01*
X142408356Y-103601566D01*
X141423885Y-102617095D01*
X141389859Y-102554783D01*
X141394924Y-102483968D01*
X141423885Y-102438905D01*
X142409077Y-101453713D01*
X142415507Y-101441938D01*
X142406211Y-101429923D01*
X142355006Y-101394069D01*
X142345511Y-101388586D01*
X142148053Y-101296510D01*
X142137761Y-101292764D01*
X141927312Y-101236375D01*
X141916519Y-101234472D01*
X141699475Y-101215483D01*
X141688525Y-101215483D01*
X141471481Y-101234472D01*
X141460688Y-101236375D01*
X141250239Y-101292764D01*
X141239947Y-101296510D01*
X141134950Y-101345471D01*
X141064758Y-101356132D01*
X140999946Y-101327152D01*
X140961089Y-101267732D01*
X140955700Y-101231276D01*
X140955700Y-99400398D01*
X140975702Y-99332277D01*
X141029358Y-99285784D01*
X141099632Y-99275680D01*
X141164212Y-99305174D01*
G37*
%TD.AperFunction*%
%TA.AperFunction,Conductor*%
G36*
X198847538Y-94761532D02*
G01*
X198904374Y-94804079D01*
X198929185Y-94870599D01*
X198929026Y-94890570D01*
X198927981Y-94902514D01*
X198927981Y-94902525D01*
X198927502Y-94908000D01*
X198947457Y-95136087D01*
X198948881Y-95141400D01*
X198948881Y-95141402D01*
X199005113Y-95351259D01*
X199006716Y-95357243D01*
X199009039Y-95362224D01*
X199009039Y-95362225D01*
X199101151Y-95559762D01*
X199101154Y-95559767D01*
X199103477Y-95564749D01*
X199145732Y-95625095D01*
X199225439Y-95738928D01*
X199234802Y-95752300D01*
X199247353Y-95764851D01*
X199281379Y-95827163D01*
X199276314Y-95897978D01*
X199247353Y-95943041D01*
X198723342Y-96467052D01*
X198715062Y-96474587D01*
X198708582Y-96478700D01*
X198667908Y-96522014D01*
X198661957Y-96528351D01*
X198659202Y-96531193D01*
X198639465Y-96550930D01*
X198636985Y-96554127D01*
X198629282Y-96563147D01*
X198599014Y-96595379D01*
X198595195Y-96602325D01*
X198595193Y-96602328D01*
X198589252Y-96613134D01*
X198578401Y-96629653D01*
X198565986Y-96645659D01*
X198562841Y-96652928D01*
X198562838Y-96652932D01*
X198548426Y-96686237D01*
X198543209Y-96696887D01*
X198521905Y-96735640D01*
X198517098Y-96754364D01*
X198516867Y-96755262D01*
X198510463Y-96773966D01*
X198502419Y-96792555D01*
X198501180Y-96800378D01*
X198501177Y-96800388D01*
X198495501Y-96836224D01*
X198493095Y-96847844D01*
X198484159Y-96882651D01*
X198482100Y-96890670D01*
X198482100Y-96910924D01*
X198480549Y-96930634D01*
X198477380Y-96950643D01*
X198478126Y-96958535D01*
X198481541Y-96994661D01*
X198482100Y-97006519D01*
X198482100Y-98253193D01*
X198462098Y-98321314D01*
X198453185Y-98333508D01*
X198426302Y-98366004D01*
X198418312Y-98374784D01*
X194147039Y-102646057D01*
X194084727Y-102680083D01*
X194013912Y-102675018D01*
X193957076Y-102632471D01*
X193932265Y-102565951D01*
X193932423Y-102545981D01*
X193933517Y-102533475D01*
X193933517Y-102522525D01*
X193914528Y-102305481D01*
X193912625Y-102294688D01*
X193856236Y-102084239D01*
X193852490Y-102073947D01*
X193760414Y-101876489D01*
X193754931Y-101866994D01*
X193718491Y-101814952D01*
X193708012Y-101806576D01*
X193694566Y-101813644D01*
X192710095Y-102798115D01*
X192647783Y-102832141D01*
X192576968Y-102827076D01*
X192531905Y-102798115D01*
X191546713Y-101812923D01*
X191534938Y-101806493D01*
X191522923Y-101815789D01*
X191487069Y-101866994D01*
X191481586Y-101876489D01*
X191389510Y-102073947D01*
X191385764Y-102084239D01*
X191329375Y-102294688D01*
X191327472Y-102305481D01*
X191308483Y-102522525D01*
X191308483Y-102533475D01*
X191309577Y-102545980D01*
X191295588Y-102615584D01*
X191246188Y-102666577D01*
X191177062Y-102682767D01*
X191110157Y-102659014D01*
X191094961Y-102646056D01*
X189563315Y-101114410D01*
X189529289Y-101052098D01*
X189534354Y-100981283D01*
X189576901Y-100924447D01*
X189589589Y-100916283D01*
X189596705Y-100913615D01*
X189603892Y-100908229D01*
X189624436Y-100892832D01*
X189690943Y-100867985D01*
X189760325Y-100883039D01*
X189775564Y-100892832D01*
X189803295Y-100913615D01*
X189939684Y-100964745D01*
X190001866Y-100971500D01*
X191148134Y-100971500D01*
X191210316Y-100964745D01*
X191346705Y-100913615D01*
X191353892Y-100908229D01*
X191459016Y-100829443D01*
X191525523Y-100804595D01*
X191594905Y-100819648D01*
X191623676Y-100841174D01*
X191776700Y-100994198D01*
X191781208Y-100997355D01*
X191781211Y-100997357D01*
X191831401Y-101032500D01*
X191964251Y-101125523D01*
X191969233Y-101127846D01*
X191969238Y-101127849D01*
X192004049Y-101144081D01*
X192057334Y-101190998D01*
X192076795Y-101259275D01*
X192056253Y-101327235D01*
X192004049Y-101372471D01*
X191969489Y-101388586D01*
X191959994Y-101394069D01*
X191907952Y-101430509D01*
X191899576Y-101440988D01*
X191906644Y-101454434D01*
X192608188Y-102155978D01*
X192622132Y-102163592D01*
X192623965Y-102163461D01*
X192630580Y-102159210D01*
X193336077Y-101453713D01*
X193342507Y-101441938D01*
X193333211Y-101429923D01*
X193282006Y-101394069D01*
X193272511Y-101388586D01*
X193237951Y-101372471D01*
X193184666Y-101325554D01*
X193165205Y-101257277D01*
X193185747Y-101189317D01*
X193237951Y-101144081D01*
X193272762Y-101127849D01*
X193272767Y-101127846D01*
X193277749Y-101125523D01*
X193410599Y-101032500D01*
X193460789Y-100997357D01*
X193460792Y-100997355D01*
X193465300Y-100994198D01*
X193627198Y-100832300D01*
X193646598Y-100804595D01*
X193703727Y-100723005D01*
X193758523Y-100644749D01*
X193760846Y-100639767D01*
X193760849Y-100639762D01*
X193852961Y-100442225D01*
X193852961Y-100442224D01*
X193855284Y-100437243D01*
X193861529Y-100413939D01*
X193913119Y-100221402D01*
X193913119Y-100221400D01*
X193914543Y-100216087D01*
X193934498Y-99988000D01*
X193914543Y-99759913D01*
X193913119Y-99754598D01*
X193913118Y-99754591D01*
X193897541Y-99696459D01*
X193899230Y-99625483D01*
X193930152Y-99574752D01*
X198714411Y-94790493D01*
X198776723Y-94756467D01*
X198847538Y-94761532D01*
G37*
%TD.AperFunction*%
%TA.AperFunction,Conductor*%
G36*
X107326627Y-82212902D02*
G01*
X107347601Y-82229805D01*
X107983574Y-82865779D01*
X108607048Y-83489253D01*
X108614588Y-83497539D01*
X108618700Y-83504018D01*
X108624477Y-83509443D01*
X108668351Y-83550643D01*
X108671193Y-83553398D01*
X108690930Y-83573135D01*
X108694127Y-83575615D01*
X108703147Y-83583318D01*
X108735379Y-83613586D01*
X108742325Y-83617405D01*
X108742328Y-83617407D01*
X108753134Y-83623348D01*
X108769653Y-83634199D01*
X108785659Y-83646614D01*
X108792928Y-83649759D01*
X108792932Y-83649762D01*
X108826237Y-83664174D01*
X108836896Y-83669396D01*
X108862199Y-83683306D01*
X108912259Y-83733650D01*
X108927500Y-83793721D01*
X108927500Y-83907134D01*
X108934255Y-83969316D01*
X108985385Y-84105705D01*
X109072739Y-84222261D01*
X109189295Y-84309615D01*
X109325684Y-84360745D01*
X109387866Y-84367500D01*
X109396364Y-84367500D01*
X109464485Y-84387502D01*
X109510978Y-84441158D01*
X109521082Y-84511432D01*
X109491588Y-84576012D01*
X109468635Y-84596713D01*
X109382730Y-84656864D01*
X109382727Y-84656866D01*
X109378219Y-84660023D01*
X109221023Y-84817219D01*
X109217866Y-84821727D01*
X109217864Y-84821730D01*
X109108123Y-84978457D01*
X109093512Y-84999324D01*
X109091189Y-85004306D01*
X109091186Y-85004311D01*
X109022315Y-85152005D01*
X108999560Y-85200804D01*
X108998138Y-85206112D01*
X108998137Y-85206114D01*
X108987680Y-85245140D01*
X108942022Y-85415537D01*
X108922647Y-85637000D01*
X108942022Y-85858463D01*
X108963977Y-85940398D01*
X108991714Y-86043913D01*
X108999560Y-86073196D01*
X109001882Y-86078177D01*
X109001883Y-86078178D01*
X109091186Y-86269689D01*
X109091189Y-86269694D01*
X109093512Y-86274676D01*
X109096668Y-86279183D01*
X109096669Y-86279185D01*
X109215554Y-86448970D01*
X109221023Y-86456781D01*
X109378219Y-86613977D01*
X109382727Y-86617134D01*
X109382730Y-86617136D01*
X109433367Y-86652592D01*
X109560323Y-86741488D01*
X109565305Y-86743811D01*
X109565310Y-86743814D01*
X109639884Y-86778588D01*
X109662353Y-86789065D01*
X109670965Y-86793081D01*
X109724250Y-86839998D01*
X109743711Y-86908275D01*
X109723169Y-86976235D01*
X109670965Y-87021471D01*
X109565559Y-87070623D01*
X109556068Y-87076103D01*
X109512235Y-87106794D01*
X109503860Y-87117271D01*
X109510928Y-87130718D01*
X110468115Y-88087905D01*
X110502141Y-88150217D01*
X110497076Y-88221032D01*
X110468115Y-88266095D01*
X109510207Y-89224003D01*
X109503777Y-89235777D01*
X109513074Y-89247793D01*
X109556069Y-89277898D01*
X109565555Y-89283376D01*
X109756993Y-89372645D01*
X109767285Y-89376391D01*
X109971309Y-89431059D01*
X109982104Y-89432962D01*
X110192525Y-89451372D01*
X110203475Y-89451372D01*
X110413896Y-89432962D01*
X110424691Y-89431059D01*
X110628715Y-89376391D01*
X110639007Y-89372645D01*
X110655350Y-89365024D01*
X110725542Y-89354363D01*
X110790354Y-89383343D01*
X110829211Y-89442763D01*
X110834600Y-89479219D01*
X110834600Y-90870505D01*
X110814598Y-90938626D01*
X110797695Y-90959600D01*
X108905147Y-92852148D01*
X108896861Y-92859688D01*
X108890382Y-92863800D01*
X108884957Y-92869577D01*
X108843757Y-92913451D01*
X108841002Y-92916293D01*
X108821265Y-92936030D01*
X108818785Y-92939227D01*
X108811082Y-92948247D01*
X108780814Y-92980479D01*
X108776995Y-92987425D01*
X108776993Y-92987428D01*
X108771052Y-92998234D01*
X108760201Y-93014753D01*
X108747786Y-93030759D01*
X108744641Y-93038028D01*
X108744638Y-93038032D01*
X108730226Y-93071337D01*
X108725009Y-93081987D01*
X108703705Y-93120740D01*
X108701734Y-93128415D01*
X108701734Y-93128416D01*
X108698667Y-93140362D01*
X108692263Y-93159066D01*
X108684219Y-93177655D01*
X108682980Y-93185478D01*
X108682977Y-93185488D01*
X108677301Y-93221324D01*
X108674895Y-93232944D01*
X108673601Y-93237984D01*
X108663900Y-93275770D01*
X108663900Y-93296024D01*
X108662349Y-93315734D01*
X108659180Y-93335743D01*
X108659926Y-93343635D01*
X108663341Y-93379761D01*
X108663900Y-93391619D01*
X108663900Y-94160103D01*
X108643898Y-94228224D01*
X108590242Y-94274717D01*
X108519968Y-94284821D01*
X108486653Y-94275210D01*
X108434031Y-94251782D01*
X108410019Y-94241091D01*
X108410018Y-94241091D01*
X108403988Y-94238406D01*
X108310587Y-94218553D01*
X108223644Y-94200072D01*
X108223639Y-94200072D01*
X108217187Y-94198700D01*
X108161295Y-94198700D01*
X108093174Y-94178698D01*
X108072200Y-94161795D01*
X102740405Y-88830000D01*
X102706379Y-88767688D01*
X102703500Y-88740905D01*
X102703500Y-88182475D01*
X108923628Y-88182475D01*
X108942038Y-88392896D01*
X108943941Y-88403691D01*
X108998609Y-88607715D01*
X109002355Y-88618007D01*
X109091623Y-88809441D01*
X109097103Y-88818932D01*
X109127794Y-88862765D01*
X109138271Y-88871140D01*
X109151718Y-88864072D01*
X109825978Y-88189812D01*
X109833592Y-88175868D01*
X109833461Y-88174035D01*
X109829210Y-88167420D01*
X109150997Y-87489207D01*
X109139223Y-87482777D01*
X109127207Y-87492074D01*
X109097103Y-87535068D01*
X109091623Y-87544559D01*
X109002355Y-87735993D01*
X108998609Y-87746285D01*
X108943941Y-87950309D01*
X108942038Y-87961104D01*
X108923628Y-88171525D01*
X108923628Y-88182475D01*
X102703500Y-88182475D01*
X102703500Y-84399266D01*
X102723502Y-84331145D01*
X102777158Y-84284652D01*
X102847432Y-84274548D01*
X102882748Y-84285070D01*
X102898992Y-84292645D01*
X102909285Y-84296391D01*
X103113309Y-84351059D01*
X103124104Y-84352962D01*
X103334525Y-84371372D01*
X103345475Y-84371372D01*
X103555896Y-84352962D01*
X103566691Y-84351059D01*
X103770715Y-84296391D01*
X103781007Y-84292645D01*
X103972445Y-84203376D01*
X103981931Y-84197898D01*
X104025764Y-84167207D01*
X104034139Y-84156729D01*
X104027071Y-84143281D01*
X103069885Y-83186095D01*
X103035859Y-83123783D01*
X103040924Y-83052968D01*
X103069885Y-83007905D01*
X103250905Y-82826885D01*
X103313217Y-82792859D01*
X103384032Y-82797924D01*
X103429095Y-82826885D01*
X104387003Y-83784793D01*
X104398777Y-83791223D01*
X104410793Y-83781926D01*
X104440897Y-83738932D01*
X104446377Y-83729441D01*
X104535645Y-83538007D01*
X104539391Y-83527715D01*
X104594059Y-83323691D01*
X104595962Y-83312896D01*
X104614372Y-83102475D01*
X104614372Y-83091525D01*
X104595962Y-82881104D01*
X104594059Y-82870309D01*
X104539391Y-82666285D01*
X104535645Y-82655993D01*
X104446376Y-82464556D01*
X104440903Y-82455078D01*
X104396155Y-82391170D01*
X104373468Y-82323896D01*
X104390753Y-82255036D01*
X104442524Y-82206452D01*
X104499369Y-82192900D01*
X107258506Y-82192900D01*
X107326627Y-82212902D01*
G37*
%TD.AperFunction*%
%TA.AperFunction,Conductor*%
G36*
X115088721Y-83750502D02*
G01*
X115135214Y-83804158D01*
X115146600Y-83856500D01*
X115146600Y-92076376D01*
X115126598Y-92144497D01*
X115114242Y-92160679D01*
X115041060Y-92241956D01*
X114945573Y-92407344D01*
X114886558Y-92588972D01*
X114885868Y-92595533D01*
X114885868Y-92595535D01*
X114875255Y-92696516D01*
X114866596Y-92778900D01*
X114867286Y-92785465D01*
X114884928Y-92953316D01*
X114886558Y-92968828D01*
X114945573Y-93150456D01*
X114948876Y-93156178D01*
X114948877Y-93156179D01*
X114970892Y-93194310D01*
X115041060Y-93315844D01*
X115045478Y-93320751D01*
X115045479Y-93320752D01*
X115132109Y-93416964D01*
X115168847Y-93457766D01*
X115323348Y-93570018D01*
X115329376Y-93572702D01*
X115329378Y-93572703D01*
X115485948Y-93642412D01*
X115497812Y-93647694D01*
X115587599Y-93666779D01*
X115678156Y-93686028D01*
X115678161Y-93686028D01*
X115684613Y-93687400D01*
X115875587Y-93687400D01*
X115882039Y-93686028D01*
X115882044Y-93686028D01*
X115972601Y-93666779D01*
X116062388Y-93647694D01*
X116074252Y-93642412D01*
X116230822Y-93572703D01*
X116230824Y-93572702D01*
X116236852Y-93570018D01*
X116391353Y-93457766D01*
X116428091Y-93416964D01*
X116514721Y-93320752D01*
X116514722Y-93320751D01*
X116519140Y-93315844D01*
X116589308Y-93194310D01*
X116611323Y-93156179D01*
X116611324Y-93156178D01*
X116614627Y-93150456D01*
X116673642Y-92968828D01*
X116675273Y-92953316D01*
X116692914Y-92785465D01*
X116693604Y-92778900D01*
X116684945Y-92696516D01*
X116674332Y-92595535D01*
X116674332Y-92595533D01*
X116673642Y-92588972D01*
X116614627Y-92407344D01*
X116519140Y-92241956D01*
X116445963Y-92160685D01*
X116415247Y-92096679D01*
X116413600Y-92076376D01*
X116413600Y-84640031D01*
X116433602Y-84571910D01*
X116487258Y-84525417D01*
X116553207Y-84514768D01*
X116601366Y-84520000D01*
X117487854Y-84520000D01*
X117555975Y-84540002D01*
X117602468Y-84593658D01*
X117612572Y-84663932D01*
X117590445Y-84718444D01*
X117587314Y-84721779D01*
X117583495Y-84728726D01*
X117583494Y-84728727D01*
X117577552Y-84739534D01*
X117566701Y-84756053D01*
X117554286Y-84772059D01*
X117551141Y-84779328D01*
X117551138Y-84779332D01*
X117536726Y-84812637D01*
X117531509Y-84823287D01*
X117510205Y-84862040D01*
X117508234Y-84869715D01*
X117508234Y-84869716D01*
X117505167Y-84881662D01*
X117498763Y-84900366D01*
X117490719Y-84918955D01*
X117489480Y-84926778D01*
X117489477Y-84926788D01*
X117483801Y-84962624D01*
X117481395Y-84974244D01*
X117472547Y-85008709D01*
X117470400Y-85017070D01*
X117470400Y-85037324D01*
X117468849Y-85057034D01*
X117465680Y-85077043D01*
X117469278Y-85115100D01*
X117469841Y-85121061D01*
X117470400Y-85132919D01*
X117470400Y-93289376D01*
X117450398Y-93357497D01*
X117438042Y-93373679D01*
X117364860Y-93454956D01*
X117317726Y-93536594D01*
X117274371Y-93611688D01*
X117269373Y-93620344D01*
X117210358Y-93801972D01*
X117209669Y-93808531D01*
X117209668Y-93808534D01*
X117192606Y-93970871D01*
X117165593Y-94036527D01*
X117107371Y-94077157D01*
X117067296Y-94083700D01*
X115337295Y-94083700D01*
X115269174Y-94063698D01*
X115248200Y-94046795D01*
X113309152Y-92107747D01*
X113301612Y-92099461D01*
X113297500Y-92092982D01*
X113247848Y-92046356D01*
X113245007Y-92043602D01*
X113225270Y-92023865D01*
X113222073Y-92021385D01*
X113213051Y-92013680D01*
X113186600Y-91988841D01*
X113180821Y-91983414D01*
X113173875Y-91979595D01*
X113173872Y-91979593D01*
X113163066Y-91973652D01*
X113146547Y-91962801D01*
X113146083Y-91962441D01*
X113130541Y-91950386D01*
X113123272Y-91947241D01*
X113123268Y-91947238D01*
X113089963Y-91932826D01*
X113079313Y-91927609D01*
X113040560Y-91906305D01*
X113020937Y-91901267D01*
X113002234Y-91894863D01*
X112990920Y-91889967D01*
X112990919Y-91889967D01*
X112983645Y-91886819D01*
X112975822Y-91885580D01*
X112975812Y-91885577D01*
X112939976Y-91879901D01*
X112928356Y-91877495D01*
X112893211Y-91868472D01*
X112893210Y-91868472D01*
X112885530Y-91866500D01*
X112865276Y-91866500D01*
X112845565Y-91864949D01*
X112833386Y-91863020D01*
X112825557Y-91861780D01*
X112817665Y-91862526D01*
X112781539Y-91865941D01*
X112769681Y-91866500D01*
X111988428Y-91866500D01*
X111920307Y-91846498D01*
X111873814Y-91792842D01*
X111863710Y-91722568D01*
X111896578Y-91654247D01*
X111904046Y-91646295D01*
X111921759Y-91627432D01*
X111924513Y-91624591D01*
X111944234Y-91604870D01*
X111946712Y-91601675D01*
X111954418Y-91592653D01*
X111979258Y-91566201D01*
X111984686Y-91560421D01*
X111994446Y-91542668D01*
X112005299Y-91526145D01*
X112009383Y-91520880D01*
X112017713Y-91510141D01*
X112035276Y-91469557D01*
X112040483Y-91458927D01*
X112061795Y-91420160D01*
X112063767Y-91412480D01*
X112063768Y-91412478D01*
X112066832Y-91400542D01*
X112073238Y-91381830D01*
X112073960Y-91380163D01*
X112081281Y-91363245D01*
X112086827Y-91328233D01*
X112088197Y-91319581D01*
X112090604Y-91307960D01*
X112099628Y-91272811D01*
X112099628Y-91272810D01*
X112101600Y-91265130D01*
X112101600Y-91244869D01*
X112103151Y-91225158D01*
X112105079Y-91212985D01*
X112106319Y-91205157D01*
X112102159Y-91161146D01*
X112101600Y-91149289D01*
X112101600Y-89479312D01*
X112121602Y-89411191D01*
X112175258Y-89364698D01*
X112245532Y-89354594D01*
X112280851Y-89365118D01*
X112296988Y-89372643D01*
X112307285Y-89376391D01*
X112511309Y-89431059D01*
X112522104Y-89432962D01*
X112732525Y-89451372D01*
X112743475Y-89451372D01*
X112953896Y-89432962D01*
X112964691Y-89431059D01*
X113168715Y-89376391D01*
X113179007Y-89372645D01*
X113370445Y-89283376D01*
X113379931Y-89277898D01*
X113423764Y-89247207D01*
X113432139Y-89236729D01*
X113425071Y-89223281D01*
X112467885Y-88266095D01*
X112433859Y-88203783D01*
X112435694Y-88178132D01*
X113102408Y-88178132D01*
X113102539Y-88179965D01*
X113106790Y-88186580D01*
X113785003Y-88864793D01*
X113796777Y-88871223D01*
X113808793Y-88861926D01*
X113838897Y-88818932D01*
X113844377Y-88809441D01*
X113933645Y-88618007D01*
X113937391Y-88607715D01*
X113992059Y-88403691D01*
X113993962Y-88392896D01*
X114012372Y-88182475D01*
X114012372Y-88171525D01*
X113993962Y-87961104D01*
X113992059Y-87950309D01*
X113937391Y-87746285D01*
X113933645Y-87735993D01*
X113844377Y-87544559D01*
X113838897Y-87535068D01*
X113808206Y-87491235D01*
X113797729Y-87482860D01*
X113784282Y-87489928D01*
X113110022Y-88164188D01*
X113102408Y-88178132D01*
X112435694Y-88178132D01*
X112438924Y-88132968D01*
X112467885Y-88087905D01*
X113425793Y-87129997D01*
X113432223Y-87118223D01*
X113422926Y-87106207D01*
X113379931Y-87076102D01*
X113370445Y-87070624D01*
X113265035Y-87021471D01*
X113211750Y-86974554D01*
X113192289Y-86906277D01*
X113212831Y-86838317D01*
X113265035Y-86793081D01*
X113273648Y-86789065D01*
X113296116Y-86778588D01*
X113370690Y-86743814D01*
X113370695Y-86743811D01*
X113375677Y-86741488D01*
X113502633Y-86652592D01*
X113553270Y-86617136D01*
X113553273Y-86617134D01*
X113557781Y-86613977D01*
X113714977Y-86456781D01*
X113720447Y-86448970D01*
X113839331Y-86279185D01*
X113839332Y-86279183D01*
X113842488Y-86274676D01*
X113844811Y-86269694D01*
X113844814Y-86269689D01*
X113934117Y-86078178D01*
X113934118Y-86078177D01*
X113936440Y-86073196D01*
X113944287Y-86043913D01*
X113972023Y-85940398D01*
X113993978Y-85858463D01*
X114013353Y-85637000D01*
X113993978Y-85415537D01*
X113948320Y-85245140D01*
X113937863Y-85206114D01*
X113937862Y-85206112D01*
X113936440Y-85200804D01*
X113913685Y-85152005D01*
X113844814Y-85004311D01*
X113844811Y-85004306D01*
X113842488Y-84999324D01*
X113827877Y-84978457D01*
X113718136Y-84821730D01*
X113718134Y-84821727D01*
X113714977Y-84817219D01*
X113557781Y-84660023D01*
X113553273Y-84656866D01*
X113553270Y-84656864D01*
X113448822Y-84583729D01*
X113375677Y-84532512D01*
X113370695Y-84530189D01*
X113370690Y-84530186D01*
X113265627Y-84481195D01*
X113212342Y-84434278D01*
X113192881Y-84366001D01*
X113213423Y-84298041D01*
X113265627Y-84252805D01*
X113370690Y-84203814D01*
X113370695Y-84203811D01*
X113375677Y-84201488D01*
X113502943Y-84112375D01*
X113553270Y-84077136D01*
X113553273Y-84077134D01*
X113557781Y-84073977D01*
X113714977Y-83916781D01*
X113719354Y-83910531D01*
X113807791Y-83784229D01*
X113863248Y-83739901D01*
X113911004Y-83730500D01*
X115020600Y-83730500D01*
X115088721Y-83750502D01*
G37*
%TD.AperFunction*%
%TA.AperFunction,Conductor*%
G36*
X200285032Y-86988924D02*
G01*
X200330095Y-87017885D01*
X200511115Y-87198905D01*
X200545141Y-87261217D01*
X200540076Y-87332032D01*
X200511115Y-87377095D01*
X199525923Y-88362287D01*
X199519493Y-88374062D01*
X199528789Y-88386077D01*
X199579994Y-88421931D01*
X199589489Y-88427414D01*
X199624049Y-88443529D01*
X199677334Y-88490446D01*
X199696795Y-88558723D01*
X199676253Y-88626683D01*
X199624049Y-88671919D01*
X199589238Y-88688151D01*
X199589233Y-88688154D01*
X199584251Y-88690477D01*
X199512233Y-88740905D01*
X199401211Y-88818643D01*
X199401208Y-88818645D01*
X199396700Y-88821802D01*
X199234802Y-88983700D01*
X199231973Y-88987741D01*
X199173007Y-89026968D01*
X199102019Y-89028092D01*
X199041693Y-88990658D01*
X199011182Y-88926552D01*
X199009600Y-88906649D01*
X199009600Y-88135536D01*
X199029602Y-88067415D01*
X199083258Y-88020922D01*
X199148573Y-88010206D01*
X199151854Y-88010546D01*
X199167434Y-88002356D01*
X200151905Y-87017885D01*
X200214217Y-86983859D01*
X200285032Y-86988924D01*
G37*
%TD.AperFunction*%
%TA.AperFunction,Conductor*%
G36*
X143168533Y-84100539D02*
G01*
X143225368Y-84143086D01*
X143250179Y-84209606D01*
X143250500Y-84218595D01*
X143250500Y-85053134D01*
X143257255Y-85115316D01*
X143287682Y-85196480D01*
X143305924Y-85245140D01*
X143311107Y-85315948D01*
X143277037Y-85378465D01*
X143227802Y-85427700D01*
X143224645Y-85432208D01*
X143224643Y-85432211D01*
X143193013Y-85477384D01*
X143096477Y-85615251D01*
X143094154Y-85620233D01*
X143094151Y-85620238D01*
X143077919Y-85655049D01*
X143031002Y-85708334D01*
X142962725Y-85727795D01*
X142894765Y-85707253D01*
X142849529Y-85655049D01*
X142833414Y-85620489D01*
X142827931Y-85610994D01*
X142791491Y-85558952D01*
X142781012Y-85550576D01*
X142767566Y-85557644D01*
X141783095Y-86542115D01*
X141720783Y-86576141D01*
X141649968Y-86571076D01*
X141604905Y-86542115D01*
X141423885Y-86361095D01*
X141389859Y-86298783D01*
X141394924Y-86227968D01*
X141423885Y-86182905D01*
X142409077Y-85197713D01*
X142415507Y-85185938D01*
X142406211Y-85173923D01*
X142355006Y-85138069D01*
X142345507Y-85132584D01*
X142295005Y-85109035D01*
X142241719Y-85062118D01*
X142222258Y-84993841D01*
X142242800Y-84925881D01*
X142259152Y-84905753D01*
X143035407Y-84129498D01*
X143097717Y-84095474D01*
X143168533Y-84100539D01*
G37*
%TD.AperFunction*%
%TD*%
M02*
