%TF.GenerationSoftware,KiCad,Pcbnew,(6.0.4)*%
%TF.CreationDate,2022-05-03T20:53:10-03:00*%
%TF.ProjectId,PXN_2119,50584e5f-3231-4313-992e-6b696361645f,rev?*%
%TF.SameCoordinates,Original*%
%TF.FileFunction,Paste,Top*%
%TF.FilePolarity,Positive*%
%FSLAX46Y46*%
G04 Gerber Fmt 4.6, Leading zero omitted, Abs format (unit mm)*
G04 Created by KiCad (PCBNEW (6.0.4)) date 2022-05-03 20:53:10*
%MOMM*%
%LPD*%
G01*
G04 APERTURE LIST*
G04 Aperture macros list*
%AMHorizOval*
0 Thick line with rounded ends*
0 $1 width*
0 $2 $3 position (X,Y) of the first rounded end (center of the circle)*
0 $4 $5 position (X,Y) of the second rounded end (center of the circle)*
0 Add line between two ends*
20,1,$1,$2,$3,$4,$5,0*
0 Add two circle primitives to create the rounded ends*
1,1,$1,$2,$3*
1,1,$1,$4,$5*%
G04 Aperture macros list end*
%ADD10R,1.050000X0.950000*%
%ADD11R,1.575000X1.575000*%
%ADD12C,1.575000*%
%ADD13R,1.600000X1.600000*%
%ADD14C,1.600000*%
%ADD15R,1.524000X1.524000*%
%ADD16C,1.524000*%
%ADD17R,0.950000X1.050000*%
%ADD18R,2.500000X2.000000*%
%ADD19R,1.900000X1.900000*%
%ADD20R,1.350000X0.400000*%
%ADD21R,5.500000X2.000000*%
%ADD22R,1.800000X1.000000*%
%ADD23R,1.270000X1.471000*%
%ADD24R,0.800000X0.800000*%
%ADD25HorizOval,0.270000X-0.434871X0.434871X0.434871X-0.434871X0*%
%ADD26HorizOval,0.270000X0.434871X0.434871X-0.434871X-0.434871X0*%
%ADD27R,0.950000X1.900000*%
%ADD28R,3.250000X1.900000*%
%ADD29R,1.700000X1.000000*%
G04 APERTURE END LIST*
D10*
%TO.C,C9*%
X104624000Y-105322000D03*
X106374000Y-105322000D03*
%TD*%
D11*
%TO.C,H4*%
X141059000Y-83097000D03*
D12*
X138519000Y-83097000D03*
X135979000Y-83097000D03*
X133439000Y-83097000D03*
X130899000Y-83097000D03*
X128359000Y-83097000D03*
X125819000Y-83097000D03*
X123279000Y-83097000D03*
%TD*%
D13*
%TO.C,U4*%
X139154000Y-110148000D03*
D14*
X141694000Y-110148000D03*
X144234000Y-110148000D03*
X146774000Y-110148000D03*
X149314000Y-110148000D03*
X151854000Y-110148000D03*
X154394000Y-110148000D03*
X156934000Y-110148000D03*
X156934000Y-102528000D03*
X154394000Y-102528000D03*
X151854000Y-102528000D03*
X149314000Y-102528000D03*
X146774000Y-102528000D03*
X144234000Y-102528000D03*
X141694000Y-102528000D03*
X139154000Y-102528000D03*
%TD*%
D15*
%TO.C,P1*%
X110198000Y-83097000D03*
D16*
X112738000Y-83097000D03*
X110198000Y-85637000D03*
X112738000Y-85637000D03*
X110198000Y-88177000D03*
X112738000Y-88177000D03*
%TD*%
D17*
%TO.C,R5*%
X118199000Y-110896000D03*
X118199000Y-109146000D03*
%TD*%
D10*
%TO.C,C2*%
X135330000Y-94019000D03*
X133580000Y-94019000D03*
%TD*%
%TO.C,C3*%
X97230000Y-93765000D03*
X95480000Y-93765000D03*
%TD*%
D18*
%TO.C,C5*%
X86195000Y-100560000D03*
X86195000Y-95860000D03*
%TD*%
D11*
%TO.C,H6*%
X203289000Y-113475000D03*
D12*
X205829000Y-113475000D03*
X208369000Y-113475000D03*
%TD*%
D10*
%TO.C,C10*%
X97230000Y-97829000D03*
X95480000Y-97829000D03*
%TD*%
D11*
%TO.C,H8*%
X209512000Y-102401000D03*
D12*
X209512000Y-99861000D03*
X209512000Y-97321000D03*
X209512000Y-94781000D03*
X209512000Y-92241000D03*
X209512000Y-89701000D03*
%TD*%
D13*
%TO.C,U5*%
X200241000Y-105068000D03*
D14*
X200241000Y-102528000D03*
X200241000Y-99988000D03*
X200241000Y-97448000D03*
X200241000Y-94908000D03*
X200241000Y-92368000D03*
X200241000Y-89828000D03*
X200241000Y-87288000D03*
X192621000Y-87288000D03*
X192621000Y-89828000D03*
X192621000Y-92368000D03*
X192621000Y-94908000D03*
X192621000Y-97448000D03*
X192621000Y-99988000D03*
X192621000Y-102528000D03*
X192621000Y-105068000D03*
%TD*%
D19*
%TO.C,U3*%
X79517000Y-93143000D03*
X79517000Y-87993000D03*
X79517000Y-85243000D03*
X79517000Y-90393000D03*
D20*
X82192000Y-87893000D03*
X82192000Y-88543000D03*
X82192000Y-89193000D03*
X82192000Y-89843000D03*
X82192000Y-90493000D03*
%TD*%
D10*
%TO.C,R11*%
X84187000Y-89627000D03*
X85937000Y-89627000D03*
%TD*%
D21*
%TO.C,X2*%
X134968000Y-99480000D03*
X126068000Y-99480000D03*
%TD*%
D10*
%TO.C,C1*%
X97230000Y-99861000D03*
X95480000Y-99861000D03*
%TD*%
D11*
%TO.C,H1*%
X165316000Y-83351000D03*
D12*
X167856000Y-83351000D03*
X170396000Y-83351000D03*
X172936000Y-83351000D03*
X175476000Y-83351000D03*
X178016000Y-83351000D03*
X180556000Y-83351000D03*
X183096000Y-83351000D03*
%TD*%
D17*
%TO.C,C8*%
X92799000Y-97589000D03*
X92799000Y-99339000D03*
%TD*%
D10*
%TO.C,R9*%
X84187000Y-88357000D03*
X85937000Y-88357000D03*
%TD*%
D17*
%TO.C,R7*%
X100927000Y-88290000D03*
X100927000Y-86540000D03*
%TD*%
D11*
%TO.C,H2*%
X189700000Y-83351000D03*
D12*
X192240000Y-83351000D03*
X194780000Y-83351000D03*
X197320000Y-83351000D03*
X199860000Y-83351000D03*
X202400000Y-83351000D03*
X204940000Y-83351000D03*
X207480000Y-83351000D03*
%TD*%
D17*
%TO.C,R8*%
X98133000Y-88290000D03*
X98133000Y-86540000D03*
%TD*%
D11*
%TO.C,H9*%
X96990000Y-113958000D03*
D12*
X99530000Y-113958000D03*
X102070000Y-113958000D03*
X104610000Y-113958000D03*
X107150000Y-113958000D03*
X109690000Y-113958000D03*
X112230000Y-113958000D03*
X114770000Y-113958000D03*
%TD*%
D10*
%TO.C,C11*%
X97230000Y-95797000D03*
X95480000Y-95797000D03*
%TD*%
D15*
%TO.C,P2*%
X95720000Y-83097000D03*
D16*
X98260000Y-83097000D03*
X100800000Y-83097000D03*
X103340000Y-83097000D03*
%TD*%
D22*
%TO.C,X3*%
X102197000Y-108223000D03*
X102197000Y-105723000D03*
%TD*%
D23*
%TO.C,D1*%
X82360000Y-83478000D03*
X86474000Y-83478000D03*
%TD*%
D17*
%TO.C,C14*%
X125565000Y-105562000D03*
X125565000Y-103812000D03*
%TD*%
D10*
%TO.C,R1*%
X90080000Y-112703000D03*
X88330000Y-112703000D03*
%TD*%
D13*
%TO.C,U6*%
X180048000Y-105068000D03*
D14*
X180048000Y-102528000D03*
X180048000Y-99988000D03*
X180048000Y-97448000D03*
X180048000Y-94908000D03*
X180048000Y-92368000D03*
X180048000Y-89828000D03*
X180048000Y-87288000D03*
X172428000Y-87288000D03*
X172428000Y-89828000D03*
X172428000Y-92368000D03*
X172428000Y-94908000D03*
X172428000Y-97448000D03*
X172428000Y-99988000D03*
X172428000Y-102528000D03*
X172428000Y-105068000D03*
%TD*%
D17*
%TO.C,R3*%
X107912000Y-87401000D03*
X107912000Y-85651000D03*
%TD*%
D11*
%TO.C,H10*%
X124549000Y-113958000D03*
D12*
X127089000Y-113958000D03*
X129629000Y-113958000D03*
X132169000Y-113958000D03*
X134709000Y-113958000D03*
X137249000Y-113958000D03*
X139789000Y-113958000D03*
X142329000Y-113958000D03*
%TD*%
D24*
%TO.C,LED3*%
X93523000Y-112688000D03*
X91821000Y-112688000D03*
%TD*%
D17*
%TO.C,C13*%
X131407000Y-105562000D03*
X131407000Y-103812000D03*
%TD*%
%TO.C,C7*%
X83401000Y-97589000D03*
X83401000Y-99339000D03*
%TD*%
D13*
%TO.C,U2*%
X139154000Y-93892000D03*
D14*
X141694000Y-93892000D03*
X144234000Y-93892000D03*
X146774000Y-93892000D03*
X149314000Y-93892000D03*
X151854000Y-93892000D03*
X154394000Y-93892000D03*
X156934000Y-93892000D03*
X156934000Y-86272000D03*
X154394000Y-86272000D03*
X151854000Y-86272000D03*
X149314000Y-86272000D03*
X146774000Y-86272000D03*
X144234000Y-86272000D03*
X141694000Y-86272000D03*
X139154000Y-86272000D03*
%TD*%
D17*
%TO.C,R10*%
X88862000Y-85242000D03*
X88862000Y-83492000D03*
%TD*%
D24*
%TO.C,LED4*%
X119977000Y-111710000D03*
X119977000Y-113412000D03*
%TD*%
D11*
%TO.C,H7*%
X160109000Y-92241000D03*
D12*
X160109000Y-94781000D03*
X160109000Y-97321000D03*
X160109000Y-99861000D03*
X160109000Y-102401000D03*
X160109000Y-104941000D03*
%TD*%
D25*
%TO.C,U7*%
X115957660Y-103667747D03*
X116311214Y-103314194D03*
X116664767Y-102960641D03*
X117018320Y-102607087D03*
X117371874Y-102253534D03*
X117725427Y-101899981D03*
X118078981Y-101546427D03*
X118432534Y-101192874D03*
X118786087Y-100839320D03*
X119139641Y-100485767D03*
X119493194Y-100132214D03*
X119846747Y-99778660D03*
D26*
X119846747Y-97657340D03*
X119493194Y-97303786D03*
X119139641Y-96950233D03*
X118786087Y-96596680D03*
X118432534Y-96243126D03*
X118078981Y-95889573D03*
X117725427Y-95536019D03*
X117371874Y-95182466D03*
X117018320Y-94828913D03*
X116664767Y-94475359D03*
X116311214Y-94121806D03*
X115957660Y-93768253D03*
D25*
X113836340Y-93768253D03*
X113482786Y-94121806D03*
X113129233Y-94475359D03*
X112775680Y-94828913D03*
X112422126Y-95182466D03*
X112068573Y-95536019D03*
X111715019Y-95889573D03*
X111361466Y-96243126D03*
X111007913Y-96596680D03*
X110654359Y-96950233D03*
X110300806Y-97303786D03*
X109947253Y-97657340D03*
D26*
X109947253Y-99778660D03*
X110300806Y-100132214D03*
X110654359Y-100485767D03*
X111007913Y-100839320D03*
X111361466Y-101192874D03*
X111715019Y-101546427D03*
X112068573Y-101899981D03*
X112422126Y-102253534D03*
X112775680Y-102607087D03*
X113129233Y-102960641D03*
X113482786Y-103314194D03*
X113836340Y-103667747D03*
%TD*%
D27*
%TO.C,U8*%
X90527000Y-104177000D03*
X88227000Y-104177000D03*
X85927000Y-104177000D03*
D28*
X88227000Y-110277000D03*
%TD*%
D18*
%TO.C,C6*%
X90005000Y-100560000D03*
X90005000Y-95860000D03*
%TD*%
D10*
%TO.C,R6*%
X127484000Y-103798000D03*
X129234000Y-103798000D03*
%TD*%
%TO.C,C12*%
X104624000Y-108497000D03*
X106374000Y-108497000D03*
%TD*%
D11*
%TO.C,H3*%
X177762000Y-113450000D03*
D12*
X180302000Y-113450000D03*
X182842000Y-113450000D03*
X185382000Y-113450000D03*
X187922000Y-113450000D03*
X190462000Y-113450000D03*
X193002000Y-113450000D03*
X195542000Y-113450000D03*
%TD*%
D17*
%TO.C,R4*%
X115151000Y-87401000D03*
X115151000Y-85651000D03*
%TD*%
D29*
%TO.C,SW1*%
X122646000Y-90392000D03*
X129246000Y-90391000D03*
X122646000Y-94091000D03*
X129246000Y-94091000D03*
%TD*%
D11*
%TO.C,H5*%
X117437000Y-83224000D03*
D12*
X119977000Y-83224000D03*
%TD*%
D10*
%TO.C,C4*%
X97230000Y-91733000D03*
X95480000Y-91733000D03*
%TD*%
%TO.C,R2*%
X133580000Y-92368000D03*
X135330000Y-92368000D03*
%TD*%
M02*
