%TF.GenerationSoftware,KiCad,Pcbnew,(6.0.4)*%
%TF.CreationDate,2022-05-03T20:53:11-03:00*%
%TF.ProjectId,PXN_2119,50584e5f-3231-4313-992e-6b696361645f,rev?*%
%TF.SameCoordinates,Original*%
%TF.FileFunction,Legend,Top*%
%TF.FilePolarity,Positive*%
%FSLAX46Y46*%
G04 Gerber Fmt 4.6, Leading zero omitted, Abs format (unit mm)*
G04 Created by KiCad (PCBNEW (6.0.4)) date 2022-05-03 20:53:11*
%MOMM*%
%LPD*%
G01*
G04 APERTURE LIST*
%ADD10C,0.000000*%
%ADD11C,0.112500*%
%ADD12C,0.163000*%
%ADD13C,0.093750*%
%ADD14C,0.122000*%
%ADD15C,0.152000*%
%ADD16C,0.203000*%
%ADD17C,0.254000*%
%ADD18C,0.330000*%
%ADD19C,0.100000*%
%ADD20C,0.127000*%
%ADD21C,0.200000*%
%ADD22C,0.400000*%
G04 APERTURE END LIST*
D10*
G36*
X167623377Y-110629346D02*
G01*
X167434305Y-110825956D01*
X167397465Y-110942002D01*
X167360653Y-111058028D01*
X167406476Y-111210127D01*
X167428586Y-111286905D01*
X167454903Y-111383479D01*
X167482129Y-111487499D01*
X167506964Y-111586617D01*
X167519076Y-111634488D01*
X167532554Y-111684549D01*
X167546948Y-111735316D01*
X167561805Y-111785309D01*
X167576677Y-111833045D01*
X167591113Y-111877042D01*
X167604662Y-111915818D01*
X167616873Y-111947890D01*
X167672141Y-112084798D01*
X167726875Y-112104792D01*
X167732978Y-112107241D01*
X167739934Y-112110410D01*
X167756091Y-112118705D01*
X167774709Y-112129278D01*
X167795150Y-112141730D01*
X167816777Y-112155661D01*
X167838952Y-112170672D01*
X167861038Y-112186363D01*
X167882398Y-112202335D01*
X167983115Y-112279868D01*
X168078020Y-112475355D01*
X168097972Y-112517630D01*
X168118277Y-112562865D01*
X168138368Y-112609657D01*
X168157681Y-112656602D01*
X168175650Y-112702298D01*
X168191712Y-112745341D01*
X168205299Y-112784328D01*
X168215848Y-112817855D01*
X168258731Y-112964832D01*
X168258731Y-113257258D01*
X168194136Y-113329363D01*
X168178248Y-113346323D01*
X168162112Y-113361898D01*
X168145506Y-113376170D01*
X168128205Y-113389222D01*
X168109988Y-113401137D01*
X168090632Y-113411996D01*
X168069912Y-113421884D01*
X168047607Y-113430882D01*
X168023492Y-113439072D01*
X167997346Y-113446538D01*
X167968946Y-113453362D01*
X167938067Y-113459627D01*
X167904487Y-113465415D01*
X167867984Y-113470809D01*
X167785314Y-113480746D01*
X167588613Y-113501644D01*
X167615039Y-113329362D01*
X167641465Y-113157070D01*
X167607684Y-113049873D01*
X167598797Y-113023622D01*
X167586452Y-112990004D01*
X167553626Y-112906216D01*
X167513682Y-112809617D01*
X167471096Y-112711317D01*
X167368333Y-112479984D01*
X167259596Y-112419099D01*
X167150881Y-112358213D01*
X167011260Y-112156438D01*
X166983219Y-112115470D01*
X166957058Y-112076413D01*
X166933351Y-112040182D01*
X166912670Y-112007688D01*
X166895588Y-111979846D01*
X166882678Y-111957569D01*
X166877966Y-111948802D01*
X166874512Y-111941768D01*
X166872386Y-111936582D01*
X166871845Y-111934718D01*
X166871662Y-111933358D01*
X166871397Y-111930892D01*
X166870621Y-111927896D01*
X166869358Y-111924412D01*
X166867636Y-111920482D01*
X166865480Y-111916146D01*
X166862917Y-111911446D01*
X166859973Y-111906422D01*
X166856674Y-111901117D01*
X166853047Y-111895571D01*
X166849116Y-111889826D01*
X166840453Y-111877902D01*
X166830893Y-111865674D01*
X166825842Y-111859550D01*
X166820646Y-111853474D01*
X166772451Y-111798092D01*
X166935806Y-111798092D01*
X166970845Y-111867754D01*
X166980071Y-111885204D01*
X166992900Y-111908152D01*
X167027034Y-111966628D01*
X167068582Y-112035350D01*
X167112879Y-112106486D01*
X167219870Y-112275565D01*
X167480592Y-112434431D01*
X167518417Y-112565694D01*
X167556242Y-112696975D01*
X167668610Y-112675172D01*
X167692091Y-112670111D01*
X167715874Y-112664070D01*
X167739757Y-112657145D01*
X167763541Y-112649433D01*
X167787023Y-112641031D01*
X167810003Y-112632036D01*
X167832279Y-112622545D01*
X167853650Y-112612656D01*
X167873915Y-112602466D01*
X167892872Y-112592070D01*
X167910321Y-112581568D01*
X167926059Y-112571054D01*
X167939887Y-112560628D01*
X167951602Y-112550384D01*
X167956604Y-112545362D01*
X167961003Y-112540422D01*
X167964774Y-112535576D01*
X167967890Y-112530837D01*
X167986961Y-112498629D01*
X167932227Y-112402316D01*
X167877512Y-112306011D01*
X167757400Y-112244221D01*
X167637243Y-112182430D01*
X167540247Y-111947842D01*
X167540342Y-111948165D01*
X167443348Y-111713595D01*
X167351224Y-111708164D01*
X167316480Y-111706941D01*
X167300027Y-111706972D01*
X167283896Y-111707486D01*
X167267868Y-111708521D01*
X167251724Y-111710117D01*
X167235246Y-111712315D01*
X167218215Y-111715154D01*
X167200412Y-111718673D01*
X167181618Y-111722912D01*
X167140185Y-111733711D01*
X167092166Y-111747869D01*
X167035812Y-111765704D01*
X166935806Y-111798092D01*
X166772451Y-111798092D01*
X166769630Y-111794849D01*
X166339392Y-111794849D01*
X166219832Y-111757575D01*
X166100271Y-111720303D01*
X166024738Y-111762371D01*
X165949187Y-111804440D01*
X166025136Y-111898310D01*
X166032973Y-111908274D01*
X166040787Y-111918763D01*
X166048527Y-111929687D01*
X166056146Y-111940958D01*
X166063592Y-111952487D01*
X166070818Y-111964185D01*
X166077774Y-111975965D01*
X166084411Y-111987736D01*
X166090679Y-111999410D01*
X166096530Y-112010899D01*
X166101914Y-112022114D01*
X166106782Y-112032966D01*
X166111084Y-112043367D01*
X166114773Y-112053227D01*
X166117797Y-112062459D01*
X166120109Y-112070972D01*
X166139180Y-112149862D01*
X166126541Y-112332983D01*
X166113902Y-112516129D01*
X166053695Y-112644326D01*
X165993487Y-112772530D01*
X165816433Y-112800123D01*
X165639402Y-112827807D01*
X165528735Y-112806185D01*
X165418067Y-112784562D01*
X165440820Y-112730460D01*
X165445631Y-112717613D01*
X165450641Y-112701813D01*
X165455706Y-112683679D01*
X165460677Y-112663828D01*
X165465410Y-112642880D01*
X165469757Y-112621452D01*
X165473572Y-112600162D01*
X165476709Y-112579629D01*
X165490036Y-112482980D01*
X165371946Y-112339240D01*
X165347112Y-112308314D01*
X165321817Y-112275473D01*
X165296767Y-112241721D01*
X165272666Y-112208061D01*
X165250220Y-112175497D01*
X165230133Y-112145034D01*
X165213109Y-112117674D01*
X165199855Y-112094421D01*
X165145944Y-111993320D01*
X165145944Y-111941572D01*
X165240058Y-111941572D01*
X165300674Y-112009254D01*
X165307184Y-112016252D01*
X165314178Y-112023272D01*
X165321590Y-112030270D01*
X165329356Y-112037199D01*
X165337412Y-112044014D01*
X165345692Y-112050669D01*
X165354132Y-112057120D01*
X165362668Y-112063321D01*
X165371235Y-112069225D01*
X165379769Y-112074789D01*
X165388204Y-112079965D01*
X165396476Y-112084710D01*
X165404521Y-112088976D01*
X165412274Y-112092720D01*
X165419670Y-112095895D01*
X165426645Y-112098457D01*
X165492019Y-112120078D01*
X165594115Y-112100085D01*
X165696166Y-112080271D01*
X165776357Y-112014681D01*
X165784526Y-112007820D01*
X165792466Y-112000812D01*
X165800136Y-111993709D01*
X165807495Y-111986563D01*
X165814502Y-111979423D01*
X165821115Y-111972340D01*
X165827294Y-111965366D01*
X165832997Y-111958551D01*
X165838183Y-111951946D01*
X165842812Y-111945603D01*
X165846841Y-111939571D01*
X165850230Y-111933902D01*
X165852937Y-111928646D01*
X165854922Y-111923855D01*
X165855630Y-111921650D01*
X165856143Y-111919579D01*
X165856454Y-111917651D01*
X165856559Y-111915870D01*
X165856559Y-111882667D01*
X165773652Y-111904288D01*
X165690791Y-111925912D01*
X165819910Y-111780273D01*
X165845841Y-111750510D01*
X165870032Y-111721765D01*
X165891952Y-111694738D01*
X165911073Y-111670129D01*
X165919418Y-111658950D01*
X165926866Y-111648638D01*
X165933349Y-111639282D01*
X165938801Y-111630967D01*
X165943157Y-111623782D01*
X165946351Y-111617815D01*
X165948315Y-111613152D01*
X165948816Y-111611338D01*
X165948985Y-111609882D01*
X165948195Y-111606652D01*
X165945879Y-111602125D01*
X165942114Y-111596385D01*
X165936978Y-111589514D01*
X165930550Y-111581594D01*
X165922908Y-111572708D01*
X165904291Y-111552368D01*
X165881754Y-111529156D01*
X165855920Y-111503732D01*
X165827414Y-111476757D01*
X165796861Y-111448891D01*
X165796867Y-111448827D01*
X165765952Y-111421466D01*
X165736421Y-111395937D01*
X165708975Y-111372799D01*
X165684311Y-111352613D01*
X165663128Y-111335938D01*
X165654059Y-111329093D01*
X165646123Y-111323335D01*
X165639406Y-111318735D01*
X165633995Y-111315362D01*
X165629978Y-111313287D01*
X165628520Y-111312758D01*
X165627442Y-111312580D01*
X165625029Y-111313193D01*
X165621404Y-111314991D01*
X165616641Y-111317913D01*
X165610813Y-111321898D01*
X165596258Y-111332818D01*
X165578323Y-111347264D01*
X165557595Y-111364750D01*
X165534659Y-111384792D01*
X165510103Y-111406903D01*
X165484512Y-111430598D01*
X165358908Y-111548624D01*
X165299506Y-111669718D01*
X165240058Y-111790849D01*
X165240058Y-111941572D01*
X165145944Y-111941572D01*
X165145944Y-111787519D01*
X165230190Y-111622890D01*
X165251110Y-111583984D01*
X165278375Y-111536385D01*
X165310833Y-111481944D01*
X165347332Y-111422509D01*
X165386720Y-111359930D01*
X165427844Y-111296059D01*
X165469554Y-111232744D01*
X165510696Y-111171835D01*
X165551723Y-111110807D01*
X165593067Y-111047133D01*
X165633605Y-110982689D01*
X165672210Y-110919350D01*
X165707759Y-110858993D01*
X165739126Y-110803494D01*
X165765186Y-110754729D01*
X165784815Y-110714573D01*
X165862573Y-110543793D01*
X165881313Y-110527401D01*
X166102712Y-110527401D01*
X166110491Y-110638480D01*
X166118271Y-110749523D01*
X166226158Y-110787249D01*
X166289404Y-110805668D01*
X166375077Y-110825197D01*
X166477954Y-110845018D01*
X166592810Y-110864312D01*
X166714421Y-110882259D01*
X166837563Y-110898041D01*
X166957010Y-110910838D01*
X167067539Y-110919833D01*
X167277039Y-110933402D01*
X167321822Y-110894772D01*
X167366631Y-110856141D01*
X167364372Y-110803941D01*
X167362112Y-110751830D01*
X167327734Y-110826107D01*
X167293337Y-110900382D01*
X167060121Y-110879755D01*
X167018972Y-110875618D01*
X166974767Y-110870273D01*
X166880147Y-110856568D01*
X166782169Y-110839858D01*
X166686741Y-110821359D01*
X166599769Y-110802288D01*
X166527162Y-110783864D01*
X166498091Y-110775274D01*
X166474826Y-110767303D01*
X166458107Y-110760101D01*
X166452432Y-110756836D01*
X166448670Y-110753822D01*
X166447809Y-110752085D01*
X166447526Y-110749336D01*
X166447788Y-110745646D01*
X166448563Y-110741083D01*
X166451523Y-110729624D01*
X166456144Y-110715517D01*
X166462167Y-110699321D01*
X166469331Y-110681598D01*
X166477376Y-110662907D01*
X166486042Y-110643806D01*
X166495069Y-110624857D01*
X166504196Y-110606618D01*
X166513163Y-110589650D01*
X166521710Y-110574512D01*
X166529577Y-110561763D01*
X166536503Y-110551964D01*
X166542228Y-110545674D01*
X166544559Y-110544020D01*
X166546492Y-110543453D01*
X166548178Y-110543705D01*
X166550954Y-110544442D01*
X166559523Y-110547277D01*
X166571698Y-110551759D01*
X166586974Y-110557691D01*
X166624821Y-110573109D01*
X166669040Y-110591946D01*
X166698028Y-110603642D01*
X166731811Y-110615725D01*
X166810949Y-110640406D01*
X166900828Y-110664691D01*
X166995820Y-110687284D01*
X167090296Y-110706887D01*
X167178631Y-110722203D01*
X167218736Y-110727848D01*
X167255195Y-110731935D01*
X167287305Y-110734303D01*
X167314362Y-110734788D01*
X167412528Y-110734788D01*
X167366298Y-110708009D01*
X167360584Y-110705175D01*
X167353062Y-110702222D01*
X167333087Y-110696045D01*
X167307355Y-110689668D01*
X167276849Y-110683276D01*
X167242550Y-110677059D01*
X167205440Y-110671202D01*
X167166502Y-110665896D01*
X167126718Y-110661326D01*
X167084595Y-110656236D01*
X167038940Y-110649379D01*
X166991205Y-110641053D01*
X166942846Y-110631562D01*
X166895316Y-110621206D01*
X166850069Y-110610285D01*
X166808559Y-110599101D01*
X166772241Y-110587955D01*
X166611089Y-110534487D01*
X166478569Y-110443266D01*
X166479180Y-110442315D01*
X166452268Y-110423995D01*
X166426615Y-110406901D01*
X166402822Y-110391408D01*
X166381489Y-110377892D01*
X166363218Y-110366727D01*
X166348609Y-110358287D01*
X166342865Y-110355207D01*
X166338263Y-110352949D01*
X166334876Y-110351559D01*
X166333662Y-110351205D01*
X166332781Y-110351086D01*
X166330169Y-110351453D01*
X166327086Y-110352526D01*
X166323568Y-110354265D01*
X166319650Y-110356626D01*
X166310762Y-110363054D01*
X166300715Y-110371478D01*
X166289799Y-110381566D01*
X166278304Y-110392986D01*
X166266524Y-110405405D01*
X166254747Y-110418493D01*
X166243266Y-110431916D01*
X166232371Y-110445344D01*
X166222354Y-110458444D01*
X166213505Y-110470885D01*
X166206116Y-110482333D01*
X166200478Y-110492458D01*
X166198407Y-110496920D01*
X166196882Y-110500927D01*
X166195940Y-110504437D01*
X166195619Y-110507409D01*
X166195679Y-110508903D01*
X166195860Y-110510483D01*
X166196568Y-110513880D01*
X166197719Y-110517566D01*
X166199289Y-110521504D01*
X166201255Y-110525660D01*
X166203592Y-110529999D01*
X166206278Y-110534486D01*
X166209287Y-110539085D01*
X166212598Y-110543762D01*
X166216185Y-110548480D01*
X166220025Y-110553206D01*
X166224095Y-110557904D01*
X166228370Y-110562539D01*
X166232827Y-110567075D01*
X166237442Y-110571479D01*
X166242192Y-110575713D01*
X166288793Y-110615882D01*
X166280743Y-110539526D01*
X166272694Y-110463169D01*
X166396024Y-110463169D01*
X166406590Y-110541515D01*
X166417157Y-110619862D01*
X166362079Y-110661749D01*
X166356193Y-110666021D01*
X166349914Y-110670172D01*
X166343298Y-110674181D01*
X166336401Y-110678026D01*
X166329281Y-110681686D01*
X166321992Y-110685140D01*
X166314593Y-110688367D01*
X166307138Y-110691344D01*
X166299685Y-110694051D01*
X166292289Y-110696466D01*
X166285008Y-110698568D01*
X166277897Y-110700336D01*
X166271013Y-110701748D01*
X166264412Y-110702783D01*
X166258150Y-110703420D01*
X166252285Y-110703637D01*
X166197505Y-110703637D01*
X166150099Y-110615519D01*
X166102712Y-110527401D01*
X165881313Y-110527401D01*
X165951206Y-110466261D01*
X166039813Y-110388728D01*
X166039813Y-110320423D01*
X166040471Y-110300947D01*
X166042527Y-110281695D01*
X166046100Y-110262476D01*
X166051310Y-110243097D01*
X166058277Y-110223367D01*
X166067120Y-110203096D01*
X166077960Y-110182090D01*
X166090915Y-110160159D01*
X166106107Y-110137111D01*
X166123654Y-110112755D01*
X166143677Y-110086899D01*
X166166295Y-110059352D01*
X166191628Y-110029922D01*
X166219796Y-109998417D01*
X166285116Y-109928419D01*
X166321106Y-109889994D01*
X166356210Y-109851183D01*
X166389547Y-109813048D01*
X166420237Y-109776649D01*
X166428188Y-109766814D01*
X168583294Y-109766814D01*
X168664455Y-109815217D01*
X168745596Y-109863618D01*
X168841972Y-109800199D01*
X168938323Y-109736779D01*
X168938323Y-109619720D01*
X168937986Y-109595504D01*
X168937129Y-109573394D01*
X168935671Y-109553230D01*
X168934691Y-109543828D01*
X168933531Y-109534852D01*
X168932180Y-109526282D01*
X168930628Y-109518099D01*
X168928866Y-109510282D01*
X168926882Y-109502811D01*
X168924667Y-109495667D01*
X168922211Y-109488829D01*
X168919504Y-109482277D01*
X168916535Y-109475991D01*
X168913295Y-109469952D01*
X168909774Y-109464138D01*
X168905960Y-109458531D01*
X168901845Y-109453110D01*
X168897418Y-109447855D01*
X168892668Y-109442746D01*
X168887587Y-109437763D01*
X168882163Y-109432886D01*
X168876388Y-109428095D01*
X168870249Y-109423370D01*
X168863738Y-109418690D01*
X168856845Y-109414037D01*
X168841870Y-109404728D01*
X168825243Y-109395283D01*
X168824759Y-109395254D01*
X168817769Y-109391501D01*
X168810713Y-109387853D01*
X168803639Y-109384330D01*
X168796595Y-109380951D01*
X168789629Y-109377734D01*
X168782789Y-109374698D01*
X168776123Y-109371861D01*
X168769679Y-109369244D01*
X168763504Y-109366864D01*
X168757647Y-109364740D01*
X168752155Y-109362891D01*
X168747077Y-109361336D01*
X168742460Y-109360094D01*
X168738352Y-109359184D01*
X168734801Y-109358624D01*
X168731855Y-109358433D01*
X168706324Y-109358433D01*
X168644832Y-109562624D01*
X168583294Y-109766814D01*
X166428188Y-109766814D01*
X166447401Y-109743047D01*
X166470159Y-109713302D01*
X166479611Y-109700208D01*
X166487631Y-109688476D01*
X166494109Y-109678238D01*
X166498936Y-109669628D01*
X166537611Y-109594538D01*
X166301984Y-109356521D01*
X166254056Y-109308499D01*
X166208181Y-109263287D01*
X166165449Y-109221896D01*
X166126949Y-109185335D01*
X166093768Y-109154614D01*
X166066997Y-109130742D01*
X166056354Y-109121690D01*
X166047723Y-109114729D01*
X166041237Y-109109985D01*
X166037035Y-109107584D01*
X166032786Y-109105603D01*
X166028366Y-109102778D01*
X166019093Y-109094766D01*
X166009376Y-109083894D01*
X165999375Y-109070509D01*
X165989250Y-109054956D01*
X165979163Y-109037580D01*
X165969275Y-109018727D01*
X165959745Y-108998743D01*
X165950735Y-108977974D01*
X165942405Y-108956765D01*
X165934916Y-108935462D01*
X165928428Y-108914410D01*
X165923102Y-108893955D01*
X165922311Y-108890096D01*
X166041326Y-108890096D01*
X166122080Y-109011236D01*
X166202806Y-109132366D01*
X166376367Y-109281976D01*
X166549928Y-109431594D01*
X166719468Y-109514103D01*
X166889008Y-109596610D01*
X167574819Y-109608282D01*
X168260653Y-109620043D01*
X168260653Y-109482348D01*
X168098444Y-109313685D01*
X167936256Y-109145013D01*
X167832620Y-109123389D01*
X167803981Y-109119032D01*
X167762167Y-109114973D01*
X167709172Y-109111300D01*
X167646990Y-109108101D01*
X167503040Y-109103467D01*
X167346269Y-109101768D01*
X166963597Y-109101768D01*
X166849230Y-109040972D01*
X166734885Y-108980177D01*
X166506818Y-108752491D01*
X166506814Y-108752611D01*
X166417677Y-108664201D01*
X166378268Y-108625536D01*
X166343590Y-108591808D01*
X166314610Y-108563950D01*
X166292295Y-108542897D01*
X166277613Y-108529580D01*
X166273436Y-108526115D01*
X166271531Y-108524934D01*
X166270212Y-108525599D01*
X166267795Y-108527552D01*
X166259913Y-108535055D01*
X166248371Y-108546918D01*
X166233657Y-108562614D01*
X166196660Y-108603405D01*
X166152820Y-108653220D01*
X166041326Y-108781533D01*
X166041326Y-108890096D01*
X165922311Y-108890096D01*
X165919100Y-108874443D01*
X165916580Y-108856220D01*
X165915704Y-108839631D01*
X165915704Y-108765897D01*
X165808621Y-108885635D01*
X165701584Y-109005363D01*
X165701584Y-109226009D01*
X165618144Y-109294224D01*
X165534703Y-109362438D01*
X165377937Y-109323898D01*
X165323982Y-109257583D01*
X165270071Y-109191268D01*
X165270071Y-109037649D01*
X165351530Y-108965726D01*
X165375420Y-108944398D01*
X165397807Y-108923893D01*
X165418764Y-108904125D01*
X165438364Y-108885003D01*
X165456683Y-108866440D01*
X165473793Y-108848348D01*
X165489769Y-108830637D01*
X165504684Y-108813219D01*
X165518612Y-108796006D01*
X165531626Y-108778909D01*
X165543802Y-108761840D01*
X165555212Y-108744709D01*
X165565930Y-108727429D01*
X165576030Y-108709911D01*
X165585586Y-108692067D01*
X165594672Y-108673808D01*
X165639137Y-108581129D01*
X165630799Y-108546597D01*
X165702869Y-108546597D01*
X165772224Y-108612640D01*
X165779609Y-108619457D01*
X165787414Y-108626272D01*
X165795572Y-108633042D01*
X165804016Y-108639723D01*
X165812680Y-108646273D01*
X165821495Y-108652647D01*
X165830394Y-108658802D01*
X165839312Y-108664695D01*
X165848179Y-108670280D01*
X165856931Y-108675516D01*
X165865498Y-108680358D01*
X165873814Y-108684763D01*
X165881812Y-108688688D01*
X165889426Y-108692088D01*
X165896587Y-108694919D01*
X165903228Y-108697140D01*
X165964883Y-108715776D01*
X166083524Y-108601386D01*
X166202210Y-108486996D01*
X166221983Y-108415328D01*
X166319252Y-108415328D01*
X166527304Y-108627290D01*
X166571774Y-108671582D01*
X166618430Y-108716220D01*
X166665881Y-108759989D01*
X166712736Y-108801676D01*
X166757604Y-108840066D01*
X166799096Y-108873944D01*
X166835819Y-108902096D01*
X166851958Y-108913645D01*
X166866384Y-108923307D01*
X166997365Y-109007354D01*
X166997365Y-108978401D01*
X167339381Y-108978401D01*
X167339431Y-108981811D01*
X167339868Y-108984930D01*
X167340701Y-108987772D01*
X167341936Y-108990348D01*
X167343582Y-108992672D01*
X167345644Y-108994754D01*
X167348132Y-108996609D01*
X167351052Y-108998249D01*
X167354411Y-108999685D01*
X167358217Y-109000931D01*
X167362478Y-109001999D01*
X167367200Y-109002902D01*
X167378061Y-109004261D01*
X167390857Y-109005107D01*
X167405649Y-109005542D01*
X167422495Y-109005665D01*
X167509084Y-109005665D01*
X167564053Y-108963868D01*
X167564037Y-108963840D01*
X167619006Y-108922044D01*
X167507880Y-108886579D01*
X167409587Y-108855204D01*
X168710436Y-108855204D01*
X168778388Y-108881348D01*
X168846385Y-108907494D01*
X168900296Y-108887501D01*
X168905993Y-108885305D01*
X168911936Y-108882842D01*
X168918077Y-108880138D01*
X168924368Y-108877220D01*
X168937209Y-108870849D01*
X168950076Y-108863945D01*
X168962588Y-108856723D01*
X168974362Y-108849398D01*
X168979853Y-108845764D01*
X168985015Y-108842186D01*
X168989802Y-108838689D01*
X168994166Y-108835300D01*
X169034144Y-108803094D01*
X168994166Y-108776676D01*
X168994160Y-108776586D01*
X168984480Y-108770522D01*
X168975164Y-108765407D01*
X168966066Y-108761262D01*
X168957041Y-108758109D01*
X168947943Y-108755970D01*
X168938627Y-108754867D01*
X168928948Y-108754822D01*
X168918759Y-108755857D01*
X168907917Y-108757993D01*
X168896274Y-108761253D01*
X168883686Y-108765658D01*
X168870008Y-108771230D01*
X168855093Y-108777991D01*
X168838797Y-108785963D01*
X168820975Y-108795168D01*
X168801479Y-108805627D01*
X168710436Y-108855204D01*
X167409587Y-108855204D01*
X167396776Y-108851115D01*
X167366332Y-108910282D01*
X167358579Y-108925581D01*
X167352052Y-108939168D01*
X167346810Y-108951143D01*
X167342911Y-108961607D01*
X167341484Y-108966304D01*
X167340415Y-108970660D01*
X167339711Y-108974688D01*
X167339381Y-108978401D01*
X166997365Y-108978401D01*
X166997365Y-108748537D01*
X167072645Y-108718772D01*
X167147952Y-108689007D01*
X167011018Y-108476657D01*
X166983509Y-108433151D01*
X166957846Y-108390911D01*
X166934591Y-108350978D01*
X166914306Y-108314397D01*
X166905453Y-108297688D01*
X166897552Y-108282208D01*
X166890674Y-108268086D01*
X166884889Y-108255454D01*
X166880268Y-108244440D01*
X166876880Y-108235176D01*
X166874796Y-108227792D01*
X166874265Y-108224846D01*
X166874086Y-108222418D01*
X166873674Y-108222472D01*
X166873474Y-108217722D01*
X166872885Y-108212152D01*
X166871929Y-108205833D01*
X166870625Y-108198833D01*
X166867054Y-108183071D01*
X166862333Y-108165423D01*
X166856619Y-108146445D01*
X166850075Y-108126694D01*
X166842860Y-108106728D01*
X166835133Y-108087102D01*
X166796603Y-107993602D01*
X166697172Y-108063625D01*
X166597719Y-108133740D01*
X166481468Y-108156448D01*
X166365192Y-108179156D01*
X166342439Y-108216249D01*
X166340099Y-108220452D01*
X166337819Y-108225360D01*
X166335613Y-108230913D01*
X166333492Y-108237050D01*
X166331469Y-108243711D01*
X166329556Y-108250837D01*
X166327767Y-108258366D01*
X166326113Y-108266239D01*
X166324607Y-108274395D01*
X166323261Y-108282774D01*
X166322088Y-108291315D01*
X166321100Y-108299960D01*
X166320310Y-108308647D01*
X166319731Y-108317315D01*
X166319374Y-108325906D01*
X166319252Y-108334358D01*
X166319252Y-108415328D01*
X166221983Y-108415328D01*
X166229966Y-108386395D01*
X166235544Y-108365207D01*
X166240743Y-108343536D01*
X166245449Y-108321992D01*
X166249551Y-108301183D01*
X166252936Y-108281721D01*
X166255490Y-108264215D01*
X166257102Y-108249274D01*
X166257520Y-108242956D01*
X166257659Y-108237508D01*
X166257567Y-108189198D01*
X166159584Y-108181957D01*
X166159481Y-108182069D01*
X166061475Y-108174829D01*
X165944833Y-108056350D01*
X165882521Y-107993082D01*
X166907989Y-107993082D01*
X166908567Y-108020305D01*
X166912517Y-108050734D01*
X166919690Y-108083973D01*
X166929936Y-108119627D01*
X166943105Y-108157298D01*
X166959046Y-108196590D01*
X166977611Y-108237108D01*
X166998650Y-108278454D01*
X167022012Y-108320234D01*
X167047548Y-108362049D01*
X167075107Y-108403505D01*
X167104540Y-108444204D01*
X167135698Y-108483751D01*
X167239725Y-108610129D01*
X167447387Y-108716413D01*
X167655050Y-108822733D01*
X167803357Y-108783198D01*
X167951618Y-108743662D01*
X168179617Y-108765917D01*
X168407571Y-108788172D01*
X168428714Y-108752798D01*
X168449856Y-108717335D01*
X168374784Y-108717335D01*
X168355050Y-108716239D01*
X168327676Y-108713098D01*
X168293904Y-108708132D01*
X168254971Y-108701559D01*
X168212118Y-108693599D01*
X168166583Y-108684472D01*
X168124008Y-108675342D01*
X168537519Y-108675342D01*
X168558426Y-108696965D01*
X168561006Y-108699176D01*
X168564408Y-108701323D01*
X168568578Y-108703395D01*
X168573458Y-108705381D01*
X168578994Y-108707271D01*
X168585130Y-108709054D01*
X168591809Y-108710719D01*
X168598977Y-108712254D01*
X168606577Y-108713649D01*
X168614554Y-108714894D01*
X168622853Y-108715977D01*
X168631416Y-108716888D01*
X168640189Y-108717615D01*
X168649116Y-108718147D01*
X168658141Y-108718475D01*
X168667209Y-108718587D01*
X168755127Y-108718587D01*
X168993420Y-108479168D01*
X168993337Y-108477797D01*
X169231609Y-108238378D01*
X169123723Y-108241088D01*
X169111970Y-108241465D01*
X169099057Y-108242307D01*
X169070270Y-108245288D01*
X169038406Y-108249836D01*
X169004508Y-108255756D01*
X168969619Y-108262849D01*
X168934782Y-108270922D01*
X168901039Y-108279777D01*
X168869435Y-108289218D01*
X168722989Y-108335991D01*
X168722989Y-108432432D01*
X168782645Y-108399229D01*
X168788917Y-108395844D01*
X168795405Y-108392555D01*
X168802058Y-108389379D01*
X168808825Y-108386331D01*
X168815655Y-108383430D01*
X168822499Y-108380692D01*
X168829305Y-108378135D01*
X168836022Y-108375774D01*
X168842600Y-108373628D01*
X168848988Y-108371713D01*
X168855135Y-108370046D01*
X168860991Y-108368644D01*
X168866505Y-108367524D01*
X168871627Y-108366703D01*
X168876305Y-108366198D01*
X168880489Y-108366026D01*
X168918685Y-108366026D01*
X168846301Y-108446182D01*
X168773916Y-108526339D01*
X168672093Y-108526339D01*
X168604783Y-108600886D01*
X168537519Y-108675342D01*
X168124008Y-108675342D01*
X168119606Y-108674398D01*
X168072425Y-108663595D01*
X167845162Y-108609856D01*
X168045517Y-108518562D01*
X168087335Y-108499287D01*
X168129390Y-108479489D01*
X168170544Y-108459730D01*
X168209659Y-108440574D01*
X168245594Y-108422584D01*
X168277213Y-108406323D01*
X168303375Y-108392353D01*
X168322943Y-108381239D01*
X168399997Y-108335280D01*
X168390117Y-108245806D01*
X168388618Y-108235660D01*
X168386200Y-108223758D01*
X168378819Y-108195285D01*
X168368401Y-108161574D01*
X168355373Y-108123816D01*
X168340161Y-108083197D01*
X168323194Y-108040907D01*
X168304898Y-107998134D01*
X168285699Y-107956067D01*
X168191140Y-107755730D01*
X167983846Y-107755730D01*
X167983846Y-107789384D01*
X167984065Y-107793263D01*
X167984709Y-107797914D01*
X167985755Y-107803276D01*
X167987182Y-107809286D01*
X167991093Y-107823007D01*
X167996268Y-107838583D01*
X168002535Y-107855522D01*
X168009719Y-107873330D01*
X168017649Y-107891515D01*
X168026150Y-107909583D01*
X168035118Y-107928603D01*
X168044358Y-107949512D01*
X168053608Y-107971624D01*
X168062607Y-107994255D01*
X168071094Y-108016719D01*
X168078810Y-108038334D01*
X168085492Y-108058413D01*
X168090881Y-108076273D01*
X168113173Y-108156339D01*
X167977206Y-107998380D01*
X167841193Y-107840446D01*
X167788963Y-108060496D01*
X167736753Y-108280537D01*
X167775474Y-108306049D01*
X167814213Y-108331651D01*
X167648192Y-108331651D01*
X167537249Y-108263528D01*
X167426283Y-108195405D01*
X167447192Y-108050590D01*
X167468099Y-107905756D01*
X167433106Y-107928284D01*
X167398129Y-107950811D01*
X167398129Y-107923217D01*
X167398300Y-107920242D01*
X167398801Y-107917004D01*
X167399615Y-107913534D01*
X167400725Y-107909863D01*
X167402113Y-107906023D01*
X167403763Y-107902046D01*
X167405657Y-107897962D01*
X167407779Y-107893804D01*
X167410110Y-107889601D01*
X167412635Y-107885387D01*
X167415335Y-107881192D01*
X167418193Y-107877048D01*
X167421193Y-107872986D01*
X167424318Y-107869038D01*
X167427549Y-107865234D01*
X167430870Y-107861607D01*
X167463638Y-107827592D01*
X167369241Y-107808050D01*
X167274841Y-107788509D01*
X167274841Y-107642671D01*
X167303449Y-107693515D01*
X167332037Y-107744359D01*
X167633868Y-107688901D01*
X167697019Y-107676723D01*
X167760808Y-107663311D01*
X167823492Y-107649103D01*
X167883326Y-107634542D01*
X167938566Y-107620067D01*
X167987468Y-107606119D01*
X168028287Y-107593139D01*
X168045121Y-107587150D01*
X168059280Y-107581567D01*
X168182839Y-107529637D01*
X168218800Y-107410144D01*
X168222403Y-107397908D01*
X168225792Y-107385901D01*
X168228956Y-107374191D01*
X168231882Y-107362843D01*
X168234557Y-107351925D01*
X168236969Y-107341503D01*
X168239104Y-107331645D01*
X168240951Y-107322415D01*
X168242496Y-107313883D01*
X168243727Y-107306113D01*
X168244631Y-107299173D01*
X168245196Y-107293129D01*
X168245409Y-107288049D01*
X168245256Y-107283998D01*
X168245039Y-107282380D01*
X168244727Y-107281044D01*
X168244316Y-107279999D01*
X168243807Y-107279253D01*
X168241925Y-107278302D01*
X168238582Y-107277780D01*
X168233862Y-107277673D01*
X168227844Y-107277968D01*
X168212247Y-107279706D01*
X168192444Y-107282883D01*
X168169090Y-107287387D01*
X168142839Y-107293108D01*
X168114344Y-107299933D01*
X168084261Y-107307751D01*
X167935678Y-107347649D01*
X167635181Y-107360947D01*
X167334638Y-107374246D01*
X167334638Y-107341134D01*
X167334727Y-107339389D01*
X167334994Y-107337566D01*
X167335432Y-107335671D01*
X167336038Y-107333707D01*
X167337736Y-107329593D01*
X167340052Y-107325262D01*
X167342952Y-107320751D01*
X167346400Y-107316097D01*
X167350360Y-107311336D01*
X167354799Y-107306507D01*
X167359680Y-107301645D01*
X167364969Y-107296790D01*
X167370630Y-107291976D01*
X167376629Y-107287242D01*
X167382930Y-107282625D01*
X167389498Y-107278161D01*
X167396298Y-107273889D01*
X167403295Y-107269844D01*
X167471961Y-107231666D01*
X167410994Y-107206877D01*
X167412744Y-107208402D01*
X167405844Y-107205862D01*
X167397783Y-107203403D01*
X167378575Y-107198755D01*
X167355915Y-107194514D01*
X167330600Y-107190736D01*
X167303427Y-107187475D01*
X167275189Y-107184788D01*
X167246685Y-107182728D01*
X167218709Y-107181351D01*
X167085637Y-107178642D01*
X167100573Y-107234733D01*
X167104014Y-107251062D01*
X167108032Y-107276101D01*
X167117217Y-107347305D01*
X167126962Y-107438349D01*
X167136101Y-107539236D01*
X167156556Y-107787640D01*
X167094168Y-107787640D01*
X167080154Y-107843731D01*
X167066142Y-107899823D01*
X167062701Y-107811705D01*
X167058991Y-107723587D01*
X167030248Y-107723587D01*
X167027843Y-107723884D01*
X167025312Y-107724757D01*
X167022670Y-107726181D01*
X167019927Y-107728128D01*
X167014192Y-107733490D01*
X167008204Y-107740635D01*
X167002063Y-107749352D01*
X166995867Y-107759434D01*
X166989716Y-107770669D01*
X166983708Y-107782850D01*
X166977941Y-107795766D01*
X166972514Y-107809209D01*
X166967526Y-107822969D01*
X166963076Y-107836837D01*
X166959262Y-107850603D01*
X166956183Y-107864059D01*
X166953938Y-107876995D01*
X166952625Y-107889202D01*
X166952350Y-107891506D01*
X166951846Y-107893992D01*
X166951126Y-107896636D01*
X166950202Y-107899415D01*
X166949088Y-107902305D01*
X166947797Y-107905281D01*
X166946342Y-107908321D01*
X166944735Y-107911401D01*
X166942990Y-107914496D01*
X166941120Y-107917584D01*
X166939137Y-107920640D01*
X166937054Y-107923641D01*
X166934885Y-107926562D01*
X166932643Y-107929382D01*
X166930340Y-107932074D01*
X166927990Y-107934617D01*
X166922283Y-107941655D01*
X166917551Y-107949842D01*
X166913774Y-107959128D01*
X166910934Y-107969463D01*
X166909012Y-107980797D01*
X166907989Y-107993082D01*
X165882521Y-107993082D01*
X165828169Y-107937897D01*
X165807262Y-107999416D01*
X165795809Y-108031841D01*
X165780180Y-108074634D01*
X165762413Y-108122226D01*
X165744548Y-108169048D01*
X165702869Y-108277141D01*
X165702869Y-108546597D01*
X165630799Y-108546597D01*
X165600995Y-108423169D01*
X165655268Y-108241813D01*
X165667046Y-108203605D01*
X165679742Y-108164540D01*
X165692955Y-108125716D01*
X165706285Y-108088231D01*
X165719332Y-108053184D01*
X165731694Y-108021673D01*
X165742973Y-107994796D01*
X165752768Y-107973651D01*
X165795968Y-107886891D01*
X165792421Y-107878059D01*
X166457979Y-107878059D01*
X166478434Y-107899863D01*
X166498889Y-107921666D01*
X166563159Y-107885931D01*
X166627456Y-107850105D01*
X166627456Y-107776281D01*
X166719924Y-107868407D01*
X166812392Y-107960532D01*
X166812392Y-107762195D01*
X166812536Y-107762403D01*
X166812372Y-107722567D01*
X166811905Y-107685421D01*
X166811171Y-107651778D01*
X166810206Y-107622447D01*
X166809046Y-107598239D01*
X166807727Y-107579966D01*
X166807019Y-107573307D01*
X166806285Y-107568437D01*
X166805529Y-107565455D01*
X166805145Y-107564704D01*
X166804756Y-107564464D01*
X166803090Y-107565315D01*
X166799745Y-107567735D01*
X166788383Y-107576966D01*
X166749512Y-107610727D01*
X166693954Y-107660597D01*
X166627519Y-107721429D01*
X166457979Y-107878059D01*
X165792421Y-107878059D01*
X165747621Y-107766520D01*
X165699246Y-107646205D01*
X165680175Y-107455937D01*
X165661104Y-107265670D01*
X165806194Y-107282679D01*
X165821074Y-107284503D01*
X165835720Y-107286467D01*
X165863980Y-107290747D01*
X165890305Y-107295376D01*
X165902534Y-107297775D01*
X165914030Y-107300207D01*
X165924708Y-107302654D01*
X165934486Y-107305098D01*
X165943280Y-107307521D01*
X165951007Y-107309905D01*
X165957584Y-107312231D01*
X165962926Y-107314482D01*
X165966952Y-107316640D01*
X165968444Y-107317678D01*
X165969576Y-107318686D01*
X165987724Y-107337775D01*
X165947836Y-107387804D01*
X165907903Y-107437833D01*
X165995894Y-107533306D01*
X166083885Y-107628815D01*
X166092625Y-107611688D01*
X166244117Y-107611688D01*
X166335643Y-107629601D01*
X166427168Y-107647514D01*
X166432828Y-107635370D01*
X166545952Y-107635370D01*
X166546433Y-107639166D01*
X166547426Y-107642243D01*
X166548934Y-107644605D01*
X166550959Y-107646252D01*
X166553501Y-107647186D01*
X166556564Y-107647411D01*
X166560148Y-107646927D01*
X166564256Y-107645736D01*
X166568889Y-107643842D01*
X166574048Y-107641245D01*
X166579737Y-107637948D01*
X166585956Y-107633953D01*
X166592707Y-107629261D01*
X166607812Y-107617797D01*
X166625067Y-107603572D01*
X166644485Y-107586602D01*
X166730241Y-107509884D01*
X166710709Y-107456778D01*
X166710641Y-107456778D01*
X166704877Y-107442543D01*
X166701932Y-107436314D01*
X166698943Y-107430679D01*
X166695906Y-107425639D01*
X166692819Y-107421196D01*
X166689678Y-107417352D01*
X166686480Y-107414106D01*
X166683224Y-107411462D01*
X166679906Y-107409420D01*
X166676523Y-107407982D01*
X166673073Y-107407150D01*
X166669552Y-107406923D01*
X166665959Y-107407305D01*
X166662289Y-107408297D01*
X166658541Y-107409899D01*
X166654712Y-107412113D01*
X166650798Y-107414941D01*
X166646797Y-107418384D01*
X166642706Y-107422443D01*
X166638523Y-107427120D01*
X166634244Y-107432416D01*
X166625389Y-107444872D01*
X166616118Y-107459822D01*
X166606410Y-107477276D01*
X166596241Y-107497247D01*
X166585589Y-107519745D01*
X166574022Y-107545633D01*
X166564422Y-107568552D01*
X166556805Y-107588518D01*
X166551183Y-107605546D01*
X166549125Y-107612963D01*
X166547571Y-107619652D01*
X166546523Y-107625615D01*
X166545983Y-107630854D01*
X166545952Y-107635370D01*
X166432828Y-107635370D01*
X166480293Y-107533514D01*
X166491003Y-107509793D01*
X166501055Y-107486086D01*
X166510210Y-107463023D01*
X166518232Y-107441235D01*
X166524884Y-107421352D01*
X166527622Y-107412321D01*
X166529928Y-107404004D01*
X166531774Y-107396477D01*
X166533129Y-107389821D01*
X166533964Y-107384114D01*
X166534247Y-107379459D01*
X166534251Y-107379607D01*
X166534248Y-107379435D01*
X166534247Y-107379459D01*
X166533877Y-107367292D01*
X166533204Y-107362032D01*
X166532206Y-107357371D01*
X166530879Y-107353312D01*
X166529221Y-107349854D01*
X166527229Y-107347000D01*
X166524902Y-107344751D01*
X166522237Y-107343109D01*
X166519232Y-107342073D01*
X166515884Y-107341647D01*
X166512192Y-107341830D01*
X166508152Y-107342625D01*
X166503762Y-107344032D01*
X166499021Y-107346054D01*
X166493926Y-107348691D01*
X166482664Y-107355815D01*
X166469957Y-107365416D01*
X166455787Y-107377504D01*
X166440136Y-107392090D01*
X166422985Y-107409183D01*
X166404315Y-107428794D01*
X166384108Y-107450934D01*
X166362345Y-107475613D01*
X166244117Y-107611688D01*
X166092625Y-107611688D01*
X166104567Y-107588286D01*
X166109440Y-107575890D01*
X166115357Y-107556103D01*
X166122086Y-107529948D01*
X166129395Y-107498444D01*
X166137053Y-107462616D01*
X166142427Y-107435571D01*
X166232557Y-107435571D01*
X166256938Y-107435571D01*
X166258258Y-107435465D01*
X166259693Y-107435151D01*
X166262890Y-107433918D01*
X166266491Y-107431913D01*
X166270456Y-107429178D01*
X166274748Y-107425754D01*
X166279327Y-107421683D01*
X166284155Y-107417007D01*
X166289193Y-107411766D01*
X166294403Y-107406003D01*
X166299746Y-107399759D01*
X166305183Y-107393074D01*
X166310675Y-107385992D01*
X166316184Y-107378553D01*
X166321672Y-107370799D01*
X166327099Y-107362771D01*
X166332427Y-107354511D01*
X166383507Y-107273450D01*
X166364897Y-107242328D01*
X166364984Y-107242319D01*
X166358584Y-107232491D01*
X166355405Y-107228313D01*
X166352238Y-107224626D01*
X166349084Y-107221430D01*
X166345940Y-107218728D01*
X166342807Y-107216518D01*
X166339684Y-107214802D01*
X166336569Y-107213581D01*
X166333463Y-107212854D01*
X166330364Y-107212623D01*
X166327271Y-107212889D01*
X166324185Y-107213651D01*
X166321104Y-107214911D01*
X166318027Y-107216669D01*
X166314954Y-107218925D01*
X166311884Y-107221681D01*
X166308816Y-107224938D01*
X166305749Y-107228694D01*
X166302683Y-107232952D01*
X166296550Y-107242975D01*
X166290411Y-107255010D01*
X166284259Y-107269063D01*
X166278089Y-107285139D01*
X166271894Y-107303243D01*
X166265669Y-107323380D01*
X166232557Y-107435571D01*
X166142427Y-107435571D01*
X166144829Y-107423483D01*
X166152491Y-107382068D01*
X166159808Y-107339394D01*
X166194276Y-107131042D01*
X166125111Y-107073865D01*
X166095802Y-107051402D01*
X166060969Y-107027772D01*
X166021111Y-107003194D01*
X165976727Y-106977890D01*
X165876374Y-106925979D01*
X165763901Y-106873799D01*
X165643296Y-106823110D01*
X165518549Y-106775671D01*
X165393650Y-106733242D01*
X165272588Y-106697583D01*
X165136572Y-106661033D01*
X165226373Y-106585038D01*
X165235522Y-106577732D01*
X166454422Y-106577732D01*
X166454619Y-106579030D01*
X166456584Y-106582877D01*
X166460560Y-106588315D01*
X166466449Y-106595248D01*
X166483560Y-106613226D01*
X166507119Y-106636057D01*
X166536324Y-106662985D01*
X166570375Y-106693258D01*
X166608471Y-106726121D01*
X166649813Y-106760819D01*
X166856855Y-106932314D01*
X167051511Y-107027651D01*
X167246169Y-107122971D01*
X167489034Y-107108495D01*
X167731923Y-107093748D01*
X167787553Y-107052676D01*
X167792521Y-107049172D01*
X167795976Y-107047108D01*
X167797958Y-107046437D01*
X167798410Y-107046610D01*
X167798509Y-107047114D01*
X167797669Y-107049091D01*
X167795479Y-107052323D01*
X167791978Y-107056762D01*
X167787209Y-107062363D01*
X167774026Y-107076865D01*
X167756254Y-107095457D01*
X167734219Y-107117767D01*
X167708247Y-107143426D01*
X167573267Y-107275294D01*
X167615779Y-107279814D01*
X167637081Y-107281493D01*
X167660430Y-107282267D01*
X167685703Y-107282154D01*
X167712777Y-107281170D01*
X167771835Y-107276661D01*
X167836616Y-107268879D01*
X167906136Y-107257963D01*
X167979409Y-107244052D01*
X168055448Y-107227285D01*
X168133268Y-107207800D01*
X168179636Y-107195611D01*
X168223846Y-107184245D01*
X168264864Y-107173951D01*
X168301653Y-107164974D01*
X168333180Y-107157562D01*
X168358409Y-107151962D01*
X168376304Y-107148421D01*
X168382178Y-107147499D01*
X168385831Y-107147186D01*
X168410050Y-107147186D01*
X168331712Y-107325067D01*
X168253419Y-107502948D01*
X168273178Y-107584733D01*
X168275541Y-107593553D01*
X168278520Y-107603089D01*
X168282073Y-107613249D01*
X168286154Y-107623944D01*
X168290719Y-107635083D01*
X168295723Y-107646577D01*
X168306873Y-107670262D01*
X168319247Y-107694278D01*
X168332489Y-107717902D01*
X168339325Y-107729340D01*
X168346244Y-107740409D01*
X168353203Y-107751018D01*
X168360156Y-107761077D01*
X168427438Y-107855654D01*
X168383569Y-107883790D01*
X168339774Y-107911927D01*
X168419441Y-108120758D01*
X168499136Y-108329599D01*
X168448608Y-108375738D01*
X168442774Y-108380788D01*
X168435758Y-108386401D01*
X168418559Y-108399076D01*
X168397762Y-108413291D01*
X168374115Y-108428572D01*
X168348367Y-108444447D01*
X168321269Y-108460443D01*
X168293569Y-108476087D01*
X168266016Y-108490907D01*
X168133887Y-108560026D01*
X168152270Y-108590876D01*
X168170654Y-108621726D01*
X168278771Y-108621726D01*
X168305935Y-108621277D01*
X168331004Y-108619801D01*
X168354250Y-108617103D01*
X168375945Y-108612991D01*
X168386295Y-108610345D01*
X168396360Y-108607272D01*
X168406173Y-108603748D01*
X168415768Y-108599750D01*
X168425179Y-108595253D01*
X168434441Y-108590233D01*
X168443587Y-108584666D01*
X168452651Y-108578528D01*
X168461667Y-108571794D01*
X168470670Y-108564440D01*
X168488770Y-108547776D01*
X168507223Y-108528343D01*
X168526302Y-108505947D01*
X168546278Y-108480393D01*
X168567423Y-108451490D01*
X168590011Y-108419043D01*
X168614311Y-108382858D01*
X168732079Y-108205040D01*
X168842354Y-108205040D01*
X168863035Y-108089890D01*
X168883717Y-107974749D01*
X168863261Y-107768070D01*
X168842806Y-107561419D01*
X168738666Y-107234153D01*
X168702489Y-107121646D01*
X168669476Y-107021672D01*
X168638743Y-106931810D01*
X168609407Y-106849640D01*
X168580584Y-106772743D01*
X168551390Y-106698698D01*
X168520941Y-106625086D01*
X168488353Y-106549487D01*
X168479479Y-106528614D01*
X168471191Y-106508008D01*
X168463673Y-106488202D01*
X168457110Y-106469726D01*
X168451684Y-106453113D01*
X168449456Y-106445670D01*
X168447581Y-106438892D01*
X168446083Y-106432845D01*
X168444985Y-106427595D01*
X168444309Y-106423209D01*
X168444078Y-106419753D01*
X168443478Y-106416231D01*
X168441719Y-106411627D01*
X168438858Y-106406016D01*
X168434957Y-106399472D01*
X168430073Y-106392069D01*
X168424266Y-106383882D01*
X168410122Y-106365452D01*
X168392998Y-106344775D01*
X168373369Y-106322446D01*
X168351709Y-106299059D01*
X168328492Y-106275209D01*
X168212884Y-106159371D01*
X168093531Y-106108437D01*
X168093749Y-106106709D01*
X167974397Y-106055774D01*
X167877976Y-106059394D01*
X167855777Y-106060877D01*
X167829596Y-106063913D01*
X167800399Y-106068317D01*
X167769148Y-106073903D01*
X167736807Y-106080486D01*
X167704339Y-106087879D01*
X167672708Y-106095899D01*
X167642877Y-106104358D01*
X167504153Y-106146155D01*
X167573507Y-106149775D01*
X167642879Y-106153395D01*
X167642879Y-106178003D01*
X167641915Y-106182078D01*
X167639051Y-106186601D01*
X167627791Y-106196924D01*
X167609435Y-106208852D01*
X167584317Y-106222262D01*
X167515138Y-106253048D01*
X167422937Y-106288312D01*
X167310396Y-106327083D01*
X167180198Y-106368391D01*
X167035025Y-106411267D01*
X166877559Y-106454741D01*
X166717115Y-106498259D01*
X166583939Y-106535714D01*
X166531903Y-106550952D01*
X166491875Y-106563215D01*
X166465586Y-106572015D01*
X166458134Y-106574965D01*
X166454766Y-106576867D01*
X166454422Y-106577732D01*
X165235522Y-106577732D01*
X165259692Y-106558430D01*
X165296913Y-106531577D01*
X165337748Y-106504610D01*
X165381907Y-106477660D01*
X165429102Y-106450857D01*
X165479045Y-106424334D01*
X165531447Y-106398221D01*
X165586019Y-106372649D01*
X165642474Y-106347749D01*
X165700521Y-106323651D01*
X165759873Y-106300488D01*
X165820241Y-106278389D01*
X165881336Y-106257487D01*
X165942870Y-106237911D01*
X166004554Y-106219793D01*
X166066100Y-106203264D01*
X166261260Y-106153416D01*
X166899758Y-106153416D01*
X166932425Y-106105363D01*
X167005187Y-106105363D01*
X167049608Y-106116399D01*
X167054632Y-106117432D01*
X167060504Y-106118229D01*
X167067152Y-106118794D01*
X167074503Y-106119132D01*
X167091024Y-106119149D01*
X167109485Y-106118320D01*
X167129305Y-106116685D01*
X167149904Y-106114285D01*
X167170700Y-106111160D01*
X167191113Y-106107349D01*
X167288200Y-106087355D01*
X167314998Y-106044484D01*
X167426924Y-106044484D01*
X167536328Y-106031185D01*
X167645731Y-106017886D01*
X167851946Y-105693027D01*
X168004911Y-105451575D01*
X168054304Y-105372318D01*
X168092135Y-105309688D01*
X168123280Y-105255426D01*
X168152612Y-105201266D01*
X168225334Y-105060209D01*
X168246863Y-105016925D01*
X168267844Y-104972433D01*
X168287758Y-104928004D01*
X168306082Y-104884904D01*
X168322294Y-104844401D01*
X168335874Y-104807765D01*
X168346300Y-104776263D01*
X168350168Y-104762834D01*
X168353009Y-104751335D01*
X168353033Y-104751239D01*
X168375991Y-104647168D01*
X168348416Y-104647168D01*
X168347001Y-104647202D01*
X168345603Y-104647304D01*
X168344225Y-104647471D01*
X168342869Y-104647702D01*
X168341536Y-104647995D01*
X168340228Y-104648349D01*
X168338947Y-104648762D01*
X168337695Y-104649232D01*
X168336473Y-104649758D01*
X168335283Y-104650337D01*
X168334127Y-104650970D01*
X168333007Y-104651652D01*
X168331924Y-104652384D01*
X168330881Y-104653164D01*
X168329878Y-104653989D01*
X168328918Y-104654858D01*
X168328003Y-104655769D01*
X168327134Y-104656721D01*
X168326313Y-104657713D01*
X168325542Y-104658742D01*
X168324822Y-104659806D01*
X168324156Y-104660905D01*
X168323544Y-104662036D01*
X168322990Y-104663198D01*
X168322494Y-104664389D01*
X168322059Y-104665608D01*
X168321685Y-104666852D01*
X168321376Y-104668121D01*
X168321132Y-104669412D01*
X168320956Y-104670724D01*
X168320849Y-104672055D01*
X168320813Y-104673404D01*
X168320213Y-104676932D01*
X168318454Y-104682029D01*
X168315593Y-104688599D01*
X168311692Y-104696542D01*
X168301001Y-104716163D01*
X168286857Y-104740109D01*
X168269733Y-104767602D01*
X168250104Y-104797861D01*
X168228444Y-104830105D01*
X168205228Y-104863553D01*
X168143319Y-104952717D01*
X168060212Y-105074381D01*
X167873868Y-105351195D01*
X167780961Y-105489940D01*
X167687518Y-105628344D01*
X167604410Y-105750367D01*
X167542510Y-105839968D01*
X167519288Y-105873519D01*
X167497625Y-105905609D01*
X167477996Y-105935476D01*
X167460873Y-105962355D01*
X167446731Y-105985486D01*
X167440926Y-105995408D01*
X167436043Y-106004106D01*
X167432142Y-106011486D01*
X167429283Y-106017452D01*
X167427524Y-106021909D01*
X167427075Y-106023541D01*
X167426924Y-106024761D01*
X167426924Y-106044484D01*
X167314998Y-106044484D01*
X167432784Y-105856051D01*
X167501227Y-105748508D01*
X167580720Y-105626740D01*
X167661398Y-105505697D01*
X167733398Y-105400327D01*
X167859093Y-105218326D01*
X167909388Y-105144644D01*
X167942186Y-105095833D01*
X167970323Y-105054609D01*
X168007930Y-105001599D01*
X168050104Y-104943622D01*
X168091941Y-104887498D01*
X168112523Y-104859943D01*
X168133857Y-104830759D01*
X168155324Y-104800834D01*
X168176304Y-104771054D01*
X168196179Y-104742306D01*
X168214330Y-104715478D01*
X168230137Y-104691457D01*
X168242983Y-104671130D01*
X168242982Y-104671008D01*
X168263820Y-104636844D01*
X168271700Y-104623357D01*
X168277705Y-104612229D01*
X168281696Y-104603431D01*
X168282893Y-104599897D01*
X168283536Y-104596934D01*
X168283606Y-104594539D01*
X168283086Y-104592709D01*
X168281960Y-104591439D01*
X168280210Y-104590727D01*
X168277819Y-104590569D01*
X168274770Y-104590960D01*
X168271045Y-104591899D01*
X168266628Y-104593380D01*
X168255645Y-104597956D01*
X168241685Y-104604661D01*
X168224610Y-104613466D01*
X168204282Y-104624341D01*
X168153317Y-104652190D01*
X168032102Y-104718595D01*
X167898638Y-104867092D01*
X167864083Y-104908033D01*
X167816851Y-104967728D01*
X167692780Y-105132002D01*
X167543271Y-105337157D01*
X167385170Y-105560435D01*
X167005187Y-106105363D01*
X166932425Y-106105363D01*
X167217605Y-105685867D01*
X167420028Y-105390286D01*
X167506570Y-105266237D01*
X167584698Y-105156474D01*
X167655435Y-105059841D01*
X167719805Y-104975182D01*
X167778831Y-104901339D01*
X167833537Y-104837158D01*
X167884948Y-104781481D01*
X167909737Y-104756471D01*
X167934086Y-104733153D01*
X167958123Y-104711383D01*
X167981975Y-104691016D01*
X168005772Y-104671909D01*
X168029640Y-104653916D01*
X168053707Y-104636893D01*
X168078103Y-104620695D01*
X168128388Y-104590197D01*
X168181520Y-104561267D01*
X168238521Y-104532747D01*
X168237914Y-104532883D01*
X168270533Y-104517315D01*
X168301881Y-104502778D01*
X168331205Y-104489593D01*
X168357749Y-104478077D01*
X168380761Y-104468550D01*
X168399485Y-104461329D01*
X168407004Y-104458683D01*
X168413168Y-104456732D01*
X168417884Y-104455518D01*
X168421056Y-104455080D01*
X168444171Y-104455080D01*
X168444171Y-104538312D01*
X168443113Y-104564987D01*
X168440029Y-104595011D01*
X168435056Y-104627952D01*
X168428327Y-104663378D01*
X168419980Y-104700858D01*
X168410150Y-104739957D01*
X168398972Y-104780246D01*
X168386583Y-104821290D01*
X168373117Y-104862659D01*
X168358710Y-104903920D01*
X168343498Y-104944641D01*
X168327616Y-104984389D01*
X168311201Y-105022734D01*
X168294388Y-105059241D01*
X168277311Y-105093480D01*
X168260108Y-105125018D01*
X168209917Y-105209312D01*
X168135737Y-105329827D01*
X168047567Y-105470478D01*
X167955405Y-105615183D01*
X167911168Y-105684722D01*
X167869899Y-105750932D01*
X167832502Y-105812268D01*
X167799880Y-105867187D01*
X167772936Y-105914142D01*
X167752571Y-105951592D01*
X167745139Y-105966268D01*
X167739691Y-105977989D01*
X167736339Y-105986561D01*
X167735197Y-105991791D01*
X167735197Y-106025716D01*
X168827901Y-106025716D01*
X169092551Y-106306182D01*
X169357201Y-106586639D01*
X169459895Y-106778951D01*
X169481512Y-106818420D01*
X169503589Y-106856844D01*
X169525506Y-106893265D01*
X169546643Y-106926727D01*
X169556726Y-106942049D01*
X169566381Y-106956273D01*
X169575532Y-106969278D01*
X169584101Y-106980946D01*
X169592010Y-106991156D01*
X169599182Y-106999790D01*
X169605540Y-107006727D01*
X169611005Y-107011848D01*
X169659425Y-107052377D01*
X169654635Y-107478020D01*
X169649845Y-107903600D01*
X169618225Y-107989999D01*
X169586633Y-108076488D01*
X169285239Y-108379562D01*
X168983846Y-108682681D01*
X169083988Y-108704303D01*
X169104725Y-108708850D01*
X169122767Y-108713031D01*
X169138168Y-108717032D01*
X169150981Y-108721040D01*
X169156434Y-108723104D01*
X169161261Y-108725239D01*
X169165468Y-108727469D01*
X169169062Y-108729817D01*
X169172050Y-108732306D01*
X169174439Y-108734960D01*
X169176235Y-108737801D01*
X169177444Y-108740853D01*
X169178075Y-108744140D01*
X169178134Y-108747683D01*
X169177626Y-108751508D01*
X169176560Y-108755636D01*
X169174942Y-108760092D01*
X169172778Y-108764898D01*
X169170076Y-108770078D01*
X169166842Y-108775655D01*
X169158806Y-108788094D01*
X169148724Y-108802399D01*
X169122637Y-108837357D01*
X169061099Y-108918690D01*
X169297485Y-109058747D01*
X169346121Y-109087973D01*
X169393716Y-109117331D01*
X169439070Y-109146030D01*
X169480983Y-109173276D01*
X169518255Y-109198275D01*
X169549684Y-109220235D01*
X169574072Y-109238362D01*
X169583249Y-109245741D01*
X169590216Y-109251864D01*
X169646533Y-109304879D01*
X169646533Y-109352557D01*
X169642701Y-109373003D01*
X169631717Y-109413079D01*
X169591375Y-109542606D01*
X169531665Y-109722106D01*
X169458748Y-109932549D01*
X169303853Y-110374422D01*
X169195108Y-110689248D01*
X169178861Y-110736440D01*
X169161756Y-110784569D01*
X169144307Y-110832289D01*
X169127026Y-110878255D01*
X169110427Y-110921121D01*
X169095023Y-110959541D01*
X169081326Y-110992170D01*
X169069849Y-111017663D01*
X169020490Y-111121694D01*
X168878870Y-111209451D01*
X168805748Y-111253585D01*
X168737707Y-111292005D01*
X168704907Y-111309370D01*
X168672558Y-111325664D01*
X168640384Y-111341007D01*
X168608112Y-111355517D01*
X168575470Y-111369315D01*
X168542183Y-111382519D01*
X168507977Y-111395248D01*
X168472581Y-111407622D01*
X168397118Y-111431782D01*
X168313606Y-111455953D01*
X168105737Y-111513583D01*
X168060258Y-111495399D01*
X168014833Y-111477213D01*
X167969128Y-111363511D01*
X167959597Y-111336912D01*
X167949336Y-111303057D01*
X167927279Y-111217104D01*
X167904264Y-111112706D01*
X167881597Y-110996916D01*
X167860583Y-110876788D01*
X167842529Y-110759377D01*
X167828740Y-110651734D01*
X167820522Y-110560915D01*
X167818464Y-110528146D01*
X167913405Y-110528146D01*
X167951801Y-110816627D01*
X167990178Y-111105109D01*
X168036300Y-111225317D01*
X168082394Y-111345496D01*
X168155955Y-111345496D01*
X168177702Y-111344089D01*
X168204267Y-111340023D01*
X168235006Y-111333536D01*
X168269280Y-111324864D01*
X168306448Y-111314242D01*
X168345868Y-111301908D01*
X168428904Y-111273046D01*
X168513258Y-111240168D01*
X168593805Y-111205164D01*
X168631048Y-111187456D01*
X168665416Y-111169925D01*
X168696268Y-111152807D01*
X168722964Y-111136340D01*
X168760378Y-111110794D01*
X168794532Y-111084983D01*
X168825986Y-111057719D01*
X168855297Y-111027817D01*
X168883025Y-110994089D01*
X168909728Y-110955350D01*
X168935965Y-110910414D01*
X168962294Y-110858093D01*
X168989274Y-110797202D01*
X169017464Y-110726554D01*
X169079705Y-110551242D01*
X169153488Y-110322668D01*
X169243281Y-110031341D01*
X169308146Y-109820187D01*
X169365642Y-109636207D01*
X169409535Y-109499167D01*
X169424433Y-109454425D01*
X169433594Y-109428829D01*
X169462780Y-109355186D01*
X169378010Y-109276839D01*
X169368429Y-109268363D01*
X169357262Y-109259141D01*
X169330718Y-109238822D01*
X169299474Y-109216601D01*
X169264625Y-109193196D01*
X169227266Y-109169324D01*
X169188492Y-109145703D01*
X169149400Y-109123052D01*
X169111084Y-109102088D01*
X169111126Y-109102296D01*
X169077672Y-109084757D01*
X169047199Y-109069159D01*
X169019531Y-109055452D01*
X168994493Y-109043589D01*
X168971911Y-109033524D01*
X168961486Y-109029150D01*
X168951609Y-109025208D01*
X168942259Y-109021691D01*
X168933413Y-109018594D01*
X168925050Y-109015911D01*
X168917147Y-109013635D01*
X168909683Y-109011761D01*
X168902637Y-109010284D01*
X168895985Y-109009196D01*
X168889706Y-109008492D01*
X168883779Y-109008166D01*
X168878182Y-109008212D01*
X168872892Y-109008624D01*
X168867888Y-109009397D01*
X168863147Y-109010524D01*
X168858649Y-109012000D01*
X168854370Y-109013818D01*
X168850290Y-109015973D01*
X168846386Y-109018458D01*
X168842637Y-109021268D01*
X168839020Y-109024397D01*
X168835514Y-109027839D01*
X168814371Y-109049642D01*
X169059466Y-109196520D01*
X169109090Y-109226438D01*
X169156125Y-109255109D01*
X169199485Y-109281851D01*
X169238084Y-109305983D01*
X169270839Y-109326822D01*
X169296662Y-109343686D01*
X169314469Y-109355892D01*
X169320028Y-109360035D01*
X169323175Y-109362759D01*
X169341785Y-109382029D01*
X169108592Y-110030526D01*
X169014418Y-110289625D01*
X168930380Y-110515704D01*
X168865649Y-110684455D01*
X168843389Y-110739738D01*
X168829395Y-110771574D01*
X168783392Y-110864089D01*
X168653008Y-110933570D01*
X168623228Y-110948662D01*
X168588499Y-110964943D01*
X168550077Y-110981899D01*
X168509218Y-110999014D01*
X168467180Y-111015777D01*
X168425220Y-111031673D01*
X168384593Y-111046187D01*
X168346558Y-111058807D01*
X168170447Y-111114536D01*
X168139452Y-111075724D01*
X168130368Y-111061212D01*
X168120717Y-111040100D01*
X168110654Y-111013124D01*
X168100331Y-110981021D01*
X168079520Y-110904383D01*
X168059509Y-110816078D01*
X168041524Y-110721999D01*
X168026791Y-110628041D01*
X168016537Y-110540095D01*
X168013472Y-110500220D01*
X168011986Y-110464057D01*
X168008996Y-110303808D01*
X167961201Y-110415990D01*
X167913405Y-110528146D01*
X167818464Y-110528146D01*
X167812472Y-110432720D01*
X167623377Y-110629346D01*
G37*
G36*
X167237529Y-108365497D02*
G01*
X167251241Y-108373578D01*
X167264942Y-108381899D01*
X167278546Y-108390398D01*
X167291964Y-108399010D01*
X167317896Y-108416323D01*
X167330235Y-108424898D01*
X167342041Y-108433334D01*
X167353225Y-108441569D01*
X167363700Y-108449540D01*
X167373380Y-108457182D01*
X167382178Y-108464434D01*
X167390005Y-108471233D01*
X167396775Y-108477514D01*
X167402400Y-108483215D01*
X167406794Y-108488274D01*
X167443307Y-108534052D01*
X167318209Y-108467737D01*
X167305233Y-108460674D01*
X167292172Y-108453238D01*
X167279113Y-108445490D01*
X167266142Y-108437493D01*
X167253345Y-108429311D01*
X167240811Y-108421006D01*
X167228624Y-108412640D01*
X167216873Y-108404276D01*
X167205643Y-108395977D01*
X167195021Y-108387805D01*
X167185095Y-108379823D01*
X167175950Y-108372095D01*
X167167674Y-108364681D01*
X167160353Y-108357646D01*
X167154073Y-108351052D01*
X167148922Y-108344961D01*
X167148924Y-108344870D01*
X167104756Y-108288507D01*
X167237529Y-108365497D01*
G37*
G36*
X167137000Y-108029000D02*
G01*
X167139636Y-108029268D01*
X167141998Y-108029700D01*
X167143068Y-108029978D01*
X167144060Y-108030298D01*
X167144971Y-108030660D01*
X167145798Y-108031063D01*
X167146537Y-108031509D01*
X167147185Y-108031997D01*
X167149023Y-108034014D01*
X167150475Y-108036414D01*
X167151556Y-108039168D01*
X167152283Y-108042248D01*
X167152669Y-108045623D01*
X167152731Y-108049264D01*
X167152484Y-108053142D01*
X167151943Y-108057227D01*
X167151123Y-108061490D01*
X167150039Y-108065903D01*
X167148707Y-108070434D01*
X167147142Y-108075056D01*
X167143373Y-108084452D01*
X167138856Y-108093856D01*
X167133712Y-108103033D01*
X167128063Y-108111748D01*
X167125087Y-108115860D01*
X167122031Y-108119767D01*
X167118910Y-108123442D01*
X167115739Y-108126855D01*
X167112533Y-108129976D01*
X167109308Y-108132776D01*
X167106079Y-108135226D01*
X167102861Y-108137296D01*
X167099670Y-108138958D01*
X167096520Y-108140181D01*
X167093427Y-108140936D01*
X167090406Y-108141194D01*
X167058606Y-108141194D01*
X167058606Y-108050363D01*
X167097146Y-108036068D01*
X167097137Y-108036517D01*
X167101120Y-108035065D01*
X167105107Y-108033763D01*
X167109073Y-108032612D01*
X167112993Y-108031613D01*
X167116840Y-108030768D01*
X167120591Y-108030078D01*
X167124219Y-108029544D01*
X167127699Y-108029168D01*
X167131006Y-108028951D01*
X167134115Y-108028895D01*
X167137000Y-108029000D01*
G37*
G36*
X81225529Y-108365497D02*
G01*
X81239241Y-108373578D01*
X81252942Y-108381899D01*
X81266546Y-108390398D01*
X81279964Y-108399010D01*
X81305896Y-108416323D01*
X81318235Y-108424898D01*
X81330041Y-108433334D01*
X81341225Y-108441569D01*
X81351700Y-108449540D01*
X81361380Y-108457182D01*
X81370178Y-108464434D01*
X81378005Y-108471233D01*
X81384775Y-108477514D01*
X81390400Y-108483215D01*
X81394794Y-108488274D01*
X81431307Y-108534052D01*
X81306209Y-108467737D01*
X81293233Y-108460674D01*
X81280172Y-108453238D01*
X81267113Y-108445490D01*
X81254142Y-108437493D01*
X81241345Y-108429311D01*
X81228811Y-108421006D01*
X81216624Y-108412640D01*
X81204873Y-108404276D01*
X81193643Y-108395977D01*
X81183021Y-108387805D01*
X81173095Y-108379823D01*
X81163950Y-108372095D01*
X81155674Y-108364681D01*
X81148353Y-108357646D01*
X81142073Y-108351052D01*
X81136922Y-108344961D01*
X81136924Y-108344870D01*
X81092756Y-108288507D01*
X81225529Y-108365497D01*
G37*
G36*
X81611377Y-110629346D02*
G01*
X81422305Y-110825956D01*
X81385465Y-110942002D01*
X81348653Y-111058028D01*
X81394476Y-111210127D01*
X81416586Y-111286905D01*
X81442903Y-111383479D01*
X81470129Y-111487499D01*
X81494964Y-111586617D01*
X81507076Y-111634488D01*
X81520554Y-111684549D01*
X81534948Y-111735316D01*
X81549805Y-111785309D01*
X81564677Y-111833045D01*
X81579113Y-111877042D01*
X81592662Y-111915818D01*
X81604873Y-111947890D01*
X81660141Y-112084798D01*
X81714875Y-112104792D01*
X81720978Y-112107241D01*
X81727934Y-112110410D01*
X81744091Y-112118705D01*
X81762709Y-112129278D01*
X81783150Y-112141730D01*
X81804777Y-112155661D01*
X81826952Y-112170672D01*
X81849038Y-112186363D01*
X81870398Y-112202335D01*
X81971115Y-112279868D01*
X82066020Y-112475355D01*
X82085972Y-112517630D01*
X82106277Y-112562865D01*
X82126368Y-112609657D01*
X82145681Y-112656602D01*
X82163650Y-112702298D01*
X82179712Y-112745341D01*
X82193299Y-112784328D01*
X82203848Y-112817855D01*
X82246731Y-112964832D01*
X82246731Y-113257258D01*
X82182136Y-113329363D01*
X82166248Y-113346323D01*
X82150112Y-113361898D01*
X82133506Y-113376170D01*
X82116205Y-113389222D01*
X82097988Y-113401137D01*
X82078632Y-113411996D01*
X82057912Y-113421884D01*
X82035607Y-113430882D01*
X82011492Y-113439072D01*
X81985346Y-113446538D01*
X81956946Y-113453362D01*
X81926067Y-113459627D01*
X81892487Y-113465415D01*
X81855984Y-113470809D01*
X81773314Y-113480746D01*
X81576613Y-113501644D01*
X81603039Y-113329362D01*
X81629465Y-113157070D01*
X81595684Y-113049873D01*
X81586797Y-113023622D01*
X81574452Y-112990004D01*
X81541626Y-112906216D01*
X81501682Y-112809617D01*
X81459096Y-112711317D01*
X81356333Y-112479984D01*
X81247596Y-112419099D01*
X81138881Y-112358213D01*
X80999260Y-112156438D01*
X80971219Y-112115470D01*
X80945058Y-112076413D01*
X80921351Y-112040182D01*
X80900670Y-112007688D01*
X80883588Y-111979846D01*
X80870678Y-111957569D01*
X80865966Y-111948802D01*
X80862512Y-111941768D01*
X80860386Y-111936582D01*
X80859845Y-111934718D01*
X80859662Y-111933358D01*
X80859397Y-111930892D01*
X80858621Y-111927896D01*
X80857358Y-111924412D01*
X80855636Y-111920482D01*
X80853480Y-111916146D01*
X80850917Y-111911446D01*
X80847973Y-111906422D01*
X80844674Y-111901117D01*
X80841047Y-111895571D01*
X80837116Y-111889826D01*
X80828453Y-111877902D01*
X80818893Y-111865674D01*
X80813842Y-111859550D01*
X80808646Y-111853474D01*
X80760451Y-111798092D01*
X80923806Y-111798092D01*
X80958845Y-111867754D01*
X80968071Y-111885204D01*
X80980900Y-111908152D01*
X81015034Y-111966628D01*
X81056582Y-112035350D01*
X81100879Y-112106486D01*
X81207870Y-112275565D01*
X81468592Y-112434431D01*
X81506417Y-112565694D01*
X81544242Y-112696975D01*
X81656610Y-112675172D01*
X81680091Y-112670111D01*
X81703874Y-112664070D01*
X81727757Y-112657145D01*
X81751541Y-112649433D01*
X81775023Y-112641031D01*
X81798003Y-112632036D01*
X81820279Y-112622545D01*
X81841650Y-112612656D01*
X81861915Y-112602466D01*
X81880872Y-112592070D01*
X81898321Y-112581568D01*
X81914059Y-112571054D01*
X81927887Y-112560628D01*
X81939602Y-112550384D01*
X81944604Y-112545362D01*
X81949003Y-112540422D01*
X81952774Y-112535576D01*
X81955890Y-112530837D01*
X81974961Y-112498629D01*
X81920227Y-112402316D01*
X81865512Y-112306011D01*
X81745400Y-112244221D01*
X81625243Y-112182430D01*
X81528247Y-111947842D01*
X81528342Y-111948165D01*
X81431348Y-111713595D01*
X81339224Y-111708164D01*
X81304480Y-111706941D01*
X81288027Y-111706972D01*
X81271896Y-111707486D01*
X81255868Y-111708521D01*
X81239724Y-111710117D01*
X81223246Y-111712315D01*
X81206215Y-111715154D01*
X81188412Y-111718673D01*
X81169618Y-111722912D01*
X81128185Y-111733711D01*
X81080166Y-111747869D01*
X81023812Y-111765704D01*
X80923806Y-111798092D01*
X80760451Y-111798092D01*
X80757630Y-111794849D01*
X80327392Y-111794849D01*
X80207832Y-111757575D01*
X80088271Y-111720303D01*
X80012738Y-111762371D01*
X79937187Y-111804440D01*
X80013136Y-111898310D01*
X80020973Y-111908274D01*
X80028787Y-111918763D01*
X80036527Y-111929687D01*
X80044146Y-111940958D01*
X80051592Y-111952487D01*
X80058818Y-111964185D01*
X80065774Y-111975965D01*
X80072411Y-111987736D01*
X80078679Y-111999410D01*
X80084530Y-112010899D01*
X80089914Y-112022114D01*
X80094782Y-112032966D01*
X80099084Y-112043367D01*
X80102773Y-112053227D01*
X80105797Y-112062459D01*
X80108109Y-112070972D01*
X80127180Y-112149862D01*
X80114541Y-112332983D01*
X80101902Y-112516129D01*
X80041695Y-112644326D01*
X79981487Y-112772530D01*
X79804433Y-112800123D01*
X79627402Y-112827807D01*
X79516735Y-112806185D01*
X79406067Y-112784562D01*
X79428820Y-112730460D01*
X79433631Y-112717613D01*
X79438641Y-112701813D01*
X79443706Y-112683679D01*
X79448677Y-112663828D01*
X79453410Y-112642880D01*
X79457757Y-112621452D01*
X79461572Y-112600162D01*
X79464709Y-112579629D01*
X79478036Y-112482980D01*
X79359946Y-112339240D01*
X79335112Y-112308314D01*
X79309817Y-112275473D01*
X79284767Y-112241721D01*
X79260666Y-112208061D01*
X79238220Y-112175497D01*
X79218133Y-112145034D01*
X79201109Y-112117674D01*
X79187855Y-112094421D01*
X79133944Y-111993320D01*
X79133944Y-111941572D01*
X79228058Y-111941572D01*
X79288674Y-112009254D01*
X79295184Y-112016252D01*
X79302178Y-112023272D01*
X79309590Y-112030270D01*
X79317356Y-112037199D01*
X79325412Y-112044014D01*
X79333692Y-112050669D01*
X79342132Y-112057120D01*
X79350668Y-112063321D01*
X79359235Y-112069225D01*
X79367769Y-112074789D01*
X79376204Y-112079965D01*
X79384476Y-112084710D01*
X79392521Y-112088976D01*
X79400274Y-112092720D01*
X79407670Y-112095895D01*
X79414645Y-112098457D01*
X79480019Y-112120078D01*
X79582115Y-112100085D01*
X79684166Y-112080271D01*
X79764357Y-112014681D01*
X79772526Y-112007820D01*
X79780466Y-112000812D01*
X79788136Y-111993709D01*
X79795495Y-111986563D01*
X79802502Y-111979423D01*
X79809115Y-111972340D01*
X79815294Y-111965366D01*
X79820997Y-111958551D01*
X79826183Y-111951946D01*
X79830812Y-111945603D01*
X79834841Y-111939571D01*
X79838230Y-111933902D01*
X79840937Y-111928646D01*
X79842922Y-111923855D01*
X79843630Y-111921650D01*
X79844143Y-111919579D01*
X79844454Y-111917651D01*
X79844559Y-111915870D01*
X79844559Y-111882667D01*
X79761652Y-111904288D01*
X79678791Y-111925912D01*
X79807910Y-111780273D01*
X79833841Y-111750510D01*
X79858032Y-111721765D01*
X79879952Y-111694738D01*
X79899073Y-111670129D01*
X79907418Y-111658950D01*
X79914866Y-111648638D01*
X79921349Y-111639282D01*
X79926801Y-111630967D01*
X79931157Y-111623782D01*
X79934351Y-111617815D01*
X79936315Y-111613152D01*
X79936816Y-111611338D01*
X79936985Y-111609882D01*
X79936195Y-111606652D01*
X79933879Y-111602125D01*
X79930114Y-111596385D01*
X79924978Y-111589514D01*
X79918550Y-111581594D01*
X79910908Y-111572708D01*
X79892291Y-111552368D01*
X79869754Y-111529156D01*
X79843920Y-111503732D01*
X79815414Y-111476757D01*
X79784861Y-111448891D01*
X79784867Y-111448827D01*
X79753952Y-111421466D01*
X79724421Y-111395937D01*
X79696975Y-111372799D01*
X79672311Y-111352613D01*
X79651128Y-111335938D01*
X79642059Y-111329093D01*
X79634123Y-111323335D01*
X79627406Y-111318735D01*
X79621995Y-111315362D01*
X79617978Y-111313287D01*
X79616520Y-111312758D01*
X79615442Y-111312580D01*
X79613029Y-111313193D01*
X79609404Y-111314991D01*
X79604641Y-111317913D01*
X79598813Y-111321898D01*
X79584258Y-111332818D01*
X79566323Y-111347264D01*
X79545595Y-111364750D01*
X79522659Y-111384792D01*
X79498103Y-111406903D01*
X79472512Y-111430598D01*
X79346908Y-111548624D01*
X79287506Y-111669718D01*
X79228058Y-111790849D01*
X79228058Y-111941572D01*
X79133944Y-111941572D01*
X79133944Y-111787519D01*
X79218190Y-111622890D01*
X79239110Y-111583984D01*
X79266375Y-111536385D01*
X79298833Y-111481944D01*
X79335332Y-111422509D01*
X79374720Y-111359930D01*
X79415844Y-111296059D01*
X79457554Y-111232744D01*
X79498696Y-111171835D01*
X79539723Y-111110807D01*
X79581067Y-111047133D01*
X79621605Y-110982689D01*
X79660210Y-110919350D01*
X79695759Y-110858993D01*
X79727126Y-110803494D01*
X79753186Y-110754729D01*
X79772815Y-110714573D01*
X79850573Y-110543793D01*
X79869313Y-110527401D01*
X80090712Y-110527401D01*
X80098491Y-110638480D01*
X80106271Y-110749523D01*
X80214158Y-110787249D01*
X80277404Y-110805668D01*
X80363077Y-110825197D01*
X80465954Y-110845018D01*
X80580810Y-110864312D01*
X80702421Y-110882259D01*
X80825563Y-110898041D01*
X80945010Y-110910838D01*
X81055539Y-110919833D01*
X81265039Y-110933402D01*
X81309822Y-110894772D01*
X81354631Y-110856141D01*
X81352372Y-110803941D01*
X81350112Y-110751830D01*
X81315734Y-110826107D01*
X81281337Y-110900382D01*
X81048121Y-110879755D01*
X81006972Y-110875618D01*
X80962767Y-110870273D01*
X80868147Y-110856568D01*
X80770169Y-110839858D01*
X80674741Y-110821359D01*
X80587769Y-110802288D01*
X80515162Y-110783864D01*
X80486091Y-110775274D01*
X80462826Y-110767303D01*
X80446107Y-110760101D01*
X80440432Y-110756836D01*
X80436670Y-110753822D01*
X80435809Y-110752085D01*
X80435526Y-110749336D01*
X80435788Y-110745646D01*
X80436563Y-110741083D01*
X80439523Y-110729624D01*
X80444144Y-110715517D01*
X80450167Y-110699321D01*
X80457331Y-110681598D01*
X80465376Y-110662907D01*
X80474042Y-110643806D01*
X80483069Y-110624857D01*
X80492196Y-110606618D01*
X80501163Y-110589650D01*
X80509710Y-110574512D01*
X80517577Y-110561763D01*
X80524503Y-110551964D01*
X80530228Y-110545674D01*
X80532559Y-110544020D01*
X80534492Y-110543453D01*
X80536178Y-110543705D01*
X80538954Y-110544442D01*
X80547523Y-110547277D01*
X80559698Y-110551759D01*
X80574974Y-110557691D01*
X80612821Y-110573109D01*
X80657040Y-110591946D01*
X80686028Y-110603642D01*
X80719811Y-110615725D01*
X80798949Y-110640406D01*
X80888828Y-110664691D01*
X80983820Y-110687284D01*
X81078296Y-110706887D01*
X81166631Y-110722203D01*
X81206736Y-110727848D01*
X81243195Y-110731935D01*
X81275305Y-110734303D01*
X81302362Y-110734788D01*
X81400528Y-110734788D01*
X81354298Y-110708009D01*
X81348584Y-110705175D01*
X81341062Y-110702222D01*
X81321087Y-110696045D01*
X81295355Y-110689668D01*
X81264849Y-110683276D01*
X81230550Y-110677059D01*
X81193440Y-110671202D01*
X81154502Y-110665896D01*
X81114718Y-110661326D01*
X81072595Y-110656236D01*
X81026940Y-110649379D01*
X80979205Y-110641053D01*
X80930846Y-110631562D01*
X80883316Y-110621206D01*
X80838069Y-110610285D01*
X80796559Y-110599101D01*
X80760241Y-110587955D01*
X80599089Y-110534487D01*
X80466569Y-110443266D01*
X80467180Y-110442315D01*
X80440268Y-110423995D01*
X80414615Y-110406901D01*
X80390822Y-110391408D01*
X80369489Y-110377892D01*
X80351218Y-110366727D01*
X80336609Y-110358287D01*
X80330865Y-110355207D01*
X80326263Y-110352949D01*
X80322876Y-110351559D01*
X80321662Y-110351205D01*
X80320781Y-110351086D01*
X80318169Y-110351453D01*
X80315086Y-110352526D01*
X80311568Y-110354265D01*
X80307650Y-110356626D01*
X80298762Y-110363054D01*
X80288715Y-110371478D01*
X80277799Y-110381566D01*
X80266304Y-110392986D01*
X80254524Y-110405405D01*
X80242747Y-110418493D01*
X80231266Y-110431916D01*
X80220371Y-110445344D01*
X80210354Y-110458444D01*
X80201505Y-110470885D01*
X80194116Y-110482333D01*
X80188478Y-110492458D01*
X80186407Y-110496920D01*
X80184882Y-110500927D01*
X80183940Y-110504437D01*
X80183619Y-110507409D01*
X80183679Y-110508903D01*
X80183860Y-110510483D01*
X80184568Y-110513880D01*
X80185719Y-110517566D01*
X80187289Y-110521504D01*
X80189255Y-110525660D01*
X80191592Y-110529999D01*
X80194278Y-110534486D01*
X80197287Y-110539085D01*
X80200598Y-110543762D01*
X80204185Y-110548480D01*
X80208025Y-110553206D01*
X80212095Y-110557904D01*
X80216370Y-110562539D01*
X80220827Y-110567075D01*
X80225442Y-110571479D01*
X80230192Y-110575713D01*
X80276793Y-110615882D01*
X80268743Y-110539526D01*
X80260694Y-110463169D01*
X80384024Y-110463169D01*
X80394590Y-110541515D01*
X80405157Y-110619862D01*
X80350079Y-110661749D01*
X80344193Y-110666021D01*
X80337914Y-110670172D01*
X80331298Y-110674181D01*
X80324401Y-110678026D01*
X80317281Y-110681686D01*
X80309992Y-110685140D01*
X80302593Y-110688367D01*
X80295138Y-110691344D01*
X80287685Y-110694051D01*
X80280289Y-110696466D01*
X80273008Y-110698568D01*
X80265897Y-110700336D01*
X80259013Y-110701748D01*
X80252412Y-110702783D01*
X80246150Y-110703420D01*
X80240285Y-110703637D01*
X80185505Y-110703637D01*
X80138099Y-110615519D01*
X80090712Y-110527401D01*
X79869313Y-110527401D01*
X79939206Y-110466261D01*
X80027813Y-110388728D01*
X80027813Y-110320423D01*
X80028471Y-110300947D01*
X80030527Y-110281695D01*
X80034100Y-110262476D01*
X80039310Y-110243097D01*
X80046277Y-110223367D01*
X80055120Y-110203096D01*
X80065960Y-110182090D01*
X80078915Y-110160159D01*
X80094107Y-110137111D01*
X80111654Y-110112755D01*
X80131677Y-110086899D01*
X80154295Y-110059352D01*
X80179628Y-110029922D01*
X80207796Y-109998417D01*
X80273116Y-109928419D01*
X80309106Y-109889994D01*
X80344210Y-109851183D01*
X80377547Y-109813048D01*
X80408237Y-109776649D01*
X80416188Y-109766814D01*
X82571294Y-109766814D01*
X82652455Y-109815217D01*
X82733596Y-109863618D01*
X82829972Y-109800199D01*
X82926323Y-109736779D01*
X82926323Y-109619720D01*
X82925986Y-109595504D01*
X82925129Y-109573394D01*
X82923671Y-109553230D01*
X82922691Y-109543828D01*
X82921531Y-109534852D01*
X82920180Y-109526282D01*
X82918628Y-109518099D01*
X82916866Y-109510282D01*
X82914882Y-109502811D01*
X82912667Y-109495667D01*
X82910211Y-109488829D01*
X82907504Y-109482277D01*
X82904535Y-109475991D01*
X82901295Y-109469952D01*
X82897774Y-109464138D01*
X82893960Y-109458531D01*
X82889845Y-109453110D01*
X82885418Y-109447855D01*
X82880668Y-109442746D01*
X82875587Y-109437763D01*
X82870163Y-109432886D01*
X82864388Y-109428095D01*
X82858249Y-109423370D01*
X82851738Y-109418690D01*
X82844845Y-109414037D01*
X82829870Y-109404728D01*
X82813243Y-109395283D01*
X82812759Y-109395254D01*
X82805769Y-109391501D01*
X82798713Y-109387853D01*
X82791639Y-109384330D01*
X82784595Y-109380951D01*
X82777629Y-109377734D01*
X82770789Y-109374698D01*
X82764123Y-109371861D01*
X82757679Y-109369244D01*
X82751504Y-109366864D01*
X82745647Y-109364740D01*
X82740155Y-109362891D01*
X82735077Y-109361336D01*
X82730460Y-109360094D01*
X82726352Y-109359184D01*
X82722801Y-109358624D01*
X82719855Y-109358433D01*
X82694324Y-109358433D01*
X82632832Y-109562624D01*
X82571294Y-109766814D01*
X80416188Y-109766814D01*
X80435401Y-109743047D01*
X80458159Y-109713302D01*
X80467611Y-109700208D01*
X80475631Y-109688476D01*
X80482109Y-109678238D01*
X80486936Y-109669628D01*
X80525611Y-109594538D01*
X80289984Y-109356521D01*
X80242056Y-109308499D01*
X80196181Y-109263287D01*
X80153449Y-109221896D01*
X80114949Y-109185335D01*
X80081768Y-109154614D01*
X80054997Y-109130742D01*
X80044354Y-109121690D01*
X80035723Y-109114729D01*
X80029237Y-109109985D01*
X80025035Y-109107584D01*
X80020786Y-109105603D01*
X80016366Y-109102778D01*
X80007093Y-109094766D01*
X79997376Y-109083894D01*
X79987375Y-109070509D01*
X79977250Y-109054956D01*
X79967163Y-109037580D01*
X79957275Y-109018727D01*
X79947745Y-108998743D01*
X79938735Y-108977974D01*
X79930405Y-108956765D01*
X79922916Y-108935462D01*
X79916428Y-108914410D01*
X79911102Y-108893955D01*
X79910311Y-108890096D01*
X80029326Y-108890096D01*
X80110080Y-109011236D01*
X80190806Y-109132366D01*
X80364367Y-109281976D01*
X80537928Y-109431594D01*
X80707468Y-109514103D01*
X80877008Y-109596610D01*
X81562819Y-109608282D01*
X82248653Y-109620043D01*
X82248653Y-109482348D01*
X82086444Y-109313685D01*
X81924256Y-109145013D01*
X81820620Y-109123389D01*
X81791981Y-109119032D01*
X81750167Y-109114973D01*
X81697172Y-109111300D01*
X81634990Y-109108101D01*
X81491040Y-109103467D01*
X81334269Y-109101768D01*
X80951597Y-109101768D01*
X80837230Y-109040972D01*
X80722885Y-108980177D01*
X80494818Y-108752491D01*
X80494814Y-108752611D01*
X80405677Y-108664201D01*
X80366268Y-108625536D01*
X80331590Y-108591808D01*
X80302610Y-108563950D01*
X80280295Y-108542897D01*
X80265613Y-108529580D01*
X80261436Y-108526115D01*
X80259531Y-108524934D01*
X80258212Y-108525599D01*
X80255795Y-108527552D01*
X80247913Y-108535055D01*
X80236371Y-108546918D01*
X80221657Y-108562614D01*
X80184660Y-108603405D01*
X80140820Y-108653220D01*
X80029326Y-108781533D01*
X80029326Y-108890096D01*
X79910311Y-108890096D01*
X79907100Y-108874443D01*
X79904580Y-108856220D01*
X79903704Y-108839631D01*
X79903704Y-108765897D01*
X79796621Y-108885635D01*
X79689584Y-109005363D01*
X79689584Y-109226009D01*
X79606144Y-109294224D01*
X79522703Y-109362438D01*
X79365937Y-109323898D01*
X79311982Y-109257583D01*
X79258071Y-109191268D01*
X79258071Y-109037649D01*
X79339530Y-108965726D01*
X79363420Y-108944398D01*
X79385807Y-108923893D01*
X79406764Y-108904125D01*
X79426364Y-108885003D01*
X79444683Y-108866440D01*
X79461793Y-108848348D01*
X79477769Y-108830637D01*
X79492684Y-108813219D01*
X79506612Y-108796006D01*
X79519626Y-108778909D01*
X79531802Y-108761840D01*
X79543212Y-108744709D01*
X79553930Y-108727429D01*
X79564030Y-108709911D01*
X79573586Y-108692067D01*
X79582672Y-108673808D01*
X79627137Y-108581129D01*
X79618799Y-108546597D01*
X79690869Y-108546597D01*
X79760224Y-108612640D01*
X79767609Y-108619457D01*
X79775414Y-108626272D01*
X79783572Y-108633042D01*
X79792016Y-108639723D01*
X79800680Y-108646273D01*
X79809495Y-108652647D01*
X79818394Y-108658802D01*
X79827312Y-108664695D01*
X79836179Y-108670280D01*
X79844931Y-108675516D01*
X79853498Y-108680358D01*
X79861814Y-108684763D01*
X79869812Y-108688688D01*
X79877426Y-108692088D01*
X79884587Y-108694919D01*
X79891228Y-108697140D01*
X79952883Y-108715776D01*
X80071524Y-108601386D01*
X80190210Y-108486996D01*
X80209983Y-108415328D01*
X80307252Y-108415328D01*
X80515304Y-108627290D01*
X80559774Y-108671582D01*
X80606430Y-108716220D01*
X80653881Y-108759989D01*
X80700736Y-108801676D01*
X80745604Y-108840066D01*
X80787096Y-108873944D01*
X80823819Y-108902096D01*
X80839958Y-108913645D01*
X80854384Y-108923307D01*
X80985365Y-109007354D01*
X80985365Y-108978401D01*
X81327381Y-108978401D01*
X81327431Y-108981811D01*
X81327868Y-108984930D01*
X81328701Y-108987772D01*
X81329936Y-108990348D01*
X81331582Y-108992672D01*
X81333644Y-108994754D01*
X81336132Y-108996609D01*
X81339052Y-108998249D01*
X81342411Y-108999685D01*
X81346217Y-109000931D01*
X81350478Y-109001999D01*
X81355200Y-109002902D01*
X81366061Y-109004261D01*
X81378857Y-109005107D01*
X81393649Y-109005542D01*
X81410495Y-109005665D01*
X81497084Y-109005665D01*
X81552053Y-108963868D01*
X81552037Y-108963840D01*
X81607006Y-108922044D01*
X81495880Y-108886579D01*
X81397587Y-108855204D01*
X82698436Y-108855204D01*
X82766388Y-108881348D01*
X82834385Y-108907494D01*
X82888296Y-108887501D01*
X82893993Y-108885305D01*
X82899936Y-108882842D01*
X82906077Y-108880138D01*
X82912368Y-108877220D01*
X82925209Y-108870849D01*
X82938076Y-108863945D01*
X82950588Y-108856723D01*
X82962362Y-108849398D01*
X82967853Y-108845764D01*
X82973015Y-108842186D01*
X82977802Y-108838689D01*
X82982166Y-108835300D01*
X83022144Y-108803094D01*
X82982166Y-108776676D01*
X82982160Y-108776586D01*
X82972480Y-108770522D01*
X82963164Y-108765407D01*
X82954066Y-108761262D01*
X82945041Y-108758109D01*
X82935943Y-108755970D01*
X82926627Y-108754867D01*
X82916948Y-108754822D01*
X82906759Y-108755857D01*
X82895917Y-108757993D01*
X82884274Y-108761253D01*
X82871686Y-108765658D01*
X82858008Y-108771230D01*
X82843093Y-108777991D01*
X82826797Y-108785963D01*
X82808975Y-108795168D01*
X82789479Y-108805627D01*
X82698436Y-108855204D01*
X81397587Y-108855204D01*
X81384776Y-108851115D01*
X81354332Y-108910282D01*
X81346579Y-108925581D01*
X81340052Y-108939168D01*
X81334810Y-108951143D01*
X81330911Y-108961607D01*
X81329484Y-108966304D01*
X81328415Y-108970660D01*
X81327711Y-108974688D01*
X81327381Y-108978401D01*
X80985365Y-108978401D01*
X80985365Y-108748537D01*
X81060645Y-108718772D01*
X81135952Y-108689007D01*
X80999018Y-108476657D01*
X80971509Y-108433151D01*
X80945846Y-108390911D01*
X80922591Y-108350978D01*
X80902306Y-108314397D01*
X80893453Y-108297688D01*
X80885552Y-108282208D01*
X80878674Y-108268086D01*
X80872889Y-108255454D01*
X80868268Y-108244440D01*
X80864880Y-108235176D01*
X80862796Y-108227792D01*
X80862265Y-108224846D01*
X80862086Y-108222418D01*
X80861674Y-108222472D01*
X80861474Y-108217722D01*
X80860885Y-108212152D01*
X80859929Y-108205833D01*
X80858625Y-108198833D01*
X80855054Y-108183071D01*
X80850333Y-108165423D01*
X80844619Y-108146445D01*
X80838075Y-108126694D01*
X80830860Y-108106728D01*
X80823133Y-108087102D01*
X80784603Y-107993602D01*
X80685172Y-108063625D01*
X80585719Y-108133740D01*
X80469468Y-108156448D01*
X80353192Y-108179156D01*
X80330439Y-108216249D01*
X80328099Y-108220452D01*
X80325819Y-108225360D01*
X80323613Y-108230913D01*
X80321492Y-108237050D01*
X80319469Y-108243711D01*
X80317556Y-108250837D01*
X80315767Y-108258366D01*
X80314113Y-108266239D01*
X80312607Y-108274395D01*
X80311261Y-108282774D01*
X80310088Y-108291315D01*
X80309100Y-108299960D01*
X80308310Y-108308647D01*
X80307731Y-108317315D01*
X80307374Y-108325906D01*
X80307252Y-108334358D01*
X80307252Y-108415328D01*
X80209983Y-108415328D01*
X80217966Y-108386395D01*
X80223544Y-108365207D01*
X80228743Y-108343536D01*
X80233449Y-108321992D01*
X80237551Y-108301183D01*
X80240936Y-108281721D01*
X80243490Y-108264215D01*
X80245102Y-108249274D01*
X80245520Y-108242956D01*
X80245659Y-108237508D01*
X80245567Y-108189198D01*
X80147584Y-108181957D01*
X80147481Y-108182069D01*
X80049475Y-108174829D01*
X79932833Y-108056350D01*
X79870521Y-107993082D01*
X80895989Y-107993082D01*
X80896567Y-108020305D01*
X80900517Y-108050734D01*
X80907690Y-108083973D01*
X80917936Y-108119627D01*
X80931105Y-108157298D01*
X80947046Y-108196590D01*
X80965611Y-108237108D01*
X80986650Y-108278454D01*
X81010012Y-108320234D01*
X81035548Y-108362049D01*
X81063107Y-108403505D01*
X81092540Y-108444204D01*
X81123698Y-108483751D01*
X81227725Y-108610129D01*
X81435387Y-108716413D01*
X81643050Y-108822733D01*
X81791357Y-108783198D01*
X81939618Y-108743662D01*
X82167617Y-108765917D01*
X82395571Y-108788172D01*
X82416714Y-108752798D01*
X82437856Y-108717335D01*
X82362784Y-108717335D01*
X82343050Y-108716239D01*
X82315676Y-108713098D01*
X82281904Y-108708132D01*
X82242971Y-108701559D01*
X82200118Y-108693599D01*
X82154583Y-108684472D01*
X82112008Y-108675342D01*
X82525519Y-108675342D01*
X82546426Y-108696965D01*
X82549006Y-108699176D01*
X82552408Y-108701323D01*
X82556578Y-108703395D01*
X82561458Y-108705381D01*
X82566994Y-108707271D01*
X82573130Y-108709054D01*
X82579809Y-108710719D01*
X82586977Y-108712254D01*
X82594577Y-108713649D01*
X82602554Y-108714894D01*
X82610853Y-108715977D01*
X82619416Y-108716888D01*
X82628189Y-108717615D01*
X82637116Y-108718147D01*
X82646141Y-108718475D01*
X82655209Y-108718587D01*
X82743127Y-108718587D01*
X82981420Y-108479168D01*
X82981337Y-108477797D01*
X83219609Y-108238378D01*
X83111723Y-108241088D01*
X83099970Y-108241465D01*
X83087057Y-108242307D01*
X83058270Y-108245288D01*
X83026406Y-108249836D01*
X82992508Y-108255756D01*
X82957619Y-108262849D01*
X82922782Y-108270922D01*
X82889039Y-108279777D01*
X82857435Y-108289218D01*
X82710989Y-108335991D01*
X82710989Y-108432432D01*
X82770645Y-108399229D01*
X82776917Y-108395844D01*
X82783405Y-108392555D01*
X82790058Y-108389379D01*
X82796825Y-108386331D01*
X82803655Y-108383430D01*
X82810499Y-108380692D01*
X82817305Y-108378135D01*
X82824022Y-108375774D01*
X82830600Y-108373628D01*
X82836988Y-108371713D01*
X82843135Y-108370046D01*
X82848991Y-108368644D01*
X82854505Y-108367524D01*
X82859627Y-108366703D01*
X82864305Y-108366198D01*
X82868489Y-108366026D01*
X82906685Y-108366026D01*
X82834301Y-108446182D01*
X82761916Y-108526339D01*
X82660093Y-108526339D01*
X82592783Y-108600886D01*
X82525519Y-108675342D01*
X82112008Y-108675342D01*
X82107606Y-108674398D01*
X82060425Y-108663595D01*
X81833162Y-108609856D01*
X82033517Y-108518562D01*
X82075335Y-108499287D01*
X82117390Y-108479489D01*
X82158544Y-108459730D01*
X82197659Y-108440574D01*
X82233594Y-108422584D01*
X82265213Y-108406323D01*
X82291375Y-108392353D01*
X82310943Y-108381239D01*
X82387997Y-108335280D01*
X82378117Y-108245806D01*
X82376618Y-108235660D01*
X82374200Y-108223758D01*
X82366819Y-108195285D01*
X82356401Y-108161574D01*
X82343373Y-108123816D01*
X82328161Y-108083197D01*
X82311194Y-108040907D01*
X82292898Y-107998134D01*
X82273699Y-107956067D01*
X82179140Y-107755730D01*
X81971846Y-107755730D01*
X81971846Y-107789384D01*
X81972065Y-107793263D01*
X81972709Y-107797914D01*
X81973755Y-107803276D01*
X81975182Y-107809286D01*
X81979093Y-107823007D01*
X81984268Y-107838583D01*
X81990535Y-107855522D01*
X81997719Y-107873330D01*
X82005649Y-107891515D01*
X82014150Y-107909583D01*
X82023118Y-107928603D01*
X82032358Y-107949512D01*
X82041608Y-107971624D01*
X82050607Y-107994255D01*
X82059094Y-108016719D01*
X82066810Y-108038334D01*
X82073492Y-108058413D01*
X82078881Y-108076273D01*
X82101173Y-108156339D01*
X81965206Y-107998380D01*
X81829193Y-107840446D01*
X81776963Y-108060496D01*
X81724753Y-108280537D01*
X81763474Y-108306049D01*
X81802213Y-108331651D01*
X81636192Y-108331651D01*
X81525249Y-108263528D01*
X81414283Y-108195405D01*
X81435192Y-108050590D01*
X81456099Y-107905756D01*
X81421106Y-107928284D01*
X81386129Y-107950811D01*
X81386129Y-107923217D01*
X81386300Y-107920242D01*
X81386801Y-107917004D01*
X81387615Y-107913534D01*
X81388725Y-107909863D01*
X81390113Y-107906023D01*
X81391763Y-107902046D01*
X81393657Y-107897962D01*
X81395779Y-107893804D01*
X81398110Y-107889601D01*
X81400635Y-107885387D01*
X81403335Y-107881192D01*
X81406193Y-107877048D01*
X81409193Y-107872986D01*
X81412318Y-107869038D01*
X81415549Y-107865234D01*
X81418870Y-107861607D01*
X81451638Y-107827592D01*
X81357241Y-107808050D01*
X81262841Y-107788509D01*
X81262841Y-107642671D01*
X81291449Y-107693515D01*
X81320037Y-107744359D01*
X81621868Y-107688901D01*
X81685019Y-107676723D01*
X81748808Y-107663311D01*
X81811492Y-107649103D01*
X81871326Y-107634542D01*
X81926566Y-107620067D01*
X81975468Y-107606119D01*
X82016287Y-107593139D01*
X82033121Y-107587150D01*
X82047280Y-107581567D01*
X82170839Y-107529637D01*
X82206800Y-107410144D01*
X82210403Y-107397908D01*
X82213792Y-107385901D01*
X82216956Y-107374191D01*
X82219882Y-107362843D01*
X82222557Y-107351925D01*
X82224969Y-107341503D01*
X82227104Y-107331645D01*
X82228951Y-107322415D01*
X82230496Y-107313883D01*
X82231727Y-107306113D01*
X82232631Y-107299173D01*
X82233196Y-107293129D01*
X82233409Y-107288049D01*
X82233256Y-107283998D01*
X82233039Y-107282380D01*
X82232727Y-107281044D01*
X82232316Y-107279999D01*
X82231807Y-107279253D01*
X82229925Y-107278302D01*
X82226582Y-107277780D01*
X82221862Y-107277673D01*
X82215844Y-107277968D01*
X82200247Y-107279706D01*
X82180444Y-107282883D01*
X82157090Y-107287387D01*
X82130839Y-107293108D01*
X82102344Y-107299933D01*
X82072261Y-107307751D01*
X81923678Y-107347649D01*
X81623181Y-107360947D01*
X81322638Y-107374246D01*
X81322638Y-107341134D01*
X81322727Y-107339389D01*
X81322994Y-107337566D01*
X81323432Y-107335671D01*
X81324038Y-107333707D01*
X81325736Y-107329593D01*
X81328052Y-107325262D01*
X81330952Y-107320751D01*
X81334400Y-107316097D01*
X81338360Y-107311336D01*
X81342799Y-107306507D01*
X81347680Y-107301645D01*
X81352969Y-107296790D01*
X81358630Y-107291976D01*
X81364629Y-107287242D01*
X81370930Y-107282625D01*
X81377498Y-107278161D01*
X81384298Y-107273889D01*
X81391295Y-107269844D01*
X81459961Y-107231666D01*
X81398994Y-107206877D01*
X81400744Y-107208402D01*
X81393844Y-107205862D01*
X81385783Y-107203403D01*
X81366575Y-107198755D01*
X81343915Y-107194514D01*
X81318600Y-107190736D01*
X81291427Y-107187475D01*
X81263189Y-107184788D01*
X81234685Y-107182728D01*
X81206709Y-107181351D01*
X81073637Y-107178642D01*
X81088573Y-107234733D01*
X81092014Y-107251062D01*
X81096032Y-107276101D01*
X81105217Y-107347305D01*
X81114962Y-107438349D01*
X81124101Y-107539236D01*
X81144556Y-107787640D01*
X81082168Y-107787640D01*
X81068154Y-107843731D01*
X81054142Y-107899823D01*
X81050701Y-107811705D01*
X81046991Y-107723587D01*
X81018248Y-107723587D01*
X81015843Y-107723884D01*
X81013312Y-107724757D01*
X81010670Y-107726181D01*
X81007927Y-107728128D01*
X81002192Y-107733490D01*
X80996204Y-107740635D01*
X80990063Y-107749352D01*
X80983867Y-107759434D01*
X80977716Y-107770669D01*
X80971708Y-107782850D01*
X80965941Y-107795766D01*
X80960514Y-107809209D01*
X80955526Y-107822969D01*
X80951076Y-107836837D01*
X80947262Y-107850603D01*
X80944183Y-107864059D01*
X80941938Y-107876995D01*
X80940625Y-107889202D01*
X80940350Y-107891506D01*
X80939846Y-107893992D01*
X80939126Y-107896636D01*
X80938202Y-107899415D01*
X80937088Y-107902305D01*
X80935797Y-107905281D01*
X80934342Y-107908321D01*
X80932735Y-107911401D01*
X80930990Y-107914496D01*
X80929120Y-107917584D01*
X80927137Y-107920640D01*
X80925054Y-107923641D01*
X80922885Y-107926562D01*
X80920643Y-107929382D01*
X80918340Y-107932074D01*
X80915990Y-107934617D01*
X80910283Y-107941655D01*
X80905551Y-107949842D01*
X80901774Y-107959128D01*
X80898934Y-107969463D01*
X80897012Y-107980797D01*
X80895989Y-107993082D01*
X79870521Y-107993082D01*
X79816169Y-107937897D01*
X79795262Y-107999416D01*
X79783809Y-108031841D01*
X79768180Y-108074634D01*
X79750413Y-108122226D01*
X79732548Y-108169048D01*
X79690869Y-108277141D01*
X79690869Y-108546597D01*
X79618799Y-108546597D01*
X79588995Y-108423169D01*
X79643268Y-108241813D01*
X79655046Y-108203605D01*
X79667742Y-108164540D01*
X79680955Y-108125716D01*
X79694285Y-108088231D01*
X79707332Y-108053184D01*
X79719694Y-108021673D01*
X79730973Y-107994796D01*
X79740768Y-107973651D01*
X79783968Y-107886891D01*
X79780421Y-107878059D01*
X80445979Y-107878059D01*
X80466434Y-107899863D01*
X80486889Y-107921666D01*
X80551159Y-107885931D01*
X80615456Y-107850105D01*
X80615456Y-107776281D01*
X80707924Y-107868407D01*
X80800392Y-107960532D01*
X80800392Y-107762195D01*
X80800536Y-107762403D01*
X80800372Y-107722567D01*
X80799905Y-107685421D01*
X80799171Y-107651778D01*
X80798206Y-107622447D01*
X80797046Y-107598239D01*
X80795727Y-107579966D01*
X80795019Y-107573307D01*
X80794285Y-107568437D01*
X80793529Y-107565455D01*
X80793145Y-107564704D01*
X80792756Y-107564464D01*
X80791090Y-107565315D01*
X80787745Y-107567735D01*
X80776383Y-107576966D01*
X80737512Y-107610727D01*
X80681954Y-107660597D01*
X80615519Y-107721429D01*
X80445979Y-107878059D01*
X79780421Y-107878059D01*
X79735621Y-107766520D01*
X79687246Y-107646205D01*
X79668175Y-107455937D01*
X79649104Y-107265670D01*
X79794194Y-107282679D01*
X79809074Y-107284503D01*
X79823720Y-107286467D01*
X79851980Y-107290747D01*
X79878305Y-107295376D01*
X79890534Y-107297775D01*
X79902030Y-107300207D01*
X79912708Y-107302654D01*
X79922486Y-107305098D01*
X79931280Y-107307521D01*
X79939007Y-107309905D01*
X79945584Y-107312231D01*
X79950926Y-107314482D01*
X79954952Y-107316640D01*
X79956444Y-107317678D01*
X79957576Y-107318686D01*
X79975724Y-107337775D01*
X79935836Y-107387804D01*
X79895903Y-107437833D01*
X79983894Y-107533306D01*
X80071885Y-107628815D01*
X80080625Y-107611688D01*
X80232117Y-107611688D01*
X80323643Y-107629601D01*
X80415168Y-107647514D01*
X80420828Y-107635370D01*
X80533952Y-107635370D01*
X80534433Y-107639166D01*
X80535426Y-107642243D01*
X80536934Y-107644605D01*
X80538959Y-107646252D01*
X80541501Y-107647186D01*
X80544564Y-107647411D01*
X80548148Y-107646927D01*
X80552256Y-107645736D01*
X80556889Y-107643842D01*
X80562048Y-107641245D01*
X80567737Y-107637948D01*
X80573956Y-107633953D01*
X80580707Y-107629261D01*
X80595812Y-107617797D01*
X80613067Y-107603572D01*
X80632485Y-107586602D01*
X80718241Y-107509884D01*
X80698709Y-107456778D01*
X80698641Y-107456778D01*
X80692877Y-107442543D01*
X80689932Y-107436314D01*
X80686943Y-107430679D01*
X80683906Y-107425639D01*
X80680819Y-107421196D01*
X80677678Y-107417352D01*
X80674480Y-107414106D01*
X80671224Y-107411462D01*
X80667906Y-107409420D01*
X80664523Y-107407982D01*
X80661073Y-107407150D01*
X80657552Y-107406923D01*
X80653959Y-107407305D01*
X80650289Y-107408297D01*
X80646541Y-107409899D01*
X80642712Y-107412113D01*
X80638798Y-107414941D01*
X80634797Y-107418384D01*
X80630706Y-107422443D01*
X80626523Y-107427120D01*
X80622244Y-107432416D01*
X80613389Y-107444872D01*
X80604118Y-107459822D01*
X80594410Y-107477276D01*
X80584241Y-107497247D01*
X80573589Y-107519745D01*
X80562022Y-107545633D01*
X80552422Y-107568552D01*
X80544805Y-107588518D01*
X80539183Y-107605546D01*
X80537125Y-107612963D01*
X80535571Y-107619652D01*
X80534523Y-107625615D01*
X80533983Y-107630854D01*
X80533952Y-107635370D01*
X80420828Y-107635370D01*
X80468293Y-107533514D01*
X80479003Y-107509793D01*
X80489055Y-107486086D01*
X80498210Y-107463023D01*
X80506232Y-107441235D01*
X80512884Y-107421352D01*
X80515622Y-107412321D01*
X80517928Y-107404004D01*
X80519774Y-107396477D01*
X80521129Y-107389821D01*
X80521964Y-107384114D01*
X80522247Y-107379459D01*
X80522251Y-107379607D01*
X80522248Y-107379435D01*
X80522247Y-107379459D01*
X80521877Y-107367292D01*
X80521204Y-107362032D01*
X80520206Y-107357371D01*
X80518879Y-107353312D01*
X80517221Y-107349854D01*
X80515229Y-107347000D01*
X80512902Y-107344751D01*
X80510237Y-107343109D01*
X80507232Y-107342073D01*
X80503884Y-107341647D01*
X80500192Y-107341830D01*
X80496152Y-107342625D01*
X80491762Y-107344032D01*
X80487021Y-107346054D01*
X80481926Y-107348691D01*
X80470664Y-107355815D01*
X80457957Y-107365416D01*
X80443787Y-107377504D01*
X80428136Y-107392090D01*
X80410985Y-107409183D01*
X80392315Y-107428794D01*
X80372108Y-107450934D01*
X80350345Y-107475613D01*
X80232117Y-107611688D01*
X80080625Y-107611688D01*
X80092567Y-107588286D01*
X80097440Y-107575890D01*
X80103357Y-107556103D01*
X80110086Y-107529948D01*
X80117395Y-107498444D01*
X80125053Y-107462616D01*
X80130427Y-107435571D01*
X80220557Y-107435571D01*
X80244938Y-107435571D01*
X80246258Y-107435465D01*
X80247693Y-107435151D01*
X80250890Y-107433918D01*
X80254491Y-107431913D01*
X80258456Y-107429178D01*
X80262748Y-107425754D01*
X80267327Y-107421683D01*
X80272155Y-107417007D01*
X80277193Y-107411766D01*
X80282403Y-107406003D01*
X80287746Y-107399759D01*
X80293183Y-107393074D01*
X80298675Y-107385992D01*
X80304184Y-107378553D01*
X80309672Y-107370799D01*
X80315099Y-107362771D01*
X80320427Y-107354511D01*
X80371507Y-107273450D01*
X80352897Y-107242328D01*
X80352984Y-107242319D01*
X80346584Y-107232491D01*
X80343405Y-107228313D01*
X80340238Y-107224626D01*
X80337084Y-107221430D01*
X80333940Y-107218728D01*
X80330807Y-107216518D01*
X80327684Y-107214802D01*
X80324569Y-107213581D01*
X80321463Y-107212854D01*
X80318364Y-107212623D01*
X80315271Y-107212889D01*
X80312185Y-107213651D01*
X80309104Y-107214911D01*
X80306027Y-107216669D01*
X80302954Y-107218925D01*
X80299884Y-107221681D01*
X80296816Y-107224938D01*
X80293749Y-107228694D01*
X80290683Y-107232952D01*
X80284550Y-107242975D01*
X80278411Y-107255010D01*
X80272259Y-107269063D01*
X80266089Y-107285139D01*
X80259894Y-107303243D01*
X80253669Y-107323380D01*
X80220557Y-107435571D01*
X80130427Y-107435571D01*
X80132829Y-107423483D01*
X80140491Y-107382068D01*
X80147808Y-107339394D01*
X80182276Y-107131042D01*
X80113111Y-107073865D01*
X80083802Y-107051402D01*
X80048969Y-107027772D01*
X80009111Y-107003194D01*
X79964727Y-106977890D01*
X79864374Y-106925979D01*
X79751901Y-106873799D01*
X79631296Y-106823110D01*
X79506549Y-106775671D01*
X79381650Y-106733242D01*
X79260588Y-106697583D01*
X79124572Y-106661033D01*
X79214373Y-106585038D01*
X79223522Y-106577732D01*
X80442422Y-106577732D01*
X80442619Y-106579030D01*
X80444584Y-106582877D01*
X80448560Y-106588315D01*
X80454449Y-106595248D01*
X80471560Y-106613226D01*
X80495119Y-106636057D01*
X80524324Y-106662985D01*
X80558375Y-106693258D01*
X80596471Y-106726121D01*
X80637813Y-106760819D01*
X80844855Y-106932314D01*
X81039511Y-107027651D01*
X81234169Y-107122971D01*
X81477034Y-107108495D01*
X81719923Y-107093748D01*
X81775553Y-107052676D01*
X81780521Y-107049172D01*
X81783976Y-107047108D01*
X81785958Y-107046437D01*
X81786410Y-107046610D01*
X81786509Y-107047114D01*
X81785669Y-107049091D01*
X81783479Y-107052323D01*
X81779978Y-107056762D01*
X81775209Y-107062363D01*
X81762026Y-107076865D01*
X81744254Y-107095457D01*
X81722219Y-107117767D01*
X81696247Y-107143426D01*
X81561267Y-107275294D01*
X81603779Y-107279814D01*
X81625081Y-107281493D01*
X81648430Y-107282267D01*
X81673703Y-107282154D01*
X81700777Y-107281170D01*
X81759835Y-107276661D01*
X81824616Y-107268879D01*
X81894136Y-107257963D01*
X81967409Y-107244052D01*
X82043448Y-107227285D01*
X82121268Y-107207800D01*
X82167636Y-107195611D01*
X82211846Y-107184245D01*
X82252864Y-107173951D01*
X82289653Y-107164974D01*
X82321180Y-107157562D01*
X82346409Y-107151962D01*
X82364304Y-107148421D01*
X82370178Y-107147499D01*
X82373831Y-107147186D01*
X82398050Y-107147186D01*
X82319712Y-107325067D01*
X82241419Y-107502948D01*
X82261178Y-107584733D01*
X82263541Y-107593553D01*
X82266520Y-107603089D01*
X82270073Y-107613249D01*
X82274154Y-107623944D01*
X82278719Y-107635083D01*
X82283723Y-107646577D01*
X82294873Y-107670262D01*
X82307247Y-107694278D01*
X82320489Y-107717902D01*
X82327325Y-107729340D01*
X82334244Y-107740409D01*
X82341203Y-107751018D01*
X82348156Y-107761077D01*
X82415438Y-107855654D01*
X82371569Y-107883790D01*
X82327774Y-107911927D01*
X82407441Y-108120758D01*
X82487136Y-108329599D01*
X82436608Y-108375738D01*
X82430774Y-108380788D01*
X82423758Y-108386401D01*
X82406559Y-108399076D01*
X82385762Y-108413291D01*
X82362115Y-108428572D01*
X82336367Y-108444447D01*
X82309269Y-108460443D01*
X82281569Y-108476087D01*
X82254016Y-108490907D01*
X82121887Y-108560026D01*
X82140270Y-108590876D01*
X82158654Y-108621726D01*
X82266771Y-108621726D01*
X82293935Y-108621277D01*
X82319004Y-108619801D01*
X82342250Y-108617103D01*
X82363945Y-108612991D01*
X82374295Y-108610345D01*
X82384360Y-108607272D01*
X82394173Y-108603748D01*
X82403768Y-108599750D01*
X82413179Y-108595253D01*
X82422441Y-108590233D01*
X82431587Y-108584666D01*
X82440651Y-108578528D01*
X82449667Y-108571794D01*
X82458670Y-108564440D01*
X82476770Y-108547776D01*
X82495223Y-108528343D01*
X82514302Y-108505947D01*
X82534278Y-108480393D01*
X82555423Y-108451490D01*
X82578011Y-108419043D01*
X82602311Y-108382858D01*
X82720079Y-108205040D01*
X82830354Y-108205040D01*
X82851035Y-108089890D01*
X82871717Y-107974749D01*
X82851261Y-107768070D01*
X82830806Y-107561419D01*
X82726666Y-107234153D01*
X82690489Y-107121646D01*
X82657476Y-107021672D01*
X82626743Y-106931810D01*
X82597407Y-106849640D01*
X82568584Y-106772743D01*
X82539390Y-106698698D01*
X82508941Y-106625086D01*
X82476353Y-106549487D01*
X82467479Y-106528614D01*
X82459191Y-106508008D01*
X82451673Y-106488202D01*
X82445110Y-106469726D01*
X82439684Y-106453113D01*
X82437456Y-106445670D01*
X82435581Y-106438892D01*
X82434083Y-106432845D01*
X82432985Y-106427595D01*
X82432309Y-106423209D01*
X82432078Y-106419753D01*
X82431478Y-106416231D01*
X82429719Y-106411627D01*
X82426858Y-106406016D01*
X82422957Y-106399472D01*
X82418073Y-106392069D01*
X82412266Y-106383882D01*
X82398122Y-106365452D01*
X82380998Y-106344775D01*
X82361369Y-106322446D01*
X82339709Y-106299059D01*
X82316492Y-106275209D01*
X82200884Y-106159371D01*
X82081531Y-106108437D01*
X82081749Y-106106709D01*
X81962397Y-106055774D01*
X81865976Y-106059394D01*
X81843777Y-106060877D01*
X81817596Y-106063913D01*
X81788399Y-106068317D01*
X81757148Y-106073903D01*
X81724807Y-106080486D01*
X81692339Y-106087879D01*
X81660708Y-106095899D01*
X81630877Y-106104358D01*
X81492153Y-106146155D01*
X81561507Y-106149775D01*
X81630879Y-106153395D01*
X81630879Y-106178003D01*
X81629915Y-106182078D01*
X81627051Y-106186601D01*
X81615791Y-106196924D01*
X81597435Y-106208852D01*
X81572317Y-106222262D01*
X81503138Y-106253048D01*
X81410937Y-106288312D01*
X81298396Y-106327083D01*
X81168198Y-106368391D01*
X81023025Y-106411267D01*
X80865559Y-106454741D01*
X80705115Y-106498259D01*
X80571939Y-106535714D01*
X80519903Y-106550952D01*
X80479875Y-106563215D01*
X80453586Y-106572015D01*
X80446134Y-106574965D01*
X80442766Y-106576867D01*
X80442422Y-106577732D01*
X79223522Y-106577732D01*
X79247692Y-106558430D01*
X79284913Y-106531577D01*
X79325748Y-106504610D01*
X79369907Y-106477660D01*
X79417102Y-106450857D01*
X79467045Y-106424334D01*
X79519447Y-106398221D01*
X79574019Y-106372649D01*
X79630474Y-106347749D01*
X79688521Y-106323651D01*
X79747873Y-106300488D01*
X79808241Y-106278389D01*
X79869336Y-106257487D01*
X79930870Y-106237911D01*
X79992554Y-106219793D01*
X80054100Y-106203264D01*
X80249260Y-106153416D01*
X80887758Y-106153416D01*
X80920425Y-106105363D01*
X80993187Y-106105363D01*
X81037608Y-106116399D01*
X81042632Y-106117432D01*
X81048504Y-106118229D01*
X81055152Y-106118794D01*
X81062503Y-106119132D01*
X81079024Y-106119149D01*
X81097485Y-106118320D01*
X81117305Y-106116685D01*
X81137904Y-106114285D01*
X81158700Y-106111160D01*
X81179113Y-106107349D01*
X81276200Y-106087355D01*
X81302998Y-106044484D01*
X81414924Y-106044484D01*
X81524328Y-106031185D01*
X81633731Y-106017886D01*
X81839946Y-105693027D01*
X81992911Y-105451575D01*
X82042304Y-105372318D01*
X82080135Y-105309688D01*
X82111280Y-105255426D01*
X82140612Y-105201266D01*
X82213334Y-105060209D01*
X82234863Y-105016925D01*
X82255844Y-104972433D01*
X82275758Y-104928004D01*
X82294082Y-104884904D01*
X82310294Y-104844401D01*
X82323874Y-104807765D01*
X82334300Y-104776263D01*
X82338168Y-104762834D01*
X82341009Y-104751335D01*
X82341033Y-104751239D01*
X82363991Y-104647168D01*
X82336416Y-104647168D01*
X82335001Y-104647202D01*
X82333603Y-104647304D01*
X82332225Y-104647471D01*
X82330869Y-104647702D01*
X82329536Y-104647995D01*
X82328228Y-104648349D01*
X82326947Y-104648762D01*
X82325695Y-104649232D01*
X82324473Y-104649758D01*
X82323283Y-104650337D01*
X82322127Y-104650970D01*
X82321007Y-104651652D01*
X82319924Y-104652384D01*
X82318881Y-104653164D01*
X82317878Y-104653989D01*
X82316918Y-104654858D01*
X82316003Y-104655769D01*
X82315134Y-104656721D01*
X82314313Y-104657713D01*
X82313542Y-104658742D01*
X82312822Y-104659806D01*
X82312156Y-104660905D01*
X82311544Y-104662036D01*
X82310990Y-104663198D01*
X82310494Y-104664389D01*
X82310059Y-104665608D01*
X82309685Y-104666852D01*
X82309376Y-104668121D01*
X82309132Y-104669412D01*
X82308956Y-104670724D01*
X82308849Y-104672055D01*
X82308813Y-104673404D01*
X82308213Y-104676932D01*
X82306454Y-104682029D01*
X82303593Y-104688599D01*
X82299692Y-104696542D01*
X82289001Y-104716163D01*
X82274857Y-104740109D01*
X82257733Y-104767602D01*
X82238104Y-104797861D01*
X82216444Y-104830105D01*
X82193228Y-104863553D01*
X82131319Y-104952717D01*
X82048212Y-105074381D01*
X81861868Y-105351195D01*
X81768961Y-105489940D01*
X81675518Y-105628344D01*
X81592410Y-105750367D01*
X81530510Y-105839968D01*
X81507288Y-105873519D01*
X81485625Y-105905609D01*
X81465996Y-105935476D01*
X81448873Y-105962355D01*
X81434731Y-105985486D01*
X81428926Y-105995408D01*
X81424043Y-106004106D01*
X81420142Y-106011486D01*
X81417283Y-106017452D01*
X81415524Y-106021909D01*
X81415075Y-106023541D01*
X81414924Y-106024761D01*
X81414924Y-106044484D01*
X81302998Y-106044484D01*
X81420784Y-105856051D01*
X81489227Y-105748508D01*
X81568720Y-105626740D01*
X81649398Y-105505697D01*
X81721398Y-105400327D01*
X81847093Y-105218326D01*
X81897388Y-105144644D01*
X81930186Y-105095833D01*
X81958323Y-105054609D01*
X81995930Y-105001599D01*
X82038104Y-104943622D01*
X82079941Y-104887498D01*
X82100523Y-104859943D01*
X82121857Y-104830759D01*
X82143324Y-104800834D01*
X82164304Y-104771054D01*
X82184179Y-104742306D01*
X82202330Y-104715478D01*
X82218137Y-104691457D01*
X82230983Y-104671130D01*
X82230982Y-104671008D01*
X82251820Y-104636844D01*
X82259700Y-104623357D01*
X82265705Y-104612229D01*
X82269696Y-104603431D01*
X82270893Y-104599897D01*
X82271536Y-104596934D01*
X82271606Y-104594539D01*
X82271086Y-104592709D01*
X82269960Y-104591439D01*
X82268210Y-104590727D01*
X82265819Y-104590569D01*
X82262770Y-104590960D01*
X82259045Y-104591899D01*
X82254628Y-104593380D01*
X82243645Y-104597956D01*
X82229685Y-104604661D01*
X82212610Y-104613466D01*
X82192282Y-104624341D01*
X82141317Y-104652190D01*
X82020102Y-104718595D01*
X81886638Y-104867092D01*
X81852083Y-104908033D01*
X81804851Y-104967728D01*
X81680780Y-105132002D01*
X81531271Y-105337157D01*
X81373170Y-105560435D01*
X80993187Y-106105363D01*
X80920425Y-106105363D01*
X81205605Y-105685867D01*
X81408028Y-105390286D01*
X81494570Y-105266237D01*
X81572698Y-105156474D01*
X81643435Y-105059841D01*
X81707805Y-104975182D01*
X81766831Y-104901339D01*
X81821537Y-104837158D01*
X81872948Y-104781481D01*
X81897737Y-104756471D01*
X81922086Y-104733153D01*
X81946123Y-104711383D01*
X81969975Y-104691016D01*
X81993772Y-104671909D01*
X82017640Y-104653916D01*
X82041707Y-104636893D01*
X82066103Y-104620695D01*
X82116388Y-104590197D01*
X82169520Y-104561267D01*
X82226521Y-104532747D01*
X82225914Y-104532883D01*
X82258533Y-104517315D01*
X82289881Y-104502778D01*
X82319205Y-104489593D01*
X82345749Y-104478077D01*
X82368761Y-104468550D01*
X82387485Y-104461329D01*
X82395004Y-104458683D01*
X82401168Y-104456732D01*
X82405884Y-104455518D01*
X82409056Y-104455080D01*
X82432171Y-104455080D01*
X82432171Y-104538312D01*
X82431113Y-104564987D01*
X82428029Y-104595011D01*
X82423056Y-104627952D01*
X82416327Y-104663378D01*
X82407980Y-104700858D01*
X82398150Y-104739957D01*
X82386972Y-104780246D01*
X82374583Y-104821290D01*
X82361117Y-104862659D01*
X82346710Y-104903920D01*
X82331498Y-104944641D01*
X82315616Y-104984389D01*
X82299201Y-105022734D01*
X82282388Y-105059241D01*
X82265311Y-105093480D01*
X82248108Y-105125018D01*
X82197917Y-105209312D01*
X82123737Y-105329827D01*
X82035567Y-105470478D01*
X81943405Y-105615183D01*
X81899168Y-105684722D01*
X81857899Y-105750932D01*
X81820502Y-105812268D01*
X81787880Y-105867187D01*
X81760936Y-105914142D01*
X81740571Y-105951592D01*
X81733139Y-105966268D01*
X81727691Y-105977989D01*
X81724339Y-105986561D01*
X81723197Y-105991791D01*
X81723197Y-106025716D01*
X82815901Y-106025716D01*
X83080551Y-106306182D01*
X83345201Y-106586639D01*
X83447895Y-106778951D01*
X83469512Y-106818420D01*
X83491589Y-106856844D01*
X83513506Y-106893265D01*
X83534643Y-106926727D01*
X83544726Y-106942049D01*
X83554381Y-106956273D01*
X83563532Y-106969278D01*
X83572101Y-106980946D01*
X83580010Y-106991156D01*
X83587182Y-106999790D01*
X83593540Y-107006727D01*
X83599005Y-107011848D01*
X83647425Y-107052377D01*
X83642635Y-107478020D01*
X83637845Y-107903600D01*
X83606225Y-107989999D01*
X83574633Y-108076488D01*
X83273239Y-108379562D01*
X82971846Y-108682681D01*
X83071988Y-108704303D01*
X83092725Y-108708850D01*
X83110767Y-108713031D01*
X83126168Y-108717032D01*
X83138981Y-108721040D01*
X83144434Y-108723104D01*
X83149261Y-108725239D01*
X83153468Y-108727469D01*
X83157062Y-108729817D01*
X83160050Y-108732306D01*
X83162439Y-108734960D01*
X83164235Y-108737801D01*
X83165444Y-108740853D01*
X83166075Y-108744140D01*
X83166134Y-108747683D01*
X83165626Y-108751508D01*
X83164560Y-108755636D01*
X83162942Y-108760092D01*
X83160778Y-108764898D01*
X83158076Y-108770078D01*
X83154842Y-108775655D01*
X83146806Y-108788094D01*
X83136724Y-108802399D01*
X83110637Y-108837357D01*
X83049099Y-108918690D01*
X83285485Y-109058747D01*
X83334121Y-109087973D01*
X83381716Y-109117331D01*
X83427070Y-109146030D01*
X83468983Y-109173276D01*
X83506255Y-109198275D01*
X83537684Y-109220235D01*
X83562072Y-109238362D01*
X83571249Y-109245741D01*
X83578216Y-109251864D01*
X83634533Y-109304879D01*
X83634533Y-109352557D01*
X83630701Y-109373003D01*
X83619717Y-109413079D01*
X83579375Y-109542606D01*
X83519665Y-109722106D01*
X83446748Y-109932549D01*
X83291853Y-110374422D01*
X83183108Y-110689248D01*
X83166861Y-110736440D01*
X83149756Y-110784569D01*
X83132307Y-110832289D01*
X83115026Y-110878255D01*
X83098427Y-110921121D01*
X83083023Y-110959541D01*
X83069326Y-110992170D01*
X83057849Y-111017663D01*
X83008490Y-111121694D01*
X82866870Y-111209451D01*
X82793748Y-111253585D01*
X82725707Y-111292005D01*
X82692907Y-111309370D01*
X82660558Y-111325664D01*
X82628384Y-111341007D01*
X82596112Y-111355517D01*
X82563470Y-111369315D01*
X82530183Y-111382519D01*
X82495977Y-111395248D01*
X82460581Y-111407622D01*
X82385118Y-111431782D01*
X82301606Y-111455953D01*
X82093737Y-111513583D01*
X82048258Y-111495399D01*
X82002833Y-111477213D01*
X81957128Y-111363511D01*
X81947597Y-111336912D01*
X81937336Y-111303057D01*
X81915279Y-111217104D01*
X81892264Y-111112706D01*
X81869597Y-110996916D01*
X81848583Y-110876788D01*
X81830529Y-110759377D01*
X81816740Y-110651734D01*
X81808522Y-110560915D01*
X81806464Y-110528146D01*
X81901405Y-110528146D01*
X81939801Y-110816627D01*
X81978178Y-111105109D01*
X82024300Y-111225317D01*
X82070394Y-111345496D01*
X82143955Y-111345496D01*
X82165702Y-111344089D01*
X82192267Y-111340023D01*
X82223006Y-111333536D01*
X82257280Y-111324864D01*
X82294448Y-111314242D01*
X82333868Y-111301908D01*
X82416904Y-111273046D01*
X82501258Y-111240168D01*
X82581805Y-111205164D01*
X82619048Y-111187456D01*
X82653416Y-111169925D01*
X82684268Y-111152807D01*
X82710964Y-111136340D01*
X82748378Y-111110794D01*
X82782532Y-111084983D01*
X82813986Y-111057719D01*
X82843297Y-111027817D01*
X82871025Y-110994089D01*
X82897728Y-110955350D01*
X82923965Y-110910414D01*
X82950294Y-110858093D01*
X82977274Y-110797202D01*
X83005464Y-110726554D01*
X83067705Y-110551242D01*
X83141488Y-110322668D01*
X83231281Y-110031341D01*
X83296146Y-109820187D01*
X83353642Y-109636207D01*
X83397535Y-109499167D01*
X83412433Y-109454425D01*
X83421594Y-109428829D01*
X83450780Y-109355186D01*
X83366010Y-109276839D01*
X83356429Y-109268363D01*
X83345262Y-109259141D01*
X83318718Y-109238822D01*
X83287474Y-109216601D01*
X83252625Y-109193196D01*
X83215266Y-109169324D01*
X83176492Y-109145703D01*
X83137400Y-109123052D01*
X83099084Y-109102088D01*
X83099126Y-109102296D01*
X83065672Y-109084757D01*
X83035199Y-109069159D01*
X83007531Y-109055452D01*
X82982493Y-109043589D01*
X82959911Y-109033524D01*
X82949486Y-109029150D01*
X82939609Y-109025208D01*
X82930259Y-109021691D01*
X82921413Y-109018594D01*
X82913050Y-109015911D01*
X82905147Y-109013635D01*
X82897683Y-109011761D01*
X82890637Y-109010284D01*
X82883985Y-109009196D01*
X82877706Y-109008492D01*
X82871779Y-109008166D01*
X82866182Y-109008212D01*
X82860892Y-109008624D01*
X82855888Y-109009397D01*
X82851147Y-109010524D01*
X82846649Y-109012000D01*
X82842370Y-109013818D01*
X82838290Y-109015973D01*
X82834386Y-109018458D01*
X82830637Y-109021268D01*
X82827020Y-109024397D01*
X82823514Y-109027839D01*
X82802371Y-109049642D01*
X83047466Y-109196520D01*
X83097090Y-109226438D01*
X83144125Y-109255109D01*
X83187485Y-109281851D01*
X83226084Y-109305983D01*
X83258839Y-109326822D01*
X83284662Y-109343686D01*
X83302469Y-109355892D01*
X83308028Y-109360035D01*
X83311175Y-109362759D01*
X83329785Y-109382029D01*
X83096592Y-110030526D01*
X83002418Y-110289625D01*
X82918380Y-110515704D01*
X82853649Y-110684455D01*
X82831389Y-110739738D01*
X82817395Y-110771574D01*
X82771392Y-110864089D01*
X82641008Y-110933570D01*
X82611228Y-110948662D01*
X82576499Y-110964943D01*
X82538077Y-110981899D01*
X82497218Y-110999014D01*
X82455180Y-111015777D01*
X82413220Y-111031673D01*
X82372593Y-111046187D01*
X82334558Y-111058807D01*
X82158447Y-111114536D01*
X82127452Y-111075724D01*
X82118368Y-111061212D01*
X82108717Y-111040100D01*
X82098654Y-111013124D01*
X82088331Y-110981021D01*
X82067520Y-110904383D01*
X82047509Y-110816078D01*
X82029524Y-110721999D01*
X82014791Y-110628041D01*
X82004537Y-110540095D01*
X82001472Y-110500220D01*
X81999986Y-110464057D01*
X81996996Y-110303808D01*
X81949201Y-110415990D01*
X81901405Y-110528146D01*
X81806464Y-110528146D01*
X81800472Y-110432720D01*
X81611377Y-110629346D01*
G37*
G36*
X81125000Y-108029000D02*
G01*
X81127636Y-108029268D01*
X81129998Y-108029700D01*
X81131068Y-108029978D01*
X81132060Y-108030298D01*
X81132971Y-108030660D01*
X81133798Y-108031063D01*
X81134537Y-108031509D01*
X81135185Y-108031997D01*
X81137023Y-108034014D01*
X81138475Y-108036414D01*
X81139556Y-108039168D01*
X81140283Y-108042248D01*
X81140669Y-108045623D01*
X81140731Y-108049264D01*
X81140484Y-108053142D01*
X81139943Y-108057227D01*
X81139123Y-108061490D01*
X81138039Y-108065903D01*
X81136707Y-108070434D01*
X81135142Y-108075056D01*
X81131373Y-108084452D01*
X81126856Y-108093856D01*
X81121712Y-108103033D01*
X81116063Y-108111748D01*
X81113087Y-108115860D01*
X81110031Y-108119767D01*
X81106910Y-108123442D01*
X81103739Y-108126855D01*
X81100533Y-108129976D01*
X81097308Y-108132776D01*
X81094079Y-108135226D01*
X81090861Y-108137296D01*
X81087670Y-108138958D01*
X81084520Y-108140181D01*
X81081427Y-108140936D01*
X81078406Y-108141194D01*
X81046606Y-108141194D01*
X81046606Y-108050363D01*
X81085146Y-108036068D01*
X81085137Y-108036517D01*
X81089120Y-108035065D01*
X81093107Y-108033763D01*
X81097073Y-108032612D01*
X81100993Y-108031613D01*
X81104840Y-108030768D01*
X81108591Y-108030078D01*
X81112219Y-108029544D01*
X81115699Y-108029168D01*
X81119006Y-108028951D01*
X81122115Y-108028895D01*
X81125000Y-108029000D01*
G37*
D11*
X179955982Y-111402000D02*
X179913125Y-111376285D01*
X179848839Y-111376285D01*
X179784553Y-111402000D01*
X179741696Y-111453428D01*
X179720267Y-111504857D01*
X179698839Y-111607714D01*
X179698839Y-111684857D01*
X179720267Y-111787714D01*
X179741696Y-111839142D01*
X179784553Y-111890571D01*
X179848839Y-111916285D01*
X179891696Y-111916285D01*
X179955982Y-111890571D01*
X179977410Y-111864857D01*
X179977410Y-111684857D01*
X179891696Y-111684857D01*
X180170267Y-111916285D02*
X180170267Y-111376285D01*
X180427410Y-111916285D01*
X180427410Y-111376285D01*
X180641696Y-111916285D02*
X180641696Y-111376285D01*
X180748839Y-111376285D01*
X180813125Y-111402000D01*
X180855982Y-111453428D01*
X180877410Y-111504857D01*
X180898839Y-111607714D01*
X180898839Y-111684857D01*
X180877410Y-111787714D01*
X180855982Y-111839142D01*
X180813125Y-111890571D01*
X180748839Y-111916285D01*
X180641696Y-111916285D01*
X168606982Y-114805285D02*
X168864125Y-114805285D01*
X168735553Y-115345285D02*
X168735553Y-114805285D01*
X169014125Y-115345285D02*
X169014125Y-114805285D01*
X169014125Y-115062428D02*
X169271267Y-115062428D01*
X169271267Y-115345285D02*
X169271267Y-114805285D01*
X169742696Y-115345285D02*
X169592696Y-115088142D01*
X169485553Y-115345285D02*
X169485553Y-114805285D01*
X169656982Y-114805285D01*
X169699839Y-114831000D01*
X169721267Y-114856714D01*
X169742696Y-114908142D01*
X169742696Y-114985285D01*
X169721267Y-115036714D01*
X169699839Y-115062428D01*
X169656982Y-115088142D01*
X169485553Y-115088142D01*
X170021267Y-114805285D02*
X170106982Y-114805285D01*
X170149839Y-114831000D01*
X170192696Y-114882428D01*
X170214125Y-114985285D01*
X170214125Y-115165285D01*
X170192696Y-115268142D01*
X170149839Y-115319571D01*
X170106982Y-115345285D01*
X170021267Y-115345285D01*
X169978410Y-115319571D01*
X169935553Y-115268142D01*
X169914125Y-115165285D01*
X169914125Y-114985285D01*
X169935553Y-114882428D01*
X169978410Y-114831000D01*
X170021267Y-114805285D01*
X170342696Y-114805285D02*
X170599839Y-114805285D01*
X170471267Y-115345285D02*
X170471267Y-114805285D01*
X170685553Y-114805285D02*
X170942696Y-114805285D01*
X170814125Y-115345285D02*
X170814125Y-114805285D01*
X171306982Y-115345285D02*
X171092696Y-115345285D01*
X171092696Y-114805285D01*
X171456982Y-115062428D02*
X171606982Y-115062428D01*
X171671267Y-115345285D02*
X171456982Y-115345285D01*
X171456982Y-114805285D01*
X171671267Y-114805285D01*
D12*
X116499521Y-85616142D02*
X116499521Y-84716142D01*
X116820950Y-84801857D02*
X116856664Y-84759000D01*
X116928092Y-84716142D01*
X117106664Y-84716142D01*
X117178092Y-84759000D01*
X117213807Y-84801857D01*
X117249521Y-84887571D01*
X117249521Y-84973285D01*
X117213807Y-85101857D01*
X116785235Y-85616142D01*
X117249521Y-85616142D01*
X117999521Y-85530428D02*
X117963807Y-85573285D01*
X117856664Y-85616142D01*
X117785235Y-85616142D01*
X117678092Y-85573285D01*
X117606664Y-85487571D01*
X117570950Y-85401857D01*
X117535235Y-85230428D01*
X117535235Y-85101857D01*
X117570950Y-84930428D01*
X117606664Y-84844714D01*
X117678092Y-84759000D01*
X117785235Y-84716142D01*
X117856664Y-84716142D01*
X117963807Y-84759000D01*
X117999521Y-84801857D01*
D11*
X205374267Y-111916285D02*
X205374267Y-111376285D01*
X205545696Y-111376285D01*
X205588553Y-111402000D01*
X205609982Y-111427714D01*
X205631410Y-111479142D01*
X205631410Y-111556285D01*
X205609982Y-111607714D01*
X205588553Y-111633428D01*
X205545696Y-111659142D01*
X205374267Y-111659142D01*
X205802839Y-111762000D02*
X206017125Y-111762000D01*
X205759982Y-111916285D02*
X205909982Y-111376285D01*
X206059982Y-111916285D01*
X206231410Y-111916285D02*
X206317125Y-111916285D01*
X206359982Y-111890571D01*
X206381410Y-111864857D01*
X206424267Y-111787714D01*
X206445696Y-111684857D01*
X206445696Y-111479142D01*
X206424267Y-111427714D01*
X206402839Y-111402000D01*
X206359982Y-111376285D01*
X206274267Y-111376285D01*
X206231410Y-111402000D01*
X206209982Y-111427714D01*
X206188553Y-111479142D01*
X206188553Y-111607714D01*
X206209982Y-111659142D01*
X206231410Y-111684857D01*
X206274267Y-111710571D01*
X206359982Y-111710571D01*
X206402839Y-111684857D01*
X206424267Y-111659142D01*
X206445696Y-111607714D01*
D12*
X183273378Y-109655142D02*
X183701950Y-109655142D01*
X183487664Y-110555142D02*
X183487664Y-109655142D01*
X183951950Y-110555142D02*
X183951950Y-109655142D01*
X183951950Y-110083714D02*
X184380521Y-110083714D01*
X184380521Y-110555142D02*
X184380521Y-109655142D01*
X185166235Y-110555142D02*
X184916235Y-110126571D01*
X184737664Y-110555142D02*
X184737664Y-109655142D01*
X185023378Y-109655142D01*
X185094807Y-109698000D01*
X185130521Y-109740857D01*
X185166235Y-109826571D01*
X185166235Y-109955142D01*
X185130521Y-110040857D01*
X185094807Y-110083714D01*
X185023378Y-110126571D01*
X184737664Y-110126571D01*
X186487664Y-110469428D02*
X186451950Y-110512285D01*
X186344807Y-110555142D01*
X186273378Y-110555142D01*
X186166235Y-110512285D01*
X186094807Y-110426571D01*
X186059092Y-110340857D01*
X186023378Y-110169428D01*
X186023378Y-110040857D01*
X186059092Y-109869428D01*
X186094807Y-109783714D01*
X186166235Y-109698000D01*
X186273378Y-109655142D01*
X186344807Y-109655142D01*
X186451950Y-109698000D01*
X186487664Y-109740857D01*
X186951950Y-109655142D02*
X187094807Y-109655142D01*
X187166235Y-109698000D01*
X187237664Y-109783714D01*
X187273378Y-109955142D01*
X187273378Y-110255142D01*
X187237664Y-110426571D01*
X187166235Y-110512285D01*
X187094807Y-110555142D01*
X186951950Y-110555142D01*
X186880521Y-110512285D01*
X186809092Y-110426571D01*
X186773378Y-110255142D01*
X186773378Y-109955142D01*
X186809092Y-109783714D01*
X186880521Y-109698000D01*
X186951950Y-109655142D01*
X187594807Y-110555142D02*
X187594807Y-109655142D01*
X188023378Y-110555142D01*
X188023378Y-109655142D01*
X188380521Y-110555142D02*
X188380521Y-109655142D01*
X188809092Y-110555142D01*
X188809092Y-109655142D01*
D11*
X111648267Y-112273285D02*
X111648267Y-111733285D01*
X111819696Y-111733285D01*
X111862553Y-111759000D01*
X111883982Y-111784714D01*
X111905410Y-111836142D01*
X111905410Y-111913285D01*
X111883982Y-111964714D01*
X111862553Y-111990428D01*
X111819696Y-112016142D01*
X111648267Y-112016142D01*
X112076839Y-112119000D02*
X112291125Y-112119000D01*
X112033982Y-112273285D02*
X112183982Y-111733285D01*
X112333982Y-112273285D01*
X112505410Y-112273285D02*
X112591125Y-112273285D01*
X112633982Y-112247571D01*
X112655410Y-112221857D01*
X112698267Y-112144714D01*
X112719696Y-112041857D01*
X112719696Y-111836142D01*
X112698267Y-111784714D01*
X112676839Y-111759000D01*
X112633982Y-111733285D01*
X112548267Y-111733285D01*
X112505410Y-111759000D01*
X112483982Y-111784714D01*
X112462553Y-111836142D01*
X112462553Y-111964714D01*
X112483982Y-112016142D01*
X112505410Y-112041857D01*
X112548267Y-112067571D01*
X112633982Y-112067571D01*
X112676839Y-112041857D01*
X112698267Y-112016142D01*
X112719696Y-111964714D01*
D12*
X159516378Y-107539000D02*
X159444950Y-107496142D01*
X159337807Y-107496142D01*
X159230664Y-107539000D01*
X159159235Y-107624714D01*
X159123521Y-107710428D01*
X159087807Y-107881857D01*
X159087807Y-108010428D01*
X159123521Y-108181857D01*
X159159235Y-108267571D01*
X159230664Y-108353285D01*
X159337807Y-108396142D01*
X159409235Y-108396142D01*
X159516378Y-108353285D01*
X159552092Y-108310428D01*
X159552092Y-108010428D01*
X159409235Y-108010428D01*
X159873521Y-108396142D02*
X159873521Y-107496142D01*
X160302092Y-108396142D01*
X160302092Y-107496142D01*
X160659235Y-108396142D02*
X160659235Y-107496142D01*
X160837807Y-107496142D01*
X160944950Y-107539000D01*
X161016378Y-107624714D01*
X161052092Y-107710428D01*
X161087807Y-107881857D01*
X161087807Y-108010428D01*
X161052092Y-108181857D01*
X161016378Y-108267571D01*
X160944950Y-108353285D01*
X160837807Y-108396142D01*
X160659235Y-108396142D01*
D11*
X192547267Y-111916285D02*
X192547267Y-111376285D01*
X192718696Y-111376285D01*
X192761553Y-111402000D01*
X192782982Y-111427714D01*
X192804410Y-111479142D01*
X192804410Y-111556285D01*
X192782982Y-111607714D01*
X192761553Y-111633428D01*
X192718696Y-111659142D01*
X192547267Y-111659142D01*
X192975839Y-111762000D02*
X193190125Y-111762000D01*
X192932982Y-111916285D02*
X193082982Y-111376285D01*
X193232982Y-111916285D01*
X193404410Y-111916285D02*
X193490125Y-111916285D01*
X193532982Y-111890571D01*
X193554410Y-111864857D01*
X193597267Y-111787714D01*
X193618696Y-111684857D01*
X193618696Y-111479142D01*
X193597267Y-111427714D01*
X193575839Y-111402000D01*
X193532982Y-111376285D01*
X193447267Y-111376285D01*
X193404410Y-111402000D01*
X193382982Y-111427714D01*
X193361553Y-111479142D01*
X193361553Y-111607714D01*
X193382982Y-111659142D01*
X193404410Y-111684857D01*
X193447267Y-111710571D01*
X193532982Y-111710571D01*
X193575839Y-111684857D01*
X193597267Y-111659142D01*
X193618696Y-111607714D01*
X189880267Y-111916285D02*
X189880267Y-111376285D01*
X190051696Y-111376285D01*
X190094553Y-111402000D01*
X190115982Y-111427714D01*
X190137410Y-111479142D01*
X190137410Y-111556285D01*
X190115982Y-111607714D01*
X190094553Y-111633428D01*
X190051696Y-111659142D01*
X189880267Y-111659142D01*
X190308839Y-111762000D02*
X190523125Y-111762000D01*
X190265982Y-111916285D02*
X190415982Y-111376285D01*
X190565982Y-111916285D01*
X190780267Y-111607714D02*
X190737410Y-111582000D01*
X190715982Y-111556285D01*
X190694553Y-111504857D01*
X190694553Y-111479142D01*
X190715982Y-111427714D01*
X190737410Y-111402000D01*
X190780267Y-111376285D01*
X190865982Y-111376285D01*
X190908839Y-111402000D01*
X190930267Y-111427714D01*
X190951696Y-111479142D01*
X190951696Y-111504857D01*
X190930267Y-111556285D01*
X190908839Y-111582000D01*
X190865982Y-111607714D01*
X190780267Y-111607714D01*
X190737410Y-111633428D01*
X190715982Y-111659142D01*
X190694553Y-111710571D01*
X190694553Y-111813428D01*
X190715982Y-111864857D01*
X190737410Y-111890571D01*
X190780267Y-111916285D01*
X190865982Y-111916285D01*
X190908839Y-111890571D01*
X190930267Y-111864857D01*
X190951696Y-111813428D01*
X190951696Y-111710571D01*
X190930267Y-111659142D01*
X190908839Y-111633428D01*
X190865982Y-111607714D01*
D12*
X122329521Y-85134714D02*
X122436664Y-85177571D01*
X122472378Y-85220428D01*
X122508092Y-85306142D01*
X122508092Y-85434714D01*
X122472378Y-85520428D01*
X122436664Y-85563285D01*
X122365235Y-85606142D01*
X122079521Y-85606142D01*
X122079521Y-84706142D01*
X122329521Y-84706142D01*
X122400950Y-84749000D01*
X122436664Y-84791857D01*
X122472378Y-84877571D01*
X122472378Y-84963285D01*
X122436664Y-85049000D01*
X122400950Y-85091857D01*
X122329521Y-85134714D01*
X122079521Y-85134714D01*
X122722378Y-84706142D02*
X123150950Y-84706142D01*
X122936664Y-85606142D02*
X122936664Y-84706142D01*
X123293807Y-84706142D02*
X123722378Y-84706142D01*
X123508092Y-85606142D02*
X123508092Y-84706142D01*
X123972378Y-85606142D02*
X123972378Y-84706142D01*
X124400950Y-85606142D01*
X124400950Y-84706142D01*
X124579521Y-85691857D02*
X125150950Y-85691857D01*
X125722378Y-85606142D02*
X125293807Y-85606142D01*
X125508092Y-85606142D02*
X125508092Y-84706142D01*
X125436664Y-84834714D01*
X125365235Y-84920428D01*
X125293807Y-84963285D01*
D11*
X101618410Y-112221857D02*
X101596982Y-112247571D01*
X101532696Y-112273285D01*
X101489839Y-112273285D01*
X101425553Y-112247571D01*
X101382696Y-112196142D01*
X101361267Y-112144714D01*
X101339839Y-112041857D01*
X101339839Y-111964714D01*
X101361267Y-111861857D01*
X101382696Y-111810428D01*
X101425553Y-111759000D01*
X101489839Y-111733285D01*
X101532696Y-111733285D01*
X101596982Y-111759000D01*
X101618410Y-111784714D01*
X102025553Y-112273285D02*
X101811267Y-112273285D01*
X101811267Y-111733285D01*
X102175553Y-112273285D02*
X102175553Y-111733285D01*
X102432696Y-112273285D02*
X102239839Y-111964714D01*
X102432696Y-111733285D02*
X102175553Y-112041857D01*
X177115982Y-111376285D02*
X177265982Y-111916285D01*
X177415982Y-111376285D01*
X177823125Y-111864857D02*
X177801696Y-111890571D01*
X177737410Y-111916285D01*
X177694553Y-111916285D01*
X177630267Y-111890571D01*
X177587410Y-111839142D01*
X177565982Y-111787714D01*
X177544553Y-111684857D01*
X177544553Y-111607714D01*
X177565982Y-111504857D01*
X177587410Y-111453428D01*
X177630267Y-111402000D01*
X177694553Y-111376285D01*
X177737410Y-111376285D01*
X177801696Y-111402000D01*
X177823125Y-111427714D01*
X178273125Y-111864857D02*
X178251696Y-111890571D01*
X178187410Y-111916285D01*
X178144553Y-111916285D01*
X178080267Y-111890571D01*
X178037410Y-111839142D01*
X178015982Y-111787714D01*
X177994553Y-111684857D01*
X177994553Y-111607714D01*
X178015982Y-111504857D01*
X178037410Y-111453428D01*
X178080267Y-111402000D01*
X178144553Y-111376285D01*
X178187410Y-111376285D01*
X178251696Y-111402000D01*
X178273125Y-111427714D01*
D13*
X116987366Y-81731142D02*
X117040937Y-81752571D01*
X117130223Y-81752571D01*
X117165937Y-81731142D01*
X117183794Y-81709714D01*
X117201651Y-81666857D01*
X117201651Y-81624000D01*
X117183794Y-81581142D01*
X117165937Y-81559714D01*
X117130223Y-81538285D01*
X117058794Y-81516857D01*
X117023080Y-81495428D01*
X117005223Y-81474000D01*
X116987366Y-81431142D01*
X116987366Y-81388285D01*
X117005223Y-81345428D01*
X117023080Y-81324000D01*
X117058794Y-81302571D01*
X117148080Y-81302571D01*
X117201651Y-81324000D01*
X117362366Y-81752571D02*
X117362366Y-81302571D01*
X117451651Y-81302571D01*
X117505223Y-81324000D01*
X117540937Y-81366857D01*
X117558794Y-81409714D01*
X117576651Y-81495428D01*
X117576651Y-81559714D01*
X117558794Y-81645428D01*
X117540937Y-81688285D01*
X117505223Y-81731142D01*
X117451651Y-81752571D01*
X117362366Y-81752571D01*
X117719508Y-81624000D02*
X117898080Y-81624000D01*
X117683794Y-81752571D02*
X117808794Y-81302571D01*
X117933794Y-81752571D01*
D12*
X123534521Y-111935714D02*
X123641664Y-111978571D01*
X123677378Y-112021428D01*
X123713092Y-112107142D01*
X123713092Y-112235714D01*
X123677378Y-112321428D01*
X123641664Y-112364285D01*
X123570235Y-112407142D01*
X123284521Y-112407142D01*
X123284521Y-111507142D01*
X123534521Y-111507142D01*
X123605950Y-111550000D01*
X123641664Y-111592857D01*
X123677378Y-111678571D01*
X123677378Y-111764285D01*
X123641664Y-111850000D01*
X123605950Y-111892857D01*
X123534521Y-111935714D01*
X123284521Y-111935714D01*
X123927378Y-111507142D02*
X124355950Y-111507142D01*
X124141664Y-112407142D02*
X124141664Y-111507142D01*
X124498807Y-111507142D02*
X124927378Y-111507142D01*
X124713092Y-112407142D02*
X124713092Y-111507142D01*
X125177378Y-112407142D02*
X125177378Y-111507142D01*
X125605950Y-112407142D01*
X125605950Y-111507142D01*
X125784521Y-112492857D02*
X126355950Y-112492857D01*
X126498807Y-111592857D02*
X126534521Y-111550000D01*
X126605950Y-111507142D01*
X126784521Y-111507142D01*
X126855950Y-111550000D01*
X126891664Y-111592857D01*
X126927378Y-111678571D01*
X126927378Y-111764285D01*
X126891664Y-111892857D01*
X126463092Y-112407142D01*
X126927378Y-112407142D01*
D11*
X164839839Y-114430571D02*
X164904125Y-114456285D01*
X165011267Y-114456285D01*
X165054125Y-114430571D01*
X165075553Y-114404857D01*
X165096982Y-114353428D01*
X165096982Y-114302000D01*
X165075553Y-114250571D01*
X165054125Y-114224857D01*
X165011267Y-114199142D01*
X164925553Y-114173428D01*
X164882696Y-114147714D01*
X164861267Y-114122000D01*
X164839839Y-114070571D01*
X164839839Y-114019142D01*
X164861267Y-113967714D01*
X164882696Y-113942000D01*
X164925553Y-113916285D01*
X165032696Y-113916285D01*
X165096982Y-113942000D01*
X165225553Y-113916285D02*
X165482696Y-113916285D01*
X165354125Y-114456285D02*
X165354125Y-113916285D01*
X165632696Y-114456285D02*
X165632696Y-113916285D01*
X165782696Y-114302000D01*
X165932696Y-113916285D01*
X165932696Y-114456285D01*
X166104125Y-113916285D02*
X166382696Y-113916285D01*
X166232696Y-114122000D01*
X166296982Y-114122000D01*
X166339839Y-114147714D01*
X166361267Y-114173428D01*
X166382696Y-114224857D01*
X166382696Y-114353428D01*
X166361267Y-114404857D01*
X166339839Y-114430571D01*
X166296982Y-114456285D01*
X166168410Y-114456285D01*
X166125553Y-114430571D01*
X166104125Y-114404857D01*
X166554125Y-113967714D02*
X166575553Y-113942000D01*
X166618410Y-113916285D01*
X166725553Y-113916285D01*
X166768410Y-113942000D01*
X166789839Y-113967714D01*
X166811267Y-114019142D01*
X166811267Y-114070571D01*
X166789839Y-114147714D01*
X166532696Y-114456285D01*
X166811267Y-114456285D01*
X167004125Y-114456285D02*
X167004125Y-113916285D01*
X167004125Y-114173428D02*
X167261267Y-114173428D01*
X167261267Y-114456285D02*
X167261267Y-113916285D01*
X167561267Y-113916285D02*
X167646982Y-113916285D01*
X167689839Y-113942000D01*
X167732696Y-113993428D01*
X167754125Y-114096285D01*
X167754125Y-114276285D01*
X167732696Y-114379142D01*
X167689839Y-114430571D01*
X167646982Y-114456285D01*
X167561267Y-114456285D01*
X167518410Y-114430571D01*
X167475553Y-114379142D01*
X167454125Y-114276285D01*
X167454125Y-114096285D01*
X167475553Y-113993428D01*
X167518410Y-113942000D01*
X167561267Y-113916285D01*
X167882696Y-113916285D02*
X168139839Y-113916285D01*
X168011267Y-114456285D02*
X168011267Y-113916285D01*
X168268410Y-114302000D02*
X168482696Y-114302000D01*
X168225553Y-114456285D02*
X168375553Y-113916285D01*
X168525553Y-114456285D01*
X168654125Y-114430571D02*
X168718410Y-114456285D01*
X168825553Y-114456285D01*
X168868410Y-114430571D01*
X168889839Y-114404857D01*
X168911267Y-114353428D01*
X168911267Y-114302000D01*
X168889839Y-114250571D01*
X168868410Y-114224857D01*
X168825553Y-114199142D01*
X168739839Y-114173428D01*
X168696982Y-114147714D01*
X168675553Y-114122000D01*
X168654125Y-114070571D01*
X168654125Y-114019142D01*
X168675553Y-113967714D01*
X168696982Y-113942000D01*
X168739839Y-113916285D01*
X168846982Y-113916285D01*
X168911267Y-113942000D01*
X184927267Y-111916285D02*
X184927267Y-111376285D01*
X185034410Y-111376285D01*
X185098696Y-111402000D01*
X185141553Y-111453428D01*
X185162982Y-111504857D01*
X185184410Y-111607714D01*
X185184410Y-111684857D01*
X185162982Y-111787714D01*
X185141553Y-111839142D01*
X185098696Y-111890571D01*
X185034410Y-111916285D01*
X184927267Y-111916285D01*
X185355839Y-111762000D02*
X185570125Y-111762000D01*
X185312982Y-111916285D02*
X185462982Y-111376285D01*
X185612982Y-111916285D01*
X185698696Y-111376285D02*
X185955839Y-111376285D01*
X185827267Y-111916285D02*
X185827267Y-111376285D01*
D13*
X99980366Y-82136142D02*
X100033937Y-82157571D01*
X100123223Y-82157571D01*
X100158937Y-82136142D01*
X100176794Y-82114714D01*
X100194651Y-82071857D01*
X100194651Y-82029000D01*
X100176794Y-81986142D01*
X100158937Y-81964714D01*
X100123223Y-81943285D01*
X100051794Y-81921857D01*
X100016080Y-81900428D01*
X99998223Y-81879000D01*
X99980366Y-81836142D01*
X99980366Y-81793285D01*
X99998223Y-81750428D01*
X100016080Y-81729000D01*
X100051794Y-81707571D01*
X100141080Y-81707571D01*
X100194651Y-81729000D01*
X100319651Y-81707571D02*
X100408937Y-82157571D01*
X100480366Y-81836142D01*
X100551794Y-82157571D01*
X100641080Y-81707571D01*
X100998223Y-82114714D02*
X100980366Y-82136142D01*
X100926794Y-82157571D01*
X100891080Y-82157571D01*
X100837508Y-82136142D01*
X100801794Y-82093285D01*
X100783937Y-82050428D01*
X100766080Y-81964714D01*
X100766080Y-81900428D01*
X100783937Y-81814714D01*
X100801794Y-81771857D01*
X100837508Y-81729000D01*
X100891080Y-81707571D01*
X100926794Y-81707571D01*
X100980366Y-81729000D01*
X100998223Y-81750428D01*
X101337508Y-82157571D02*
X101158937Y-82157571D01*
X101158937Y-81707571D01*
X101462508Y-82157571D02*
X101462508Y-81707571D01*
X101676794Y-82157571D02*
X101516080Y-81900428D01*
X101676794Y-81707571D02*
X101462508Y-81964714D01*
D11*
X108981267Y-112273285D02*
X108981267Y-111733285D01*
X109152696Y-111733285D01*
X109195553Y-111759000D01*
X109216982Y-111784714D01*
X109238410Y-111836142D01*
X109238410Y-111913285D01*
X109216982Y-111964714D01*
X109195553Y-111990428D01*
X109152696Y-112016142D01*
X108981267Y-112016142D01*
X109409839Y-112119000D02*
X109624125Y-112119000D01*
X109366982Y-112273285D02*
X109516982Y-111733285D01*
X109666982Y-112273285D01*
X109881267Y-111964714D02*
X109838410Y-111939000D01*
X109816982Y-111913285D01*
X109795553Y-111861857D01*
X109795553Y-111836142D01*
X109816982Y-111784714D01*
X109838410Y-111759000D01*
X109881267Y-111733285D01*
X109966982Y-111733285D01*
X110009839Y-111759000D01*
X110031267Y-111784714D01*
X110052696Y-111836142D01*
X110052696Y-111861857D01*
X110031267Y-111913285D01*
X110009839Y-111939000D01*
X109966982Y-111964714D01*
X109881267Y-111964714D01*
X109838410Y-111990428D01*
X109816982Y-112016142D01*
X109795553Y-112067571D01*
X109795553Y-112170428D01*
X109816982Y-112221857D01*
X109838410Y-112247571D01*
X109881267Y-112273285D01*
X109966982Y-112273285D01*
X110009839Y-112247571D01*
X110031267Y-112221857D01*
X110052696Y-112170428D01*
X110052696Y-112067571D01*
X110031267Y-112016142D01*
X110009839Y-111990428D01*
X109966982Y-111964714D01*
D12*
X91909521Y-114936142D02*
X91909521Y-114036142D01*
X92195235Y-114036142D01*
X92266664Y-114079000D01*
X92302378Y-114121857D01*
X92338092Y-114207571D01*
X92338092Y-114336142D01*
X92302378Y-114421857D01*
X92266664Y-114464714D01*
X92195235Y-114507571D01*
X91909521Y-114507571D01*
X92588092Y-114036142D02*
X92766664Y-114936142D01*
X92909521Y-114293285D01*
X93052378Y-114936142D01*
X93230950Y-114036142D01*
X93945235Y-114936142D02*
X93695235Y-114507571D01*
X93516664Y-114936142D02*
X93516664Y-114036142D01*
X93802378Y-114036142D01*
X93873807Y-114079000D01*
X93909521Y-114121857D01*
X93945235Y-114207571D01*
X93945235Y-114336142D01*
X93909521Y-114421857D01*
X93873807Y-114464714D01*
X93802378Y-114507571D01*
X93516664Y-114507571D01*
D11*
X96216982Y-111733285D02*
X96366982Y-112273285D01*
X96516982Y-111733285D01*
X96924125Y-112221857D02*
X96902696Y-112247571D01*
X96838410Y-112273285D01*
X96795553Y-112273285D01*
X96731267Y-112247571D01*
X96688410Y-112196142D01*
X96666982Y-112144714D01*
X96645553Y-112041857D01*
X96645553Y-111964714D01*
X96666982Y-111861857D01*
X96688410Y-111810428D01*
X96731267Y-111759000D01*
X96795553Y-111733285D01*
X96838410Y-111733285D01*
X96902696Y-111759000D01*
X96924125Y-111784714D01*
X97374125Y-112221857D02*
X97352696Y-112247571D01*
X97288410Y-112273285D01*
X97245553Y-112273285D01*
X97181267Y-112247571D01*
X97138410Y-112196142D01*
X97116982Y-112144714D01*
X97095553Y-112041857D01*
X97095553Y-111964714D01*
X97116982Y-111861857D01*
X97138410Y-111810428D01*
X97181267Y-111759000D01*
X97245553Y-111733285D01*
X97288410Y-111733285D01*
X97352696Y-111759000D01*
X97374125Y-111784714D01*
X82670839Y-115192571D02*
X82735125Y-115218285D01*
X82842267Y-115218285D01*
X82885125Y-115192571D01*
X82906553Y-115166857D01*
X82927982Y-115115428D01*
X82927982Y-115064000D01*
X82906553Y-115012571D01*
X82885125Y-114986857D01*
X82842267Y-114961142D01*
X82756553Y-114935428D01*
X82713696Y-114909714D01*
X82692267Y-114884000D01*
X82670839Y-114832571D01*
X82670839Y-114781142D01*
X82692267Y-114729714D01*
X82713696Y-114704000D01*
X82756553Y-114678285D01*
X82863696Y-114678285D01*
X82927982Y-114704000D01*
X83056553Y-114678285D02*
X83313696Y-114678285D01*
X83185125Y-115218285D02*
X83185125Y-114678285D01*
X83463696Y-115218285D02*
X83463696Y-114678285D01*
X83935125Y-115166857D02*
X83913696Y-115192571D01*
X83849410Y-115218285D01*
X83806553Y-115218285D01*
X83742267Y-115192571D01*
X83699410Y-115141142D01*
X83677982Y-115089714D01*
X83656553Y-114986857D01*
X83656553Y-114909714D01*
X83677982Y-114806857D01*
X83699410Y-114755428D01*
X83742267Y-114704000D01*
X83806553Y-114678285D01*
X83849410Y-114678285D01*
X83913696Y-114704000D01*
X83935125Y-114729714D01*
X84127982Y-115218285D02*
X84127982Y-114678285D01*
X84385125Y-115218285D02*
X84192267Y-114909714D01*
X84385125Y-114678285D02*
X84127982Y-114986857D01*
X78860839Y-114303571D02*
X78925125Y-114329285D01*
X79032267Y-114329285D01*
X79075125Y-114303571D01*
X79096553Y-114277857D01*
X79117982Y-114226428D01*
X79117982Y-114175000D01*
X79096553Y-114123571D01*
X79075125Y-114097857D01*
X79032267Y-114072142D01*
X78946553Y-114046428D01*
X78903696Y-114020714D01*
X78882267Y-113995000D01*
X78860839Y-113943571D01*
X78860839Y-113892142D01*
X78882267Y-113840714D01*
X78903696Y-113815000D01*
X78946553Y-113789285D01*
X79053696Y-113789285D01*
X79117982Y-113815000D01*
X79246553Y-113789285D02*
X79503696Y-113789285D01*
X79375125Y-114329285D02*
X79375125Y-113789285D01*
X79653696Y-114329285D02*
X79653696Y-113789285D01*
X79803696Y-114175000D01*
X79953696Y-113789285D01*
X79953696Y-114329285D01*
X80125125Y-113789285D02*
X80403696Y-113789285D01*
X80253696Y-113995000D01*
X80317982Y-113995000D01*
X80360839Y-114020714D01*
X80382267Y-114046428D01*
X80403696Y-114097857D01*
X80403696Y-114226428D01*
X80382267Y-114277857D01*
X80360839Y-114303571D01*
X80317982Y-114329285D01*
X80189410Y-114329285D01*
X80146553Y-114303571D01*
X80125125Y-114277857D01*
X80575125Y-113840714D02*
X80596553Y-113815000D01*
X80639410Y-113789285D01*
X80746553Y-113789285D01*
X80789410Y-113815000D01*
X80810839Y-113840714D01*
X80832267Y-113892142D01*
X80832267Y-113943571D01*
X80810839Y-114020714D01*
X80553696Y-114329285D01*
X80832267Y-114329285D01*
X81025125Y-114329285D02*
X81025125Y-113789285D01*
X81025125Y-114046428D02*
X81282267Y-114046428D01*
X81282267Y-114329285D02*
X81282267Y-113789285D01*
X81582267Y-113789285D02*
X81667982Y-113789285D01*
X81710839Y-113815000D01*
X81753696Y-113866428D01*
X81775125Y-113969285D01*
X81775125Y-114149285D01*
X81753696Y-114252142D01*
X81710839Y-114303571D01*
X81667982Y-114329285D01*
X81582267Y-114329285D01*
X81539410Y-114303571D01*
X81496553Y-114252142D01*
X81475125Y-114149285D01*
X81475125Y-113969285D01*
X81496553Y-113866428D01*
X81539410Y-113815000D01*
X81582267Y-113789285D01*
X81903696Y-113789285D02*
X82160839Y-113789285D01*
X82032267Y-114329285D02*
X82032267Y-113789285D01*
X82289410Y-114175000D02*
X82503696Y-114175000D01*
X82246553Y-114329285D02*
X82396553Y-113789285D01*
X82546553Y-114329285D01*
X82675125Y-114303571D02*
X82739410Y-114329285D01*
X82846553Y-114329285D01*
X82889410Y-114303571D01*
X82910839Y-114277857D01*
X82932267Y-114226428D01*
X82932267Y-114175000D01*
X82910839Y-114123571D01*
X82889410Y-114097857D01*
X82846553Y-114072142D01*
X82760839Y-114046428D01*
X82717982Y-114020714D01*
X82696553Y-113995000D01*
X82675125Y-113943571D01*
X82675125Y-113892142D01*
X82696553Y-113840714D01*
X82717982Y-113815000D01*
X82760839Y-113789285D01*
X82867982Y-113789285D01*
X82932267Y-113815000D01*
X114188267Y-112273285D02*
X114188267Y-111733285D01*
X114359696Y-111733285D01*
X114402553Y-111759000D01*
X114423982Y-111784714D01*
X114445410Y-111836142D01*
X114445410Y-111913285D01*
X114423982Y-111964714D01*
X114402553Y-111990428D01*
X114359696Y-112016142D01*
X114188267Y-112016142D01*
X114616839Y-112119000D02*
X114831125Y-112119000D01*
X114573982Y-112273285D02*
X114723982Y-111733285D01*
X114873982Y-112273285D01*
X115259696Y-112273285D02*
X115002553Y-112273285D01*
X115131125Y-112273285D02*
X115131125Y-111733285D01*
X115088267Y-111810428D01*
X115045410Y-111861857D01*
X115002553Y-111887571D01*
X115538267Y-111733285D02*
X115581125Y-111733285D01*
X115623982Y-111759000D01*
X115645410Y-111784714D01*
X115666839Y-111836142D01*
X115688267Y-111939000D01*
X115688267Y-112067571D01*
X115666839Y-112170428D01*
X115645410Y-112221857D01*
X115623982Y-112247571D01*
X115581125Y-112273285D01*
X115538267Y-112273285D01*
X115495410Y-112247571D01*
X115473982Y-112221857D01*
X115452553Y-112170428D01*
X115431125Y-112067571D01*
X115431125Y-111939000D01*
X115452553Y-111836142D01*
X115473982Y-111784714D01*
X115495410Y-111759000D01*
X115538267Y-111733285D01*
X202707267Y-111916285D02*
X202707267Y-111376285D01*
X202878696Y-111376285D01*
X202921553Y-111402000D01*
X202942982Y-111427714D01*
X202964410Y-111479142D01*
X202964410Y-111556285D01*
X202942982Y-111607714D01*
X202921553Y-111633428D01*
X202878696Y-111659142D01*
X202707267Y-111659142D01*
X203135839Y-111762000D02*
X203350125Y-111762000D01*
X203092982Y-111916285D02*
X203242982Y-111376285D01*
X203392982Y-111916285D01*
X203607267Y-111607714D02*
X203564410Y-111582000D01*
X203542982Y-111556285D01*
X203521553Y-111504857D01*
X203521553Y-111479142D01*
X203542982Y-111427714D01*
X203564410Y-111402000D01*
X203607267Y-111376285D01*
X203692982Y-111376285D01*
X203735839Y-111402000D01*
X203757267Y-111427714D01*
X203778696Y-111479142D01*
X203778696Y-111504857D01*
X203757267Y-111556285D01*
X203735839Y-111582000D01*
X203692982Y-111607714D01*
X203607267Y-111607714D01*
X203564410Y-111633428D01*
X203542982Y-111659142D01*
X203521553Y-111710571D01*
X203521553Y-111813428D01*
X203542982Y-111864857D01*
X203564410Y-111890571D01*
X203607267Y-111916285D01*
X203692982Y-111916285D01*
X203735839Y-111890571D01*
X203757267Y-111864857D01*
X203778696Y-111813428D01*
X203778696Y-111710571D01*
X203757267Y-111659142D01*
X203735839Y-111633428D01*
X203692982Y-111607714D01*
D12*
X164784521Y-85435714D02*
X164891664Y-85478571D01*
X164927378Y-85521428D01*
X164963092Y-85607142D01*
X164963092Y-85735714D01*
X164927378Y-85821428D01*
X164891664Y-85864285D01*
X164820235Y-85907142D01*
X164534521Y-85907142D01*
X164534521Y-85007142D01*
X164784521Y-85007142D01*
X164855950Y-85050000D01*
X164891664Y-85092857D01*
X164927378Y-85178571D01*
X164927378Y-85264285D01*
X164891664Y-85350000D01*
X164855950Y-85392857D01*
X164784521Y-85435714D01*
X164534521Y-85435714D01*
X165177378Y-85007142D02*
X165605950Y-85007142D01*
X165391664Y-85907142D02*
X165391664Y-85007142D01*
X165748807Y-85007142D02*
X166177378Y-85007142D01*
X165963092Y-85907142D02*
X165963092Y-85007142D01*
X166427378Y-85907142D02*
X166427378Y-85007142D01*
X166855950Y-85907142D01*
X166855950Y-85007142D01*
X167034521Y-85992857D02*
X167605950Y-85992857D01*
X168177378Y-85907142D02*
X167748807Y-85907142D01*
X167963092Y-85907142D02*
X167963092Y-85007142D01*
X167891664Y-85135714D01*
X167820235Y-85221428D01*
X167748807Y-85264285D01*
D11*
X104028267Y-112273285D02*
X104028267Y-111733285D01*
X104135410Y-111733285D01*
X104199696Y-111759000D01*
X104242553Y-111810428D01*
X104263982Y-111861857D01*
X104285410Y-111964714D01*
X104285410Y-112041857D01*
X104263982Y-112144714D01*
X104242553Y-112196142D01*
X104199696Y-112247571D01*
X104135410Y-112273285D01*
X104028267Y-112273285D01*
X104456839Y-112119000D02*
X104671125Y-112119000D01*
X104413982Y-112273285D02*
X104563982Y-111733285D01*
X104713982Y-112273285D01*
X104799696Y-111733285D02*
X105056839Y-111733285D01*
X104928267Y-112273285D02*
X104928267Y-111733285D01*
X182517410Y-111864857D02*
X182495982Y-111890571D01*
X182431696Y-111916285D01*
X182388839Y-111916285D01*
X182324553Y-111890571D01*
X182281696Y-111839142D01*
X182260267Y-111787714D01*
X182238839Y-111684857D01*
X182238839Y-111607714D01*
X182260267Y-111504857D01*
X182281696Y-111453428D01*
X182324553Y-111402000D01*
X182388839Y-111376285D01*
X182431696Y-111376285D01*
X182495982Y-111402000D01*
X182517410Y-111427714D01*
X182924553Y-111916285D02*
X182710267Y-111916285D01*
X182710267Y-111376285D01*
X183074553Y-111916285D02*
X183074553Y-111376285D01*
X183331696Y-111916285D02*
X183138839Y-111607714D01*
X183331696Y-111376285D02*
X183074553Y-111684857D01*
D13*
X103178651Y-81729000D02*
X103142937Y-81707571D01*
X103089366Y-81707571D01*
X103035794Y-81729000D01*
X103000080Y-81771857D01*
X102982223Y-81814714D01*
X102964366Y-81900428D01*
X102964366Y-81964714D01*
X102982223Y-82050428D01*
X103000080Y-82093285D01*
X103035794Y-82136142D01*
X103089366Y-82157571D01*
X103125080Y-82157571D01*
X103178651Y-82136142D01*
X103196508Y-82114714D01*
X103196508Y-81964714D01*
X103125080Y-81964714D01*
X103357223Y-82157571D02*
X103357223Y-81707571D01*
X103571508Y-82157571D01*
X103571508Y-81707571D01*
X103750080Y-82157571D02*
X103750080Y-81707571D01*
X103839366Y-81707571D01*
X103892937Y-81729000D01*
X103928651Y-81771857D01*
X103946508Y-81814714D01*
X103964366Y-81900428D01*
X103964366Y-81964714D01*
X103946508Y-82050428D01*
X103928651Y-82093285D01*
X103892937Y-82136142D01*
X103839366Y-82157571D01*
X103750080Y-82157571D01*
X95181651Y-81707571D02*
X95306651Y-82157571D01*
X95431651Y-81707571D01*
X95770937Y-82114714D02*
X95753080Y-82136142D01*
X95699508Y-82157571D01*
X95663794Y-82157571D01*
X95610223Y-82136142D01*
X95574508Y-82093285D01*
X95556651Y-82050428D01*
X95538794Y-81964714D01*
X95538794Y-81900428D01*
X95556651Y-81814714D01*
X95574508Y-81771857D01*
X95610223Y-81729000D01*
X95663794Y-81707571D01*
X95699508Y-81707571D01*
X95753080Y-81729000D01*
X95770937Y-81750428D01*
X96145937Y-82114714D02*
X96128080Y-82136142D01*
X96074508Y-82157571D01*
X96038794Y-82157571D01*
X95985223Y-82136142D01*
X95949508Y-82093285D01*
X95931651Y-82050428D01*
X95913794Y-81964714D01*
X95913794Y-81900428D01*
X95931651Y-81814714D01*
X95949508Y-81771857D01*
X95985223Y-81729000D01*
X96038794Y-81707571D01*
X96074508Y-81707571D01*
X96128080Y-81729000D01*
X96145937Y-81750428D01*
D11*
X195087267Y-111916285D02*
X195087267Y-111376285D01*
X195258696Y-111376285D01*
X195301553Y-111402000D01*
X195322982Y-111427714D01*
X195344410Y-111479142D01*
X195344410Y-111556285D01*
X195322982Y-111607714D01*
X195301553Y-111633428D01*
X195258696Y-111659142D01*
X195087267Y-111659142D01*
X195515839Y-111762000D02*
X195730125Y-111762000D01*
X195472982Y-111916285D02*
X195622982Y-111376285D01*
X195772982Y-111916285D01*
X196158696Y-111916285D02*
X195901553Y-111916285D01*
X196030125Y-111916285D02*
X196030125Y-111376285D01*
X195987267Y-111453428D01*
X195944410Y-111504857D01*
X195901553Y-111530571D01*
X196437267Y-111376285D02*
X196480125Y-111376285D01*
X196522982Y-111402000D01*
X196544410Y-111427714D01*
X196565839Y-111479142D01*
X196587267Y-111582000D01*
X196587267Y-111710571D01*
X196565839Y-111813428D01*
X196544410Y-111864857D01*
X196522982Y-111890571D01*
X196480125Y-111916285D01*
X196437267Y-111916285D01*
X196394410Y-111890571D01*
X196372982Y-111864857D01*
X196351553Y-111813428D01*
X196330125Y-111710571D01*
X196330125Y-111582000D01*
X196351553Y-111479142D01*
X196372982Y-111427714D01*
X196394410Y-111402000D01*
X196437267Y-111376285D01*
D13*
X119527366Y-81731142D02*
X119580937Y-81752571D01*
X119670223Y-81752571D01*
X119705937Y-81731142D01*
X119723794Y-81709714D01*
X119741651Y-81666857D01*
X119741651Y-81624000D01*
X119723794Y-81581142D01*
X119705937Y-81559714D01*
X119670223Y-81538285D01*
X119598794Y-81516857D01*
X119563080Y-81495428D01*
X119545223Y-81474000D01*
X119527366Y-81431142D01*
X119527366Y-81388285D01*
X119545223Y-81345428D01*
X119563080Y-81324000D01*
X119598794Y-81302571D01*
X119688080Y-81302571D01*
X119741651Y-81324000D01*
X120116651Y-81709714D02*
X120098794Y-81731142D01*
X120045223Y-81752571D01*
X120009508Y-81752571D01*
X119955937Y-81731142D01*
X119920223Y-81688285D01*
X119902366Y-81645428D01*
X119884508Y-81559714D01*
X119884508Y-81495428D01*
X119902366Y-81409714D01*
X119920223Y-81366857D01*
X119955937Y-81324000D01*
X120009508Y-81302571D01*
X120045223Y-81302571D01*
X120098794Y-81324000D01*
X120116651Y-81345428D01*
X120455937Y-81752571D02*
X120277366Y-81752571D01*
X120277366Y-81302571D01*
D11*
X187681553Y-111916285D02*
X187467267Y-111916285D01*
X187467267Y-111376285D01*
X187810125Y-111762000D02*
X188024410Y-111762000D01*
X187767267Y-111916285D02*
X187917267Y-111376285D01*
X188067267Y-111916285D01*
X188152982Y-111376285D02*
X188410125Y-111376285D01*
X188281553Y-111916285D02*
X188281553Y-111376285D01*
X99056982Y-111759000D02*
X99014125Y-111733285D01*
X98949839Y-111733285D01*
X98885553Y-111759000D01*
X98842696Y-111810428D01*
X98821267Y-111861857D01*
X98799839Y-111964714D01*
X98799839Y-112041857D01*
X98821267Y-112144714D01*
X98842696Y-112196142D01*
X98885553Y-112247571D01*
X98949839Y-112273285D01*
X98992696Y-112273285D01*
X99056982Y-112247571D01*
X99078410Y-112221857D01*
X99078410Y-112041857D01*
X98992696Y-112041857D01*
X99271267Y-112273285D02*
X99271267Y-111733285D01*
X99528410Y-112273285D01*
X99528410Y-111733285D01*
X99742696Y-112273285D02*
X99742696Y-111733285D01*
X99849839Y-111733285D01*
X99914125Y-111759000D01*
X99956982Y-111810428D01*
X99978410Y-111861857D01*
X99999839Y-111964714D01*
X99999839Y-112041857D01*
X99978410Y-112144714D01*
X99956982Y-112196142D01*
X99914125Y-112247571D01*
X99849839Y-112273285D01*
X99742696Y-112273285D01*
X106782553Y-112273285D02*
X106568267Y-112273285D01*
X106568267Y-111733285D01*
X106911125Y-112119000D02*
X107125410Y-112119000D01*
X106868267Y-112273285D02*
X107018267Y-111733285D01*
X107168267Y-112273285D01*
X107253982Y-111733285D02*
X107511125Y-111733285D01*
X107382553Y-112273285D02*
X107382553Y-111733285D01*
X207914267Y-111916285D02*
X207914267Y-111376285D01*
X208085696Y-111376285D01*
X208128553Y-111402000D01*
X208149982Y-111427714D01*
X208171410Y-111479142D01*
X208171410Y-111556285D01*
X208149982Y-111607714D01*
X208128553Y-111633428D01*
X208085696Y-111659142D01*
X207914267Y-111659142D01*
X208342839Y-111762000D02*
X208557125Y-111762000D01*
X208299982Y-111916285D02*
X208449982Y-111376285D01*
X208599982Y-111916285D01*
X208985696Y-111916285D02*
X208728553Y-111916285D01*
X208857125Y-111916285D02*
X208857125Y-111376285D01*
X208814267Y-111453428D01*
X208771410Y-111504857D01*
X208728553Y-111530571D01*
X209264267Y-111376285D02*
X209307125Y-111376285D01*
X209349982Y-111402000D01*
X209371410Y-111427714D01*
X209392839Y-111479142D01*
X209414267Y-111582000D01*
X209414267Y-111710571D01*
X209392839Y-111813428D01*
X209371410Y-111864857D01*
X209349982Y-111890571D01*
X209307125Y-111916285D01*
X209264267Y-111916285D01*
X209221410Y-111890571D01*
X209199982Y-111864857D01*
X209178553Y-111813428D01*
X209157125Y-111710571D01*
X209157125Y-111582000D01*
X209178553Y-111479142D01*
X209199982Y-111427714D01*
X209221410Y-111402000D01*
X209264267Y-111376285D01*
D13*
X97244366Y-82136142D02*
X97297937Y-82157571D01*
X97387223Y-82157571D01*
X97422937Y-82136142D01*
X97440794Y-82114714D01*
X97458651Y-82071857D01*
X97458651Y-82029000D01*
X97440794Y-81986142D01*
X97422937Y-81964714D01*
X97387223Y-81943285D01*
X97315794Y-81921857D01*
X97280080Y-81900428D01*
X97262223Y-81879000D01*
X97244366Y-81836142D01*
X97244366Y-81793285D01*
X97262223Y-81750428D01*
X97280080Y-81729000D01*
X97315794Y-81707571D01*
X97405080Y-81707571D01*
X97458651Y-81729000D01*
X97583651Y-81707571D02*
X97672937Y-82157571D01*
X97744366Y-81836142D01*
X97815794Y-82157571D01*
X97905080Y-81707571D01*
X98047937Y-82157571D02*
X98047937Y-81707571D01*
X98137223Y-81707571D01*
X98190794Y-81729000D01*
X98226508Y-81771857D01*
X98244366Y-81814714D01*
X98262223Y-81900428D01*
X98262223Y-81964714D01*
X98244366Y-82050428D01*
X98226508Y-82093285D01*
X98190794Y-82136142D01*
X98137223Y-82157571D01*
X98047937Y-82157571D01*
X98422937Y-82157571D02*
X98422937Y-81707571D01*
X98672937Y-81707571D02*
X98744366Y-81707571D01*
X98780080Y-81729000D01*
X98815794Y-81771857D01*
X98833651Y-81857571D01*
X98833651Y-82007571D01*
X98815794Y-82093285D01*
X98780080Y-82136142D01*
X98744366Y-82157571D01*
X98672937Y-82157571D01*
X98637223Y-82136142D01*
X98601508Y-82093285D01*
X98583651Y-82007571D01*
X98583651Y-81857571D01*
X98601508Y-81771857D01*
X98637223Y-81729000D01*
X98672937Y-81707571D01*
D12*
X189034521Y-85435714D02*
X189141664Y-85478571D01*
X189177378Y-85521428D01*
X189213092Y-85607142D01*
X189213092Y-85735714D01*
X189177378Y-85821428D01*
X189141664Y-85864285D01*
X189070235Y-85907142D01*
X188784521Y-85907142D01*
X188784521Y-85007142D01*
X189034521Y-85007142D01*
X189105950Y-85050000D01*
X189141664Y-85092857D01*
X189177378Y-85178571D01*
X189177378Y-85264285D01*
X189141664Y-85350000D01*
X189105950Y-85392857D01*
X189034521Y-85435714D01*
X188784521Y-85435714D01*
X189427378Y-85007142D02*
X189855950Y-85007142D01*
X189641664Y-85907142D02*
X189641664Y-85007142D01*
X189998807Y-85007142D02*
X190427378Y-85007142D01*
X190213092Y-85907142D02*
X190213092Y-85007142D01*
X190677378Y-85907142D02*
X190677378Y-85007142D01*
X191105950Y-85907142D01*
X191105950Y-85007142D01*
X191284521Y-85992857D02*
X191855950Y-85992857D01*
X191998807Y-85092857D02*
X192034521Y-85050000D01*
X192105950Y-85007142D01*
X192284521Y-85007142D01*
X192355950Y-85050000D01*
X192391664Y-85092857D01*
X192427378Y-85178571D01*
X192427378Y-85264285D01*
X192391664Y-85392857D01*
X191963092Y-85907142D01*
X192427378Y-85907142D01*
X208665378Y-105380000D02*
X208593950Y-105337142D01*
X208486807Y-105337142D01*
X208379664Y-105380000D01*
X208308235Y-105465714D01*
X208272521Y-105551428D01*
X208236807Y-105722857D01*
X208236807Y-105851428D01*
X208272521Y-106022857D01*
X208308235Y-106108571D01*
X208379664Y-106194285D01*
X208486807Y-106237142D01*
X208558235Y-106237142D01*
X208665378Y-106194285D01*
X208701092Y-106151428D01*
X208701092Y-105851428D01*
X208558235Y-105851428D01*
X209022521Y-106237142D02*
X209022521Y-105337142D01*
X209451092Y-106237142D01*
X209451092Y-105337142D01*
X209808235Y-106237142D02*
X209808235Y-105337142D01*
X209986807Y-105337142D01*
X210093950Y-105380000D01*
X210165378Y-105465714D01*
X210201092Y-105551428D01*
X210236807Y-105722857D01*
X210236807Y-105851428D01*
X210201092Y-106022857D01*
X210165378Y-106108571D01*
X210093950Y-106194285D01*
X209986807Y-106237142D01*
X209808235Y-106237142D01*
D14*
%TO.C,C9*%
X105428061Y-104216500D02*
X105387252Y-104265500D01*
X105264823Y-104314500D01*
X105183204Y-104314500D01*
X105060776Y-104265500D01*
X104979157Y-104167500D01*
X104938347Y-104069500D01*
X104897538Y-103873500D01*
X104897538Y-103726500D01*
X104938347Y-103530500D01*
X104979157Y-103432500D01*
X105060776Y-103334500D01*
X105183204Y-103285500D01*
X105264823Y-103285500D01*
X105387252Y-103334500D01*
X105428061Y-103383500D01*
X105836157Y-104314500D02*
X105999395Y-104314500D01*
X106081014Y-104265500D01*
X106121823Y-104216500D01*
X106203442Y-104069500D01*
X106244252Y-103873500D01*
X106244252Y-103481500D01*
X106203442Y-103383500D01*
X106162633Y-103334500D01*
X106081014Y-103285500D01*
X105917776Y-103285500D01*
X105836157Y-103334500D01*
X105795347Y-103383500D01*
X105754538Y-103481500D01*
X105754538Y-103726500D01*
X105795347Y-103824500D01*
X105836157Y-103873500D01*
X105917776Y-103922500D01*
X106081014Y-103922500D01*
X106162633Y-103873500D01*
X106203442Y-103824500D01*
X106244252Y-103726500D01*
%TO.C,H4*%
X143158347Y-83564500D02*
X143158347Y-82535500D01*
X143158347Y-83025500D02*
X143648061Y-83025500D01*
X143648061Y-83564500D02*
X143648061Y-82535500D01*
X144423442Y-82878500D02*
X144423442Y-83564500D01*
X144219395Y-82486500D02*
X144015347Y-83221500D01*
X144545871Y-83221500D01*
%TO.C,U4*%
X136812500Y-106943652D02*
X137645500Y-106943652D01*
X137743500Y-106902842D01*
X137792500Y-106862033D01*
X137841500Y-106780414D01*
X137841500Y-106617176D01*
X137792500Y-106535557D01*
X137743500Y-106494747D01*
X137645500Y-106453938D01*
X136812500Y-106453938D01*
X137155500Y-105678557D02*
X137841500Y-105678557D01*
X136763500Y-105882604D02*
X137498500Y-106086652D01*
X137498500Y-105556128D01*
%TO.C,P1*%
X111168347Y-90844500D02*
X111168347Y-89815500D01*
X111494823Y-89815500D01*
X111576442Y-89864500D01*
X111617252Y-89913500D01*
X111658061Y-90011500D01*
X111658061Y-90158500D01*
X111617252Y-90256500D01*
X111576442Y-90305500D01*
X111494823Y-90354500D01*
X111168347Y-90354500D01*
X112474252Y-90844500D02*
X111984538Y-90844500D01*
X112229395Y-90844500D02*
X112229395Y-89815500D01*
X112147776Y-89962500D01*
X112066157Y-90060500D01*
X111984538Y-90109500D01*
%TO.C,R5*%
X117220500Y-109525938D02*
X116730500Y-109811604D01*
X117220500Y-110015652D02*
X116191500Y-110015652D01*
X116191500Y-109689176D01*
X116240500Y-109607557D01*
X116289500Y-109566747D01*
X116387500Y-109525938D01*
X116534500Y-109525938D01*
X116632500Y-109566747D01*
X116681500Y-109607557D01*
X116730500Y-109689176D01*
X116730500Y-110015652D01*
X116191500Y-108750557D02*
X116191500Y-109158652D01*
X116681500Y-109199461D01*
X116632500Y-109158652D01*
X116583500Y-109077033D01*
X116583500Y-108872985D01*
X116632500Y-108791366D01*
X116681500Y-108750557D01*
X116779500Y-108709747D01*
X117024500Y-108709747D01*
X117122500Y-108750557D01*
X117171500Y-108791366D01*
X117220500Y-108872985D01*
X117220500Y-109077033D01*
X117171500Y-109158652D01*
X117122500Y-109199461D01*
%TO.C,C2*%
X134258061Y-95986500D02*
X134217252Y-96035500D01*
X134094823Y-96084500D01*
X134013204Y-96084500D01*
X133890776Y-96035500D01*
X133809157Y-95937500D01*
X133768347Y-95839500D01*
X133727538Y-95643500D01*
X133727538Y-95496500D01*
X133768347Y-95300500D01*
X133809157Y-95202500D01*
X133890776Y-95104500D01*
X134013204Y-95055500D01*
X134094823Y-95055500D01*
X134217252Y-95104500D01*
X134258061Y-95153500D01*
X134584538Y-95153500D02*
X134625347Y-95104500D01*
X134706966Y-95055500D01*
X134911014Y-95055500D01*
X134992633Y-95104500D01*
X135033442Y-95153500D01*
X135074252Y-95251500D01*
X135074252Y-95349500D01*
X135033442Y-95496500D01*
X134543728Y-96084500D01*
X135074252Y-96084500D01*
%TO.C,C3*%
X98779061Y-94767500D02*
X98738252Y-94816500D01*
X98615823Y-94865500D01*
X98534204Y-94865500D01*
X98411776Y-94816500D01*
X98330157Y-94718500D01*
X98289347Y-94620500D01*
X98248538Y-94424500D01*
X98248538Y-94277500D01*
X98289347Y-94081500D01*
X98330157Y-93983500D01*
X98411776Y-93885500D01*
X98534204Y-93836500D01*
X98615823Y-93836500D01*
X98738252Y-93885500D01*
X98779061Y-93934500D01*
X99064728Y-93836500D02*
X99595252Y-93836500D01*
X99309585Y-94228500D01*
X99432014Y-94228500D01*
X99513633Y-94277500D01*
X99554442Y-94326500D01*
X99595252Y-94424500D01*
X99595252Y-94669500D01*
X99554442Y-94767500D01*
X99513633Y-94816500D01*
X99432014Y-94865500D01*
X99187157Y-94865500D01*
X99105538Y-94816500D01*
X99064728Y-94767500D01*
%TO.C,C5*%
X86174061Y-93813500D02*
X86133252Y-93862500D01*
X86010823Y-93911500D01*
X85929204Y-93911500D01*
X85806776Y-93862500D01*
X85725157Y-93764500D01*
X85684347Y-93666500D01*
X85643538Y-93470500D01*
X85643538Y-93323500D01*
X85684347Y-93127500D01*
X85725157Y-93029500D01*
X85806776Y-92931500D01*
X85929204Y-92882500D01*
X86010823Y-92882500D01*
X86133252Y-92931500D01*
X86174061Y-92980500D01*
X86949442Y-92882500D02*
X86541347Y-92882500D01*
X86500538Y-93372500D01*
X86541347Y-93323500D01*
X86622966Y-93274500D01*
X86827014Y-93274500D01*
X86908633Y-93323500D01*
X86949442Y-93372500D01*
X86990252Y-93470500D01*
X86990252Y-93715500D01*
X86949442Y-93813500D01*
X86908633Y-93862500D01*
X86827014Y-93911500D01*
X86622966Y-93911500D01*
X86541347Y-93862500D01*
X86500538Y-93813500D01*
%TO.C,H6*%
X200308347Y-114074500D02*
X200308347Y-113045500D01*
X200308347Y-113535500D02*
X200798061Y-113535500D01*
X200798061Y-114074500D02*
X200798061Y-113045500D01*
X201573442Y-113045500D02*
X201410204Y-113045500D01*
X201328585Y-113094500D01*
X201287776Y-113143500D01*
X201206157Y-113290500D01*
X201165347Y-113486500D01*
X201165347Y-113878500D01*
X201206157Y-113976500D01*
X201246966Y-114025500D01*
X201328585Y-114074500D01*
X201491823Y-114074500D01*
X201573442Y-114025500D01*
X201614252Y-113976500D01*
X201655061Y-113878500D01*
X201655061Y-113633500D01*
X201614252Y-113535500D01*
X201573442Y-113486500D01*
X201491823Y-113437500D01*
X201328585Y-113437500D01*
X201246966Y-113486500D01*
X201206157Y-113535500D01*
X201165347Y-113633500D01*
%TO.C,C10*%
X98779061Y-98704500D02*
X98738252Y-98753500D01*
X98615823Y-98802500D01*
X98534204Y-98802500D01*
X98411776Y-98753500D01*
X98330157Y-98655500D01*
X98289347Y-98557500D01*
X98248538Y-98361500D01*
X98248538Y-98214500D01*
X98289347Y-98018500D01*
X98330157Y-97920500D01*
X98411776Y-97822500D01*
X98534204Y-97773500D01*
X98615823Y-97773500D01*
X98738252Y-97822500D01*
X98779061Y-97871500D01*
X99595252Y-98802500D02*
X99105538Y-98802500D01*
X99350395Y-98802500D02*
X99350395Y-97773500D01*
X99268776Y-97920500D01*
X99187157Y-98018500D01*
X99105538Y-98067500D01*
X100125776Y-97773500D02*
X100207395Y-97773500D01*
X100289014Y-97822500D01*
X100329823Y-97871500D01*
X100370633Y-97969500D01*
X100411442Y-98165500D01*
X100411442Y-98410500D01*
X100370633Y-98606500D01*
X100329823Y-98704500D01*
X100289014Y-98753500D01*
X100207395Y-98802500D01*
X100125776Y-98802500D01*
X100044157Y-98753500D01*
X100003347Y-98704500D01*
X99962538Y-98606500D01*
X99921728Y-98410500D01*
X99921728Y-98165500D01*
X99962538Y-97969500D01*
X100003347Y-97871500D01*
X100044157Y-97822500D01*
X100125776Y-97773500D01*
%TO.C,H8*%
X207965500Y-96910652D02*
X206936500Y-96910652D01*
X207426500Y-96910652D02*
X207426500Y-96420938D01*
X207965500Y-96420938D02*
X206936500Y-96420938D01*
X207377500Y-95890414D02*
X207328500Y-95972033D01*
X207279500Y-96012842D01*
X207181500Y-96053652D01*
X207132500Y-96053652D01*
X207034500Y-96012842D01*
X206985500Y-95972033D01*
X206936500Y-95890414D01*
X206936500Y-95727176D01*
X206985500Y-95645557D01*
X207034500Y-95604747D01*
X207132500Y-95563938D01*
X207181500Y-95563938D01*
X207279500Y-95604747D01*
X207328500Y-95645557D01*
X207377500Y-95727176D01*
X207377500Y-95890414D01*
X207426500Y-95972033D01*
X207475500Y-96012842D01*
X207573500Y-96053652D01*
X207769500Y-96053652D01*
X207867500Y-96012842D01*
X207916500Y-95972033D01*
X207965500Y-95890414D01*
X207965500Y-95727176D01*
X207916500Y-95645557D01*
X207867500Y-95604747D01*
X207769500Y-95563938D01*
X207573500Y-95563938D01*
X207475500Y-95604747D01*
X207426500Y-95645557D01*
X207377500Y-95727176D01*
%TO.C,U5*%
X195838347Y-106815500D02*
X195838347Y-107648500D01*
X195879157Y-107746500D01*
X195919966Y-107795500D01*
X196001585Y-107844500D01*
X196164823Y-107844500D01*
X196246442Y-107795500D01*
X196287252Y-107746500D01*
X196328061Y-107648500D01*
X196328061Y-106815500D01*
X197144252Y-106815500D02*
X196736157Y-106815500D01*
X196695347Y-107305500D01*
X196736157Y-107256500D01*
X196817776Y-107207500D01*
X197021823Y-107207500D01*
X197103442Y-107256500D01*
X197144252Y-107305500D01*
X197185061Y-107403500D01*
X197185061Y-107648500D01*
X197144252Y-107746500D01*
X197103442Y-107795500D01*
X197021823Y-107844500D01*
X196817776Y-107844500D01*
X196736157Y-107795500D01*
X196695347Y-107746500D01*
%TO.C,U3*%
X82922347Y-92185500D02*
X82922347Y-93018500D01*
X82963157Y-93116500D01*
X83003966Y-93165500D01*
X83085585Y-93214500D01*
X83248823Y-93214500D01*
X83330442Y-93165500D01*
X83371252Y-93116500D01*
X83412061Y-93018500D01*
X83412061Y-92185500D01*
X83738538Y-92185500D02*
X84269061Y-92185500D01*
X83983395Y-92577500D01*
X84105823Y-92577500D01*
X84187442Y-92626500D01*
X84228252Y-92675500D01*
X84269061Y-92773500D01*
X84269061Y-93018500D01*
X84228252Y-93116500D01*
X84187442Y-93165500D01*
X84105823Y-93214500D01*
X83860966Y-93214500D01*
X83779347Y-93165500D01*
X83738538Y-93116500D01*
%TO.C,R11*%
X87486061Y-90727500D02*
X87200395Y-90237500D01*
X86996347Y-90727500D02*
X86996347Y-89698500D01*
X87322823Y-89698500D01*
X87404442Y-89747500D01*
X87445252Y-89796500D01*
X87486061Y-89894500D01*
X87486061Y-90041500D01*
X87445252Y-90139500D01*
X87404442Y-90188500D01*
X87322823Y-90237500D01*
X86996347Y-90237500D01*
X88302252Y-90727500D02*
X87812538Y-90727500D01*
X88057395Y-90727500D02*
X88057395Y-89698500D01*
X87975776Y-89845500D01*
X87894157Y-89943500D01*
X87812538Y-89992500D01*
X89118442Y-90727500D02*
X88628728Y-90727500D01*
X88873585Y-90727500D02*
X88873585Y-89698500D01*
X88791966Y-89845500D01*
X88710347Y-89943500D01*
X88628728Y-89992500D01*
%TO.C,X2*%
X123201728Y-96686500D02*
X123773061Y-97715500D01*
X123773061Y-96686500D02*
X123201728Y-97715500D01*
X124058728Y-96784500D02*
X124099538Y-96735500D01*
X124181157Y-96686500D01*
X124385204Y-96686500D01*
X124466823Y-96735500D01*
X124507633Y-96784500D01*
X124548442Y-96882500D01*
X124548442Y-96980500D01*
X124507633Y-97127500D01*
X124017919Y-97715500D01*
X124548442Y-97715500D01*
%TO.C,C1*%
X98779061Y-100863500D02*
X98738252Y-100912500D01*
X98615823Y-100961500D01*
X98534204Y-100961500D01*
X98411776Y-100912500D01*
X98330157Y-100814500D01*
X98289347Y-100716500D01*
X98248538Y-100520500D01*
X98248538Y-100373500D01*
X98289347Y-100177500D01*
X98330157Y-100079500D01*
X98411776Y-99981500D01*
X98534204Y-99932500D01*
X98615823Y-99932500D01*
X98738252Y-99981500D01*
X98779061Y-100030500D01*
X99595252Y-100961500D02*
X99105538Y-100961500D01*
X99350395Y-100961500D02*
X99350395Y-99932500D01*
X99268776Y-100079500D01*
X99187157Y-100177500D01*
X99105538Y-100226500D01*
%TO.C,H1*%
X182783347Y-85965500D02*
X182783347Y-84936500D01*
X182783347Y-85426500D02*
X183273061Y-85426500D01*
X183273061Y-85965500D02*
X183273061Y-84936500D01*
X184130061Y-85965500D02*
X183640347Y-85965500D01*
X183885204Y-85965500D02*
X183885204Y-84936500D01*
X183803585Y-85083500D01*
X183721966Y-85181500D01*
X183640347Y-85230500D01*
%TO.C,C8*%
X93162500Y-96105938D02*
X93211500Y-96146747D01*
X93260500Y-96269176D01*
X93260500Y-96350795D01*
X93211500Y-96473223D01*
X93113500Y-96554842D01*
X93015500Y-96595652D01*
X92819500Y-96636461D01*
X92672500Y-96636461D01*
X92476500Y-96595652D01*
X92378500Y-96554842D01*
X92280500Y-96473223D01*
X92231500Y-96350795D01*
X92231500Y-96269176D01*
X92280500Y-96146747D01*
X92329500Y-96105938D01*
X92672500Y-95616223D02*
X92623500Y-95697842D01*
X92574500Y-95738652D01*
X92476500Y-95779461D01*
X92427500Y-95779461D01*
X92329500Y-95738652D01*
X92280500Y-95697842D01*
X92231500Y-95616223D01*
X92231500Y-95452985D01*
X92280500Y-95371366D01*
X92329500Y-95330557D01*
X92427500Y-95289747D01*
X92476500Y-95289747D01*
X92574500Y-95330557D01*
X92623500Y-95371366D01*
X92672500Y-95452985D01*
X92672500Y-95616223D01*
X92721500Y-95697842D01*
X92770500Y-95738652D01*
X92868500Y-95779461D01*
X93064500Y-95779461D01*
X93162500Y-95738652D01*
X93211500Y-95697842D01*
X93260500Y-95616223D01*
X93260500Y-95452985D01*
X93211500Y-95371366D01*
X93162500Y-95330557D01*
X93064500Y-95289747D01*
X92868500Y-95289747D01*
X92770500Y-95330557D01*
X92721500Y-95371366D01*
X92672500Y-95452985D01*
%TO.C,R9*%
X87486061Y-89330500D02*
X87200395Y-88840500D01*
X86996347Y-89330500D02*
X86996347Y-88301500D01*
X87322823Y-88301500D01*
X87404442Y-88350500D01*
X87445252Y-88399500D01*
X87486061Y-88497500D01*
X87486061Y-88644500D01*
X87445252Y-88742500D01*
X87404442Y-88791500D01*
X87322823Y-88840500D01*
X86996347Y-88840500D01*
X87894157Y-89330500D02*
X88057395Y-89330500D01*
X88139014Y-89281500D01*
X88179823Y-89232500D01*
X88261442Y-89085500D01*
X88302252Y-88889500D01*
X88302252Y-88497500D01*
X88261442Y-88399500D01*
X88220633Y-88350500D01*
X88139014Y-88301500D01*
X87975776Y-88301500D01*
X87894157Y-88350500D01*
X87853347Y-88399500D01*
X87812538Y-88497500D01*
X87812538Y-88742500D01*
X87853347Y-88840500D01*
X87894157Y-88889500D01*
X87975776Y-88938500D01*
X88139014Y-88938500D01*
X88220633Y-88889500D01*
X88261442Y-88840500D01*
X88302252Y-88742500D01*
%TO.C,R7*%
X102715500Y-87476938D02*
X102225500Y-87762604D01*
X102715500Y-87966652D02*
X101686500Y-87966652D01*
X101686500Y-87640176D01*
X101735500Y-87558557D01*
X101784500Y-87517747D01*
X101882500Y-87476938D01*
X102029500Y-87476938D01*
X102127500Y-87517747D01*
X102176500Y-87558557D01*
X102225500Y-87640176D01*
X102225500Y-87966652D01*
X101686500Y-87191271D02*
X101686500Y-86619938D01*
X102715500Y-86987223D01*
%TO.C,H2*%
X207033347Y-85965500D02*
X207033347Y-84936500D01*
X207033347Y-85426500D02*
X207523061Y-85426500D01*
X207523061Y-85965500D02*
X207523061Y-84936500D01*
X207890347Y-85034500D02*
X207931157Y-84985500D01*
X208012776Y-84936500D01*
X208216823Y-84936500D01*
X208298442Y-84985500D01*
X208339252Y-85034500D01*
X208380061Y-85132500D01*
X208380061Y-85230500D01*
X208339252Y-85377500D01*
X207849538Y-85965500D01*
X208380061Y-85965500D01*
%TO.C,R8*%
X99965500Y-87476938D02*
X99475500Y-87762604D01*
X99965500Y-87966652D02*
X98936500Y-87966652D01*
X98936500Y-87640176D01*
X98985500Y-87558557D01*
X99034500Y-87517747D01*
X99132500Y-87476938D01*
X99279500Y-87476938D01*
X99377500Y-87517747D01*
X99426500Y-87558557D01*
X99475500Y-87640176D01*
X99475500Y-87966652D01*
X99377500Y-86987223D02*
X99328500Y-87068842D01*
X99279500Y-87109652D01*
X99181500Y-87150461D01*
X99132500Y-87150461D01*
X99034500Y-87109652D01*
X98985500Y-87068842D01*
X98936500Y-86987223D01*
X98936500Y-86823985D01*
X98985500Y-86742366D01*
X99034500Y-86701557D01*
X99132500Y-86660747D01*
X99181500Y-86660747D01*
X99279500Y-86701557D01*
X99328500Y-86742366D01*
X99377500Y-86823985D01*
X99377500Y-86987223D01*
X99426500Y-87068842D01*
X99475500Y-87109652D01*
X99573500Y-87150461D01*
X99769500Y-87150461D01*
X99867500Y-87109652D01*
X99916500Y-87068842D01*
X99965500Y-86987223D01*
X99965500Y-86823985D01*
X99916500Y-86742366D01*
X99867500Y-86701557D01*
X99769500Y-86660747D01*
X99573500Y-86660747D01*
X99475500Y-86701557D01*
X99426500Y-86742366D01*
X99377500Y-86823985D01*
%TO.C,H9*%
X116704347Y-114994500D02*
X116704347Y-113965500D01*
X116704347Y-114455500D02*
X117194061Y-114455500D01*
X117194061Y-114994500D02*
X117194061Y-113965500D01*
X117642966Y-114994500D02*
X117806204Y-114994500D01*
X117887823Y-114945500D01*
X117928633Y-114896500D01*
X118010252Y-114749500D01*
X118051061Y-114553500D01*
X118051061Y-114161500D01*
X118010252Y-114063500D01*
X117969442Y-114014500D01*
X117887823Y-113965500D01*
X117724585Y-113965500D01*
X117642966Y-114014500D01*
X117602157Y-114063500D01*
X117561347Y-114161500D01*
X117561347Y-114406500D01*
X117602157Y-114504500D01*
X117642966Y-114553500D01*
X117724585Y-114602500D01*
X117887823Y-114602500D01*
X117969442Y-114553500D01*
X118010252Y-114504500D01*
X118051061Y-114406500D01*
%TO.C,C11*%
X98779061Y-96799500D02*
X98738252Y-96848500D01*
X98615823Y-96897500D01*
X98534204Y-96897500D01*
X98411776Y-96848500D01*
X98330157Y-96750500D01*
X98289347Y-96652500D01*
X98248538Y-96456500D01*
X98248538Y-96309500D01*
X98289347Y-96113500D01*
X98330157Y-96015500D01*
X98411776Y-95917500D01*
X98534204Y-95868500D01*
X98615823Y-95868500D01*
X98738252Y-95917500D01*
X98779061Y-95966500D01*
X99595252Y-96897500D02*
X99105538Y-96897500D01*
X99350395Y-96897500D02*
X99350395Y-95868500D01*
X99268776Y-96015500D01*
X99187157Y-96113500D01*
X99105538Y-96162500D01*
X100411442Y-96897500D02*
X99921728Y-96897500D01*
X100166585Y-96897500D02*
X100166585Y-95868500D01*
X100084966Y-96015500D01*
X100003347Y-96113500D01*
X99921728Y-96162500D01*
%TO.C,P2*%
X94283347Y-86965500D02*
X94283347Y-85936500D01*
X94609823Y-85936500D01*
X94691442Y-85985500D01*
X94732252Y-86034500D01*
X94773061Y-86132500D01*
X94773061Y-86279500D01*
X94732252Y-86377500D01*
X94691442Y-86426500D01*
X94609823Y-86475500D01*
X94283347Y-86475500D01*
X95099538Y-86034500D02*
X95140347Y-85985500D01*
X95221966Y-85936500D01*
X95426014Y-85936500D01*
X95507633Y-85985500D01*
X95548442Y-86034500D01*
X95589252Y-86132500D01*
X95589252Y-86230500D01*
X95548442Y-86377500D01*
X95058728Y-86965500D01*
X95589252Y-86965500D01*
%TO.C,X3*%
X99436500Y-107548271D02*
X100465500Y-106976938D01*
X99436500Y-106976938D02*
X100465500Y-107548271D01*
X99436500Y-106732080D02*
X99436500Y-106201557D01*
X99828500Y-106487223D01*
X99828500Y-106364795D01*
X99877500Y-106283176D01*
X99926500Y-106242366D01*
X100024500Y-106201557D01*
X100269500Y-106201557D01*
X100367500Y-106242366D01*
X100416500Y-106283176D01*
X100465500Y-106364795D01*
X100465500Y-106609652D01*
X100416500Y-106691271D01*
X100367500Y-106732080D01*
%TO.C,D1*%
X80509347Y-82927500D02*
X80509347Y-81898500D01*
X80713395Y-81898500D01*
X80835823Y-81947500D01*
X80917442Y-82045500D01*
X80958252Y-82143500D01*
X80999061Y-82339500D01*
X80999061Y-82486500D01*
X80958252Y-82682500D01*
X80917442Y-82780500D01*
X80835823Y-82878500D01*
X80713395Y-82927500D01*
X80509347Y-82927500D01*
X81815252Y-82927500D02*
X81325538Y-82927500D01*
X81570395Y-82927500D02*
X81570395Y-81898500D01*
X81488776Y-82045500D01*
X81407157Y-82143500D01*
X81325538Y-82192500D01*
%TO.C,C14*%
X124652500Y-105185938D02*
X124701500Y-105226747D01*
X124750500Y-105349176D01*
X124750500Y-105430795D01*
X124701500Y-105553223D01*
X124603500Y-105634842D01*
X124505500Y-105675652D01*
X124309500Y-105716461D01*
X124162500Y-105716461D01*
X123966500Y-105675652D01*
X123868500Y-105634842D01*
X123770500Y-105553223D01*
X123721500Y-105430795D01*
X123721500Y-105349176D01*
X123770500Y-105226747D01*
X123819500Y-105185938D01*
X124750500Y-104369747D02*
X124750500Y-104859461D01*
X124750500Y-104614604D02*
X123721500Y-104614604D01*
X123868500Y-104696223D01*
X123966500Y-104777842D01*
X124015500Y-104859461D01*
X124064500Y-103635176D02*
X124750500Y-103635176D01*
X123672500Y-103839223D02*
X124407500Y-104043271D01*
X124407500Y-103512747D01*
%TO.C,R1*%
X87310500Y-112825938D02*
X86820500Y-113111604D01*
X87310500Y-113315652D02*
X86281500Y-113315652D01*
X86281500Y-112989176D01*
X86330500Y-112907557D01*
X86379500Y-112866747D01*
X86477500Y-112825938D01*
X86624500Y-112825938D01*
X86722500Y-112866747D01*
X86771500Y-112907557D01*
X86820500Y-112989176D01*
X86820500Y-113315652D01*
X87310500Y-112009747D02*
X87310500Y-112499461D01*
X87310500Y-112254604D02*
X86281500Y-112254604D01*
X86428500Y-112336223D01*
X86526500Y-112417842D01*
X86575500Y-112499461D01*
%TO.C,U6*%
X175772347Y-106942500D02*
X175772347Y-107775500D01*
X175813157Y-107873500D01*
X175853966Y-107922500D01*
X175935585Y-107971500D01*
X176098823Y-107971500D01*
X176180442Y-107922500D01*
X176221252Y-107873500D01*
X176262061Y-107775500D01*
X176262061Y-106942500D01*
X177037442Y-106942500D02*
X176874204Y-106942500D01*
X176792585Y-106991500D01*
X176751776Y-107040500D01*
X176670157Y-107187500D01*
X176629347Y-107383500D01*
X176629347Y-107775500D01*
X176670157Y-107873500D01*
X176710966Y-107922500D01*
X176792585Y-107971500D01*
X176955823Y-107971500D01*
X177037442Y-107922500D01*
X177078252Y-107873500D01*
X177119061Y-107775500D01*
X177119061Y-107530500D01*
X177078252Y-107432500D01*
X177037442Y-107383500D01*
X176955823Y-107334500D01*
X176792585Y-107334500D01*
X176710966Y-107383500D01*
X176670157Y-107432500D01*
X176629347Y-107530500D01*
%TO.C,R3*%
X108410500Y-84095938D02*
X107920500Y-84381604D01*
X108410500Y-84585652D02*
X107381500Y-84585652D01*
X107381500Y-84259176D01*
X107430500Y-84177557D01*
X107479500Y-84136747D01*
X107577500Y-84095938D01*
X107724500Y-84095938D01*
X107822500Y-84136747D01*
X107871500Y-84177557D01*
X107920500Y-84259176D01*
X107920500Y-84585652D01*
X107381500Y-83810271D02*
X107381500Y-83279747D01*
X107773500Y-83565414D01*
X107773500Y-83442985D01*
X107822500Y-83361366D01*
X107871500Y-83320557D01*
X107969500Y-83279747D01*
X108214500Y-83279747D01*
X108312500Y-83320557D01*
X108361500Y-83361366D01*
X108410500Y-83442985D01*
X108410500Y-83687842D01*
X108361500Y-83769461D01*
X108312500Y-83810271D01*
%TO.C,H10*%
X144136347Y-115693500D02*
X144136347Y-114664500D01*
X144136347Y-115154500D02*
X144626061Y-115154500D01*
X144626061Y-115693500D02*
X144626061Y-114664500D01*
X145483061Y-115693500D02*
X144993347Y-115693500D01*
X145238204Y-115693500D02*
X145238204Y-114664500D01*
X145156585Y-114811500D01*
X145074966Y-114909500D01*
X144993347Y-114958500D01*
X146013585Y-114664500D02*
X146095204Y-114664500D01*
X146176823Y-114713500D01*
X146217633Y-114762500D01*
X146258442Y-114860500D01*
X146299252Y-115056500D01*
X146299252Y-115301500D01*
X146258442Y-115497500D01*
X146217633Y-115595500D01*
X146176823Y-115644500D01*
X146095204Y-115693500D01*
X146013585Y-115693500D01*
X145931966Y-115644500D01*
X145891157Y-115595500D01*
X145850347Y-115497500D01*
X145809538Y-115301500D01*
X145809538Y-115056500D01*
X145850347Y-114860500D01*
X145891157Y-114762500D01*
X145931966Y-114713500D01*
X146013585Y-114664500D01*
%TO.C,LED3*%
X93147442Y-111494500D02*
X92739347Y-111494500D01*
X92739347Y-110465500D01*
X93433109Y-110955500D02*
X93718776Y-110955500D01*
X93841204Y-111494500D02*
X93433109Y-111494500D01*
X93433109Y-110465500D01*
X93841204Y-110465500D01*
X94208490Y-111494500D02*
X94208490Y-110465500D01*
X94412538Y-110465500D01*
X94534966Y-110514500D01*
X94616585Y-110612500D01*
X94657395Y-110710500D01*
X94698204Y-110906500D01*
X94698204Y-111053500D01*
X94657395Y-111249500D01*
X94616585Y-111347500D01*
X94534966Y-111445500D01*
X94412538Y-111494500D01*
X94208490Y-111494500D01*
X94983871Y-110465500D02*
X95514395Y-110465500D01*
X95228728Y-110857500D01*
X95351157Y-110857500D01*
X95432776Y-110906500D01*
X95473585Y-110955500D01*
X95514395Y-111053500D01*
X95514395Y-111298500D01*
X95473585Y-111396500D01*
X95432776Y-111445500D01*
X95351157Y-111494500D01*
X95106300Y-111494500D01*
X95024680Y-111445500D01*
X94983871Y-111396500D01*
%TO.C,C13*%
X133552500Y-105104938D02*
X133601500Y-105145747D01*
X133650500Y-105268176D01*
X133650500Y-105349795D01*
X133601500Y-105472223D01*
X133503500Y-105553842D01*
X133405500Y-105594652D01*
X133209500Y-105635461D01*
X133062500Y-105635461D01*
X132866500Y-105594652D01*
X132768500Y-105553842D01*
X132670500Y-105472223D01*
X132621500Y-105349795D01*
X132621500Y-105268176D01*
X132670500Y-105145747D01*
X132719500Y-105104938D01*
X133650500Y-104288747D02*
X133650500Y-104778461D01*
X133650500Y-104533604D02*
X132621500Y-104533604D01*
X132768500Y-104615223D01*
X132866500Y-104696842D01*
X132915500Y-104778461D01*
X132621500Y-104003080D02*
X132621500Y-103472557D01*
X133013500Y-103758223D01*
X133013500Y-103635795D01*
X133062500Y-103554176D01*
X133111500Y-103513366D01*
X133209500Y-103472557D01*
X133454500Y-103472557D01*
X133552500Y-103513366D01*
X133601500Y-103554176D01*
X133650500Y-103635795D01*
X133650500Y-103880652D01*
X133601500Y-103962271D01*
X133552500Y-104003080D01*
%TO.C,C7*%
X83742500Y-96105938D02*
X83791500Y-96146747D01*
X83840500Y-96269176D01*
X83840500Y-96350795D01*
X83791500Y-96473223D01*
X83693500Y-96554842D01*
X83595500Y-96595652D01*
X83399500Y-96636461D01*
X83252500Y-96636461D01*
X83056500Y-96595652D01*
X82958500Y-96554842D01*
X82860500Y-96473223D01*
X82811500Y-96350795D01*
X82811500Y-96269176D01*
X82860500Y-96146747D01*
X82909500Y-96105938D01*
X82811500Y-95820271D02*
X82811500Y-95248938D01*
X83840500Y-95616223D01*
%TO.C,U2*%
X136431500Y-90687652D02*
X137264500Y-90687652D01*
X137362500Y-90646842D01*
X137411500Y-90606033D01*
X137460500Y-90524414D01*
X137460500Y-90361176D01*
X137411500Y-90279557D01*
X137362500Y-90238747D01*
X137264500Y-90197938D01*
X136431500Y-90197938D01*
X136529500Y-89830652D02*
X136480500Y-89789842D01*
X136431500Y-89708223D01*
X136431500Y-89504176D01*
X136480500Y-89422557D01*
X136529500Y-89381747D01*
X136627500Y-89340938D01*
X136725500Y-89340938D01*
X136872500Y-89381747D01*
X137460500Y-89871461D01*
X137460500Y-89340938D01*
%TO.C,R10*%
X90840500Y-84005938D02*
X90350500Y-84291604D01*
X90840500Y-84495652D02*
X89811500Y-84495652D01*
X89811500Y-84169176D01*
X89860500Y-84087557D01*
X89909500Y-84046747D01*
X90007500Y-84005938D01*
X90154500Y-84005938D01*
X90252500Y-84046747D01*
X90301500Y-84087557D01*
X90350500Y-84169176D01*
X90350500Y-84495652D01*
X90840500Y-83189747D02*
X90840500Y-83679461D01*
X90840500Y-83434604D02*
X89811500Y-83434604D01*
X89958500Y-83516223D01*
X90056500Y-83597842D01*
X90105500Y-83679461D01*
X89811500Y-82659223D02*
X89811500Y-82577604D01*
X89860500Y-82495985D01*
X89909500Y-82455176D01*
X90007500Y-82414366D01*
X90203500Y-82373557D01*
X90448500Y-82373557D01*
X90644500Y-82414366D01*
X90742500Y-82455176D01*
X90791500Y-82495985D01*
X90840500Y-82577604D01*
X90840500Y-82659223D01*
X90791500Y-82740842D01*
X90742500Y-82781652D01*
X90644500Y-82822461D01*
X90448500Y-82863271D01*
X90203500Y-82863271D01*
X90007500Y-82822461D01*
X89909500Y-82781652D01*
X89860500Y-82740842D01*
X89811500Y-82659223D01*
%TO.C,LED4*%
X122340500Y-113087557D02*
X122340500Y-113495652D01*
X121311500Y-113495652D01*
X121801500Y-112801890D02*
X121801500Y-112516223D01*
X122340500Y-112393795D02*
X122340500Y-112801890D01*
X121311500Y-112801890D01*
X121311500Y-112393795D01*
X122340500Y-112026509D02*
X121311500Y-112026509D01*
X121311500Y-111822461D01*
X121360500Y-111700033D01*
X121458500Y-111618414D01*
X121556500Y-111577604D01*
X121752500Y-111536795D01*
X121899500Y-111536795D01*
X122095500Y-111577604D01*
X122193500Y-111618414D01*
X122291500Y-111700033D01*
X122340500Y-111822461D01*
X122340500Y-112026509D01*
X121654500Y-110802223D02*
X122340500Y-110802223D01*
X121262500Y-111006271D02*
X121997500Y-111210319D01*
X121997500Y-110679795D01*
%TO.C,H7*%
X159533347Y-90715500D02*
X159533347Y-89686500D01*
X159533347Y-90176500D02*
X160023061Y-90176500D01*
X160023061Y-90715500D02*
X160023061Y-89686500D01*
X160349538Y-89686500D02*
X160920871Y-89686500D01*
X160553585Y-90715500D01*
%TO.C,U7*%
X109536902Y-94580188D02*
X110125922Y-95169208D01*
X110224075Y-95209648D01*
X110287580Y-95215439D01*
X110379941Y-95192374D01*
X110495368Y-95076947D01*
X110518433Y-94984586D01*
X110512642Y-94921081D01*
X110472202Y-94822927D01*
X109883182Y-94233908D01*
X110114036Y-94003054D02*
X110518029Y-93599060D01*
X110985932Y-94586383D01*
%TO.C,U8*%
X92378347Y-106485500D02*
X92378347Y-107318500D01*
X92419157Y-107416500D01*
X92459966Y-107465500D01*
X92541585Y-107514500D01*
X92704823Y-107514500D01*
X92786442Y-107465500D01*
X92827252Y-107416500D01*
X92868061Y-107318500D01*
X92868061Y-106485500D01*
X93398585Y-106926500D02*
X93316966Y-106877500D01*
X93276157Y-106828500D01*
X93235347Y-106730500D01*
X93235347Y-106681500D01*
X93276157Y-106583500D01*
X93316966Y-106534500D01*
X93398585Y-106485500D01*
X93561823Y-106485500D01*
X93643442Y-106534500D01*
X93684252Y-106583500D01*
X93725061Y-106681500D01*
X93725061Y-106730500D01*
X93684252Y-106828500D01*
X93643442Y-106877500D01*
X93561823Y-106926500D01*
X93398585Y-106926500D01*
X93316966Y-106975500D01*
X93276157Y-107024500D01*
X93235347Y-107122500D01*
X93235347Y-107318500D01*
X93276157Y-107416500D01*
X93316966Y-107465500D01*
X93398585Y-107514500D01*
X93561823Y-107514500D01*
X93643442Y-107465500D01*
X93684252Y-107416500D01*
X93725061Y-107318500D01*
X93725061Y-107122500D01*
X93684252Y-107024500D01*
X93643442Y-106975500D01*
X93561823Y-106926500D01*
%TO.C,C6*%
X90238061Y-93686500D02*
X90197252Y-93735500D01*
X90074823Y-93784500D01*
X89993204Y-93784500D01*
X89870776Y-93735500D01*
X89789157Y-93637500D01*
X89748347Y-93539500D01*
X89707538Y-93343500D01*
X89707538Y-93196500D01*
X89748347Y-93000500D01*
X89789157Y-92902500D01*
X89870776Y-92804500D01*
X89993204Y-92755500D01*
X90074823Y-92755500D01*
X90197252Y-92804500D01*
X90238061Y-92853500D01*
X90972633Y-92755500D02*
X90809395Y-92755500D01*
X90727776Y-92804500D01*
X90686966Y-92853500D01*
X90605347Y-93000500D01*
X90564538Y-93196500D01*
X90564538Y-93588500D01*
X90605347Y-93686500D01*
X90646157Y-93735500D01*
X90727776Y-93784500D01*
X90891014Y-93784500D01*
X90972633Y-93735500D01*
X91013442Y-93686500D01*
X91054252Y-93588500D01*
X91054252Y-93343500D01*
X91013442Y-93245500D01*
X90972633Y-93196500D01*
X90891014Y-93147500D01*
X90727776Y-93147500D01*
X90646157Y-93196500D01*
X90605347Y-93245500D01*
X90564538Y-93343500D01*
%TO.C,R6*%
X128243061Y-106168500D02*
X127957395Y-105678500D01*
X127753347Y-106168500D02*
X127753347Y-105139500D01*
X128079823Y-105139500D01*
X128161442Y-105188500D01*
X128202252Y-105237500D01*
X128243061Y-105335500D01*
X128243061Y-105482500D01*
X128202252Y-105580500D01*
X128161442Y-105629500D01*
X128079823Y-105678500D01*
X127753347Y-105678500D01*
X128977633Y-105139500D02*
X128814395Y-105139500D01*
X128732776Y-105188500D01*
X128691966Y-105237500D01*
X128610347Y-105384500D01*
X128569538Y-105580500D01*
X128569538Y-105972500D01*
X128610347Y-106070500D01*
X128651157Y-106119500D01*
X128732776Y-106168500D01*
X128896014Y-106168500D01*
X128977633Y-106119500D01*
X129018442Y-106070500D01*
X129059252Y-105972500D01*
X129059252Y-105727500D01*
X129018442Y-105629500D01*
X128977633Y-105580500D01*
X128896014Y-105531500D01*
X128732776Y-105531500D01*
X128651157Y-105580500D01*
X128610347Y-105629500D01*
X128569538Y-105727500D01*
%TO.C,C12*%
X104768061Y-110556500D02*
X104727252Y-110605500D01*
X104604823Y-110654500D01*
X104523204Y-110654500D01*
X104400776Y-110605500D01*
X104319157Y-110507500D01*
X104278347Y-110409500D01*
X104237538Y-110213500D01*
X104237538Y-110066500D01*
X104278347Y-109870500D01*
X104319157Y-109772500D01*
X104400776Y-109674500D01*
X104523204Y-109625500D01*
X104604823Y-109625500D01*
X104727252Y-109674500D01*
X104768061Y-109723500D01*
X105584252Y-110654500D02*
X105094538Y-110654500D01*
X105339395Y-110654500D02*
X105339395Y-109625500D01*
X105257776Y-109772500D01*
X105176157Y-109870500D01*
X105094538Y-109919500D01*
X105910728Y-109723500D02*
X105951538Y-109674500D01*
X106033157Y-109625500D01*
X106237204Y-109625500D01*
X106318823Y-109674500D01*
X106359633Y-109723500D01*
X106400442Y-109821500D01*
X106400442Y-109919500D01*
X106359633Y-110066500D01*
X105869919Y-110654500D01*
X106400442Y-110654500D01*
%TO.C,H3*%
X174798347Y-114024500D02*
X174798347Y-112995500D01*
X174798347Y-113485500D02*
X175288061Y-113485500D01*
X175288061Y-114024500D02*
X175288061Y-112995500D01*
X175614538Y-112995500D02*
X176145061Y-112995500D01*
X175859395Y-113387500D01*
X175981823Y-113387500D01*
X176063442Y-113436500D01*
X176104252Y-113485500D01*
X176145061Y-113583500D01*
X176145061Y-113828500D01*
X176104252Y-113926500D01*
X176063442Y-113975500D01*
X175981823Y-114024500D01*
X175736966Y-114024500D01*
X175655347Y-113975500D01*
X175614538Y-113926500D01*
%TO.C,R4*%
X115620500Y-84095938D02*
X115130500Y-84381604D01*
X115620500Y-84585652D02*
X114591500Y-84585652D01*
X114591500Y-84259176D01*
X114640500Y-84177557D01*
X114689500Y-84136747D01*
X114787500Y-84095938D01*
X114934500Y-84095938D01*
X115032500Y-84136747D01*
X115081500Y-84177557D01*
X115130500Y-84259176D01*
X115130500Y-84585652D01*
X114934500Y-83361366D02*
X115620500Y-83361366D01*
X114542500Y-83565414D02*
X115277500Y-83769461D01*
X115277500Y-83238938D01*
%TO.C,SW1*%
X125147538Y-89225500D02*
X125269966Y-89274500D01*
X125474014Y-89274500D01*
X125555633Y-89225500D01*
X125596442Y-89176500D01*
X125637252Y-89078500D01*
X125637252Y-88980500D01*
X125596442Y-88882500D01*
X125555633Y-88833500D01*
X125474014Y-88784500D01*
X125310776Y-88735500D01*
X125229157Y-88686500D01*
X125188347Y-88637500D01*
X125147538Y-88539500D01*
X125147538Y-88441500D01*
X125188347Y-88343500D01*
X125229157Y-88294500D01*
X125310776Y-88245500D01*
X125514823Y-88245500D01*
X125637252Y-88294500D01*
X125922919Y-88245500D02*
X126126966Y-89274500D01*
X126290204Y-88539500D01*
X126453442Y-89274500D01*
X126657490Y-88245500D01*
X127432871Y-89274500D02*
X126943157Y-89274500D01*
X127188014Y-89274500D02*
X127188014Y-88245500D01*
X127106395Y-88392500D01*
X127024776Y-88490500D01*
X126943157Y-88539500D01*
%TO.C,H5*%
X119918347Y-85754500D02*
X119918347Y-84725500D01*
X119918347Y-85215500D02*
X120408061Y-85215500D01*
X120408061Y-85754500D02*
X120408061Y-84725500D01*
X121224252Y-84725500D02*
X120816157Y-84725500D01*
X120775347Y-85215500D01*
X120816157Y-85166500D01*
X120897776Y-85117500D01*
X121101823Y-85117500D01*
X121183442Y-85166500D01*
X121224252Y-85215500D01*
X121265061Y-85313500D01*
X121265061Y-85558500D01*
X121224252Y-85656500D01*
X121183442Y-85705500D01*
X121101823Y-85754500D01*
X120897776Y-85754500D01*
X120816157Y-85705500D01*
X120775347Y-85656500D01*
%TO.C,C4*%
X98906061Y-92608500D02*
X98865252Y-92657500D01*
X98742823Y-92706500D01*
X98661204Y-92706500D01*
X98538776Y-92657500D01*
X98457157Y-92559500D01*
X98416347Y-92461500D01*
X98375538Y-92265500D01*
X98375538Y-92118500D01*
X98416347Y-91922500D01*
X98457157Y-91824500D01*
X98538776Y-91726500D01*
X98661204Y-91677500D01*
X98742823Y-91677500D01*
X98865252Y-91726500D01*
X98906061Y-91775500D01*
X99640633Y-92020500D02*
X99640633Y-92706500D01*
X99436585Y-91628500D02*
X99232538Y-92363500D01*
X99763061Y-92363500D01*
%TO.C,R2*%
X134438061Y-91504500D02*
X134152395Y-91014500D01*
X133948347Y-91504500D02*
X133948347Y-90475500D01*
X134274823Y-90475500D01*
X134356442Y-90524500D01*
X134397252Y-90573500D01*
X134438061Y-90671500D01*
X134438061Y-90818500D01*
X134397252Y-90916500D01*
X134356442Y-90965500D01*
X134274823Y-91014500D01*
X133948347Y-91014500D01*
X134764538Y-90573500D02*
X134805347Y-90524500D01*
X134886966Y-90475500D01*
X135091014Y-90475500D01*
X135172633Y-90524500D01*
X135213442Y-90573500D01*
X135254252Y-90671500D01*
X135254252Y-90769500D01*
X135213442Y-90916500D01*
X134723728Y-91504500D01*
X135254252Y-91504500D01*
D15*
%TO.C,C9*%
X105328000Y-105832000D02*
X105670000Y-105832000D01*
X105328000Y-104812000D02*
X105670000Y-104812000D01*
D16*
%TO.C,H4*%
X142329000Y-84367000D02*
X140424000Y-84367000D01*
X122009000Y-84367000D02*
X122009000Y-81827000D01*
X122009000Y-81827000D02*
X142329000Y-81827000D01*
X142329000Y-81827000D02*
X142329000Y-84367000D01*
X122009000Y-84367000D02*
X140424000Y-84367000D01*
D17*
%TO.C,U4*%
X158044000Y-103138000D02*
X138044000Y-103138000D01*
X138044000Y-109538000D02*
X138044000Y-107338000D01*
X158044000Y-109538000D02*
X138044000Y-109538000D01*
X138044000Y-105340000D02*
X138044000Y-103140000D01*
X158044000Y-109538000D02*
X158044000Y-103138000D01*
X138094000Y-107338000D02*
G75*
G03*
X138044000Y-105338000I-25000J1000000D01*
G01*
D16*
%TO.C,P1*%
X114008000Y-89447000D02*
X108928000Y-89447000D01*
X108928000Y-89447000D02*
X108928000Y-81827000D01*
X111468000Y-81827000D02*
X111468000Y-89447000D01*
X114008000Y-81827000D02*
X114008000Y-89447000D01*
X108928000Y-81827000D02*
X114008000Y-81827000D01*
D15*
%TO.C,R5*%
X117689000Y-110192000D02*
X117689000Y-109850000D01*
X118709000Y-110192000D02*
X118709000Y-109850000D01*
%TO.C,C2*%
X134626000Y-94529000D02*
X134284000Y-94529000D01*
X134626000Y-93509000D02*
X134284000Y-93509000D01*
%TO.C,C3*%
X96526000Y-94275000D02*
X96184000Y-94275000D01*
X96526000Y-93255000D02*
X96184000Y-93255000D01*
D18*
%TO.C,C5*%
X84519000Y-102376000D02*
X87795000Y-102376000D01*
D17*
X87846000Y-102020000D02*
X84519000Y-102020000D01*
X84519000Y-94375000D02*
X87897000Y-94375000D01*
X84519000Y-102020000D02*
X84519000Y-98934000D01*
X87846000Y-98934000D02*
X87846000Y-102020000D01*
X87897000Y-94375000D02*
X87897000Y-97753000D01*
X84519000Y-97753000D02*
X84519000Y-94375000D01*
D16*
%TO.C,H6*%
X202019000Y-112205000D02*
X207099000Y-112205000D01*
X209639000Y-114720000D02*
X202019000Y-114720000D01*
X207099000Y-112205000D02*
X209639000Y-112205000D01*
X209639000Y-112205000D02*
X209639000Y-114720000D01*
X202019000Y-114720000D02*
X202019000Y-112205000D01*
D15*
%TO.C,C10*%
X96526000Y-97319000D02*
X96184000Y-97319000D01*
X96526000Y-98339000D02*
X96184000Y-98339000D01*
D16*
%TO.C,H8*%
X210782000Y-88431000D02*
X208242000Y-88431000D01*
X208242000Y-103671000D02*
X210782000Y-103671000D01*
X208242000Y-88431000D02*
X208242000Y-101766000D01*
X210782000Y-103671000D02*
X210782000Y-88431000D01*
X208242000Y-101766000D02*
X208242000Y-103671000D01*
D17*
%TO.C,U5*%
X199631000Y-86178000D02*
X193231000Y-86178000D01*
X193231000Y-86178000D02*
X193231000Y-106178000D01*
X199631000Y-86178000D02*
X199631000Y-106178000D01*
X195433000Y-106178000D02*
X193233000Y-106178000D01*
X199631000Y-106178000D02*
X197431000Y-106178000D01*
X197431000Y-106128000D02*
G75*
G03*
X195431000Y-106178000I-1000000J-25000D01*
G01*
D16*
%TO.C,U3*%
X82167000Y-85693000D02*
X82367000Y-85894000D01*
X78067000Y-85693000D02*
X82167000Y-85693000D01*
X82367000Y-85894000D02*
X82367000Y-92492000D01*
X82367000Y-92492000D02*
X82167000Y-92693000D01*
X78067000Y-92693000D02*
X82167000Y-92693000D01*
D19*
%TO.C,mouse-bite-1mm-slot-6*%
X162214000Y-96774000D02*
G75*
G03*
X163214000Y-96774000I500000J0D01*
G01*
X163214000Y-99774000D02*
G75*
G03*
X162214000Y-99774000I-500000J0D01*
G01*
D15*
%TO.C,R11*%
X84891000Y-89117000D02*
X85233000Y-89117000D01*
X84891000Y-90137000D02*
X85233000Y-90137000D01*
D17*
%TO.C,X2*%
X136218000Y-97080000D02*
X136218000Y-97830000D01*
X124818000Y-101130000D02*
X124818000Y-101880000D01*
X124818000Y-97080000D02*
X136218000Y-97080000D01*
X124818000Y-101880000D02*
X136218000Y-101880000D01*
X136218000Y-101880000D02*
X136218000Y-101130000D01*
X124818000Y-97830000D02*
X124818000Y-97080000D01*
D15*
%TO.C,C1*%
X96526000Y-100371000D02*
X96184000Y-100371000D01*
X96526000Y-99351000D02*
X96184000Y-99351000D01*
D16*
%TO.C,H1*%
X164046000Y-82081000D02*
X165951000Y-82081000D01*
X164046000Y-84621000D02*
X164046000Y-82081000D01*
X184366000Y-84621000D02*
X164046000Y-84621000D01*
X184366000Y-82081000D02*
X165951000Y-82081000D01*
X184366000Y-82081000D02*
X184366000Y-84621000D01*
D19*
%TO.C,mouse-bite-1mm-slot-1*%
X162214000Y-112014000D02*
G75*
G03*
X163214000Y-112014000I500000J0D01*
G01*
X163214000Y-115014000D02*
G75*
G03*
X162214000Y-115014000I-500000J0D01*
G01*
D15*
%TO.C,C8*%
X92289000Y-98293000D02*
X92289000Y-98635000D01*
X93309000Y-98293000D02*
X93309000Y-98635000D01*
%TO.C,R9*%
X84891000Y-87847000D02*
X85233000Y-87847000D01*
X84891000Y-88867000D02*
X85233000Y-88867000D01*
D19*
%TO.C,mouse-bite-1mm-slot-11*%
X163214000Y-84534000D02*
G75*
G03*
X162214000Y-84534000I-500000J0D01*
G01*
X162214000Y-81534000D02*
G75*
G03*
X163214000Y-81534000I500000J0D01*
G01*
D15*
%TO.C,R7*%
X100417000Y-87586000D02*
X100417000Y-87244000D01*
X101437000Y-87586000D02*
X101437000Y-87244000D01*
D19*
%TO.C,mouse-bite-1mm-slot-3*%
X163214000Y-108918000D02*
G75*
G03*
X162214000Y-108918000I-500000J0D01*
G01*
X162214000Y-105918000D02*
G75*
G03*
X163214000Y-105918000I500000J0D01*
G01*
D16*
%TO.C,H2*%
X208750000Y-82081000D02*
X190335000Y-82081000D01*
X188430000Y-82081000D02*
X190335000Y-82081000D01*
X208750000Y-82081000D02*
X208750000Y-84621000D01*
X208750000Y-84621000D02*
X188430000Y-84621000D01*
X188430000Y-84621000D02*
X188430000Y-82081000D01*
D15*
%TO.C,R8*%
X98643000Y-87586000D02*
X98643000Y-87244000D01*
X97623000Y-87586000D02*
X97623000Y-87244000D01*
D16*
%TO.C,H9*%
X116040000Y-112688000D02*
X97625000Y-112688000D01*
X95720000Y-115228000D02*
X95720000Y-112688000D01*
X95720000Y-112688000D02*
X97625000Y-112688000D01*
X116040000Y-112688000D02*
X116040000Y-115228000D01*
X116040000Y-115228000D02*
X95720000Y-115228000D01*
D15*
%TO.C,C11*%
X96526000Y-95287000D02*
X96184000Y-95287000D01*
X96526000Y-96307000D02*
X96184000Y-96307000D01*
D16*
%TO.C,P2*%
X104610000Y-85637000D02*
X94450000Y-85637000D01*
X94450000Y-84367000D02*
X104610000Y-84367000D01*
X104610000Y-84367000D02*
X104610000Y-85637000D01*
X94450000Y-85637000D02*
X94450000Y-84367000D01*
D17*
%TO.C,X3*%
X101435000Y-107481000D02*
X101435000Y-106465000D01*
X102959000Y-106465000D02*
X102959000Y-107481000D01*
D19*
%TO.C,mouse-bite-1mm-slot-4*%
X162214000Y-102870000D02*
G75*
G03*
X163214000Y-102870000I500000J0D01*
G01*
X163214000Y-105870000D02*
G75*
G03*
X162214000Y-105870000I-500000J0D01*
G01*
D17*
%TO.C,D1*%
X82426000Y-84728000D02*
X82426000Y-84478000D01*
X82426000Y-82228000D02*
X86424000Y-82228000D01*
D20*
X84044000Y-83478000D02*
X84044000Y-83859000D01*
X83790000Y-83478000D02*
X85060000Y-83478000D01*
D17*
X86424000Y-82478000D02*
X86424000Y-82228000D01*
D20*
X84806000Y-83478000D02*
X84806000Y-83097000D01*
D17*
X86424000Y-84728000D02*
X86424000Y-84478000D01*
X86424000Y-84728000D02*
X82426000Y-84728000D01*
D20*
X84044000Y-83859000D02*
X84806000Y-83478000D01*
D17*
X82426000Y-82478000D02*
X82426000Y-82228000D01*
D20*
X84044000Y-83478000D02*
X84044000Y-83097000D01*
X84806000Y-83478000D02*
X84806000Y-83859000D01*
X84044000Y-83097000D02*
X84806000Y-83478000D01*
D17*
X85281000Y-82233000D02*
X85281000Y-84723000D01*
D15*
%TO.C,C14*%
X125055000Y-104858000D02*
X125055000Y-104516000D01*
X126075000Y-104858000D02*
X126075000Y-104516000D01*
%TO.C,R1*%
X89376000Y-112193000D02*
X89034000Y-112193000D01*
X89376000Y-113213000D02*
X89034000Y-113213000D01*
D17*
%TO.C,U6*%
X175240000Y-106178000D02*
X173040000Y-106178000D01*
X179438000Y-106178000D02*
X177238000Y-106178000D01*
X179438000Y-86178000D02*
X173038000Y-86178000D01*
X179438000Y-86178000D02*
X179438000Y-106178000D01*
X173038000Y-86178000D02*
X173038000Y-106178000D01*
X177238000Y-106128000D02*
G75*
G03*
X175238000Y-106178000I-1000000J-25000D01*
G01*
D15*
%TO.C,R3*%
X107402000Y-86697000D02*
X107402000Y-86355000D01*
X108422000Y-86697000D02*
X108422000Y-86355000D01*
D16*
%TO.C,H10*%
X143599000Y-112688000D02*
X143599000Y-115228000D01*
X123279000Y-115228000D02*
X123279000Y-112688000D01*
X143599000Y-115228000D02*
X123279000Y-115228000D01*
X143599000Y-112688000D02*
X125184000Y-112688000D01*
X123279000Y-112688000D02*
X125184000Y-112688000D01*
D19*
%TO.C,mouse-bite-1mm-slot-9*%
X162202000Y-87750000D02*
G75*
G03*
X163202000Y-87750000I500000J0D01*
G01*
X163202000Y-90750000D02*
G75*
G03*
X162202000Y-90750000I-500000J0D01*
G01*
D17*
%TO.C,LED3*%
X92380000Y-111824000D02*
X91211000Y-111824000D01*
X92355000Y-113552000D02*
X91211000Y-113552000D01*
X91211000Y-113552000D02*
X90856000Y-113196000D01*
D16*
X92748000Y-113094000D02*
X92748000Y-112307000D01*
D17*
X94437000Y-113552000D02*
X94437000Y-111824000D01*
D16*
X92748000Y-112696000D02*
X92573000Y-112696000D01*
D17*
X90856000Y-113196000D02*
X90856000Y-112180000D01*
X90856000Y-112180000D02*
X91211000Y-111824000D01*
X94437000Y-113552000D02*
X92964000Y-113552000D01*
X94437000Y-111824000D02*
X92964000Y-111824000D01*
D15*
%TO.C,C13*%
X131917000Y-104858000D02*
X131917000Y-104516000D01*
X130897000Y-104858000D02*
X130897000Y-104516000D01*
%TO.C,C7*%
X82891000Y-98293000D02*
X82891000Y-98635000D01*
X83911000Y-98293000D02*
X83911000Y-98635000D01*
D17*
%TO.C,U2*%
X158044000Y-93282000D02*
X158044000Y-86882000D01*
X138044000Y-89084000D02*
X138044000Y-86884000D01*
X138044000Y-93282000D02*
X138044000Y-91082000D01*
X158044000Y-86882000D02*
X138044000Y-86882000D01*
X158044000Y-93282000D02*
X138044000Y-93282000D01*
X138094000Y-91082000D02*
G75*
G03*
X138044000Y-89082000I-25000J1000000D01*
G01*
D19*
%TO.C,mouse-bite-1mm-slot-10*%
X162214000Y-84582000D02*
G75*
G03*
X163214000Y-84582000I500000J0D01*
G01*
X163214000Y-87582000D02*
G75*
G03*
X162214000Y-87582000I-500000J0D01*
G01*
D15*
%TO.C,R10*%
X88352000Y-84538000D02*
X88352000Y-84196000D01*
X89372000Y-84538000D02*
X89372000Y-84196000D01*
D17*
%TO.C,LED4*%
X120841000Y-110796000D02*
X120841000Y-112269000D01*
X119113000Y-110796000D02*
X119113000Y-112269000D01*
D16*
X120383000Y-112485000D02*
X119596000Y-112485000D01*
D17*
X120841000Y-112878000D02*
X120841000Y-114022000D01*
X119469000Y-114377000D02*
X119113000Y-114022000D01*
X120841000Y-114022000D02*
X120485000Y-114377000D01*
X120485000Y-114377000D02*
X119469000Y-114377000D01*
X119113000Y-112853000D02*
X119113000Y-114022000D01*
X120841000Y-110796000D02*
X119113000Y-110796000D01*
D16*
X119985000Y-112485000D02*
X119985000Y-112660000D01*
%TO.C,H7*%
X161379000Y-90971000D02*
X158839000Y-90971000D01*
X161379000Y-106211000D02*
X161379000Y-92876000D01*
X158839000Y-106211000D02*
X161379000Y-106211000D01*
X158839000Y-90971000D02*
X158839000Y-106211000D01*
X161379000Y-92876000D02*
X161379000Y-90971000D01*
D21*
%TO.C,U7*%
X110487482Y-98404045D02*
X114870130Y-94021397D01*
X114870130Y-94021397D02*
X119575926Y-98727192D01*
X114888515Y-103414603D02*
X110182719Y-98708808D01*
X110182719Y-98708808D02*
X110721534Y-98169992D01*
X119575926Y-98727192D02*
X114888515Y-103414603D01*
D22*
X115370055Y-103986652D02*
G75*
G03*
X115372883Y-103983824I1414J1414D01*
G01*
D17*
X115216492Y-102571732D02*
G75*
G03*
X115216492Y-102571732I-171000J0D01*
G01*
D15*
%TO.C,U8*%
X84927000Y-105427000D02*
X91527000Y-105427000D01*
X84927000Y-109027000D02*
X84927000Y-105427000D01*
X91527000Y-109027000D02*
X84927000Y-109027000D01*
X91527000Y-105427000D02*
X91527000Y-109027000D01*
D19*
%TO.C,mouse-bite-1mm-slot-8*%
X162202000Y-90798000D02*
G75*
G03*
X163202000Y-90798000I500000J0D01*
G01*
X163202000Y-93798000D02*
G75*
G03*
X162202000Y-93798000I-500000J0D01*
G01*
D17*
%TO.C,C6*%
X91656000Y-102020000D02*
X88329000Y-102020000D01*
X88329000Y-94375000D02*
X91707000Y-94375000D01*
X91656000Y-98934000D02*
X91656000Y-102020000D01*
X88329000Y-102020000D02*
X88329000Y-98934000D01*
X91707000Y-94375000D02*
X91707000Y-97753000D01*
X88329000Y-97753000D02*
X88329000Y-94375000D01*
D18*
X88329000Y-102376000D02*
X91605000Y-102376000D01*
D15*
%TO.C,R6*%
X128188000Y-103288000D02*
X128530000Y-103288000D01*
X128188000Y-104308000D02*
X128530000Y-104308000D01*
D19*
%TO.C,mouse-bite-1mm-slot-5*%
X163214000Y-102822000D02*
G75*
G03*
X162214000Y-102822000I-500000J0D01*
G01*
X162214000Y-99822000D02*
G75*
G03*
X163214000Y-99822000I500000J0D01*
G01*
D15*
%TO.C,C12*%
X105328000Y-109007000D02*
X105670000Y-109007000D01*
X105328000Y-107987000D02*
X105670000Y-107987000D01*
D19*
%TO.C,mouse-bite-1mm-slot-2*%
X163214000Y-111966000D02*
G75*
G03*
X162214000Y-111966000I-500000J0D01*
G01*
X162214000Y-108966000D02*
G75*
G03*
X163214000Y-108966000I500000J0D01*
G01*
D16*
%TO.C,H3*%
X196812000Y-112180000D02*
X196812000Y-114720000D01*
X176492000Y-114720000D02*
X176492000Y-112180000D01*
X196812000Y-112180000D02*
X178397000Y-112180000D01*
X176492000Y-112180000D02*
X178397000Y-112180000D01*
X196812000Y-114720000D02*
X176492000Y-114720000D01*
D15*
%TO.C,R4*%
X114641000Y-86697000D02*
X114641000Y-86355000D01*
X115661000Y-86697000D02*
X115661000Y-86355000D01*
D17*
%TO.C,SW1*%
X126746000Y-94141000D02*
X125047000Y-94141000D01*
X126845000Y-90440000D02*
X127747000Y-91342000D01*
X124945000Y-90440000D02*
X126845000Y-90440000D01*
X124145000Y-93239000D02*
X124145000Y-91240000D01*
X127747000Y-91342000D02*
X127747000Y-93140000D01*
X128496000Y-91073000D02*
X128496000Y-93409000D01*
X123396000Y-91073000D02*
X123396000Y-93409000D01*
X125047000Y-94141000D02*
X124145000Y-93239000D01*
X124671000Y-94791000D02*
X127221000Y-94791000D01*
X124671000Y-89691000D02*
X123776000Y-90586000D01*
X124145000Y-91240000D02*
X124945000Y-90440000D01*
X123776000Y-93896000D02*
X124671000Y-94791000D01*
X128116000Y-93896000D02*
X127221000Y-94791000D01*
X124671000Y-89691000D02*
X127221000Y-89691000D01*
X127221000Y-89691000D02*
X128116000Y-90586000D01*
X127747000Y-93140000D02*
X126746000Y-94141000D01*
X127221000Y-92241000D02*
G75*
G03*
X127221000Y-92241000I-1275000J0D01*
G01*
D16*
%TO.C,H5*%
X116167000Y-84469000D02*
X116167000Y-81954000D01*
X121247000Y-81954000D02*
X121247000Y-84469000D01*
X116167000Y-81954000D02*
X121247000Y-81954000D01*
X121247000Y-84469000D02*
X116167000Y-84469000D01*
D15*
%TO.C,C4*%
X96526000Y-92243000D02*
X96184000Y-92243000D01*
X96526000Y-91223000D02*
X96184000Y-91223000D01*
%TO.C,R2*%
X134284000Y-91858000D02*
X134626000Y-91858000D01*
X134284000Y-92878000D02*
X134626000Y-92878000D01*
D19*
%TO.C,mouse-bite-1mm-slot-7*%
X162202000Y-93726000D02*
G75*
G03*
X163202000Y-93726000I500000J0D01*
G01*
X163202000Y-96726000D02*
G75*
G03*
X162202000Y-96726000I-500000J0D01*
G01*
%TD*%
M02*
