%TF.GenerationSoftware,KiCad,Pcbnew,(6.0.4)*%
%TF.CreationDate,2022-05-03T21:15:41-03:00*%
%TF.ProjectId,PXN_2119-rounded,50584e5f-3231-4313-992d-726f756e6465,rev?*%
%TF.SameCoordinates,Original*%
%TF.FileFunction,Soldermask,Bot*%
%TF.FilePolarity,Negative*%
%FSLAX46Y46*%
G04 Gerber Fmt 4.6, Leading zero omitted, Abs format (unit mm)*
G04 Created by KiCad (PCBNEW (6.0.4)) date 2022-05-03 21:15:41*
%MOMM*%
%LPD*%
G01*
G04 APERTURE LIST*
%ADD10R,1.575000X1.575000*%
%ADD11C,1.575000*%
%ADD12R,0.950000X1.050000*%
%ADD13R,1.050000X0.950000*%
%ADD14R,1.600000X1.600000*%
%ADD15C,1.600000*%
%ADD16R,1.524000X1.524000*%
%ADD17C,1.524000*%
%ADD18C,0.500000*%
G04 APERTURE END LIST*
D10*
%TO.C,H4*%
X141059000Y-83097000D03*
D11*
X138519000Y-83097000D03*
X135979000Y-83097000D03*
X133439000Y-83097000D03*
X130899000Y-83097000D03*
X128359000Y-83097000D03*
X125819000Y-83097000D03*
X123279000Y-83097000D03*
%TD*%
D12*
%TO.C,R21*%
X149314000Y-100736000D03*
X149314000Y-98986000D03*
%TD*%
D13*
%TO.C,R37*%
X182094000Y-94908000D03*
X183844000Y-94908000D03*
%TD*%
D12*
%TO.C,R16*%
X144234000Y-95684000D03*
X144234000Y-97434000D03*
%TD*%
D14*
%TO.C,U4*%
X139154000Y-110148000D03*
D15*
X141694000Y-110148000D03*
X144234000Y-110148000D03*
X146774000Y-110148000D03*
X149314000Y-110148000D03*
X151854000Y-110148000D03*
X154394000Y-110148000D03*
X156934000Y-110148000D03*
X156934000Y-102528000D03*
X154394000Y-102528000D03*
X151854000Y-102528000D03*
X149314000Y-102528000D03*
X146774000Y-102528000D03*
X144234000Y-102528000D03*
X141694000Y-102528000D03*
X139154000Y-102528000D03*
%TD*%
D16*
%TO.C,P1*%
X110198000Y-83097000D03*
D17*
X112738000Y-83097000D03*
X110198000Y-85637000D03*
X112738000Y-85637000D03*
X110198000Y-88177000D03*
X112738000Y-88177000D03*
%TD*%
D12*
%TO.C,R26*%
X149314000Y-111940000D03*
X149314000Y-113690000D03*
%TD*%
D10*
%TO.C,H6*%
X203289000Y-113475000D03*
D11*
X205829000Y-113475000D03*
X208369000Y-113475000D03*
%TD*%
D12*
%TO.C,R15*%
X144234000Y-84480000D03*
X144234000Y-82730000D03*
%TD*%
D10*
%TO.C,H8*%
X209512000Y-102401000D03*
D11*
X209512000Y-99861000D03*
X209512000Y-97321000D03*
X209512000Y-94781000D03*
X209512000Y-92241000D03*
X209512000Y-89701000D03*
%TD*%
D12*
%TO.C,R20*%
X151854000Y-100736000D03*
X151854000Y-98986000D03*
%TD*%
D14*
%TO.C,U5*%
X200241000Y-105068000D03*
D15*
X200241000Y-102528000D03*
X200241000Y-99988000D03*
X200241000Y-97448000D03*
X200241000Y-94908000D03*
X200241000Y-92368000D03*
X200241000Y-89828000D03*
X200241000Y-87288000D03*
X192621000Y-87288000D03*
X192621000Y-89828000D03*
X192621000Y-92368000D03*
X192621000Y-94908000D03*
X192621000Y-97448000D03*
X192621000Y-99988000D03*
X192621000Y-102528000D03*
X192621000Y-105068000D03*
%TD*%
D18*
%TO.C,U3*%
X81667000Y-91193000D03*
X81667000Y-87193000D03*
%TD*%
%TO.C,mouse-bite-1mm-slot-6*%
X163737800Y-98024200D03*
X161987800Y-99524200D03*
X161737800Y-98724200D03*
X163487800Y-97224200D03*
X161987800Y-97224200D03*
X163737800Y-98724200D03*
X161737800Y-98024200D03*
X163487800Y-99524200D03*
%TD*%
D12*
%TO.C,R25*%
X146774000Y-111940000D03*
X146774000Y-113690000D03*
%TD*%
D10*
%TO.C,H1*%
X165316000Y-83351000D03*
D11*
X167856000Y-83351000D03*
X170396000Y-83351000D03*
X172936000Y-83351000D03*
X175476000Y-83351000D03*
X178016000Y-83351000D03*
X180556000Y-83351000D03*
X183096000Y-83351000D03*
%TD*%
D18*
%TO.C,mouse-bite-1mm-slot-1*%
X161987800Y-112210200D03*
X163737800Y-113010200D03*
X163487800Y-114510200D03*
X163737800Y-113710200D03*
X163487800Y-112210200D03*
X161737800Y-113710200D03*
X161737800Y-113010200D03*
X161987800Y-114510200D03*
%TD*%
D12*
%TO.C,R22*%
X146774000Y-100736000D03*
X146774000Y-98986000D03*
%TD*%
D13*
%TO.C,R33*%
X190575000Y-97448000D03*
X188825000Y-97448000D03*
%TD*%
D18*
%TO.C,mouse-bite-1mm-slot-11*%
X161989400Y-84539600D03*
X163489400Y-82239600D03*
X161739400Y-83039600D03*
X163739400Y-83039600D03*
X161739400Y-83739600D03*
X163739400Y-83739600D03*
X161989400Y-82239600D03*
X163489400Y-84539600D03*
%TD*%
%TO.C,mouse-bite-1mm-slot-3*%
X161989400Y-106215800D03*
X163739400Y-107015800D03*
X161739400Y-107015800D03*
X163739400Y-107715800D03*
X161739400Y-107715800D03*
X161989400Y-108515800D03*
X163489400Y-108515800D03*
X163489400Y-106215800D03*
%TD*%
D12*
%TO.C,R24*%
X144234000Y-111940000D03*
X144234000Y-113690000D03*
%TD*%
D13*
%TO.C,R28*%
X202287000Y-92368000D03*
X204037000Y-92368000D03*
%TD*%
D10*
%TO.C,H2*%
X189700000Y-83351000D03*
D11*
X192240000Y-83351000D03*
X194780000Y-83351000D03*
X197320000Y-83351000D03*
X199860000Y-83351000D03*
X202400000Y-83351000D03*
X204940000Y-83351000D03*
X207480000Y-83351000D03*
%TD*%
D10*
%TO.C,H9*%
X96990000Y-113958000D03*
D11*
X99530000Y-113958000D03*
X102070000Y-113958000D03*
X104610000Y-113958000D03*
X107150000Y-113958000D03*
X109690000Y-113958000D03*
X112230000Y-113958000D03*
X114770000Y-113958000D03*
%TD*%
D13*
%TO.C,R31*%
X202287000Y-99988000D03*
X204037000Y-99988000D03*
%TD*%
%TO.C,R30*%
X202287000Y-97448000D03*
X204037000Y-97448000D03*
%TD*%
D16*
%TO.C,P2*%
X95720000Y-83097000D03*
D17*
X98260000Y-83097000D03*
X100800000Y-83097000D03*
X103340000Y-83097000D03*
%TD*%
D12*
%TO.C,R12*%
X151854000Y-84480000D03*
X151854000Y-82730000D03*
%TD*%
D18*
%TO.C,mouse-bite-1mm-slot-4*%
X161989400Y-103218600D03*
X161739400Y-104018600D03*
X163739400Y-104718600D03*
X163489400Y-105518600D03*
X161989400Y-105518600D03*
X163739400Y-104018600D03*
X161739400Y-104718600D03*
X163489400Y-103218600D03*
%TD*%
D13*
%TO.C,R32*%
X190575000Y-99988000D03*
X188825000Y-99988000D03*
%TD*%
D12*
%TO.C,R23*%
X144234000Y-100736000D03*
X144234000Y-98986000D03*
%TD*%
%TO.C,R14*%
X146774000Y-84480000D03*
X146774000Y-82730000D03*
%TD*%
D13*
%TO.C,R34*%
X190575000Y-94908000D03*
X188825000Y-94908000D03*
%TD*%
D14*
%TO.C,U6*%
X180048000Y-105068000D03*
D15*
X180048000Y-102528000D03*
X180048000Y-99988000D03*
X180048000Y-97448000D03*
X180048000Y-94908000D03*
X180048000Y-92368000D03*
X180048000Y-89828000D03*
X180048000Y-87288000D03*
X172428000Y-87288000D03*
X172428000Y-89828000D03*
X172428000Y-92368000D03*
X172428000Y-94908000D03*
X172428000Y-97448000D03*
X172428000Y-99988000D03*
X172428000Y-102528000D03*
X172428000Y-105068000D03*
%TD*%
D12*
%TO.C,R19*%
X151854000Y-95684000D03*
X151854000Y-97434000D03*
%TD*%
D10*
%TO.C,H10*%
X124549000Y-113958000D03*
D11*
X127089000Y-113958000D03*
X129629000Y-113958000D03*
X132169000Y-113958000D03*
X134709000Y-113958000D03*
X137249000Y-113958000D03*
X139789000Y-113958000D03*
X142329000Y-113958000D03*
%TD*%
D18*
%TO.C,mouse-bite-1mm-slot-9*%
X161737800Y-89732600D03*
X163737800Y-89032600D03*
X161987800Y-90532600D03*
X161987800Y-88232600D03*
X163737800Y-89732600D03*
X163487800Y-90532600D03*
X161737800Y-89032600D03*
X163487800Y-88232600D03*
%TD*%
D13*
%TO.C,R42*%
X170382000Y-94908000D03*
X168632000Y-94908000D03*
%TD*%
D14*
%TO.C,U2*%
X139154000Y-93892000D03*
D15*
X141694000Y-93892000D03*
X144234000Y-93892000D03*
X146774000Y-93892000D03*
X149314000Y-93892000D03*
X151854000Y-93892000D03*
X154394000Y-93892000D03*
X156934000Y-93892000D03*
X156934000Y-86272000D03*
X154394000Y-86272000D03*
X151854000Y-86272000D03*
X149314000Y-86272000D03*
X146774000Y-86272000D03*
X144234000Y-86272000D03*
X141694000Y-86272000D03*
X139154000Y-86272000D03*
%TD*%
D18*
%TO.C,mouse-bite-1mm-slot-10*%
X163489400Y-87535400D03*
X163739400Y-86035400D03*
X161739400Y-86735400D03*
X163489400Y-85235400D03*
X161739400Y-86035400D03*
X161989400Y-87535400D03*
X161989400Y-85235400D03*
X163739400Y-86735400D03*
%TD*%
D13*
%TO.C,R39*%
X182094000Y-99988000D03*
X183844000Y-99988000D03*
%TD*%
D12*
%TO.C,R27*%
X151854000Y-111940000D03*
X151854000Y-113690000D03*
%TD*%
%TO.C,R18*%
X149314000Y-95684000D03*
X149314000Y-97434000D03*
%TD*%
D13*
%TO.C,R40*%
X170382000Y-99988000D03*
X168632000Y-99988000D03*
%TD*%
D10*
%TO.C,H7*%
X160109000Y-92241000D03*
D11*
X160109000Y-94781000D03*
X160109000Y-97321000D03*
X160109000Y-99861000D03*
X160109000Y-102401000D03*
X160109000Y-104941000D03*
%TD*%
D18*
%TO.C,mouse-bite-1mm-slot-8*%
X163727400Y-92029800D03*
X161727400Y-92029800D03*
X163477400Y-91229800D03*
X161977400Y-91229800D03*
X161977400Y-93529800D03*
X163727400Y-92729800D03*
X163477400Y-93529800D03*
X161727400Y-92729800D03*
%TD*%
D13*
%TO.C,R35*%
X190575000Y-92495000D03*
X188825000Y-92495000D03*
%TD*%
%TO.C,R38*%
X182094000Y-97448000D03*
X183844000Y-97448000D03*
%TD*%
D18*
%TO.C,mouse-bite-1mm-slot-5*%
X163737800Y-101721400D03*
X163487800Y-100221400D03*
X161987800Y-102521400D03*
X163487800Y-102521400D03*
X161737800Y-101721400D03*
X163737800Y-101021400D03*
X161737800Y-101021400D03*
X161987800Y-100221400D03*
%TD*%
%TO.C,mouse-bite-1mm-slot-2*%
X161987800Y-111513000D03*
X163487800Y-111513000D03*
X161987800Y-109213000D03*
X163737800Y-110713000D03*
X163487800Y-109213000D03*
X163737800Y-110013000D03*
X161737800Y-110013000D03*
X161737800Y-110713000D03*
%TD*%
D13*
%TO.C,R29*%
X202287000Y-94908000D03*
X204037000Y-94908000D03*
%TD*%
D12*
%TO.C,R17*%
X146774000Y-95684000D03*
X146774000Y-97434000D03*
%TD*%
D13*
%TO.C,R41*%
X170382000Y-97448000D03*
X168632000Y-97448000D03*
%TD*%
D10*
%TO.C,H3*%
X177762000Y-113450000D03*
D11*
X180302000Y-113450000D03*
X182842000Y-113450000D03*
X185382000Y-113450000D03*
X187922000Y-113450000D03*
X190462000Y-113450000D03*
X193002000Y-113450000D03*
X195542000Y-113450000D03*
%TD*%
D10*
%TO.C,H5*%
X117437000Y-83224000D03*
D11*
X119977000Y-83224000D03*
%TD*%
D13*
%TO.C,R36*%
X182221000Y-92368000D03*
X183971000Y-92368000D03*
%TD*%
%TO.C,R43*%
X170382000Y-92368000D03*
X168632000Y-92368000D03*
%TD*%
D12*
%TO.C,R13*%
X149314000Y-84480000D03*
X149314000Y-82730000D03*
%TD*%
D18*
%TO.C,mouse-bite-1mm-slot-7*%
X161727400Y-95727000D03*
X163477400Y-96527000D03*
X161977400Y-94227000D03*
X161727400Y-95027000D03*
X161977400Y-96527000D03*
X163727400Y-95027000D03*
X163477400Y-94227000D03*
X163727400Y-95727000D03*
%TD*%
M02*
